<?xml version="1.0" encoding="utf-8"?>
<!-- Generator: Adobe Illustrator 24.0.1, SVG Export Plug-In . SVG Version: 6.00 Build 0)  -->
<svg width="496" height="260" version="1.1" id="图层_1" xmlns="http://www.w3.org/2000/svg" xmlns:xlink="http://www.w3.org/1999/xlink" x="0px" y="0px"
	 viewBox="0 0 595.3 311.8" style="enable-background:new 0 0 595.3 311.8;" xml:space="preserve">
<style type="text/css">
	.st0{fill:none;stroke:#FFFFFF;stroke-width:0.5;stroke-linejoin:round;}
	.st1{opacity:0.2;fill:none;stroke:#666666;stroke-miterlimit:6;enable-background:new    ;}
	.st2{fill:none;stroke:#1C2C5A;stroke-width:0.5;stroke-linejoin:round;}
	.st3{fill:none;stroke:#13B1C1;stroke-linejoin:round;}
	.st4{fill:#13B1C1;}
	.st5{font-family:'MicrosoftYaHei';}
	.st6{font-size:10px;}
	.st7{font-size:10px;glyph-orientation-vertical:0;writing-mode:tb;}
	.st8{clip-path:url(#SVGID_2_);}
	.st9{fill:none;stroke:#198AC9;stroke-width:2;stroke-miterlimit:10;}
	.st10{fill:none;stroke:#138F40;stroke-width:2;stroke-miterlimit:10;}
	.st11{fill:none;stroke:#198AC9;stroke-miterlimit:10;}
	.st12{fill:none;stroke:#6FA540;stroke-width:1.2;stroke-miterlimit:10;stroke-dasharray:5,1;}
	.st13{fill:none;stroke:#D8281C;stroke-width:1.4;stroke-linejoin:round;stroke-dasharray:4,1;}
	.st14{fill:none;stroke:#13B1C1;stroke-miterlimit:6;}
	.st15{fill:#FFFFFF;}
	.st16{fill:none;stroke:#13B1C1;stroke-width:0.25;stroke-miterlimit:10;}
	.st17{fill:none;stroke:#6FA540;stroke-width:1.2;stroke-miterlimit:10;}
	.st18{fill:none;stroke:#6FA540;stroke-width:1.2;stroke-miterlimit:10;stroke-dasharray:5.08,1.02;}
	.st19{fill:#323333;}
	.st20{font-family:'AdobeSongStd-Light-GBpc-EUC-H';}
	.st21{font-size:9px;}
	.st22{fill:#198AC9;}
	.st23{fill:#138F40;}
	.st24{font-family:'Arial-BoldMT';}
	.st25{font-size:7px;}
	.st26{fill:#E21E16;}
</style>
<title>父母身高修正的身高百分位数-处理VI</title>
<g>
	<g id="图层_1_1_">
		<polyline class="st0" points="38,278.8 38,13 581.1,13 581.1,278.8 38,278.8 		"/>
		<path class="st1" d="M38,278.8V13 M38,13L38,13 M115.5,278.8V13 M115.5,13L115.5,13 M193.1,278.7V13 M193.1,13L193.1,13
			 M270.7,278.7V13 M270.7,13L270.7,13 M348.3,278.7V13 M348.3,13L348.3,13 M425.9,278.7V13 M425.9,13L425.9,13 M503.5,278.7V13
			 M503.5,13L503.5,13 M581.1,278.7V13 M581.1,13L581.1,13 M38,278.8h543.1 M581.1,278.8L581.1,278.8 M38,256.6h543.1 M581.1,256.6
			L581.1,256.6 M38,234.4h543.1 M581.1,234.4L581.1,234.4 M38,212.3h543.1 M581.1,212.3L581.1,212.3 M38,190.1h543.1 M581.1,190.1
			L581.1,190.1 M38,168h543.1 M581.1,168L581.1,168 M38,145.9h543.1 M581.1,145.9L581.1,145.9 M38,123.7h543.1 M581.1,123.7
			L581.1,123.7 M38,101.6h543.1 M581.1,101.6L581.1,101.6 M38,79.4h543.1 M581.1,79.4L581.1,79.4 M38,57.3h543.1 M581.1,57.3
			L581.1,57.3 M38,35.1h543.1 M581.1,35.1L581.1,35.1 M38,13h543.1 M581.1,13L581.1,13"/>
		<path class="st2" d="M38,13h543.1 M38,278.8h543.1 M581.1,278.8V13 M38,278.8V13 M38,278.7h543.1 M38,278.8V13 M38,278.7v-5.4
			 M38,13v5.4"/>
		<path class="st2" d="M38,278.8h5.4 M581.1,278.8h-5.5"/>
		<path class="st3" d="M53.5,278.8V276 M53.5,13v2.7 M68.9,278.7V276 M69,13v2.7 M84.6,278.7V276 M84.6,13v2.7 M100.1,278.7V276
			 M100.1,13v2.7 M115.6,278.7V276 M115.6,13v2.7 M115.6,278.7V276 M115.6,13v2.7 M115.6,278.7V276 M115.6,13v2.7 M115.6,278.7V276
			 M115.6,13v2.7 M115.6,278.7V276 M115.6,13v2.7 M115.6,278.7v-5.4 M115.5,13v5.4"/>
		<path class="st3" d="M131.1,278.8V276 M131.1,13v2.7 M146.6,278.7V276 M146.6,13v2.7 M162.1,278.7V276 M162.1,13v2.7 M177.6,278.7
			V276 M177.6,13v2.7 M193.1,278.7V276 M193.1,13v2.7 M193.1,278.7V276 M193.1,13v2.7 M193.1,278.7V276 M193.1,13v2.7 M193.1,278.7
			V276 M193.1,13v2.7 M193.1,278.7V276 M193.1,13v2.7 M193.1,278.7v-5.4 M193.1,13v5.4"/>
		<path class="st3" d="M208.6,278.8V276 M208.6,13v2.7 M224.1,278.7V276 M224.1,13v2.7 M239.6,278.7V276 M239.6,13v2.7 M255.2,278.7
			V276 M255.2,13v2.7 M270.7,278.7V276 M270.7,13v2.7 M270.7,278.7V276 M270.7,13v2.7 M270.7,278.7V276 M270.7,13v2.7 M270.7,278.7
			V276 M270.7,13v2.7 M270.7,278.7V276 M270.7,13v2.7 M270.7,278.7v-5.4 M270.7,13v5.4"/>
		<path class="st3" d="M286.2,278.8V276 M286.2,13v2.7 M301.8,278.7V276 M301.8,13v2.7 M317.2,278.7V276 M317.2,13v2.7 M332.8,278.7
			V276 M332.8,13v2.7 M348.3,278.7V276 M348.3,13v2.7 M348.3,278.7V276 M348.3,13v2.7 M348.3,278.7V276 M348.3,13v2.7 M348.3,278.7
			V276 M348.3,13v2.7 M348.3,278.7V276 M348.3,13v2.7 M348.3,278.7v-5.4 M348.3,13v5.4"/>
		<path class="st3" d="M363.8,278.8V276 M363.8,13v2.7 M379.3,278.7V276 M379.3,13v2.7 M394.8,278.7V276 M394.8,13v2.7 M410.3,278.7
			V276 M410.3,13v2.7 M425.9,278.7V276 M425.9,13v2.7 M425.9,278.7V276 M425.9,13v2.7 M425.9,278.7V276 M425.9,13v2.7 M425.9,278.7
			V276 M425.9,13v2.7 M425.9,278.7V276 M425.9,13v2.7 M425.9,278.7v-5.4 M425.9,13v5.4"/>
		<path class="st3" d="M441.4,278.8V276 M441.4,13v2.7 M456.9,278.7V276 M456.9,13v2.7 M472.4,278.7V276 M472.4,13v2.7 M487.9,278.7
			V276 M487.9,13v2.7 M503.5,278.7V276 M503.5,13v2.7 M503.5,278.7V276 M503.5,13v2.7 M503.5,278.7V276 M503.5,13v2.7 M503.5,278.7
			V276 M503.5,13v2.7 M503.5,278.7V276 M503.5,13v2.7 M503.5,278.7v-5.4 M503.5,13v5.4"/>
		<path class="st3" d="M519,278.8V276 M519,13v2.7 M534.5,278.7V276 M534.5,13v2.7 M550,278.7V276 M550,13v2.7 M565.5,278.7V276
			 M565.5,13v2.7 M581.1,278.7V276 M581.1,13v2.7 M581.1,278.7V276 M581.1,13v2.7 M581.1,278.7V276 M581.1,13v2.7 M581.1,278.7V276
			 M581.1,13v2.7 M581.1,278.7V276 M581.1,13v2.7 M581.1,278.7v-5.4 M581.1,13v5.4"/>
		<path class="st3" d="M38,267.6h2.7 M581.1,267.6h-2.7 M38,256.6h2.7 M581.1,256.6h-2.7 M38,256.6h2.7 M581.1,256.6h-2.7 M38,256.6
			h2.7 M581.1,256.6h-2.7 M38,256.6h2.7 M581.1,256.6h-2.7 M38,256.6h2.7 M581.1,256.6h-2.7 M38,256.6h2.7 M581.1,256.6h-2.7
			 M38,256.6h2.7 M581.1,256.6h-2.7 M38,256.6h2.7 M581.1,256.6h-2.7 M38,256.6h5.4 M581.1,256.6h-5.5"/>
		<path class="st3" d="M38,245.5h2.7 M581.1,245.5h-2.7 M38,234.4h2.7 M581.1,234.4h-2.7 M38,234.4h2.7 M581.1,234.4h-2.7 M38,234.4
			h2.7 M581.1,234.4h-2.7 M38,234.4h2.7 M581.1,234.4h-2.7 M38,234.4h2.7 M581.1,234.4h-2.7 M38,234.4h2.7 M581.1,234.4h-2.7
			 M38,234.4h2.7 M581.1,234.4h-2.7 M38,234.4h2.7 M581.1,234.4h-2.7 M38,234.4h5.4 M581.1,234.4h-5.5"/>
		<path class="st3" d="M38,223.4h2.7 M581.1,223.4h-2.7 M38,212.3h2.7 M581.1,212.3h-2.7 M38,212.3h2.7 M581.1,212.3h-2.7 M38,212.3
			h2.7 M581.1,212.3h-2.7 M38,212.3h2.7 M581.1,212.3h-2.7 M38,212.3h2.7 M581.1,212.3h-2.7 M38,212.3h2.7 M581.1,212.3h-2.7
			 M38,212.3h2.7 M581.1,212.3h-2.7 M38,212.3h2.7 M581.1,212.3h-2.7 M38,212.3h5.4 M581.1,212.3h-5.5"/>
		<path class="st3" d="M38,201.2h2.7 M581.1,201.2h-2.7 M38,190.1h2.7 M581.1,190.1h-2.7 M38,190.1h2.7 M581.1,190.1h-2.7 M38,190.1
			h2.7 M581.1,190.1h-2.7 M38,190.1h2.7 M581.1,190.1h-2.7 M38,190.1h2.7 M581.1,190.1h-2.7 M38,190.1h2.7 M581.1,190.1h-2.7
			 M38,190.1h2.7 M581.1,190.1h-2.7 M38,190.1h2.7 M581.1,190.1h-2.7 M38,190.1h5.4 M581.1,190.1h-5.5"/>
		<path class="st3" d="M38,179.1h2.7 M581.1,179.1h-2.7 M38,168h2.7 M581.1,168h-2.7 M38,168h2.7 M581.1,168h-2.7 M38,168h2.7
			 M581.1,168h-2.7 M38,168h2.7 M581.1,168h-2.7 M38,168h2.7 M581.1,168h-2.7 M38,168h2.7 M581.1,168h-2.7 M38,168h2.7 M581.1,168
			h-2.7 M38,168h2.7 M581.1,168h-2.7 M38,168h5.4 M581.1,168h-5.5"/>
		<path class="st3" d="M38,157h2.7 M581.1,157h-2.7 M38,145.9h2.7 M581.1,145.9h-2.7 M38,145.9h2.7 M581.1,145.9h-2.7 M38,145.9h2.7
			 M581.1,145.9h-2.7 M38,145.9h2.7 M581.1,145.9h-2.7 M38,145.9h2.7 M581.1,145.9h-2.7 M38,145.9h2.7 M581.1,145.9h-2.7 M38,145.9
			h2.7 M581.1,145.9h-2.7 M38,145.9h2.7 M581.1,145.9h-2.7 M38,145.9h5.4 M581.1,145.9h-5.5"/>
		<path class="st3" d="M38,134.8h2.7 M581.1,134.8h-2.7 M38,123.7h2.7 M581.1,123.7h-2.7 M38,123.7h2.7 M581.1,123.7h-2.7 M38,123.7
			h2.7 M581.1,123.7h-2.7 M38,123.7h2.7 M581.1,123.7h-2.7 M38,123.7h2.7 M581.1,123.7h-2.7 M38,123.7h2.7 M581.1,123.7h-2.7
			 M38,123.7h2.7 M581.1,123.7h-2.7 M38,123.7h2.7 M581.1,123.7h-2.7 M38,123.7h5.4 M581.1,123.7h-5.5"/>
		<path class="st3" d="M38,112.6h2.7 M581.1,112.6h-2.7 M38,101.6h2.7 M581.1,101.6h-2.7 M38,101.6h2.7 M581.1,101.6h-2.7 M38,101.6
			h2.7 M581.1,101.6h-2.7 M38,101.6h2.7 M581.1,101.6h-2.7 M38,101.6h2.7 M581.1,101.6h-2.7 M38,101.6h2.7 M581.1,101.6h-2.7
			 M38,101.6h2.7 M581.1,101.6h-2.7 M38,101.6h2.7 M581.1,101.6h-2.7 M38,101.6h5.4 M581.1,101.6h-5.5"/>
		<path class="st3" d="M38,90.5h2.7 M581.1,90.5h-2.7 M38,79.4h2.7 M581.1,79.4h-2.7 M38,79.4h2.7 M581.1,79.4h-2.7 M38,79.4h2.7
			 M581.1,79.4h-2.7 M38,79.4h2.7 M581.1,79.4h-2.7 M38,79.4h2.7 M581.1,79.4h-2.7 M38,79.4h2.7 M581.1,79.4h-2.7 M38,79.4h2.7
			 M581.1,79.4h-2.7 M38,79.4h2.7 M581.1,79.4h-2.7 M38,79.4h5.4 M581.1,79.4h-5.5"/>
		<path class="st3" d="M38,68.4h2.7 M581.1,68.4h-2.7 M38,57.3h2.7 M581.1,57.3h-2.7 M38,57.3h2.7 M581.1,57.3h-2.7 M38,57.3h2.7
			 M581.1,57.3h-2.7 M38,57.3h2.7 M581.1,57.3h-2.7 M38,57.3h2.7 M581.1,57.3h-2.7 M38,57.3h2.7 M581.1,57.3h-2.7 M38,57.3h2.7
			 M581.1,57.3h-2.7 M38,57.3h2.7 M581.1,57.3h-2.7 M38,57.3h5.4 M581.1,57.3h-5.5"/>
		<path class="st3" d="M38,46.2h2.7 M581.1,46.2h-2.7 M38,35.1h2.7 M581.1,35.1h-2.7 M38,35.1h2.7 M581.1,35.1h-2.7 M38,35.1h2.7
			 M581.1,35.1h-2.7 M38,35.1h2.7 M581.1,35.1h-2.7 M38,35.1h2.7 M581.1,35.1h-2.7 M38,35.1h2.7 M581.1,35.1h-2.7 M38,35.1h2.7
			 M581.1,35.1h-2.7 M38,35.1h2.7 M581.1,35.1h-2.7 M38,35.1h5.4 M581.1,35.1h-5.5"/>
		<path class="st3" d="M38,24.1h2.7 M581.1,24.1h-2.7 M38,13h2.7 M581.1,13h-2.7 M38,13h2.7 M581.1,13h-2.7 M38,13h2.7 M581.1,13
			h-2.7 M38,13h2.7 M581.1,13h-2.7 M38,13h2.7 M581.1,13h-2.7 M38,13h2.7 M581.1,13h-2.7 M38,13h2.7 M581.1,13h-2.7 M38,13h2.7
			 M581.1,13h-2.7 M38,13h5.4 M581.1,13h-5.5"/>
		<text transform="matrix(1 0 0 1 332.65 303.13)" class="st4 st5 st6">父母身高修正的身高百分位数(男)       父母身高中值(cm)</text>
		<text transform="matrix(1 0 0 1 10 212.44)" class="st4 st5 st7">身高</text>
		<text transform="matrix(6.123234e-17 1 -1 6.123234e-17 6.5 239.42)" class="st4 st5 st6">(SDS)</text>
		<text transform="matrix(1 0 0 1 31.92 288.95)" class="st4 st5 st6">150</text>
		<text transform="matrix(1 0 0 1 106.47 288.95)" class="st4 st5 st6">155</text>
		<text transform="matrix(1 0 0 1 184.06 288.95)" class="st4 st5 st6">160</text>
		<text transform="matrix(1 0 0 1 261.66 288.95)" class="st4 st5 st6">165</text>
		<text transform="matrix(1 0 0 1 339.25 288.95)" class="st4 st5 st6">170</text>
		<text transform="matrix(1 0 0 1 416.85 288.95)" class="st4 st5 st6">175</text>
		<text transform="matrix(1 0 0 1 494.45 288.95)" class="st4 st5 st6">180</text>
		<text transform="matrix(1 0 0 1 572.05 288.95)" class="st4 st5 st6">185</text>
		<text transform="matrix(1 0 0 1 21.69 280.51)" class="st4 st5 st6">−6</text>
		<text transform="matrix(1 0 0 1 21.69 260.37)" class="st4 st5 st6">−5</text>
		<text transform="matrix(1 0 0 1 21.69 238.21)" class="st4 st5 st6">−4</text>
		<text transform="matrix(1 0 0 1 21.69 216.07)" class="st4 st5 st6">−3</text>
		<text transform="matrix(1 0 0 1 21.69 193.91)" class="st4 st5 st6">−2</text>
		<text transform="matrix(1 0 0 1 21.69 171.76)" class="st4 st5 st6">−1</text>
		<text transform="matrix(1 0 0 1 29.1 149.66)" class="st4 st5 st6">0</text>
		<text transform="matrix(1 0 0 1 29.1 127.52)" class="st4 st5 st6">1</text>
		<text transform="matrix(1 0 0 1 29.1 105.36)" class="st4 st5 st6">2</text>
		<text transform="matrix(1 0 0 1 29.1 83.21)" class="st4 st5 st6">3</text>
		<text transform="matrix(1 0 0 1 29.1 61.06)" class="st4 st5 st6">4</text>
		<text transform="matrix(1 0 0 1 29.1 38.91)" class="st4 st5 st6">5</text>
		<text transform="matrix(1 0 0 1 29.1 16.81)" class="st4 st5 st6">6</text>
		<path class="st2" d="M38,13h543.1 M38,278.8h543.1 M581.1,278.8V13 M38,278.8V13"/>
		<g>
			<defs>
				<rect id="SVGID_1_" x="38" y="13" width="543.2" height="265.8"/>
			</defs>
			<clipPath id="SVGID_2_">
				<use xlink:href="#SVGID_1_"  style="overflow:visible;"/>
			</clipPath>
			<g class="st8">
				<line class="st9" x1="38" y1="145.9" x2="581.1" y2="145.9"/>
				<line class="st10" x1="38" y1="184.9" x2="581.1" y2="103.5"/>
				<path class="st11" d="M38,204.6h543.1 M38,191.4h543.1 M38,174.2h543.1 M38,160.8h543.1 M38,131h543.1 M38,117.5h543.1
					 M38,100.4h543.1 M38,87.2h543.1"/>
				<path class="st12" d="M38,243.6l543.1-81.4 M38,230.4L581.1,149 M38,213.3l543.1-81.4 M38,199.8l543.1-81.4"/>
				<line class="st12" x1="38" y1="170" x2="581.1" y2="88.6"/>
				<path class="st12" d="M38,156.5l543.1-81.3 M38,139.4L581.1,58 M38,126.2l543.1-81.4"/>
				<line class="st13" x1="38" y1="262.4" x2="581.1" y2="181"/>
			</g>
		</g>
		<rect x="38" y="13" class="st14" width="543.2" height="265.8"/>
		
			<image style="overflow:visible;opacity:0.25;enable-background:new    ;" width="108" height="36" xlink:href="2E986D165C6B8FF4.png"  transform="matrix(1 0 0 1 52.32 26.1)">
		</image>
		<path class="st15" d="M58.4,58.8c-1.5-0.1-2.6-1.3-2.6-2.8V32.5c-0.1-1.5,1.1-2.8,2.6-2.8h95.6c1.5,0.1,2.6,1.3,2.6,2.8V56
			c0.1,1.5-1.1,2.8-2.6,2.8L58.4,58.8z"/>
		<path class="st16" d="M58.4,58.8c-1.5-0.1-2.6-1.3-2.6-2.8V32.5c-0.1-1.5,1.1-2.8,2.6-2.8h95.6c1.5,0.1,2.6,1.3,2.6,2.8V56
			c0.1,1.5-1.1,2.8-2.6,2.8L58.4,58.8z"/>
		<polyline class="st17" points="63.6,40.1 61.1,40.1 63.6,40.1 		"/>
		<line class="st18" x1="64.6" y1="40.1" x2="88.5" y2="40.1"/>
		<polyline class="st17" points="89,40.1 91.5,40.1 89,40.1 		"/>
		<line class="st18" x1="88" y1="40.1" x2="64.1" y2="40.1"/>
		<text transform="matrix(1 0 0 1 96.18 42.32)" class="st19 st20 st21">修正百分位数</text>
		<text transform="matrix(1 0 0 1 96.18 53.19)" class="st19 st20 st21">身高百分位数</text>
		<polygon class="st22" points="61.1,49.9 61.1,50.2 61.1,50.5 61.1,49.5 91.5,49.5 91.5,50.5 91.5,50.2 91.5,49.9 91.5,50.4 
			61.1,50.4 		"/>
		<rect x="61.1" y="49.5" class="st22" width="30.4" height="1"/>
		<text transform="matrix(1 0 0 1 581.51 43.77)" class="st23 st24 st25">99.6</text>
		<text transform="matrix(1 0 0 1 581.51 58.58)" class="st23 st24 st25">98</text>
		<text transform="matrix(1 0 0 1 581.51 75.95)" class="st23 st24 st25">90</text>
		<text transform="matrix(1 0 0 1 581.51 90.77)" class="st23 st24 st25">75</text>
		<text transform="matrix(1 0 0 1 581.51 105.38)" class="st23 st24 st25">50</text>
		<text transform="matrix(1 0 0 1 581.51 120.86)" class="st23 st24 st25">25</text>
		<text transform="matrix(1 0 0 1 581.51 132.8)" class="st23 st24 st25">10</text>
		<text transform="matrix(1 0 0 1 581.51 150.28)" class="st23 st24 st25">2</text>
		<text transform="matrix(1 0 0 1 581.51 163.74)" class="st23 st24 st25">0.4</text>
		<text transform="matrix(1 0 0 1 581.51 179.1)" class="st26 st24 st25">-3.5</text>
		<text transform="matrix(1 0 0 1 581.51 187.5)" class="st26 st24 st25">SD</text>
	</g>
</g>
</svg>
