<?xml version="1.0" encoding="utf-8"?>
<!-- Generator: Adobe Illustrator 24.0.1, SVG Export Plug-In . SVG Version: 6.00 Build 0)  -->
<svg width="496" height="260" version="1.1" id="图层_1" xmlns="http://www.w3.org/2000/svg" xmlns:xlink="http://www.w3.org/1999/xlink" x="0px" y="0px"
	 viewBox="0 0 595.3 311.8" style="enable-background:new 0 0 595.3 311.8;" xml:space="preserve">
<style type="text/css">
	.st0{fill:#FFFFFF;}
	.st1{fill:none;stroke:#FFFFFF;stroke-width:0.5;stroke-linejoin:round;}
	.st2{opacity:0.2;}
	.st3{opacity:0.6;fill:none;stroke:#666666;stroke-miterlimit:6;enable-background:new    ;}
	.st4{fill:none;stroke:#93328E;stroke-width:0.5;stroke-linejoin:round;}
	.st5{fill:none;stroke:#8F278A;stroke-width:0.5;stroke-linejoin:round;}
	.st6{fill:none;stroke:#13B1C1;stroke-linejoin:round;}
	.st7{fill:none;stroke:#198AC9;stroke-width:2;stroke-miterlimit:10;}
	.st8{fill:none;stroke:#138F40;stroke-width:2;stroke-miterlimit:10;}
	.st9{fill:none;stroke:#198AC9;stroke-miterlimit:10;}
	.st10{fill:none;stroke:#6FA540;stroke-width:1.2;stroke-miterlimit:10;stroke-dasharray:5,1;}
	.st11{fill:none;stroke:#D8281C;stroke-width:1.4;stroke-linejoin:round;stroke-dasharray:4,1;}
	.st12{fill:none;stroke:#13B1C1;stroke-miterlimit:6;}
	.st13{fill:#138F40;}
	.st14{font-family:'Arial-BoldMT';}
	.st15{font-size:7px;}
	.st16{fill:#13B1C1;}
	.st17{font-family:'MicrosoftYaHei';}
	.st18{font-size:10px;}
	.st19{font-size:10px;glyph-orientation-vertical:0;writing-mode:tb;}
	.st20{fill:none;stroke:#13B1C1;stroke-width:0.25;stroke-miterlimit:10;}
	.st21{fill:none;stroke:#6FA540;stroke-width:1.2;stroke-miterlimit:10;}
	.st22{fill:none;stroke:#6FA540;stroke-width:1.2;stroke-miterlimit:10;stroke-dasharray:5.08,1.02;}
	.st23{fill:#323333;}
	.st24{font-family:'AdobeSongStd-Light-GBpc-EUC-H';}
	.st25{font-size:9px;}
	.st26{fill:#198AC9;}
	.st27{fill:#E21E16;}
</style>
<title>父母身高修正的身高百分位数-处理VI</title>
<g>
	<g id="图层_1_1_">
		<rect x="37.8" y="12.9" class="st0" width="543.3" height="265.9"/>
		<polyline class="st1" points="37.8,278.8 37.8,12.9 581.1,12.9 581.1,278.8 37.8,278.8 		"/>
		<g class="st2">
			<path class="st3" d="M37.8,278.8V12.9 M37.8,12.9L37.8,12.9 M115.4,278.8V12.9 M115.4,12.9L115.4,12.9 M193,278.8V12.9 M193,12.9
				L193,12.9 M270.6,278.8V12.9 M270.6,12.9L270.6,12.9 M348.3,278.8V12.9 M348.3,12.9L348.3,12.9 M425.9,278.8V12.9 M425.9,12.9
				L425.9,12.9 M503.5,278.8V12.9 M503.5,12.9L503.5,12.9 M581.2,278.8V12.9 M581.2,12.9L581.2,12.9"/>
			<path class="st3" d="M37.8,278.8h543.4 M581.2,278.8L581.2,278.8 M37.8,256.6h543.4 M581.2,256.6L581.2,256.6 M37.8,234.4h543.4
				 M581.2,234.4L581.2,234.4 M37.8,212.3h543.4 M581.2,212.3L581.2,212.3 M37.8,190.1h543.4 M581.2,190.1L581.2,190.1 M37.8,167.9
				h543.4 M581.2,167.9L581.2,167.9 M37.8,145.8h543.4 M581.2,145.8L581.2,145.8 M37.8,123.6h543.4 M581.2,123.6L581.2,123.6
				 M37.8,101.5h543.4 M581.2,101.5L581.2,101.5 M37.8,79.3h543.4 M581.2,79.3L581.2,79.3 M37.8,57.1h543.4 M581.2,57.1L581.2,57.1
				 M37.8,35h543.4 M581.2,35L581.2,35 M37.8,12.9h543.4 M581.2,12.9L581.2,12.9"/>
		</g>
		<path class="st4" d="M37.8,12.9h543.3 M37.8,278.8h543.3"/>
		<path class="st5" d="M581.1,278.8V12.9 M37.8,278.8V12.9"/>
		<line class="st4" x1="37.8" y1="278.8" x2="581.1" y2="278.8"/>
		<line class="st5" x1="37.8" y1="278.8" x2="37.8" y2="12.9"/>
		<path class="st4" d="M37.8,278.8v-5.5 M37.8,12.9v5.4"/>
		<path class="st4" d="M581.2,278.8v-5.5 M581.2,12.9v5.4"/>
		<path class="st5" d="M37.8,278.8h5.4 M581.2,278.8h-5.4"/>
		<path class="st5" d="M37.8,145.8h5.4 M581.2,145.8h-5.4"/>
		<path class="st6" d="M115.4,278.8v-5.5 M115.4,12.9v5.4"/>
		<path class="st6" d="M193,278.8v-5.5 M193,12.9v5.4"/>
		<path class="st6" d="M270.6,278.8v-5.5 M270.6,12.9v5.4"/>
		<path class="st6" d="M348.3,278.8v-5.5 M348.3,12.9v5.4"/>
		<path class="st6" d="M425.9,278.8v-5.5 M425.9,12.9v5.4"/>
		<path class="st6" d="M503.5,278.8v-5.5 M503.5,12.9v5.4"/>
		<path class="st6" d="M37.8,256.6h5.4 M581.2,256.6h-5.4"/>
		<path class="st6" d="M37.8,234.4h5.4 M581.2,234.4h-5.4"/>
		<path class="st6" d="M37.8,212.3h5.4 M581.2,212.3h-5.4"/>
		<path class="st6" d="M37.8,190.1h5.4 M581.2,190.1h-5.4"/>
		<path class="st6" d="M37.8,167.9h5.4 M581.2,167.9h-5.4"/>
		<path class="st6" d="M37.8,123.6h5.4 M581.2,123.6h-5.4"/>
		<path class="st6" d="M37.8,101.5h5.4 M581.2,101.5h-5.4"/>
		<path class="st6" d="M37.8,79.3h5.4 M581.2,79.3h-5.4"/>
		<path class="st6" d="M37.8,57.1h5.4 M581.2,57.1h-5.4"/>
		<path class="st6" d="M37.8,35h5.4 M581.2,35h-5.4"/>
		<path class="st5" d="M37.8,12.9h5.4 M581.2,12.9h-5.4"/>
		<path class="st4" d="M37.8,12.9h543.3 M37.8,278.8h543.3"/>
		<path class="st5" d="M581.1,278.8V12.9 M37.8,278.8V12.9"/>
		<line class="st7" x1="37.8" y1="145.8" x2="581.1" y2="145.8"/>
		<line class="st8" x1="37.8" y1="186.8" x2="581.1" y2="99.2"/>
		<line class="st9" x1="37.8" y1="204.5" x2="581.1" y2="204.5"/>
		<line class="st9" x1="37.8" y1="191.3" x2="581.1" y2="191.3"/>
		<line class="st9" x1="37.8" y1="174.2" x2="581.1" y2="174.2"/>
		<line class="st9" x1="37.8" y1="160.7" x2="581.1" y2="160.7"/>
		<path class="st9" d="M37.8,130.8h543.3 M37.8,117.4h543.3"/>
		<path class="st9" d="M37.8,100.3h543.3 M37.8,87h543.3"/>
		<path class="st10" d="M37.8,245.6l543.3-87.6 M37.8,232.4l543.3-87.6 M37.8,215.2l543.3-87.6 M37.8,201.8l543.3-87.6 M37.8,171.9
			l543.3-87.6 M37.8,158.4l543.3-87.6 M37.8,141.3l543.3-87.6 M37.8,128l543.3-87.6"/>
		<line class="st11" x1="37.8" y1="264.4" x2="581.1" y2="176.7"/>
		<rect x="37.8" y="12.9" class="st12" width="543.4" height="265.9"/>
		<text transform="matrix(1 0 0 1 581.51 41.74)" class="st13 st14 st15">99.6</text>
		<text transform="matrix(1 0 0 1 581.51 56.55)" class="st13 st14 st15">98</text>
		<text transform="matrix(1 0 0 1 581.51 71.93)" class="st13 st14 st15">90</text>
		<text transform="matrix(1 0 0 1 581.51 85.74)" class="st13 st14 st15">75</text>
		<text transform="matrix(1 0 0 1 581.51 100.35)" class="st13 st14 st15">50</text>
		<text transform="matrix(1 0 0 1 581.51 114.83)" class="st13 st14 st15">25</text>
		<text transform="matrix(1 0 0 1 581.51 128.77)" class="st13 st14 st15">10</text>
		<text transform="matrix(1 0 0 1 581.51 147.25)" class="st13 st14 st15">2</text>
		<text transform="matrix(1 0 0 1 581.51 159.72)" class="st13 st14 st15">0.4</text>
		<text transform="matrix(1 0 0 1 27.43 289.01)" class="st16 st17 st18">150</text>
		<text transform="matrix(1 0 0 1 110.68 289.01)" class="st16 st17 st18">155</text>
		<text transform="matrix(1 0 0 1 187.59 289.01)" class="st16 st17 st18">160</text>
		<text transform="matrix(1 0 0 1 264.5 289.01)" class="st16 st17 st18">165</text>
		<text transform="matrix(1 0 0 1 341.41 289.01)" class="st16 st17 st18">170</text>
		<text transform="matrix(1 0 0 1 418.33 289.01)" class="st16 st17 st18">175</text>
		<text transform="matrix(1 0 0 1 495.24 289.01)" class="st16 st17 st18">180</text>
		<text transform="matrix(1 0 0 1 572.15 289.01)" class="st16 st17 st18">185</text>
		<text transform="matrix(1 0 0 1 22.07 280.53)" class="st16 st17 st18">−6</text>
		<text transform="matrix(1 0 0 1 22.07 258.62)" class="st16 st17 st18">−5</text>
		<text transform="matrix(1 0 0 1 22.07 236.72)" class="st16 st17 st18">−4</text>
		<text transform="matrix(1 0 0 1 22.07 214.81)" class="st16 st17 st18">−3</text>
		<text transform="matrix(1 0 0 1 22.07 192.9)" class="st16 st17 st18">−2</text>
		<text transform="matrix(1 0 0 1 22.07 171)" class="st16 st17 st18">−1</text>
		<text transform="matrix(1 0 0 1 29.49 149.09)" class="st16 st17 st18">0</text>
		<text transform="matrix(1 0 0 1 29.49 127.18)" class="st16 st17 st18">1</text>
		<text transform="matrix(1 0 0 1 29.49 105.27)" class="st16 st17 st18">2</text>
		<text transform="matrix(1 0 0 1 29.49 83.37)" class="st16 st17 st18">3</text>
		<text transform="matrix(1 0 0 1 29.49 61.46)" class="st16 st17 st18">4</text>
		<text transform="matrix(1 0 0 1 29.49 39.55)" class="st16 st17 st18">5</text>
		<text transform="matrix(1 0 0 1 29.49 17.64)" class="st16 st17 st18">6</text>
		<text transform="matrix(1 0 0 1 332.65 303.13)" class="st16 st17 st18">父母身高修正的身高百分位数(女)       父母身高中值(cm)</text>
		<text transform="matrix(1 0 0 1 10 227.44)" class="st16 st17 st19">身高</text>
		<text transform="matrix(6.123234e-17 1 -1 6.123234e-17 6.5 253.42)" class="st16 st17 st18">(SDS)</text>
		
			<image style="overflow:visible;opacity:0.25;enable-background:new    ;" width="108" height="37" xlink:href="2EA0D8231679E43F.png"  transform="matrix(1 0 0 1 52.32 25.58)">
		</image>
		<path class="st0" d="M58.4,58.8c-1.5-0.1-2.6-1.3-2.6-2.8V32.5c-0.1-1.5,1.1-2.8,2.6-2.8h95.6c1.5,0.1,2.6,1.3,2.6,2.8V56
			c0.1,1.5-1.1,2.8-2.6,2.8L58.4,58.8z"/>
		<path class="st20" d="M58.4,58.8c-1.5-0.1-2.6-1.3-2.6-2.8V32.5c-0.1-1.5,1.1-2.8,2.6-2.8h95.6c1.5,0.1,2.6,1.3,2.6,2.8V56
			c0.1,1.5-1.1,2.8-2.6,2.8L58.4,58.8z"/>
		<polyline class="st21" points="63.6,40.1 61.1,40.1 63.6,40.1 		"/>
		<line class="st22" x1="64.6" y1="40.1" x2="88.5" y2="40.1"/>
		<polyline class="st21" points="89,40.1 91.5,40.1 89,40.1 		"/>
		<line class="st22" x1="88" y1="40.1" x2="64.1" y2="40.1"/>
		<text transform="matrix(1 0 0 1 96.18 42.32)" class="st23 st24 st25">修正百分位数</text>
		<text transform="matrix(1 0 0 1 96.18 53.19)" class="st23 st24 st25">身高百分位数</text>
		<polygon class="st26" points="61.1,49.9 61.1,50.2 61.1,50.5 61.1,49.5 91.5,49.5 91.5,50.5 91.5,50.2 91.5,49.9 91.5,50.4 
			61.1,50.4 		"/>
		<rect x="61.1" y="49.5" class="st26" width="30.4" height="1"/>
		<text transform="matrix(1 0 0 1 581.51 172.57)" class="st27 st14 st15">-3.5</text>
		<text transform="matrix(1 0 0 1 581.51 180.97)" class="st27 st14 st15">SD</text>
	</g>
</g>
</svg>
