<svg id="图层_1" data-name="图层 1" width="496" height="260" xmlns="http://www.w3.org/2000/svg" viewBox="0 0 595.28 311.81"><defs><style>.cls-1{fill:#fff;}.cls-10,.cls-11,.cls-12,.cls-13,.cls-14,.cls-15,.cls-16,.cls-2,.cls-3,.cls-4,.cls-5,.cls-8,.cls-9{fill:none;}.cls-2{stroke:#fff;}.cls-12,.cls-13,.cls-16,.cls-2,.cls-4,.cls-5,.cls-8,.cls-9{stroke-linejoin:round;}.cls-2,.cls-4,.cls-5,.cls-9{stroke-width:0.5px;}.cls-3{stroke:#ddd;stroke-miterlimit:6;opacity:0.6;}.cls-4{stroke:#781b79;}.cls-5{stroke:#8d2389;}.cls-6{writing-mode:tb;text-orientation:upright;glyph-orientation-vertical:0deg;}.cls-6,.cls-7{font-size:10px;fill:#13b1c1;}.cls-18,.cls-6,.cls-7{font-family:MicrosoftYaHei, Microsoft YaHei;}.cls-8,.cls-9{stroke:#13b1c1;}.cls-10{stroke:#79c287;}.cls-10,.cls-11,.cls-14,.cls-15{stroke-miterlimit:10;}.cls-10,.cls-11,.cls-12,.cls-13,.cls-14,.cls-16{stroke-width:1.4px;}.cls-10,.cls-14{stroke-dasharray:5 1;}.cls-11{stroke:#e47a32;stroke-dasharray:2 1;}.cls-12{stroke:#e9537d;}.cls-13{stroke:#d78dba;}.cls-14{stroke:#29a4a3;}.cls-15{stroke:#138f40;stroke-width:2px;}.cls-16{stroke:#c61a45;}.cls-17{font-size:6.05px;fill:#231815;font-family:Helvetica;}.cls-18{font-size:12px;fill:#303131;}</style></defs><title>BMI百分位曲线图-处理VI</title><rect class="cls-1" x="37.87" y="12.91" width="543.23" height="265.8"/><polyline class="cls-2" points="37.87 278.71 37.87 12.91 581.1 12.91 581.1 278.71 37.87 278.71"/><path class="cls-3" d="M68.05,278.71V12.91m0,0h0m30.18,265.8V12.91m0,0h0m30.18,265.8V12.91m0,0h0m30.18,265.8V12.91m0,0h0m30.18,265.8V12.91m0,0h0M219,278.71V12.91m0,0h0m30.17,265.8V12.91m0,0h0m30.18,265.8V12.91m0,0h0m30.18,265.8V12.91m0,0h0m30.18,265.8V12.91m0,0h0m30.18,265.8V12.91m0,0h0M400,278.71V12.91m0,0h0m30.18,265.8V12.91m0,0h0m30.18,265.8V12.91m0,0h0m30.18,265.8V12.91m0,0h0m30.18,265.8V12.91m0,0h0m30.18,265.8V12.91m0,0h0"/><path class="cls-3" d="M37.87,267.15H581.1m0,0h0M37.87,244H581.1m0,0h0M37.87,220.93H581.1m0,0h0M37.87,197.81H581.1m0,0h0M37.87,174.7H581.1m0,0h0M37.87,151.59H581.1m0,0h0M37.87,128.47H581.1m0,0h0M37.87,105.36H581.1m0,0h0M37.87,82.25H581.1m0,0h0M37.87,59.13H581.1m0,0h0M37.87,36H581.1m0,0h0M37.87,12.91H581.1m0,0h0"/><path class="cls-4" d="M37.87,12.91H581.1M37.87,278.71H581.1"/><path class="cls-5" d="M581.1,278.71V12.91M37.87,278.71V12.91"/><line class="cls-4" x1="37.87" y1="278.71" x2="581.1" y2="278.71"/><line class="cls-5" x1="37.87" y1="278.71" x2="37.87" y2="12.91"/><path class="cls-5" d="M37.87,12.91h5.39m537.84,0h-5.44"/><text class="cls-6" transform="translate(15.63 203.84)">体重指数</text><text class="cls-7" transform="translate(12.13 252.39) rotate(90)">(BMI)</text><text class="cls-7" transform="translate(427.66 303.13)"><tspan xml:space="preserve">BMI百分位曲线图(女)       年龄(岁)</tspan></text><text class="cls-7" transform="translate(65.74 288.92)">2</text><text class="cls-7" transform="translate(35.57 288.92)">1</text><text class="cls-7" transform="translate(95.89 288.92)">3</text><text class="cls-7" transform="translate(126.04 288.92)">4</text><text class="cls-7" transform="translate(156.2 288.92)">5</text><text class="cls-7" transform="translate(186.35 288.92)">6</text><text class="cls-7" transform="translate(216.5 288.92)">7</text><text class="cls-7" transform="translate(246.65 288.92)">8</text><text class="cls-7" transform="translate(276.81 288.92)">9</text><text class="cls-7" transform="translate(304.03 288.92)">10</text><text class="cls-7" transform="translate(334.18 288.92)">11</text><text class="cls-7" transform="translate(364.33 288.92)">12</text><text class="cls-7" transform="translate(394.49 288.92)">13</text><text class="cls-7" transform="translate(424.64 288.92)">14</text><text class="cls-7" transform="translate(454.79 288.92)">15</text><text class="cls-7" transform="translate(484.94 288.92)">16</text><text class="cls-7" transform="translate(515.1 288.92)">17</text><text class="cls-7" transform="translate(545.25 288.92)">18</text><text class="cls-7" transform="translate(23.77 270.92)">12</text><text class="cls-7" transform="translate(23.77 247.8)">14</text><text class="cls-7" transform="translate(23.77 224.69)">16</text><text class="cls-7" transform="translate(23.77 201.58)">18</text><text class="cls-7" transform="translate(23.77 178.47)">20</text><text class="cls-7" transform="translate(23.77 155.35)">22</text><text class="cls-7" transform="translate(23.77 132.24)">24</text><text class="cls-7" transform="translate(23.77 109.13)">26</text><text class="cls-7" transform="translate(23.77 86)">28</text><text class="cls-7" transform="translate(23.77 62.9)">30</text><text class="cls-7" transform="translate(23.77 39.78)">32</text><text class="cls-7" transform="translate(23.77 16.68)">34</text><path class="cls-8" d="M68.05,278.71v-5.45m0-260.35v5.4"/><path class="cls-8" d="M98.23,278.71v-5.45m0-260.35v5.4"/><path class="cls-8" d="M128.41,278.71v-5.45m0-260.35v5.4"/><path class="cls-8" d="M158.59,278.71v-5.45m0-260.35v5.4"/><path class="cls-8" d="M188.77,278.71v-5.45m0-260.35v5.4"/><path class="cls-8" d="M219,278.71v-5.45m0-260.35v5.4"/><path class="cls-8" d="M249.12,278.71v-5.45m0-260.35v5.4"/><path class="cls-8" d="M279.3,278.71v-5.45m0-260.35v5.4"/><path class="cls-8" d="M309.48,278.71v-5.45m0-260.35v5.4"/><path class="cls-8" d="M339.66,278.71v-5.45m0-260.35v5.4"/><path class="cls-8" d="M369.84,278.71v-5.45m0-260.35v5.4"/><path class="cls-8" d="M400,278.71v-5.45m0-260.35v5.4"/><path class="cls-8" d="M430.2,278.71v-5.45m0-260.35v5.4"/><path class="cls-8" d="M460.38,278.71v-5.45m0-260.35v5.4"/><path class="cls-8" d="M490.56,278.71v-5.45m0-260.35v5.4"/><path class="cls-8" d="M520.74,278.71v-5.45m0-260.35v5.4"/><path class="cls-8" d="M550.92,278.71v-5.45m0-260.35v5.4"/><path class="cls-8" d="M37.87,267.15h5.39m537.84,0h-5.44"/><path class="cls-8" d="M37.87,244h5.39m537.84,0h-5.44"/><path class="cls-8" d="M37.87,220.93h5.39m537.84,0h-5.44"/><path class="cls-8" d="M37.87,197.81h5.39m537.84,0h-5.44"/><path class="cls-8" d="M37.87,174.7h5.39m537.84,0h-5.44"/><path class="cls-8" d="M37.87,151.59h5.39m537.84,0h-5.44"/><path class="cls-8" d="M37.87,128.47h5.39m537.84,0h-5.44"/><path class="cls-8" d="M37.87,105.36h5.39m537.84,0h-5.44"/><path class="cls-8" d="M37.87,82.25h5.39m537.84,0h-5.44"/><path class="cls-8" d="M37.87,59.13h5.39m537.84,0h-5.44"/><path class="cls-8" d="M37.87,36h5.39M581.1,36h-5.44"/><path class="cls-8" d="M37.87,12.91H581.1M37.87,278.71H581.1"/><path class="cls-9" d="M581.1,278.71V12.91M37.87,278.71V12.91"/><polyline class="cls-10" points="234.01 207.05 264.19 196.65 294.37 186.26 324.55 174.7 354.73 161.98 384.91 152.7 415.09 144.62 445.27 140.03 475.44 135.39 505.62 131.91 535.8 130.74 565.98 128.47"/><polyline class="cls-11" points="234.01 187.37 264.19 175.81 294.37 163.14 324.55 150.43 354.73 136.55 384.91 122.67 415.09 109.95 445.27 101.88 475.44 94.91 505.62 89.16 535.8 85.68 565.98 82.25"/><polyline class="cls-10" points="37.87 188.78 68.05 193.47 98.23 198.17 128.41 202.3 158.59 204.27 188.77 203.36 218.94 199.73 249.13 192.56 279.3 184.44 309.48 174.5 339.66 162.69 369.84 152.19 400.02 145.03 430.2 139.73 460.38 135.29 490.56 131.6 520.74 129.63 550.92 128.78 581.1 128.17"/><polyline class="cls-11" points="37.87 173.03 68.05 177.22 98.23 181.56 128.41 185.2 158.59 186 188.77 182.67 218.94 174.8 249.13 164.15 279.3 152.5 309.48 138.92 339.66 122.82 369.84 109.75 400.02 102.38 430.2 97.74 460.38 93.1 490.56 88.25 520.74 84.97 550.92 82.9 581.1 81.14"/><polyline class="cls-12" points="37.87 247.62 68.05 250.2 98.23 252.72 128.41 254.99 158.59 256.86 188.77 258.42 218.94 259.13 249.13 258.42 279.3 256.91 309.48 254.74 339.66 251.81 369.84 247.12 400.02 241.16 430.2 235.31 460.38 230.01 490.56 225.92 520.74 223 550.92 220.88 581.1 218.86"/><polyline class="cls-13" points="37.87 238.29 68.05 241.62 98.23 244.85 128.41 247.67 158.59 249.94 188.77 251.61 218.94 252.22 249.13 251.31 279.3 249.39 309.48 246.56 339.66 242.83 369.84 237.43 400.02 230.97 430.2 224.76 460.38 219.21 490.56 214.82 520.74 211.69 550.92 209.42 581.1 207.35"/><polyline class="cls-14" points="37.87 225.27 68.05 229.35 98.23 233.34 128.41 236.92 158.59 239.5 188.77 241.16 218.94 241.31 249.13 239.8 279.3 237.07 309.48 233.14 339.66 227.99 369.84 221.48 400.02 214.42 430.2 207.86 460.38 202.05 490.56 197.51 520.74 194.28 550.92 192.01 581.1 189.94"/><polyline class="cls-15" points="37.87 208.06 40.84 208.51 43.87 208.97 46.89 209.42 49.91 209.93 52.93 210.38 55.96 210.83 58.98 211.29 62 211.79 65.03 212.25 68.05 212.7 71.02 213.16 74.04 213.66 77.07 214.11 80.09 214.57 83.11 215.02 86.14 215.48 89.16 215.98 92.18 216.44 95.2 216.89 98.23 217.29 101.2 217.75 104.22 218.2 107.25 218.6 110.27 219.06 113.29 219.46 116.31 219.87 119.34 220.27 122.36 220.67 125.38 221.03 128.41 221.38 131.38 221.73 134.4 222.09 137.43 222.39 140.45 222.69 143.47 222.94 146.5 223.2 149.52 223.45 152.54 223.65 155.56 223.85 158.59 224 161.56 224.21 164.58 224.36 167.6 224.51 170.63 224.61 173.65 224.71 176.67 224.81 179.7 224.86 182.72 224.91 185.74 224.96 188.77 224.96 191.74 224.91 194.76 224.91 197.78 224.81 200.81 224.76 203.83 224.61 206.85 224.51 209.88 224.36 212.9 224.16 215.92 223.95 218.94 223.75 221.92 223.5 224.94 223.25 227.96 222.94 230.99 222.64 234.01 222.34 237.03 221.99 240.06 221.63 243.08 221.28 246.1 220.88 249.13 220.47 252.1 220.07 255.12 219.66 258.14 219.21 261.17 218.76 264.19 218.3 267.21 217.8 270.24 217.34 273.26 216.84 276.28 216.28 279.3 215.73 282.28 215.17 285.3 214.62 288.32 214.01 291.35 213.41 294.37 212.8 297.39 212.2 300.42 211.54 303.44 210.88 306.46 210.23 309.48 209.52 312.46 208.81 315.48 208.06 318.5 207.35 321.52 206.59 324.55 205.79 327.57 205.03 330.59 204.22 333.62 203.41 336.64 202.61 339.66 201.8 342.63 200.99 345.66 200.13 348.68 199.33 351.7 198.52 354.73 197.66 357.75 196.85 360.77 196.05 363.8 195.24 366.82 194.43 369.84 193.62 372.81 192.82 375.84 192.06 378.86 191.25 381.88 190.5 384.91 189.74 387.93 189.03 390.95 188.28 393.98 187.57 397 186.86 400.02 186.21 402.99 185.5 406.02 184.84 409.04 184.19 412.06 183.58 415.09 182.93 418.11 182.32 421.13 181.71 424.15 181.16 427.18 180.55 430.2 179.95 433.17 179.39 436.2 178.84 439.22 178.28 442.24 177.73 445.27 177.22 448.29 176.67 451.31 176.16 454.33 175.66 457.36 175.15 460.38 174.7 463.35 174.19 466.38 173.74 469.4 173.29 472.42 172.83 475.44 172.43 478.47 172.03 481.49 171.62 484.51 171.22 487.54 170.86 490.56 170.51 493.53 170.21 496.56 169.85 499.58 169.55 502.6 169.3 505.62 169 508.65 168.75 511.67 168.54 514.69 168.29 517.72 168.09 520.74 167.89 523.71 167.69 526.74 167.48 529.76 167.33 532.78 167.18 535.8 167.03 538.83 166.83 541.85 166.73 544.87 166.57 547.89 166.42 550.92 166.27 553.89 166.12 556.91 165.97 559.94 165.87 562.96 165.72 565.98 165.56 569.01 165.41 572.03 165.26 575.05 165.16 578.08 165.01 581.1 164.86"/><path class="cls-16" d="M37.87,168.44l30.18,4,30.18,4.09L128.41,180l30.18.35,30.18-4.29L219,166.73l30.17-12.17,30.18-12.81,30.18-14.84,30.18-17.56c26.91-15.66,60-22.64,90.54-28.21l30.18-4.6,30.18-3.68,30.18-3.38,30.18-2.37,30.18-2.22"/><text class="cls-17" transform="translate(37.01 280.88)"> </text><text class="cls-17" transform="translate(580.29 15.03)"> </text><text class="cls-18" transform="translate(544.16 64.01)">97th</text><text class="cls-18" transform="translate(544.16 80.56)">肥胖</text><text class="cls-18" transform="translate(544.16 123.55)">超重</text><text class="cls-18" transform="translate(544.16 163.14)">50th</text><text class="cls-18" transform="translate(544.16 186)">18.5</text><text class="cls-18" transform="translate(544.16 205.81)">17</text><text class="cls-18" transform="translate(544.16 219.13)">16</text></svg>