<svg id="图层_1" data-name="图层 1" width="496" height="260" xmlns="http://www.w3.org/2000/svg" viewBox="0 0 595.28 311.81"><defs><style>.cls-1{fill:#fff;}.cls-10,.cls-11,.cls-12,.cls-13,.cls-14,.cls-2,.cls-3,.cls-7,.cls-8,.cls-9{fill:none;}.cls-2{stroke:#fff;stroke-width:0.5px;}.cls-10,.cls-11,.cls-14,.cls-2,.cls-7{stroke-linejoin:round;}.cls-3{stroke:#666;stroke-miterlimit:6;opacity:0.2;}.cls-4{writing-mode:tb;text-orientation:upright;glyph-orientation-vertical:0deg;}.cls-4,.cls-5{font-size:10px;}.cls-4,.cls-5,.cls-6{fill:#13b1c1;}.cls-16,.cls-4,.cls-5,.cls-6{font-family:MicrosoftYaHei, Microsoft YaHei;}.cls-6{font-size:11px;}.cls-7{stroke:#13b1c1;}.cls-8{stroke:#79c287;}.cls-12,.cls-13,.cls-8,.cls-9{stroke-miterlimit:10;}.cls-10,.cls-11,.cls-12,.cls-14,.cls-8,.cls-9{stroke-width:1.4px;}.cls-12,.cls-8{stroke-dasharray:5 1;}.cls-9{stroke:#e47a32;stroke-dasharray:2 1;}.cls-10{stroke:#e9537d;}.cls-11{stroke:#d78dba;}.cls-12{stroke:#29a4a3;}.cls-13{stroke:#138f40;stroke-width:2px;}.cls-14{stroke:#c61a45;}.cls-15{font-size:6.06px;fill:#231815;font-family:Helvetica;}.cls-16{font-size:12px;fill:#303131;}</style></defs><title>BMI百分位曲线图-处理VI</title><rect class="cls-1" x="37.86" y="13.1" width="543.16" height="265.54"/><polyline class="cls-2" points="37.86 278.65 37.86 13.1 581.02 13.1 581.02 278.65 37.86 278.65"/><path class="cls-3" d="M68,278.65V13.1m0,0h0m30.2,265.55V13.1m0,0h0m30.15,265.55V13.1m0,0h0m30.2,265.55V13.1m0,0h0m30.15,265.55V13.1m0,0h0m30.2,265.55V13.1m0,0h0m30.15,265.55V13.1m0,0h0m30.2,265.55V13.1m0,0h0m30.15,265.55V13.1m0,0h0m30.2,265.55V13.1m0,0h0m30.16,265.55V13.1m0,0h0M400,278.65V13.1m0,0h0m30.15,265.55V13.1m0,0h0m30.2,265.55V13.1m0,0h0m30.15,265.55V13.1m0,0h0m30.2,265.55V13.1m0,0h0m30.15,265.55V13.1m0,0h0M37.86,268H581m0,0h0M37.86,246.78H581m0,0h0M37.86,225.52H581m0,0h0M37.86,204.26H581m0,0h0M37.86,183.05H581m0,0h0M37.86,161.78H581m0,0h0M37.86,140.52H581m0,0h0M37.86,119.31H581m0,0h0M37.86,98.05H581m0,0h0M37.86,76.79H581m0,0h0M37.86,55.58H581m0,0h0M37.86,34.31H581m0,0h0"/><text class="cls-4" transform="translate(15.63 205.84)">体重指数</text><text class="cls-5" transform="translate(12.13 252.39) rotate(90)">(BMI)</text><text class="cls-5" transform="translate(427.66 303.13)"><tspan xml:space="preserve">BMI百分位曲线图(男)       年龄(岁)</tspan></text><text class="cls-6" transform="translate(64.7 289.86)">2</text><text class="cls-6" transform="translate(35.2 289.86)">1</text><text class="cls-6" transform="translate(92.9 289.86)">3</text><text class="cls-6" transform="translate(123.05 289.86)">4</text><text class="cls-6" transform="translate(153.26 289.86)">5</text><text class="cls-6" transform="translate(183.41 289.86)">6</text><text class="cls-6" transform="translate(213.6 289.86)">7</text><text class="cls-6" transform="translate(243.76 289.86)">8</text><text class="cls-6" transform="translate(273.96 289.86)">9</text><text class="cls-6" transform="translate(302.75 289.86)">10</text><text class="cls-6" transform="translate(332.95 289.86)">11</text><text class="cls-6" transform="translate(363.1 289.86)">12</text><text class="cls-6" transform="translate(393.3 289.86)">13</text><text class="cls-6" transform="translate(423.45 289.86)">14</text><text class="cls-6" transform="translate(453.66 289.86)">15</text><text class="cls-6" transform="translate(483.81 289.86)">16</text><text class="cls-6" transform="translate(514 289.86)">17</text><text class="cls-6" transform="translate(544.16 289.86)">18</text><text class="cls-6" transform="translate(21.77 271.76)">12</text><text class="cls-6" transform="translate(21.77 250.55)">14</text><text class="cls-6" transform="translate(21.77 229.29)">16</text><text class="cls-6" transform="translate(21.77 208.02)">18</text><text class="cls-6" transform="translate(21.77 186.81)">20</text><text class="cls-6" transform="translate(21.77 165.55)">22</text><text class="cls-6" transform="translate(21.77 144.29)">24</text><text class="cls-6" transform="translate(21.77 123.08)">26</text><text class="cls-6" transform="translate(21.77 101.82)">28</text><text class="cls-6" transform="translate(21.77 80.55)">30</text><text class="cls-6" transform="translate(21.77 59.34)">32</text><text class="cls-6" transform="translate(21.77 38.08)">34</text><path class="cls-7" d="M37.86,13.1H581M37.86,278.65H581m0,0V13.1M37.86,278.65V13.1m0,265.55H581m-543.16,0V13.1M68,278.65v-5.51m0-260v5.46"/><path class="cls-7" d="M98.21,278.65v-5.51m0-260v5.46"/><path class="cls-7" d="M128.36,278.65v-5.51m0-260v5.46"/><path class="cls-7" d="M158.56,278.65v-5.51m0-260v5.46"/><path class="cls-7" d="M188.71,278.65v-5.51m0-260v5.46"/><path class="cls-7" d="M218.91,278.65v-5.51m0-260v5.46"/><path class="cls-7" d="M249.06,278.65v-5.51m0-260v5.46"/><path class="cls-7" d="M279.26,278.65v-5.51m0-260v5.46"/><path class="cls-7" d="M309.41,278.65v-5.51m0-260v5.46"/><path class="cls-7" d="M339.61,278.65v-5.51m0-260v5.46"/><path class="cls-7" d="M369.77,278.65v-5.51m0-260v5.46"/><path class="cls-7" d="M400,278.65v-5.51m0-260v5.46"/><path class="cls-7" d="M430.12,278.65v-5.51m0-260v5.46"/><path class="cls-7" d="M460.32,278.65v-5.51m0-260v5.46"/><path class="cls-7" d="M490.47,278.65v-5.51m0-260v5.46"/><path class="cls-7" d="M520.67,278.65v-5.51m0-260v5.46"/><path class="cls-7" d="M550.82,278.65v-5.51m0-260v5.46"/><path class="cls-7" d="M37.86,268h5.42M581,268h-5.48"/><path class="cls-7" d="M37.86,246.78h5.42m537.74,0h-5.48"/><path class="cls-7" d="M37.86,225.52h5.42m537.74,0h-5.48"/><path class="cls-7" d="M37.86,204.26h5.42m537.74,0h-5.48"/><path class="cls-7" d="M37.86,183.05h5.42m537.74,0h-5.48"/><path class="cls-7" d="M37.86,161.78h5.42m537.74,0h-5.48"/><path class="cls-7" d="M37.86,140.52h5.42m537.74,0h-5.48"/><path class="cls-7" d="M37.86,119.31h5.42m537.74,0h-5.48"/><path class="cls-7" d="M37.86,98.05h5.42m537.74,0h-5.48"/><path class="cls-7" d="M37.86,76.79h5.42m537.74,0h-5.48"/><path class="cls-7" d="M37.86,55.58h5.42m537.74,0h-5.48"/><path class="cls-7" d="M37.86,34.31h5.42m537.74,0h-5.48"/><path class="cls-7" d="M37.86,13.1H581M37.86,278.65H581m0,0V13.1M37.86,278.65V13.1"/><polyline class="cls-8" points="233.99 210.62 264.14 203.2 294.34 194.71 324.49 187.29 354.69 179.86 384.84 172.39 415.04 162.84 445.19 155.42 475.39 150.12 505.54 145.88 535.74 142.64 565.89 140.52"/><polyline class="cls-9" points="233.99 191.53 264.14 179.86 294.34 168.15 324.49 156.48 354.69 144.76 384.84 133.1 415.04 122.49 445.19 115.07 475.39 109.72 505.54 104.41 535.74 100.17 565.89 98.05"/><polyline class="cls-8" points="37.86 188.45 68.01 200.57 98.21 208.45 128.36 212.74 158.56 212.99 188.71 210.52 218.91 205.82 249.06 198.5 279.26 189.76 309.41 180.82 339.62 173.2 369.76 167.09 399.97 162.44 430.12 158.15 460.32 153.55 490.47 148.96 520.67 144.97 550.82 141.94 581.02 139.26"/><polyline class="cls-9" points="37.86 173 68.01 184.91 98.21 192.49 128.36 196.18 158.56 195.12 188.71 190.42 218.91 182.69 249.06 171.43 279.26 158.91 309.41 147.09 339.62 137.54 369.76 129.76 399.97 123.35 430.12 117.14 460.32 110.73 490.47 105.07 520.67 101.08 550.82 98.81 581.02 97.34"/><polyline class="cls-10" points="37.86 256.63 68.01 258.9 98.21 261.07 128.36 262.49 158.56 262.33 188.71 261.38 218.91 260.31 249.06 258.8 279.26 257.44 309.41 255.67 339.62 253.75 369.76 251.48 399.97 249.1 430.12 245.92 460.32 241.22 490.47 235.47 520.67 229.91 550.82 224.96 581.02 220.16"/><polyline class="cls-11" points="37.86 239.25 68.01 244.96 98.21 249.2 128.36 252.13 158.56 253.04 188.71 252.94 218.91 252.39 249.06 251.07 279.26 249.46 309.41 247.13 339.62 244.56 369.76 241.53 399.97 238.5 430.12 234.86 460.32 230.27 490.47 224.91 520.67 219.61 550.82 214.91 581.02 210.27"/><polyline class="cls-12" points="37.86 220.16 68.01 228.85 98.21 234.91 128.36 239.05 158.56 240.77 188.71 241.12 218.91 240.72 249.06 239 279.26 236.58 309.41 233.25 339.62 229.56 369.76 225.47 399.97 221.58 430.12 217.54 460.32 213.09 490.47 208.15 520.67 203.3 550.82 198.9 581.02 194.66"/><polyline class="cls-13" points="37.86 199.96 40.87 201.23 43.89 202.49 46.9 203.7 49.92 204.86 52.93 206.02 55.95 207.13 58.96 208.2 61.98 209.26 64.99 210.22 68.01 211.18 71.02 212.09 74.04 212.94 77.05 213.75 80.07 214.56 83.08 215.32 86.1 216.02 89.11 216.73 92.13 217.39 95.14 218.04 98.21 218.65 101.22 219.26 104.24 219.81 107.25 220.37 110.27 220.87 113.28 221.33 116.3 221.78 119.31 222.19 122.33 222.54 125.34 222.89 128.36 223.19 131.37 223.45 134.39 223.7 137.4 223.9 140.42 224.05 143.44 224.16 146.45 224.26 149.47 224.36 152.48 224.36 155.5 224.41 158.56 224.41 161.57 224.36 164.59 224.31 167.6 224.26 170.62 224.21 173.63 224.1 176.65 224 179.67 223.9 182.68 223.8 185.7 223.65 188.71 223.5 191.73 223.35 194.74 223.19 197.76 222.99 200.77 222.79 203.79 222.59 206.8 222.34 209.82 222.08 212.83 221.83 215.85 221.53 218.91 221.23 221.93 220.87 224.94 220.52 227.96 220.12 230.97 219.71 233.99 219.26 237 218.8 240.02 218.35 243.03 217.89 246.05 217.39 249.06 216.88 252.08 216.38 255.09 215.87 258.11 215.37 261.12 214.81 264.14 214.26 267.15 213.7 270.17 213.15 273.18 212.54 276.2 211.98 279.26 211.38 282.28 210.77 285.29 210.12 288.31 209.51 291.32 208.85 294.34 208.25 297.35 207.59 300.37 206.93 303.38 206.33 306.4 205.67 309.41 205.06 312.43 204.46 315.44 203.85 318.46 203.25 321.47 202.64 324.49 202.03 327.5 201.48 330.52 200.87 333.53 200.32 336.55 199.76 339.62 199.16 342.63 198.6 345.64 198.04 348.66 197.49 351.68 196.93 354.69 196.43 357.7 195.87 360.72 195.37 363.74 194.86 366.75 194.36 369.76 193.85 372.78 193.4 375.8 192.94 378.81 192.49 381.82 192.03 384.84 191.58 387.86 191.18 390.87 190.72 393.89 190.32 396.9 189.91 399.97 189.51 402.98 189.11 406 188.65 409.01 188.25 412.03 187.84 415.04 187.44 418.06 187.03 421.07 186.63 424.09 186.23 427.1 185.77 430.12 185.37 433.13 184.97 436.15 184.51 439.16 184.11 442.18 183.65 445.19 183.2 448.21 182.79 451.22 182.34 454.24 181.94 457.25 181.48 460.32 181.03 463.33 180.57 466.35 180.12 469.36 179.66 472.38 179.21 475.39 178.8 478.41 178.35 481.42 177.89 484.44 177.44 487.45 176.99 490.47 176.53 493.48 176.08 496.5 175.67 499.51 175.22 502.53 174.76 505.54 174.36 508.56 173.91 511.57 173.5 514.59 173.1 517.6 172.69 520.67 172.29 523.68 171.88 526.7 171.53 529.71 171.13 532.73 170.77 535.74 170.37 538.76 170.02 541.77 169.66 544.79 169.31 547.8 168.96 550.82 168.6 553.83 168.25 556.85 167.94 559.87 167.59 562.88 167.24 565.89 166.88 568.91 166.53 571.92 166.23 574.94 165.88 577.96 165.52 581.02 165.17"/><polyline class="cls-14" points="37.86 161.18 40.87 162.44 43.89 163.65 46.9 164.81 49.92 165.98 52.93 167.04 55.95 168.1 58.96 169.11 61.98 170.12 64.99 171.03 68.01 171.94 71.02 172.74 74.04 173.5 77.05 174.26 80.07 174.97 83.08 175.57 86.1 176.23 89.11 176.78 92.13 177.34 95.14 177.84 98.21 178.35 101.22 178.8 104.24 179.21 107.25 179.61 110.27 179.91 113.28 180.22 116.3 180.47 119.31 180.67 122.33 180.87 125.34 180.97 128.36 181.03 131.37 181.03 134.39 180.97 137.4 180.87 140.42 180.72 143.44 180.52 146.45 180.27 149.47 179.97 152.48 179.56 155.5 179.16 158.56 178.7 161.57 178.2 164.59 177.69 167.6 177.14 170.62 176.53 173.63 175.87 176.65 175.22 179.67 174.51 182.68 173.75 185.7 172.94 188.71 172.14 191.73 171.28 194.74 170.42 197.76 169.46 200.77 168.5 203.79 167.49 206.8 166.43 209.82 165.37 212.83 164.21 215.85 163.05 218.91 161.78 221.93 160.52 224.94 159.21 227.96 157.84 230.97 156.48 233.99 155.02 237 153.6 240.02 152.14 243.03 150.62 246.05 149.16 249.06 147.64 252.08 146.13 255.09 144.61 258.11 143.1 261.12 141.63 264.14 140.12 267.15 138.65 270.17 137.14 273.18 135.67 276.2 134.26 279.26 132.79 282.28 131.38 285.29 129.97 288.31 128.55 291.32 127.19 294.34 125.83 297.35 124.51 300.37 123.25 303.38 121.99 306.4 120.72 309.41 119.56 312.43 118.35 315.44 117.24 318.46 116.13 321.47 115.07 324.49 114.01 327.5 112.95 330.52 111.94 333.53 110.93 336.55 109.92 339.62 108.96 342.63 107.95 345.64 106.94 348.66 105.98 351.68 105.02 354.69 104.01 357.7 103.05 360.72 102.09 363.74 101.13 366.75 100.22 369.76 99.26 372.78 98.35 375.8 97.39 378.81 96.48 381.82 95.52 384.84 94.61 387.86 93.66 390.87 92.75 393.89 91.79 396.9 90.88 399.97 89.92 402.98 88.96 406 88 409.01 87.04 412.03 86.08 415.04 85.12 418.06 84.16 421.07 83.2 424.09 82.19 427.1 81.23 430.12 80.22 433.13 79.26 436.15 78.25 439.16 77.24 442.18 76.28 445.19 75.27 448.21 74.31 451.22 73.35 454.24 72.39 457.25 71.43 460.32 70.53 463.33 69.62 466.35 68.71 469.36 67.8 472.38 66.99 475.39 66.13 478.41 65.37 481.42 64.62 484.44 63.86 487.45 63.15 490.47 62.49 493.48 61.89 496.5 61.28 499.51 60.73 502.53 60.17 505.54 59.72 508.56 59.21 511.57 58.81 514.59 58.41 517.6 58.05 520.67 57.7 523.68 57.45 526.7 57.19 529.71 56.94 532.73 56.74 535.74 56.54 538.76 56.38 541.77 56.23 544.79 56.13 547.8 56.03 550.82 55.93 553.83 55.83 556.85 55.78 559.87 55.68 562.88 55.63 565.89 55.58 568.91 55.53 571.92 55.48 574.94 55.42 577.96 55.42 581.02 55.38"/><text class="cls-15" transform="translate(37 280.82)"> </text><text class="cls-15" transform="translate(580.21 15.22)"> </text><text class="cls-16" transform="translate(544.16 95.52)">肥胖</text><text class="cls-16" transform="translate(544.16 137.72)">超重</text><text class="cls-16" transform="translate(544.16 165.48)">50th</text><text class="cls-16" transform="translate(544.16 197.18)">18.5</text><text class="cls-16" transform="translate(544.16 53.86)">97th</text><text class="cls-16" transform="translate(544.16 212.62)">17</text><text class="cls-16" transform="translate(544.16 224.41)">16</text></svg>