<?xml version="1.0" encoding="utf-8"?>
<!-- Generator: Adobe Illustrator 24.0.1, SVG Export Plug-In . SVG Version: 6.00 Build 0)  -->
<svg width="496" height="260" version="1.1" id="图层_1" xmlns="http://www.w3.org/2000/svg" xmlns:xlink="http://www.w3.org/1999/xlink" x="0px" y="0px"
	 viewBox="0 0 595.3 311.8" style="enable-background:new 0 0 595.3 311.8;" xml:space="preserve">
<style type="text/css">
	.st0{clip-path:url(#SVGID_2_);}
	.st1{fill:none;stroke:#FFFFFF;stroke-width:0.5;stroke-linejoin:round;}
	.st2{opacity:0.2;}
	.st3{fill:none;stroke:#666666;stroke-miterlimit:6;}
	.st4{fill:none;stroke:#8F278A;stroke-width:0.5;stroke-linejoin:round;}
	.st5{fill:none;stroke:#8A1C87;stroke-width:0.5;stroke-linejoin:round;}
	.st6{fill:#13B1C1;}
	.st7{font-family:'MicrosoftYaHei';}
	.st8{font-size:10px;}
	.st9{font-size:10px;glyph-orientation-vertical:0;writing-mode:tb;}
	.st10{clip-path:url(#SVGID_4_);}
	.st11{clip-path:url(#SVGID_6_);}
	.st12{fill:none;stroke:#C9161D;stroke-width:1.4;stroke-linejoin:round;}
	.st13{fill:none;stroke:#E47A32;stroke-width:1.4;stroke-miterlimit:10;stroke-dasharray:2,1;}
	.st14{fill:none;stroke:#71AC40;stroke-width:1.4;stroke-miterlimit:10;stroke-dasharray:5,1;}
	.st15{fill:none;stroke:#138F40;stroke-width:2;stroke-miterlimit:10;}
	.st16{fill:none;stroke:#198AC9;stroke-width:1.4;stroke-miterlimit:10;stroke-dasharray:2,1;}
	.st17{fill:none;stroke:#13B1C1;stroke-miterlimit:10;}
	.st18{fill:none;stroke:#13B1C1;stroke-linejoin:round;}
	.st19{fill:#FFFFFF;}
	.st20{fill:#303131;}
	.st21{font-family:'PingFangSC-Semibold-GBpc-EUC-H';}
	.st22{font-size:9px;}
</style>
<title>骨龄分组 -女VI的TW3RUS</title>
<g>
	<defs>
		<rect id="SVGID_1_" x="18" y="12.5" width="564.6" height="282"/>
	</defs>
	<clipPath id="SVGID_2_">
		<use xlink:href="#SVGID_1_"  style="overflow:visible;"/>
	</clipPath>
	<g class="st0">
		<polyline class="st1" points="37.8,278.7 37.8,13 581.1,13 581.1,278.7 37.8,278.7 		"/>
		<g class="st2">
			<path class="st3" d="M76.6,278.7V13 M76.6,13L76.6,13 M115.4,278.7V13 M115.4,13L115.4,13 M154.2,278.7V13 M154.2,13L154.2,13
				 M193,278.7V13 M193,13L193,13 M231.8,278.7V13 M231.8,13L231.8,13 M270.6,278.7V13 M270.6,13L270.6,13 M309.4,278.7V13
				 M309.4,13L309.4,13 M348.3,278.7V13 M348.3,13L348.3,13 M387.1,278.7V13 M387.1,13L387.1,13 M425.9,278.7V13 M425.9,13L425.9,13
				 M464.7,278.7V13 M464.7,13L464.7,13 M503.5,278.7V13 M503.5,13L503.5,13 M542.3,278.7V13 M542.3,13L542.3,13"/>
			<path class="st3" d="M37.8,255.6h543.4 M581.1,255.6L581.1,255.6 M37.8,232.4h543.4 M581.1,232.4L581.1,232.4 M37.8,209.4h543.4
				 M581.1,209.4L581.1,209.4 M37.8,186.2h543.4 M581.1,186.2L581.1,186.2 M37.8,163.2h543.4 M581.1,163.2L581.1,163.2 M37.8,140
				h543.4 M581.1,140L581.1,140 M37.8,117h543.4 M581.1,117L581.1,117 M37.8,93.8h543.4 M581.1,93.8L581.1,93.8 M37.8,70.7h543.4
				 M581.1,70.7L581.1,70.7 M37.8,47.6h543.4 M581.1,47.6L581.1,47.6 M37.8,24.5h543.4 M581.1,24.5L581.1,24.5"/>
		</g>
		<path class="st4" d="M37.8,13h543.3 M37.8,278.7h543.3"/>
		<path class="st5" d="M581.1,278.7V13 M37.8,278.7V13"/>
		<line class="st4" x1="37.8" y1="278.7" x2="581.1" y2="278.7"/>
		<line class="st5" x1="37.8" y1="278.7" x2="37.8" y2="13"/>
	</g>
</g>
<text transform="matrix(1 0 0 1 305.95 305.08)" class="st6 st7 st8">按骨龄分组的身高百分位曲线图(女)         TW3-C RUS骨龄(岁)</text>
<text transform="matrix(6.123234e-17 1 -1 6.123234e-17 8.2402 257.2)" class="st6 st7 st8">(cm)</text>
<text transform="matrix(1 0 0 1 10.74 229.52)" class="st6 st7 st9">身高</text>
<text transform="matrix(1 0 0 1 73.24 288.89)" class="st6 st7 st8">2</text>
<text transform="matrix(1 0 0 1 35.43 288.89)" class="st6 st7 st8">1</text>
<text transform="matrix(1 0 0 1 112.06 288.89)" class="st6 st7 st8">3</text>
<text transform="matrix(1 0 0 1 150.87 288.89)" class="st6 st7 st8">4</text>
<text transform="matrix(1 0 0 1 189.68 288.89)" class="st6 st7 st8">5</text>
<text transform="matrix(1 0 0 1 228.5 288.89)" class="st6 st7 st8">6</text>
<text transform="matrix(1 0 0 1 267.31 288.89)" class="st6 st7 st8">7</text>
<text transform="matrix(1 0 0 1 306.13 288.89)" class="st6 st7 st8">8</text>
<text transform="matrix(1 0 0 1 344.94 288.89)" class="st6 st7 st8">9</text>
<text transform="matrix(1 0 0 1 382.39 288.89)" class="st6 st7 st8">10</text>
<text transform="matrix(1 0 0 1 421.2 288.89)" class="st6 st7 st8">11</text>
<text transform="matrix(1 0 0 1 460.02 288.89)" class="st6 st7 st8">12</text>
<text transform="matrix(1 0 0 1 498.83 288.89)" class="st6 st7 st8">13</text>
<text transform="matrix(1 0 0 1 537.64 288.89)" class="st6 st7 st8">14</text>
<text transform="matrix(1 0 0 1 573.6 288.89)" class="st6 st7 st8">15</text>
<text transform="matrix(1 0 0 1 20.66 258.34)" class="st6 st7 st8">80</text>
<text transform="matrix(1 0 0 1 20.66 235.21)" class="st6 st7 st8">90</text>
<text transform="matrix(1 0 0 1 17.93 212.13)" class="st6 st7 st8">100</text>
<text transform="matrix(1 0 0 1 17.93 189.01)" class="st6 st7 st8">110</text>
<text transform="matrix(1 0 0 1 17.93 165.93)" class="st6 st7 st8">120</text>
<text transform="matrix(1 0 0 1 17.93 142.8)" class="st6 st7 st8">130</text>
<text transform="matrix(1 0 0 1 17.93 119.72)" class="st6 st7 st8">140</text>
<text transform="matrix(1 0 0 1 17.93 96.59)" class="st6 st7 st8">150</text>
<text transform="matrix(1 0 0 1 17.93 73.46)" class="st6 st7 st8">160</text>
<text transform="matrix(1 0 0 1 17.93 50.39)" class="st6 st7 st8">170</text>
<text transform="matrix(1 0 0 1 17.93 27.25)" class="st6 st7 st8">180</text>
<g>
	<defs>
		<rect id="SVGID_3_" x="18" y="12.5" width="564.6" height="282"/>
	</defs>
	<clipPath id="SVGID_4_">
		<use xlink:href="#SVGID_3_"  style="overflow:visible;"/>
	</clipPath>
	<g class="st10">
		<path class="st4" d="M37.8,13h543.3 M37.8,278.7h543.3"/>
		<path class="st5" d="M581.1,278.7V13 M37.8,278.7V13"/>
	</g>
</g>
<g>
	<defs>
		<rect id="SVGID_5_" x="37.8" y="13" width="543.4" height="265.8"/>
	</defs>
	<clipPath id="SVGID_6_">
		<use xlink:href="#SVGID_5_"  style="overflow:visible;"/>
	</clipPath>
	<g class="st11">
		<path class="st12" d="M37.8,257.8l19.4-5.7l19.4-5.2L96,242l19.4-5.5c19.5-5.5,38.8-11.8,58.3-17.6c30.4-9.1,58.9-22.9,88.7-33.7
			c35-12.6,70.1-24.9,105.3-36.8l19.4-7.7l19.4-7.8l19.4-7.9l19.4-7.2l19.4-6.4l19.4-5.2l19.4-4.4l19.4-2.8l19.4-0.3l19.4-0.2h19.4"
			/>
		<polyline class="st13" points="37.8,251.3 57.2,246 76.6,240 96,235.4 115.4,228.4 134.8,221.9 154.2,215.9 173.6,210.9 
			193,204.2 212.4,197.2 231.8,188.7 251.2,180.8 270.6,174.5 290.1,168.4 309.4,161.1 328.8,154.1 348.3,147.4 367.6,140.9 
			387.1,133.5 406.5,125.8 425.9,117.5 445.3,109.8 464.7,103.5 484.1,98.3 503.5,94.5 522.9,91.9 542.3,92.1 561.7,91.8 
			581.1,91.8 		"/>
		<polyline class="st14" points="37.8,244.6 57.2,238.8 76.6,232.6 96,227.3 115.4,220.5 134.8,213.8 154.2,208.1 173.6,202.8 
			193,195.1 212.4,187.8 231.8,179.9 251.2,172.4 270.6,165.4 290.1,159.1 309.4,153.1 328.8,146.5 348.3,139.7 367.6,133.4 
			387.1,126.1 406.5,118.5 425.9,109 445.3,101.9 464.7,95.4 484.1,90.1 503.5,85.3 522.9,83.2 542.3,83.5 561.7,83.5 581.1,83 		
			"/>
		<path class="st15" d="M37.8,236l19.4-6.1l19.4-5.3l19.4-6.4c19.7-5.3,38.7-12.8,58.2-18.7c26.6-8.1,52.2-19,77.6-30l19.4-6.9
			l19.4-6.5l19.4-6.1l19.4-5.8l19.4-7l19.4-7l19.4-6.3l19.4-7.6l19.4-7.4l19.4-8.2l19.4-8.3l19.4-5.9l19.4-5.4l19.4-3.9l19.4-1.8
			l19.4-0.8l19.4,0.1l19.4,0.2"/>
		<path class="st14" d="M37.8,226.7l19.4-4.7l19.4-6.2l19.4-5.3l19.4-5.7l19.4-6.6l19.4-6.8l19.4-6.7l19.4-8.8
			c19.6-7,38.6-15.7,58.2-22.6l19.4-7.2l19.4-5l19.4-6.1l19.4-7.3l19.4-6.7l19.4-6.2l19.4-7l19.4-7.1l19.4-9l19.4-7.3l19.4-7
			l19.4-5.3l19.4-5.1l19.4-1.2l19.4,0.1l19.4-0.3h19.4"/>
		<polyline class="st16" points="37.8,220.3 57.2,215 76.6,210.1 96,203.6 115.4,197.7 134.8,190.4 154.2,183.8 173.6,176.2 
			193,167.6 212.4,159.9 231.8,152.2 251.2,145.6 270.6,138.3 290.1,132.2 309.4,125.4 328.8,119.3 348.3,112.8 367.6,106.5 
			387.1,98.6 406.5,91.6 425.9,82.4 445.3,75 464.7,68.8 484.1,63.5 503.5,59.1 522.9,57.8 542.3,57.8 561.7,57.8 581.1,57.8 		"/>
		<path class="st12" d="M37.8,212.7l19.4-4.6l19.4-5.7l19.4-5.5l19.4-6.7l19.4-6.3l19.4-7.1l19.4-7.8c12.8-5.6,25.7-10.7,38.8-15.5
			l19.4-7.9l19.4-7.1l19.4-6.8l19.4-7.2l19.4-6.3l19.4-6.1l19.4-6.8c32.8-11.6,64.6-25.8,97-38.3l19.5-6.5l19.4-5.1l19.4-3.7
			l19.4-1.8l19.4-0.2l19.4-0.1l19.4-0.4"/>
	</g>
</g>
<rect x="37.8" y="13" class="st17" width="543.4" height="265.8"/>
<line class="st18" x1="76.6" y1="278.7" x2="76.6" y2="273.3"/>
<line class="st18" x1="76.6" y1="13" x2="76.6" y2="18.4"/>
<line class="st18" x1="115.4" y1="278.7" x2="115.4" y2="273.3"/>
<line class="st18" x1="115.4" y1="13" x2="115.4" y2="18.4"/>
<line class="st18" x1="154.2" y1="278.7" x2="154.2" y2="273.3"/>
<line class="st18" x1="154.2" y1="13" x2="154.2" y2="18.4"/>
<line class="st18" x1="193" y1="278.7" x2="193" y2="273.3"/>
<line class="st18" x1="193" y1="13" x2="193" y2="18.4"/>
<line class="st18" x1="231.8" y1="278.7" x2="231.8" y2="273.3"/>
<line class="st18" x1="231.8" y1="13" x2="231.8" y2="18.4"/>
<line class="st18" x1="270.6" y1="278.7" x2="270.6" y2="273.3"/>
<line class="st18" x1="270.6" y1="13" x2="270.6" y2="18.4"/>
<line class="st18" x1="309.5" y1="278.7" x2="309.5" y2="273.3"/>
<line class="st18" x1="309.5" y1="13" x2="309.5" y2="18.4"/>
<line class="st18" x1="348.3" y1="278.7" x2="348.3" y2="273.3"/>
<line class="st18" x1="348.3" y1="13" x2="348.3" y2="18.4"/>
<line class="st18" x1="387.1" y1="278.7" x2="387.1" y2="273.3"/>
<line class="st18" x1="387.1" y1="13" x2="387.1" y2="18.4"/>
<line class="st18" x1="425.9" y1="278.7" x2="425.9" y2="273.3"/>
<line class="st18" x1="425.9" y1="13" x2="425.9" y2="18.4"/>
<line class="st18" x1="464.7" y1="278.7" x2="464.7" y2="273.3"/>
<line class="st18" x1="464.7" y1="13" x2="464.7" y2="18.4"/>
<line class="st18" x1="503.5" y1="278.7" x2="503.5" y2="273.3"/>
<line class="st18" x1="503.5" y1="13" x2="503.5" y2="18.4"/>
<line class="st18" x1="542.3" y1="278.7" x2="542.3" y2="273.3"/>
<line class="st18" x1="542.3" y1="13" x2="542.3" y2="18.4"/>
<line class="st18" x1="37.8" y1="255.6" x2="43.2" y2="255.6"/>
<line class="st18" x1="37.8" y1="232.5" x2="43.2" y2="232.5"/>
<line class="st18" x1="581.2" y1="232.5" x2="575.7" y2="232.5"/>
<line class="st18" x1="37.8" y1="209.4" x2="43.2" y2="209.4"/>
<line class="st18" x1="581.2" y1="209.4" x2="575.7" y2="209.4"/>
<line class="st18" x1="37.8" y1="186.3" x2="43.2" y2="186.3"/>
<line class="st18" x1="581.2" y1="186.3" x2="575.7" y2="186.3"/>
<line class="st18" x1="37.8" y1="163.2" x2="43.2" y2="163.2"/>
<line class="st18" x1="581.2" y1="163.2" x2="575.7" y2="163.2"/>
<line class="st18" x1="37.8" y1="140.1" x2="43.2" y2="140.1"/>
<line class="st18" x1="581.2" y1="140.1" x2="575.7" y2="140.1"/>
<line class="st18" x1="37.8" y1="117" x2="43.2" y2="117"/>
<line class="st18" x1="581.2" y1="117" x2="575.7" y2="117"/>
<line class="st18" x1="37.8" y1="93.8" x2="43.2" y2="93.8"/>
<line class="st18" x1="581.2" y1="93.8" x2="575.7" y2="93.8"/>
<line class="st18" x1="37.8" y1="70.7" x2="43.2" y2="70.7"/>
<line class="st18" x1="581.2" y1="70.7" x2="575.7" y2="70.7"/>
<line class="st18" x1="37.8" y1="47.6" x2="43.2" y2="47.6"/>
<line class="st18" x1="581.2" y1="47.6" x2="575.7" y2="47.6"/>
<path class="st18" d="M37.8,24.5h5.4 M581.2,24.5h-5.5"/>
<rect x="554" y="42.3" class="st19" width="21.7" height="10"/>
<text transform="matrix(1 0 0 1 555.47 50.64)" class="st20 st21 st22">97th</text>
<rect x="554" y="51.4" class="st19" width="21.7" height="10"/>
<text transform="matrix(1 0 0 1 555.47 59.69)" class="st20 st21 st22">90th</text>
<rect x="554" y="60.3" class="st19" width="21.7" height="10"/>
<text transform="matrix(1 0 0 1 555.47 68.62)" class="st20 st21 st22">75th</text>
<rect x="554" y="68.7" class="st19" width="21.7" height="9.9"/>
<text transform="matrix(1 0 0 1 555.47 77.01)" class="st20 st21 st22">50th</text>
<rect x="554" y="78" class="st19" width="21.7" height="9.9"/>
<text transform="matrix(1 0 0 1 555.47 86.38)" class="st20 st21 st22">25th</text>
<rect x="554" y="86.6" class="st19" width="21.7" height="9.9"/>
<text transform="matrix(1 0 0 1 555.47 94.96)" class="st20 st21 st22">10th</text>
<rect x="554" y="95.2" class="st19" width="21.7" height="9.9"/>
<text transform="matrix(1 0 0 1 555.47 103.49)" class="st20 st21 st22">3rd</text>
</svg>
