<svg id="图层_1" data-name="图层 1" width="496" height="260" xmlns="http://www.w3.org/2000/svg" xmlns:xlink="http://www.w3.org/1999/xlink" viewBox="0 0 595.28 311.81"><defs><style>.cls-1,.cls-12,.cls-13,.cls-14,.cls-15,.cls-16,.cls-17,.cls-2,.cls-4,.cls-6,.cls-7,.cls-8{fill:none;}.cls-17,.cls-2{stroke:#13b1c1;}.cls-13,.cls-14,.cls-15,.cls-16,.cls-2{stroke-miterlimit:10;}.cls-3{clip-path:url(#clip-path);}.cls-4{stroke:#fff;}.cls-12,.cls-17,.cls-4,.cls-7,.cls-8{stroke-linejoin:round;}.cls-4,.cls-7,.cls-8{stroke-width:0.5px;}.cls-5{opacity:0.2;}.cls-6{stroke:#666;stroke-miterlimit:6;}.cls-7{stroke:#8f278a;}.cls-8{stroke:#8a1c87;}.cls-10,.cls-9{font-size:10px;fill:#13b1c1;font-family:MicrosoftYaHei, Microsoft YaHei;}.cls-10{writing-mode:tb;text-orientation:upright;glyph-orientation-vertical:0deg;}.cls-11{clip-path:url(#clip-path-3);}.cls-12{stroke:#c9161d;}.cls-12,.cls-13,.cls-14,.cls-16{stroke-width:1.4px;}.cls-13{stroke:#e47a32;}.cls-13,.cls-16{stroke-dasharray:2 1;}.cls-14{stroke:#71ac40;stroke-dasharray:5 1;}.cls-15{stroke:#138f40;stroke-width:2px;}.cls-16{stroke:#198ac9;}.cls-18{fill:#fff;}.cls-19{font-size:9px;fill:#303131;font-family:PingFangSC-Semibold-GBpc-EUC-H, PingFang SC;}</style><clipPath id="clip-path"><rect class="cls-1" x="17.95" y="12.55" width="564.56" height="281.99"/></clipPath><clipPath id="clip-path-3"><rect class="cls-2" x="37.79" y="12.98" width="543.4" height="265.78"/></clipPath></defs><title>骨龄分组 -女VI2</title><g class="cls-3"><polyline class="cls-4" points="37.79 278.71 37.79 12.98 581.09 12.98 581.09 278.71 37.79 278.71"/><g class="cls-5"><path class="cls-6" d="M76.56,278.71V13m0,0h0m38.81,265.73V13m0,0h0m38.82,265.73V13m0,0h0M193,278.71V13m0,0h0m38.81,265.73V13m0,0h0m38.82,265.73V13m0,0h0m38.81,265.73V13m0,0h0m38.82,265.73V13m0,0h0m38.81,265.73V13m0,0h0m38.82,265.73V13m0,0h0M464.7,278.71V13m0,0h0m38.82,265.73V13m0,0h0m38.81,265.73V13m0,0h0"/><path class="cls-6" d="M37.79,255.58H581.14m0,0h0M37.79,232.45H581.14m0,0h0M37.79,209.37H581.14m0,0h0M37.79,186.25H581.14m0,0h0M37.79,163.17H581.14m0,0h0M37.79,140H581.14m0,0h0M37.79,117H581.14m0,0h0M37.79,93.83H581.14m0,0h0M37.79,70.7H581.14m0,0h0M37.79,47.63H581.14m0,0h0M37.79,24.5H581.14m0,0h0"/></g><path class="cls-7" d="M37.79,13h543.3M37.79,278.71h543.3"/><path class="cls-8" d="M581.09,278.71V13M37.79,278.71V13"/><line class="cls-7" x1="37.79" y1="278.71" x2="581.09" y2="278.71"/><line class="cls-8" x1="37.79" y1="278.71" x2="37.79" y2="12.98"/></g><text class="cls-9" transform="translate(314.95 305.08)"><tspan xml:space="preserve">按骨龄分组的身高百分位曲线图(女)        RUS−CHN骨龄(岁)</tspan></text><text class="cls-9" transform="translate(8.24 257.2) rotate(90)">(cm)</text><text class="cls-10" transform="translate(10.74 229.52)">身高</text><text class="cls-9" transform="translate(73.24 288.89)">2</text><text class="cls-9" transform="translate(35.43 288.89)">1</text><text class="cls-9" transform="translate(112.06 288.89)">3</text><text class="cls-9" transform="translate(150.87 288.89)">4</text><text class="cls-9" transform="translate(189.68 288.89)">5</text><text class="cls-9" transform="translate(228.5 288.89)">6</text><text class="cls-9" transform="translate(267.31 288.89)">7</text><text class="cls-9" transform="translate(306.13 288.89)">8</text><text class="cls-9" transform="translate(344.94 288.89)">9</text><text class="cls-9" transform="translate(382.39 288.89)">10</text><text class="cls-9" transform="translate(421.2 288.89)">11</text><text class="cls-9" transform="translate(460.02 288.89)">12</text><text class="cls-9" transform="translate(498.83 288.89)">13</text><text class="cls-9" transform="translate(537.64 288.89)">14</text><text class="cls-9" transform="translate(573.6 288.89)">15</text><text class="cls-9" transform="translate(20.66 258.34)">80</text><text class="cls-9" transform="translate(20.66 235.21)">90</text><text class="cls-9" transform="translate(17.93 212.13)">100</text><text class="cls-9" transform="translate(17.93 189.01)">110</text><text class="cls-9" transform="translate(17.93 165.93)">120</text><text class="cls-9" transform="translate(17.93 142.8)">130</text><text class="cls-9" transform="translate(17.93 119.72)">140</text><text class="cls-9" transform="translate(17.93 96.59)">150</text><text class="cls-9" transform="translate(17.93 73.46)">160</text><text class="cls-9" transform="translate(17.93 50.39)">170</text><text class="cls-9" transform="translate(17.93 27.25)">180</text><g class="cls-3"><path class="cls-7" d="M37.79,13h543.3M37.79,278.71h543.3"/><path class="cls-8" d="M581.09,278.71V13M37.79,278.71V13"/></g><g class="cls-11"><path class="cls-12" d="M37.79,257.79l19.39-5.73,19.38-5.23L96,242l19.38-5.49c19.51-5.51,38.83-11.76,58.25-17.59,30.38-9.12,58.95-22.92,88.73-33.67q52.44-18.93,105.29-36.77l19.43-7.7L406.45,133l19.44-7.89,19.38-7.19,19.43-6.44,19.38-5.23,19.44-4.37,19.38-2.77,19.43-.35,19.38-.15,19.38,0"/><polyline class="cls-13" points="37.79 251.31 57.18 245.98 76.56 240.04 95.99 235.42 115.37 228.38 134.8 221.94 154.19 215.91 173.62 210.88 193 204.25 212.43 197.21 231.81 188.66 251.25 180.81 270.63 174.53 290.06 168.35 309.44 161.11 328.82 154.07 348.26 147.38 367.64 140.94 387.07 133.5 406.45 125.81 425.89 117.51 445.27 109.77 464.7 103.54 484.08 98.26 503.51 94.49 522.9 91.92 542.33 92.12 561.71 91.82 581.09 91.77"/><polyline class="cls-14" points="37.79 244.57 57.18 238.79 76.56 232.6 95.99 227.32 115.37 220.54 134.8 213.8 154.19 208.07 173.62 202.79 193 195.09 212.43 187.75 231.81 179.86 251.25 172.37 270.63 165.38 290.06 159.09 309.44 153.06 328.82 146.53 348.26 139.69 367.64 133.35 387.07 126.11 406.45 118.47 425.89 108.97 445.27 101.88 464.7 95.44 484.08 90.11 503.51 85.33 522.9 83.22 542.33 83.47 561.71 83.47 581.09 83.02"/><path class="cls-15" d="M37.79,236l19.39-6.08,19.38-5.28L96,218.27c19.71-5.31,38.68-12.79,58.2-18.7,26.61-8.06,52.16-19,77.62-30l19.44-6.94,19.38-6.53,19.43-6.14,19.38-5.83,19.39-7,19.43-7,19.38-6.28,19.43-7.59,19.38-7.4,19.44-8.19,19.38-8.3,19.43-5.93L484.08,81l19.44-3.87,19.38-1.81,19.43-.81,19.38.1,19.38.16"/><path class="cls-14" d="M37.79,226.67l19.39-4.73,19.38-6.18L96,210.43l19.38-5.73,19.43-6.64,19.39-6.84,19.43-6.68L193,175.79c19.64-7,38.6-15.66,58.25-22.63l19.38-7.24,19.43-5,19.38-6.08,19.39-7.29,19.43-6.69,19.38-6.23,19.43-7,19.38-7.09,19.44-9,19.38-7.34,19.43-7,19.38-5.33,19.44-5.08,19.38-1.21,19.43.11,19.38-.31,19.38,0"/><polyline class="cls-16" points="37.79 220.28 57.18 214.96 76.56 210.13 95.99 203.64 115.37 197.66 134.8 190.42 154.19 183.83 173.62 176.24 193 167.64 212.43 159.85 231.81 152.16 251.25 145.57 270.63 138.28 290.06 132.25 309.44 125.36 328.82 119.27 348.26 112.79 367.64 106.55 387.07 98.56 406.45 91.57 425.89 82.42 445.27 75.03 464.7 68.79 484.08 63.51 503.51 59.09 522.9 57.78 542.33 57.83 561.71 57.83 581.09 57.78"/><path class="cls-12" d="M37.79,212.69l19.39-4.57,19.38-5.73L96,196.85l19.38-6.68,19.43-6.34,19.39-7.14,19.43-7.79q19.2-8.33,38.81-15.54l19.38-7.89,19.44-7.09,19.38-6.84,19.43-7.24L309.44,118l19.39-6.09,19.4-6.83c32.82-11.55,64.6-25.75,97-38.27L464.7,60.3l19.38-5.08,19.44-3.72,19.38-1.76,19.43-.2,19.38-.1L581.09,49"/></g><rect class="cls-2" x="37.79" y="12.98" width="543.4" height="265.78"/><line class="cls-17" x1="76.57" y1="278.73" x2="76.57" y2="273.3"/><line class="cls-17" x1="76.57" y1="13" x2="76.57" y2="18.38"/><line class="cls-17" x1="115.39" y1="278.73" x2="115.39" y2="273.3"/><line class="cls-17" x1="115.39" y1="13" x2="115.39" y2="18.38"/><line class="cls-17" x1="154.2" y1="278.73" x2="154.2" y2="273.3"/><line class="cls-17" x1="154.2" y1="13" x2="154.2" y2="18.38"/><line class="cls-17" x1="193.01" y1="278.73" x2="193.01" y2="273.3"/><line class="cls-17" x1="193.01" y1="13" x2="193.01" y2="18.38"/><line class="cls-17" x1="231.83" y1="278.73" x2="231.83" y2="273.3"/><line class="cls-17" x1="231.83" y1="13" x2="231.83" y2="18.38"/><line class="cls-17" x1="270.64" y1="278.73" x2="270.64" y2="273.3"/><line class="cls-17" x1="270.64" y1="13" x2="270.64" y2="18.38"/><line class="cls-17" x1="309.46" y1="278.73" x2="309.46" y2="273.3"/><line class="cls-17" x1="309.46" y1="13" x2="309.46" y2="18.38"/><line class="cls-17" x1="348.27" y1="278.73" x2="348.27" y2="273.3"/><line class="cls-17" x1="348.27" y1="13" x2="348.27" y2="18.38"/><line class="cls-17" x1="387.09" y1="278.73" x2="387.09" y2="273.3"/><line class="cls-17" x1="387.09" y1="13" x2="387.09" y2="18.38"/><line class="cls-17" x1="425.9" y1="278.73" x2="425.9" y2="273.3"/><line class="cls-17" x1="425.9" y1="13" x2="425.9" y2="18.38"/><line class="cls-17" x1="464.72" y1="278.73" x2="464.72" y2="273.3"/><line class="cls-17" x1="464.72" y1="13" x2="464.72" y2="18.38"/><line class="cls-17" x1="503.53" y1="278.73" x2="503.53" y2="273.3"/><line class="cls-17" x1="503.53" y1="13" x2="503.53" y2="18.38"/><line class="cls-17" x1="542.34" y1="278.73" x2="542.34" y2="273.3"/><line class="cls-17" x1="542.34" y1="13" x2="542.34" y2="18.38"/><line class="cls-17" x1="37.81" y1="255.6" x2="43.22" y2="255.6"/><line class="cls-17" x1="37.81" y1="232.47" x2="43.22" y2="232.47"/><line class="cls-17" x1="581.16" y1="232.47" x2="575.69" y2="232.47"/><line class="cls-17" x1="37.81" y1="209.4" x2="43.22" y2="209.4"/><line class="cls-17" x1="581.16" y1="209.4" x2="575.69" y2="209.4"/><line class="cls-17" x1="37.81" y1="186.27" x2="43.22" y2="186.27"/><line class="cls-17" x1="581.16" y1="186.27" x2="575.69" y2="186.27"/><line class="cls-17" x1="37.81" y1="163.19" x2="43.22" y2="163.19"/><line class="cls-17" x1="581.16" y1="163.19" x2="575.69" y2="163.19"/><line class="cls-17" x1="37.81" y1="140.06" x2="43.22" y2="140.06"/><line class="cls-17" x1="581.16" y1="140.06" x2="575.69" y2="140.06"/><line class="cls-17" x1="37.81" y1="116.98" x2="43.22" y2="116.98"/><line class="cls-17" x1="581.16" y1="116.98" x2="575.69" y2="116.98"/><line class="cls-17" x1="37.81" y1="93.85" x2="43.22" y2="93.85"/><line class="cls-17" x1="581.16" y1="93.85" x2="575.69" y2="93.85"/><line class="cls-17" x1="37.81" y1="70.72" x2="43.22" y2="70.72"/><line class="cls-17" x1="581.16" y1="70.72" x2="575.69" y2="70.72"/><line class="cls-17" x1="37.81" y1="47.65" x2="43.22" y2="47.65"/><line class="cls-17" x1="581.16" y1="47.65" x2="575.69" y2="47.65"/><path class="cls-17" d="M37.81,24.52h5.41m537.94,0h-5.47"/><path class="cls-17" d="M43.08,255.55m-5.41,0,543.34,0h-5.46"/><rect class="cls-18" x="554.04" y="42.32" width="21.66" height="9.95"/><text class="cls-19" transform="translate(555.47 50.64)">97th</text><rect class="cls-18" x="554.04" y="51.36" width="21.66" height="9.95"/><text class="cls-19" transform="translate(555.47 59.69)">90th</text><rect class="cls-18" x="554.04" y="60.3" width="21.66" height="9.95"/><text class="cls-19" transform="translate(555.47 68.62)">75th</text><rect class="cls-18" x="554.04" y="68.68" width="21.66" height="9.95"/><text class="cls-19" transform="translate(555.47 77.01)">50th</text><rect class="cls-18" x="554.04" y="78.05" width="21.66" height="9.95"/><text class="cls-19" transform="translate(555.47 86.38)">25th</text><rect class="cls-18" x="554.04" y="86.63" width="21.66" height="9.95"/><text class="cls-19" transform="translate(555.47 94.96)">10th</text><rect class="cls-18" x="554.04" y="95.16" width="21.66" height="9.95"/><text class="cls-19" transform="translate(555.47 103.49)">3rd</text></svg>