<svg id="图层_1" data-name="图层 1" width="496" height="260" xmlns="http://www.w3.org/2000/svg" xmlns:xlink="http://www.w3.org/1999/xlink" viewBox="0 0 595.28 311.81"><defs><style>.cls-1,.cls-10,.cls-11,.cls-12,.cls-13,.cls-14,.cls-2,.cls-5,.cls-6,.cls-7,.cls-8{fill:none;}.cls-2,.cls-8{stroke:#13b1c1;}.cls-2,.cls-6{stroke-miterlimit:6;}.cls-3{clip-path:url(#clip-path);}.cls-4{fill:#fff;}.cls-5{stroke:#fff;}.cls-10,.cls-5,.cls-7,.cls-8{stroke-linejoin:round;}.cls-5,.cls-7{stroke-width:0.5px;}.cls-6{stroke:#666;opacity:0.2;}.cls-7{stroke:#1b2c77;}.cls-9{clip-path:url(#clip-path-2);}.cls-10{stroke:#c9161d;}.cls-10,.cls-11,.cls-14{stroke-width:1.4px;}.cls-11{stroke:#e47a32;}.cls-11,.cls-12,.cls-13,.cls-14{stroke-miterlimit:10;}.cls-11,.cls-14{stroke-dasharray:2 1;}.cls-12{stroke:#71ac40;stroke-width:0.75px;stroke-dasharray:5 1;}.cls-13{stroke:#138f40;stroke-width:2px;}.cls-14{stroke:#198ac9;}.cls-15{font-size:6.07px;fill:#231815;font-family:Helvetica;}.cls-16{font-size:11px;}.cls-16,.cls-17,.cls-18{fill:#13b1c1;font-family:MicrosoftYaHei, Microsoft YaHei;}.cls-17,.cls-18{font-size:10px;}.cls-18{writing-mode:tb;text-orientation:upright;glyph-orientation-vertical:0deg;}.cls-19{font-size:9px;fill:#303131;font-family:PingFangSC-Semibold-GBpc-EUC-H, PingFang SC;}</style><clipPath id="clip-path"><rect class="cls-1" x="19.7" y="10.52" width="564.15" height="281.69"/></clipPath><clipPath id="clip-path-2"><rect class="cls-2" x="37.86" y="13.13" width="543.3" height="265.43"/></clipPath></defs><title>骨龄分组BMITW3-CRUS</title><g class="cls-3"><rect class="cls-4" x="19.5" y="10.4" width="564.39" height="281.87"/></g><polyline class="cls-5" points="37.86 278.51 37.86 13.13 581.11 13.13 581.11 278.51 37.86 278.51"/><path class="cls-6" d="M37.86,278.51V13.13m0,0h0M74.07,278.51V13.13m0,0h0m36.2,265.38V13.13m0,0h0m36.21,265.38V13.13m0,0h0m36.21,265.38V13.13m0,0h0m36.25,265.38V13.13m0,0h0m36.21,265.38V13.13m0,0h0m36.21,265.38V13.13m0,0h0m36.21,265.38V13.13m0,0h0m36.2,265.38V13.13m0,0h0M400,278.51V13.13m0,0h0m36.21,265.38V13.13m0,0h0m36.2,265.38V13.13m0,0h0m36.21,265.38V13.13m0,0h0m36.21,265.38V13.13m0,0h0m36.25,265.38V13.13m0,0h0M37.86,278.51H581.11m0,0h0M37.86,256.36H581.11m0,0h0M37.86,234.26H581.11m0,0h0M37.86,212.16H581.11m0,0h0M37.86,190H581.11m0,0h0M37.86,167.92H581.11m0,0h0M37.86,145.82H581.11m0,0h0M37.86,123.67H581.11m0,0h0M37.86,101.57H581.11m0,0h0M37.86,79.47H581.11m0,0h0M37.86,57.32H581.11m0,0h0M37.86,35.23H581.11m0,0h0M37.86,13.13H581.11m0,0h0"/><path class="cls-7" d="M37.86,13.13H581.11M37.86,278.51H581.11m0,0V13.13M37.86,278.51V13.13m0,265.38H581.11m-543.25,0V13.13m0,265.38v-5.46m0-259.92v5.41"/><path class="cls-7" d="M581.11,278.51v-5.46m0-259.92v5.41"/><path class="cls-7" d="M37.86,278.51h5.41m537.84,0h-5.46"/><path class="cls-8" d="M74.07,278.51v-5.46m0-259.92v5.41"/><path class="cls-8" d="M110.27,278.51v-5.46m0-259.92v5.41"/><path class="cls-8" d="M146.48,278.51v-5.46m0-259.92v5.41"/><path class="cls-8" d="M182.69,278.51v-5.46m0-259.92v5.41"/><path class="cls-8" d="M218.94,278.51v-5.46m0-259.92v5.41"/><path class="cls-8" d="M255.15,278.51v-5.46m0-259.92v5.41"/><path class="cls-8" d="M291.36,278.51v-5.46m0-259.92v5.41"/><path class="cls-8" d="M327.57,278.51v-5.46m0-259.92v5.41"/><path class="cls-8" d="M363.77,278.51v-5.46m0-259.92v5.41"/><path class="cls-8" d="M400,278.51v-5.46m0-259.92v5.41"/><path class="cls-8" d="M436.24,278.51v-5.46m0-259.92v5.41"/><path class="cls-8" d="M472.44,278.51v-5.46m0-259.92v5.41"/><path class="cls-8" d="M508.65,278.51v-5.46m0-259.92v5.41"/><path class="cls-8" d="M544.86,278.51v-5.46m0-259.92v5.41"/><path class="cls-8" d="M37.86,256.36h5.41m537.84,0h-5.46"/><path class="cls-8" d="M37.86,234.26h5.41m537.84,0h-5.46"/><path class="cls-8" d="M37.86,212.16h5.41m537.84,0h-5.46"/><path class="cls-8" d="M37.86,190h5.41m537.84,0h-5.46"/><path class="cls-8" d="M37.86,167.92h5.41m537.84,0h-5.46"/><path class="cls-8" d="M37.86,145.82h5.41m537.84,0h-5.46"/><path class="cls-8" d="M37.86,123.67h5.41m537.84,0h-5.46"/><path class="cls-8" d="M37.86,101.57h5.41m537.84,0h-5.46"/><path class="cls-8" d="M37.86,79.47h5.41m537.84,0h-5.46"/><path class="cls-8" d="M37.86,57.32h5.41m537.84,0h-5.46"/><path class="cls-8" d="M37.86,35.23h5.41m537.84,0h-5.46"/><path class="cls-7" d="M37.86,13.13h5.41m537.84,0h-5.46"/><path class="cls-7" d="M37.86,13.13H581.11M37.86,278.51H581.11m0,0V13.13M37.86,278.51V13.13"/><g class="cls-9"><polyline class="cls-10" points="37.86 259.39 55.96 252.26 74.07 245.74 92.17 239.57 110.27 232.75 128.38 225.11 146.48 218.53 164.58 211.71 182.69 206.7 200.79 201.19 218.94 195.73 237.05 190.47 255.15 184.6 273.25 178.89 291.36 173.48 309.46 167.87 327.56 161.59 345.67 154.62 363.77 146.83 381.88 138.33 400.03 129.69 418.13 121.7 436.24 115.02 454.34 109.92 472.44 106.22 490.55 103.85 508.65 102.48 526.75 101.77 544.86 101.42 562.96 101.12 581.11 100.86"/><polyline class="cls-11" points="37.86 253.28 55.96 246.04 74.07 239.37 92.17 232.44 110.27 225.31 128.38 217.37 146.48 210.54 164.58 204.17 182.69 198.46 200.79 193.55 218.94 187.34 237.05 182.07 255.15 176.16 273.25 171.15 291.36 165.13 309.46 159.52 327.56 153.25 345.67 146.27 363.77 138.38 381.88 129.79 400.03 121.04 418.13 112.95 436.24 106.17 454.34 101.02 472.44 97.32 490.55 94.9 508.65 93.58 526.75 92.92 544.86 92.57 562.96 92.32 581.11 92.11"/><polyline class="cls-12" points="37.86 246.65 55.96 238.86 74.07 231.73 92.17 224.55 110.27 217.57 128.38 209.43 146.48 202.3 164.58 195.88 182.69 190.06 200.79 185.21 218.94 179.65 237.05 173.68 255.15 167.76 273.25 162.15 291.36 156.84 309.46 151.33 327.56 145.06 345.67 138.08 363.77 130.19 381.88 121.5 400.03 112.65 418.13 104.4 436.24 97.63 454.34 92.42 472.44 88.73 490.55 86.3 508.65 85.03 526.75 84.43 544.86 84.13 562.96 83.92 581.11 83.72"/><polyline class="cls-13" points="37.86 238.71 55.96 230.72 74.07 223.29 92.17 216.31 110.27 208.67 128.38 200.94 146.48 193.76 164.58 186.58 182.69 180.81 200.79 175.35 218.94 170.14 237.05 165.03 255.15 158.76 273.25 153.2 291.36 147.99 309.46 142.53 327.56 136.31 345.67 129.38 363.77 121.44 381.88 112.7 400.03 103.75 418.13 95.45 436.24 88.58 454.34 83.37 472.44 79.67 490.55 77.3 508.65 76.03 526.75 75.53 544.86 75.28 562.96 75.12 581.11 75.02"/><polyline class="cls-12" points="37.86 230.27 55.96 222.02 74.07 214.44 92.17 207.26 110.27 199.42 128.38 190.82 146.48 183.54 164.58 177.27 182.69 171.41 200.79 166.65 218.94 161.24 237.05 155.38 255.15 149.66 273.25 144.2 291.36 139.09 309.46 133.73 327.56 127.61 345.67 120.69 363.77 112.75 381.88 103.9 400.03 94.9 418.13 86.55 436.24 79.63 454.34 74.36 472.44 70.67 490.55 68.4 508.65 67.19 526.75 66.73 544.86 66.58 562.96 66.48 581.11 66.43"/><polyline class="cls-14" points="37.86 222.23 55.96 213.83 74.07 206.04 92.17 198.06 110.27 190.72 128.38 181.97 146.48 174.14 164.58 168.12 182.69 162.51 200.79 157.65 218.94 152.54 237.05 146.78 255.15 141.12 273.25 135.75 291.36 130.75 309.46 125.49 327.56 119.42 345.67 112.49 363.77 104.56 381.88 95.7 400.03 86.6 418.13 78.21 436.24 71.23 454.34 65.97 472.44 62.33 490.55 60.05 508.65 58.89 526.75 58.54 544.86 58.44 562.96 58.44 581.11 58.44"/><polyline class="cls-10" points="37.86 213.83 55.96 205.34 74.07 197.4 92.17 189.91 110.27 181.32 128.38 172.82 146.48 165.84 164.58 159.37 182.69 153.66 200.79 148.8 218.94 143.64 237.05 138.59 255.15 132.37 273.25 127.16 291.36 122.25 309.46 117.09 327.56 111.08 345.67 104.2 363.77 96.26 381.88 87.36 400.03 78.21 418.13 69.71 436.24 62.68 454.34 57.42 472.44 53.78 490.55 51.56 508.65 50.5 526.75 50.19 544.86 50.14 562.96 50.24 581.11 50.3"/></g><rect class="cls-2" x="37.86" y="13.13" width="543.3" height="265.43"/><text class="cls-15" transform="translate(580.3 15.25)"> </text><text class="cls-16" transform="translate(35.54 290.73)">3</text><text class="cls-16" transform="translate(71.71 290.73)">4</text><text class="cls-16" transform="translate(107.87 290.73)">5</text><text class="cls-16" transform="translate(144.03 290.73)">6</text><text class="cls-16" transform="translate(180.2 290.73)">7</text><text class="cls-16" transform="translate(216.36 290.73)">8</text><text class="cls-16" transform="translate(252.52 290.73)">9</text><text class="cls-16" transform="translate(285.46 290.73)">10</text><text class="cls-16" transform="translate(321.62 290.73)">11</text><text class="cls-16" transform="translate(357.79 290.73)">12</text><text class="cls-16" transform="translate(393.95 290.73)">13</text><text class="cls-16" transform="translate(430.11 290.73)">14</text><text class="cls-16" transform="translate(466.28 290.73)">15</text><text class="cls-16" transform="translate(502.44 290.73)">16</text><text class="cls-16" transform="translate(538.6 290.73)">17</text><text class="cls-16" transform="translate(574.77 290.73)">18</text><text class="cls-16" transform="translate(21.45 282.28)">80 </text><text class="cls-16" transform="translate(22.45 260.13)">90</text><text class="cls-16" transform="translate(16 238.03)">100</text><text class="cls-16" transform="translate(16 215.93)">110</text><text class="cls-16" transform="translate(16 193.78)">120</text><text class="cls-16" transform="translate(16 171.68)">130</text><text class="cls-16" transform="translate(16 149.59)">140</text><text class="cls-16" transform="translate(16 127.44)">150</text><text class="cls-16" transform="translate(16 105.34)">160</text><text class="cls-16" transform="translate(16 83.24)">170</text><text class="cls-16" transform="translate(16 61.1)">180</text><text class="cls-16" transform="translate(16 38.99)">190</text><text class="cls-16" transform="translate(16 16.9)">200</text><text class="cls-17" transform="translate(305.95 305.08)"><tspan xml:space="preserve">按骨龄分组的身高百分位曲线图(男)         TW3-C RUS骨龄(岁)</tspan></text><text class="cls-17" transform="translate(8.24 258.2) rotate(90)">(cm)</text><text class="cls-18" transform="translate(10.74 232.52)">身高</text><rect class="cls-4" x="554.16" y="43.84" width="21.66" height="9.95"/><text class="cls-19" transform="translate(555.59 52.17)">97th</text><rect class="cls-4" x="554.16" y="52.89" width="21.66" height="9.95"/><text class="cls-19" transform="translate(555.59 61.21)">90th</text><rect class="cls-4" x="554.16" y="61.82" width="21.66" height="9.95"/><text class="cls-19" transform="translate(555.59 70.15)">75th</text><rect class="cls-4" x="554.16" y="70.2" width="21.66" height="9.95"/><text class="cls-19" transform="translate(555.59 78.53)">50th</text><rect class="cls-4" x="554.16" y="79.58" width="21.66" height="9.95"/><text class="cls-19" transform="translate(555.59 87.91)">25th</text><rect class="cls-4" x="554.16" y="88.16" width="21.66" height="9.95"/><text class="cls-19" transform="translate(555.59 96.49)">10th</text><rect class="cls-4" x="554.16" y="96.69" width="21.66" height="9.95"/><text class="cls-19" transform="translate(555.59 105.02)">3rd</text></svg>