<svg id="图层_1" data-name="图层 1" width="496" height="260" xmlns="http://www.w3.org/2000/svg" xmlns:xlink="http://www.w3.org/1999/xlink" viewBox="0 0 595.28 311.81"><defs><style>.cls-1,.cls-10,.cls-11,.cls-12,.cls-13,.cls-14,.cls-15,.cls-4,.cls-5,.cls-6{fill:none;}.cls-2{clip-path:url(#clip-path);}.cls-3{fill:#fff;}.cls-4{stroke:#fff;}.cls-10,.cls-11,.cls-4,.cls-6{stroke-linejoin:round;}.cls-4,.cls-6{stroke-width:0.5px;}.cls-5{stroke:#666;stroke-miterlimit:6;opacity:0.2;}.cls-6{stroke:#000;}.cls-7,.cls-8{font-size:11px;}.cls-7,.cls-8,.cls-9{fill:#13b1c1;font-family:MicrosoftYaHei, Microsoft YaHei;}.cls-8{writing-mode:tb;text-orientation:upright;glyph-orientation-vertical:0deg;}.cls-9{font-size:10px;}.cls-10{stroke:#13b1c1;}.cls-11{stroke:#d31348;}.cls-11,.cls-13,.cls-14,.cls-15{stroke-width:1.2px;}.cls-12{stroke:#138f40;stroke-width:1.6px;}.cls-12,.cls-13,.cls-14,.cls-15{stroke-miterlimit:10;}.cls-13{stroke:#24acab;stroke-dasharray:5 2;}.cls-14{stroke:#e47a32;}.cls-14,.cls-15{stroke-dasharray:2 2;}.cls-15{stroke:#198ac9;}.cls-16{font-size:4.71px;fill:#231815;font-family:Helvetica;}.cls-17{font-size:6px;fill:#303131;font-family:PingFangSC-Semibold-GBpc-EUC-H, PingFang SC;}</style><clipPath id="clip-path"><rect class="cls-1" x="28.34" y="10.17" width="555.01" height="274.34"/></clipPath></defs><title>女身高百分位数-处理VI</title><g class="cls-2"><rect class="cls-3" x="28.15" y="10.17" width="555.65" height="274.39"/></g><rect class="cls-3" x="37.85" y="12.82" width="543.22" height="265.61"/><polyline class="cls-4" points="37.85 278.43 37.85 12.82 581.07 12.82 581.07 278.43 37.85 278.43"/><path class="cls-5" d="M37.85,278.43V12.82m0,0h0M98.19,278.43V12.82m0,0h0m60.34,265.61V12.82m0,0h0m60.39,265.61V12.82m0,0h0m60.34,265.61V12.82m0,0h0M339.6,278.43V12.82m0,0h0M400,278.43V12.82m0,0h0m60.34,265.61V12.82m0,0h0m60.34,265.61V12.82m0,0h0m60.39,265.61V12.82m0,0h0M37.85,278.43H581.06m0,0h0m-543.21-38H581.06m0,0h0M37.85,202.52H581.06m0,0h0M37.85,164.59H581.06m0,0h0m-543.21-38H581.06m0,0h0M37.85,88.68H581.06m0,0h0M37.85,50.75H581.06m0,0h0M37.85,12.82H581.06m0,0h0"/><path class="cls-6" d="M37.85,12.82H581.06M37.85,278.43H581.06m0,0V12.82M37.85,278.43V12.82m0,265.61H581.06m-543.21,0V12.82m0,265.61V273m0-260.21v5.35"/><rect class="cls-1" x="28.34" y="10.17" width="555.01" height="274.34"/><rect class="cls-1" x="28.34" y="10.17" width="555.01" height="274.34"/><rect class="cls-1" x="28.34" y="10.17" width="555.01" height="274.34"/><path class="cls-6" d="M581.06,278.43V273m0-260.21v5.35"/><path class="cls-6" d="M37.85,278.43h5.42m537.79,0h-5.47"/><path class="cls-6" d="M37.85,12.82h5.42m537.79,0h-5.47"/><text class="cls-7" transform="translate(5.5 255.77) rotate(90)">(cm)</text><text class="cls-8" transform="translate(8.48 226.95)">身高</text><text class="cls-7" transform="translate(412.78 305.12)"><tspan xml:space="preserve">身高百分位曲线图(女)       年龄(岁) </tspan></text><text class="cls-9" transform="translate(36.56 289.46)">0</text><text class="cls-9" transform="translate(96.89 289.46)">2</text><text class="cls-9" transform="translate(157.24 289.46)">4</text><text class="cls-9" transform="translate(217.63 289.46)">6</text><text class="cls-9" transform="translate(277.97 289.46)">8</text><text class="cls-9" transform="translate(336.97 289.46)">10</text><text class="cls-9" transform="translate(392.47 289.46)">12</text><text class="cls-9" transform="translate(455.19 289.46)">14</text><text class="cls-9" transform="translate(514.69 289.46)">16</text><text class="cls-9" transform="translate(573.19 289.46)">18</text><text class="cls-9" transform="translate(24.01 282.15)">40</text><text class="cls-9" transform="translate(24.01 244.17)">60</text><text class="cls-9" transform="translate(24.01 206.23)">80</text><text class="cls-9" transform="translate(18.15 168.3)">100</text><text class="cls-9" transform="translate(18.15 130.32)">120</text><text class="cls-9" transform="translate(18.15 92.4)">140</text><text class="cls-9" transform="translate(18.15 54.47)">160</text><text class="cls-9" transform="translate(18.15 16.54)">180</text><path class="cls-10" d="M98.19,278.43V273m0-260.21v5.35"/><path class="cls-10" d="M158.53,278.43V273m0-260.21v5.35"/><path class="cls-10" d="M218.92,278.43V273m0-260.21v5.35"/><path class="cls-10" d="M279.26,278.43V273m0-260.21v5.35"/><path class="cls-10" d="M339.6,278.43V273m0-260.21v5.35"/><path class="cls-10" d="M400,278.43V273m0-260.21v5.35"/><path class="cls-10" d="M460.33,278.43V273m0-260.21v5.35"/><path class="cls-10" d="M520.67,278.43V273m0-260.21v5.35"/><path class="cls-10" d="M37.85,240.45h5.42m537.79,0h-5.47"/><path class="cls-10" d="M37.85,202.52h5.42m537.79,0h-5.47"/><path class="cls-10" d="M37.85,164.59h5.42m537.79,0h-5.47"/><path class="cls-10" d="M37.85,126.61h5.42m537.79,0h-5.47"/><path class="cls-10" d="M37.85,88.68h5.42m537.79,0h-5.47"/><path class="cls-10" d="M37.85,50.75h5.42m537.79,0h-5.47"/><path class="cls-10" d="M37.85,12.82H581.06M37.85,278.43H581.06m0,0V12.82M37.85,278.43V12.82"/><polyline class="cls-11" points="37.85 265.87 42.87 252.96 47.9 242.16 52.92 235.74 60.48 228.33 67.99 221.51 75.56 215.42 83.12 210.12 90.63 205.36 98.19 200.8 113.26 192.66 128.38 186.18 143.46 178.97 158.53 172.54 173.65 166.11 188.73 160.22 203.8 154.33 218.92 149.18 233.99 144.47 249.07 139.32 264.19 134.22 279.26 129.46 294.33 124.75 309.46 120.38 324.53 115.81 339.6 110.86 354.73 105.56 369.8 99.67 384.87 93.98 399.99 88.29 415.07 83.18 430.14 79.21 445.26 75.97 460.33 73.71 475.41 71.8 490.53 70.67 505.6 69.89 520.67 70.08 535.8 69.89 550.87 69.54 581.07 68.95"/><polyline class="cls-12" points="37.85 259.98 42.87 245.4 47.9 234.56 52.92 227.54 60.48 219.59 67.99 211.99 75.56 205.36 83.12 199.67 90.63 194.18 98.19 188.88 113.26 179.55 128.38 172.93 143.46 165.72 158.53 158.7 173.65 151.88 188.73 145.21 203.8 138.97 218.92 133.09 233.99 127.79 249.07 121.9 264.19 116.01 279.26 110.52 294.33 105.17 309.46 99.87 324.53 94.37 339.6 88.48 354.73 82.4 369.8 76.17 384.87 70.28 399.99 65.18 415.07 61.01 430.14 57.77 445.26 55.31 460.33 53.4 475.41 51.88 490.53 51.14 505.6 50.55 520.67 50.55 535.8 50.36 550.87 50.16 581.07 49.62"/><polyline class="cls-13" points="37.85 262.09 42.87 248.05 47.9 237.21 52.92 230.59 60.48 222.83 67.99 215.42 75.56 208.95 83.12 203.45 90.63 198.15 98.19 193.19 113.26 184.31 128.38 177.64 143.46 170.62 158.53 163.8 173.65 156.98 188.73 150.7 203.8 144.47 218.92 138.97 233.99 133.82 249.07 128.13 264.19 122.64 279.26 117.33 294.33 112.23 309.46 107.28 324.53 102.17 339.6 96.48 354.73 90.79 369.8 84.51 384.87 78.82 399.99 73.52 415.07 68.95 430.14 65.52 445.26 62.67 460.33 60.61 475.41 59.09 490.53 58.16 505.6 57.37 520.67 57.57 535.8 57.37 550.87 56.98 581.07 56.44"/><polyline class="cls-14" points="37.85 264.2 42.87 250.51 47.9 239.91 52.92 233.04 60.48 225.68 67.99 218.47 75.56 212.18 83.12 206.88 90.63 201.73 98.19 197.02 113.26 188.48 128.38 182.01 143.46 174.79 158.53 168.17 173.65 161.74 188.73 155.46 203.8 149.38 218.92 144.08 233.99 139.17 249.07 133.82 264.19 128.52 279.26 123.57 294.33 118.66 309.46 113.9 324.53 108.99 339.6 103.69 354.73 98.15 369.8 92.11 384.87 86.42 399.99 80.93 415.07 76.17 430.14 72.39 445.26 69.35 460.33 67.24 475.41 65.52 490.53 64.39 505.6 63.85 520.67 63.85 535.8 63.66 550.87 63.26 581.07 62.67"/><polyline class="cls-13" points="37.85 257.72 42.87 242.56 47.9 231.71 52.92 224.5 60.48 216.16 67.99 208.6 75.56 201.73 83.12 195.7 90.63 190.01 98.19 184.31 113.26 174.79 128.38 167.97 143.46 160.76 158.53 153.74 173.65 146.53 188.73 139.71 203.8 133.28 218.92 127.2 233.99 121.51 249.07 115.42 264.19 109.39 279.26 103.69 294.33 98 309.46 92.46 324.53 86.62 339.6 80.34 354.73 74.06 369.8 67.63 384.87 61.94 399.99 56.98 415.07 53.01 430.14 50.16 445.26 47.71 460.33 46.19 475.41 44.86 490.53 44.08 505.6 43.54 520.67 43.54 535.8 43.54 550.87 43.14 581.07 42.75"/><polyline class="cls-15" points="37.85 255.81 42.87 240.06 47.9 229.06 52.92 221.85 60.48 213.31 67.99 205.36 75.56 198.35 83.12 192.07 90.63 186.18 98.19 180.34 113.26 170.28 128.38 163.61 143.46 156.25 158.53 149.03 173.65 141.62 188.73 134.8 203.8 127.93 218.92 121.9 233.99 116.01 249.07 109.53 264.19 103.3 279.26 97.41 294.33 91.53 309.46 85.64 324.53 79.55 339.6 73.13 354.73 66.7 369.8 59.83 384.87 54.13 399.99 49.42 415.07 45.79 430.14 43.14 445.26 41.08 460.33 39.56 475.41 38.38 490.53 37.84 505.6 37.26 520.67 37.26 535.8 37.26 550.87 36.91 581.07 36.52"/><path class="cls-11" d="M37.85,253.75l5-16.34,5-11,5-7.21,7.56-8.93L68,202.13l7.57-7.22,7.56-6.43,7.51-6.28c11.46-9.58,24-16.92,37.75-23.11l15.08-7.41,15.07-7.21,15.12-7.8,15.08-7,15.07-6.82,15.12-6.43L234,110.32l15.08-6.63,15.12-6.47,15.07-6.09,15.07-6L309.46,79l15.07-6.47,15.07-6.63,15.12-6.82,15.08-6.82,15.07-5.49L400,42.21l15.08-3.43,15.07-2.46,15.12-1.91,15.07-1.32,15.08-.94,15.12-.59,15.07-.34h15.07L535.8,31l15.07-.19,30.19-.39"/><text class="cls-16" transform="translate(580.47 14.49) scale(1.01 1)"> </text><rect class="cls-3" x="563.69" y="26.76" width="12.85" height="5.9"/><text class="cls-17" transform="translate(563.55 31.7)">97th</text><rect class="cls-3" x="563.69" y="33.88" width="12.85" height="5.9"/><text class="cls-17" transform="translate(563.55 38.82)">90th</text><rect class="cls-3" x="563.69" y="39.99" width="12.85" height="5.9"/><text class="cls-17" transform="translate(563.55 44.94)">75th</text><rect class="cls-3" x="563.69" y="45.94" width="12.85" height="5.9"/><text class="cls-17" transform="translate(563.55 50.88)">50th</text><rect class="cls-3" x="563.69" y="52.87" width="12.85" height="5.9"/><text class="cls-17" transform="translate(563.55 57.82)">25th</text><rect class="cls-3" x="563.69" y="59.34" width="12.85" height="5.9"/><text class="cls-17" transform="translate(563.55 64.28)">10th</text><rect class="cls-3" x="563.69" y="66.18" width="12.85" height="5.9"/><text class="cls-17" transform="translate(563.55 71.12)">3rd</text></svg>