<svg id="图层_1" data-name="图层 1" width="496" height="260" xmlns="http://www.w3.org/2000/svg" xmlns:xlink="http://www.w3.org/1999/xlink" viewBox="0 0 595.28 311.81"><defs><style>.cls-1,.cls-10,.cls-11,.cls-12,.cls-3,.cls-4,.cls-5,.cls-6,.cls-7,.cls-8,.cls-9{fill:none;}.cls-2{clip-path:url(#clip-path);}.cls-3{stroke:#fff;}.cls-3,.cls-5,.cls-6,.cls-7,.cls-8{stroke-linejoin:round;}.cls-3,.cls-5,.cls-7{stroke-width:0.5px;}.cls-4{stroke:#666;stroke-miterlimit:6;opacity:0.2;}.cls-5{stroke:#000;}.cls-6,.cls-7{stroke:#13b1c1;}.cls-8{stroke:#d31348;}.cls-10,.cls-11,.cls-12,.cls-8{stroke-width:1.4px;}.cls-9{stroke:#138f40;stroke-width:2px;}.cls-10,.cls-11,.cls-12,.cls-9{stroke-miterlimit:10;}.cls-10{stroke:#e47a32;}.cls-10,.cls-12{stroke-dasharray:2 2;}.cls-11{stroke:#24acab;stroke-dasharray:5 2;}.cls-12{stroke:#198ac9;}.cls-13{font-size:11px;}.cls-13,.cls-14,.cls-15{fill:#13b1c1;font-family:MicrosoftYaHei, Microsoft YaHei;}.cls-14,.cls-15{font-size:10px;}.cls-15{writing-mode:tb;text-orientation:upright;glyph-orientation-vertical:0deg;}.cls-16{fill:#fff;}.cls-17{font-size:9px;fill:#303131;font-family:PingFangSC-Semibold-GBpc-EUC-H, PingFang SC;}</style><clipPath id="clip-path"><rect class="cls-1" x="19.73" y="10.33" width="562.47" height="281.95"/></clipPath></defs><title>男身高百分位数-处理VI</title><g class="cls-2"><polyline class="cls-3" points="37.93 278.64 37.93 13.05 581.04 13.05 581.04 278.64 37.93 278.64"/><path class="cls-4" d="M37.93,278.64V13.05m0,0h0m108.6,265.59V13.05m0,0h0m108.6,265.59V13.05m0,0h0M363.79,278.64V13.05m0,0h0m108.6,265.59V13.05m0,0h0M581,278.64V13.05m0,0h0M37.93,278.64H581m0,0h0M37.93,234.33H581m0,0h0M37.93,190.08H581m0,0h0M37.93,145.82H581m0,0h0M37.93,101.56H581m0,0h0M37.93,57.31H581m0,0h0M37.93,13.05H581m0,0h0"/><path class="cls-5" d="M37.93,13.05H581M37.93,278.64H581m0,0V13.05M37.93,278.64V13.05m0,265.59H581m-543.11,0V13.05m0,265.59V273.2m0-260.15v5.39"/></g><path class="cls-6" d="M59.63,278.64v-2.72m0-262.87v2.67m21.7,262.92v-2.72m0-262.87v2.67m21.75,262.92v-2.72m0-262.87v2.67m21.7,262.92v-2.72m0-262.87v2.67m21.75,262.92v-2.72m0-262.87v2.67m0,262.92v-2.72m0-262.87v2.67m0,262.92v-2.72m0-262.87v2.67m0,262.92v-2.72m0-262.87v2.67m0,262.92v-2.72m0-262.87v2.67m0,262.92V273.2m0-260.15v5.39"/><path class="cls-6" d="M168.23,278.64v-2.72m0-262.87v2.67M190,278.64v-2.72m0-262.87v2.67m21.7,262.92v-2.72m0-262.87v2.67m21.75,262.92v-2.72m0-262.87v2.67m21.7,262.92v-2.72m0-262.87v2.67m0,262.92v-2.72m0-262.87v2.67m0,262.92v-2.72m0-262.87v2.67m0,262.92v-2.72m0-262.87v2.67m0,262.92v-2.72m0-262.87v2.67m0,262.92V273.2m0-260.15v5.39"/><path class="cls-6" d="M276.88,278.64v-2.72m0-262.87v2.67m21.7,262.92v-2.72m0-262.87v2.67m21.75,262.92v-2.72m0-262.87v2.67M342,278.64v-2.72m0-262.87v2.67m21.76,262.92v-2.72m0-262.87v2.67m0,262.92v-2.72m0-262.87v2.67m0,262.92v-2.72m0-262.87v2.67m0,262.92v-2.72m0-262.87v2.67m0,262.92v-2.72m0-262.87v2.67m0,262.92V273.2m0-260.15v5.39"/><path class="cls-6" d="M385.49,278.64v-2.72m0-262.87v2.67m21.75,262.92v-2.72m0-262.87v2.67m21.7,262.92v-2.72m0-262.87v2.67m21.75,262.92v-2.72m0-262.87v2.67m21.7,262.92v-2.72m0-262.87v2.67m0,262.92v-2.72m0-262.87v2.67m0,262.92v-2.72m0-262.87v2.67m0,262.92v-2.72m0-262.87v2.67m0,262.92v-2.72m0-262.87v2.67m0,262.92V273.2m0-260.15v5.39"/><g class="cls-2"><path class="cls-6" d="M494.14,278.64v-2.72m0-262.87v2.67m21.7,262.92v-2.72m0-262.87v2.67m21.75,262.92v-2.72m0-262.87v2.67m21.7,262.92v-2.72m0-262.87v2.67M581,278.64v-2.72m0-262.87v2.67m0,262.92v-2.72m0-262.87v2.67m0,262.92v-2.72m0-262.87v2.67m0,262.92v-2.72m0-262.87v2.67m0,262.92v-2.72m0-262.87v2.67m0,262.92V273.2m0-260.15v5.39"/></g><g class="cls-2"><path class="cls-5" d="M37.93,278.64h5.39m537.72,0H575.6"/></g><g class="cls-2"><path class="cls-7" d="M37.93,256.49H40.6m540.44,0h-2.72M37.93,234.33H40.6m540.44,0h-2.72m-540.39,0H40.6m540.44,0h-2.72m-540.39,0H40.6m540.44,0h-2.72m-540.39,0H40.6m540.44,0h-2.72m-540.39,0H40.6m540.44,0h-2.72m-540.39,0H40.6m540.44,0h-2.72m-540.39,0H40.6m540.44,0h-2.72m-540.39,0H40.6m540.44,0h-2.72m-540.39,0h5.39m537.72,0H575.6"/></g><g class="cls-2"><path class="cls-7" d="M37.93,212.23H40.6m540.44,0h-2.72M37.93,190.08H40.6m540.44,0h-2.72m-540.39,0H40.6m540.44,0h-2.72m-540.39,0H40.6m540.44,0h-2.72m-540.39,0H40.6m540.44,0h-2.72m-540.39,0H40.6m540.44,0h-2.72m-540.39,0H40.6m540.44,0h-2.72m-540.39,0H40.6m540.44,0h-2.72m-540.39,0H40.6m540.44,0h-2.72m-540.39,0h5.39m537.72,0H575.6"/></g><path class="cls-7" d="M37.93,168H40.6M581,168h-2.72M37.93,145.82H40.6m540.44,0h-2.72m-540.39,0H40.6m540.44,0h-2.72m-540.39,0H40.6m540.44,0h-2.72m-540.39,0H40.6m540.44,0h-2.72m-540.39,0H40.6m540.44,0h-2.72m-540.39,0H40.6m540.44,0h-2.72m-540.39,0H40.6m540.44,0h-2.72m-540.39,0H40.6m540.44,0h-2.72m-540.39,0h5.39m537.72,0H575.6"/><path class="cls-7" d="M37.93,79.41H40.6m540.44,0h-2.72M37.93,57.31H40.6m540.44,0h-2.72m-540.39,0H40.6m540.44,0h-2.72m-540.39,0H40.6m540.44,0h-2.72m-540.39,0H40.6m540.44,0h-2.72m-540.39,0H40.6m540.44,0h-2.72m-540.39,0H40.6m540.44,0h-2.72m-540.39,0H40.6m540.44,0h-2.72m-540.39,0H40.6m540.44,0h-2.72m-540.39,0h5.39m537.72,0H575.6"/><path class="cls-7" d="M37.93,35.15H40.6m540.44,0h-2.72M37.93,13.05H40.6m540.44,0h-2.72m-540.39,0H40.6m540.44,0h-2.72m-540.39,0H40.6m540.44,0h-2.72m-540.39,0H40.6m540.44,0h-2.72m-540.39,0H40.6m540.44,0h-2.72m-540.39,0H40.6m540.44,0h-2.72m-540.39,0H40.6m540.44,0h-2.72m-540.39,0H40.6m540.44,0h-2.72m-540.39,0h5.39m537.72,0H575.6"/><path class="cls-6" d="M37.93,13.05H581M37.93,278.64H581m0,0V13.05M37.93,278.64V13.05"/><path class="cls-8" d="M37.93,247.17l33.75-24.71a215.49,215.49,0,0,1,22.4-14.53c22.52-12.59,44.51-24,69.16-31.9,25.24-8.12,51.12-14,76.81-20.5l1.54-.4c22.75-5.35,45.44-11.32,68.34-16,22.4-4.57,44.93-8.54,67.4-12.79l67.92-11.08,67.87-11.48L581,92.25h.05"/><path class="cls-9" d="M37.93,232.57l17.86-14.49c7.25-5.88,14.4-11.94,21.72-17.76,1.52-1.21,11.25-7.69,14.57-9.61l20-11.59c39.72-23,85.64-32.81,129.46-44.83,28.45-7.22,56.83-14.71,85.51-21,31.3-6.82,62.56-13.24,94-19.19l24.12-4.56,67.87-12.79L581,64l.05-.05"/><polyline class="cls-10" points="37.93 242.74 83.24 208.25 128.36 182.57 173.67 166.16 241.59 148.49 309.46 132.07 377.33 118.83 445.25 107.3 513.12 95.37 581.04 83.39 581.09 83.39"/><polyline class="cls-11" points="37.93 237.91 79.86 205.11 85.93 200.93 128.36 176.78 173.67 159.97 241.59 141.84 309.46 125.03 377.33 111.28 445.25 98.89 513.12 86.51 581.04 74.12 581.09 74.12"/><polyline class="cls-11" points="37.93 227.28 79.63 191.84 84.21 188.56 91.79 183.82 125.01 164.58 131.85 161.34 173.67 145.82 241.59 126.33 309.46 108.61 377.33 93.61 445.25 80.32 513.12 66.57 581.04 53.33 581.09 53.28"/><polyline class="cls-12" points="37.93 222.4 83.24 182.57 128.36 156.44 173.67 139.17 241.59 119.69 309.46 101.11 377.33 85.6 445.25 71.91 513.12 57.31 581.04 43.56 581.09 43.56"/><path class="cls-8" d="M37.93,217.52q7.34-6.71,14.7-13.39c7.38-6.69,14.73-13.4,22.22-20,10.6-9.28,23.19-16.49,35.3-23.6,18.75-11,38.93-18.42,59.11-26.31,1-.4,7.52-2.63,7.52-2.63l64.81-19,67.87-19,67.87-16,67.92-14.6,67.87-14.6L581,33.84h.05"/><text class="cls-13" transform="translate(579.73 290.83)">2</text><text class="cls-13" transform="translate(36.62 290.83)">0</text><text class="cls-13" transform="translate(139.21 290.83)">0.4</text><text class="cls-13" transform="translate(247.81 290.83)">0.8</text><text class="cls-13" transform="translate(356.46 290.83)">1.2</text><text class="cls-13" transform="translate(465.06 290.83)">1.6</text><text class="cls-13" transform="translate(21.56 282.4)">40</text><text class="cls-13" transform="translate(21.56 238.09)">50</text><text class="cls-13" transform="translate(21.56 193.84)">60</text><text class="cls-13" transform="translate(21.56 149.58)">70</text><text class="cls-13" transform="translate(21.56 105.33)">80</text><text class="cls-13" transform="translate(21.56 61.07)">90</text><text class="cls-13" transform="translate(15.11 16.81)">100</text><text class="cls-13" transform="translate(411.78 305.12)"><tspan xml:space="preserve">身高百分位曲线图(男)       年龄(岁) </tspan></text><text class="cls-14" transform="translate(5.86 257.93) rotate(90)">(cm)</text><text class="cls-15" transform="translate(8.61 233.1)">身高</text><rect class="cls-16" x="555.62" y="30.42" width="21.66" height="9.95"/><text class="cls-17" transform="translate(557.05 38.75)">97th</text><rect class="cls-16" x="555.62" y="41.46" width="21.66" height="9.95"/><text class="cls-17" transform="translate(557.05 49.79)">90th</text><rect class="cls-16" x="555.62" y="51.4" width="21.66" height="9.95"/><text class="cls-17" transform="translate(557.05 59.73)">75th</text><rect class="cls-16" x="555.62" y="60.78" width="21.66" height="9.95"/><text class="cls-17" transform="translate(557.05 69.11)">50th</text><rect class="cls-16" x="555.62" y="71.16" width="21.66" height="9.95"/><text class="cls-17" transform="translate(557.05 79.49)">25th</text><rect class="cls-16" x="555.62" y="80.74" width="21.66" height="9.95"/><text class="cls-17" transform="translate(557.05 89.07)">10th</text><rect class="cls-16" x="555.62" y="90.27" width="21.66" height="9.95"/><text class="cls-17" transform="translate(557.05 98.6)">3rd</text></svg>