<svg id="图层_1" data-name="图层 1" width="496" height="260" xmlns="http://www.w3.org/2000/svg" xmlns:xlink="http://www.w3.org/1999/xlink" viewBox="0 0 595.28 311.81"><defs><style>.cls-1,.cls-10,.cls-11,.cls-12,.cls-4,.cls-5,.cls-6,.cls-7,.cls-8,.cls-9{fill:none;}.cls-2{clip-path:url(#clip-path);}.cls-3{fill:#fff;}.cls-4{stroke:#fff;}.cls-4,.cls-6,.cls-7,.cls-8{stroke-linejoin:round;}.cls-4,.cls-6{stroke-width:0.5px;}.cls-5{stroke:#666;stroke-miterlimit:6;opacity:0.2;}.cls-6{stroke:#000;}.cls-7{stroke:#13b1c1;}.cls-8{stroke:#d31348;}.cls-10,.cls-11,.cls-12,.cls-8{stroke-width:1.4px;}.cls-9{stroke:#138f40;stroke-width:2px;}.cls-10,.cls-11,.cls-12,.cls-9{stroke-miterlimit:10;}.cls-10{stroke:#24acab;stroke-dasharray:5 2;}.cls-11{stroke:#e47a32;}.cls-11,.cls-12{stroke-dasharray:2 2;}.cls-12{stroke:#198ac9;}.cls-13,.cls-16{font-size:10px;}.cls-13,.cls-14,.cls-15{fill:#13b1c1;font-family:MicrosoftYaHei, Microsoft YaHei;}.cls-14,.cls-15{font-size:11px;}.cls-15{writing-mode:tb;text-orientation:upright;glyph-orientation-vertical:0deg;}.cls-16{fill:#303131;font-family:PingFangSC-Semibold-GBpc-EUC-H, PingFang SC;}</style><clipPath id="clip-path"><rect class="cls-1" x="28.22" y="10.17" width="554.11" height="274.63"/></clipPath></defs><title>女身高百分位数-处理VI</title><g class="cls-2"><rect class="cls-3" x="28.15" y="10.14" width="554.35" height="274.7"/></g><g class="cls-2"><polyline class="cls-4" points="37.81 278.73 37.81 12.78 581.06 12.78 581.06 278.73 37.81 278.73"/><path class="cls-5" d="M37.81,278.73v-266m0,0h0m108.61,266v-266m0,0h0m108.66,266v-266m0,0h0m108.66,266v-266m0,0h0m108.66,266v-266m0,0h0m108.66,266v-266m0,0h0m-543.25,266H581.06m0,0h0M37.81,234.39H581.06m0,0h0M37.81,190.05H581.06m0,0h0M37.81,145.76H581.06m0,0h0M37.81,101.42H581.06m0,0h0M37.81,57.07H581.06m0,0h0M37.81,12.78H581.06m0,0h0"/><path class="cls-6" d="M37.81,12.78H581.06m-543.25,266H581.06m0,0v-266m-543.25,266v-266m0,266H581.06m-543.25,0v-266m0,266v-5.38m0-260.57v5.33"/></g><rect class="cls-1" x="28.22" y="10.17" width="554.11" height="274.63"/><rect class="cls-1" x="28.22" y="10.17" width="554.11" height="274.63"/><path class="cls-6" d="M37.81,278.73h5.4m537.85,0h-5.45"/><rect class="cls-1" x="28.22" y="10.17" width="554.11" height="274.63"/><g class="cls-2"><path class="cls-7" d="M37.81,256.54h2.67m540.58,0h-2.72M37.81,234.39h2.67m540.58,0h-2.72m-540.53,0h2.67m540.58,0h-2.72m-540.53,0h2.67m540.58,0h-2.72m-540.53,0h2.67m540.58,0h-2.72m-540.53,0h2.67m540.58,0h-2.72m-540.53,0h2.67m540.58,0h-2.72m-540.53,0h2.67m540.58,0h-2.72m-540.53,0h2.67m540.58,0h-2.72m-540.53,0h5.4m537.85,0h-5.45"/></g><g class="cls-2"><path class="cls-7" d="M37.81,212.24h2.67m540.58,0h-2.72M37.81,190.05h2.67m540.58,0h-2.72m-540.53,0h2.67m540.58,0h-2.72m-540.53,0h2.67m540.58,0h-2.72m-540.53,0h2.67m540.58,0h-2.72m-540.53,0h2.67m540.58,0h-2.72m-540.53,0h2.67m540.58,0h-2.72m-540.53,0h2.67m540.58,0h-2.72m-540.53,0h2.67m540.58,0h-2.72m-540.53,0h5.4m537.85,0h-5.45"/></g><g class="cls-2"><path class="cls-7" d="M37.81,167.9h2.67m540.58,0h-2.72M37.81,145.76h2.67m540.58,0h-2.72m-540.53,0h2.67m540.58,0h-2.72m-540.53,0h2.67m540.58,0h-2.72m-540.53,0h2.67m540.58,0h-2.72m-540.53,0h2.67m540.58,0h-2.72m-540.53,0h2.67m540.58,0h-2.72m-540.53,0h2.67m540.58,0h-2.72m-540.53,0h2.67m540.58,0h-2.72m-540.53,0h5.4m537.85,0h-5.45"/></g><g class="cls-2"><path class="cls-7" d="M37.81,123.56h2.67m540.58,0h-2.72M37.81,101.42h2.67m540.58,0h-2.72m-540.53,0h2.67m540.58,0h-2.72m-540.53,0h2.67m540.58,0h-2.72m-540.53,0h2.67m540.58,0h-2.72m-540.53,0h2.67m540.58,0h-2.72m-540.53,0h2.67m540.58,0h-2.72m-540.53,0h2.67m540.58,0h-2.72m-540.53,0h2.67m540.58,0h-2.72m-540.53,0h5.4m537.85,0h-5.45"/></g><g class="cls-2"><path class="cls-7" d="M37.81,79.27h2.67m540.58,0h-2.72M37.81,57.07h2.67m540.58,0h-2.72m-540.53,0h2.67m540.58,0h-2.72m-540.53,0h2.67m540.58,0h-2.72m-540.53,0h2.67m540.58,0h-2.72m-540.53,0h2.67m540.58,0h-2.72m-540.53,0h2.67m540.58,0h-2.72m-540.53,0h2.67m540.58,0h-2.72m-540.53,0h2.67m540.58,0h-2.72m-540.53,0h5.4m537.85,0h-5.45"/></g><g class="cls-2"><path class="cls-7" d="M37.81,34.93h2.67m540.58,0h-2.72M37.81,12.78h2.67m540.58,0h-2.72m-540.53,0h2.67m540.58,0h-2.72m-540.53,0h2.67m540.58,0h-2.72m-540.53,0h2.67m540.58,0h-2.72m-540.53,0h2.67m540.58,0h-2.72m-540.53,0h2.67m540.58,0h-2.72m-540.53,0h2.67m540.58,0h-2.72m-540.53,0h2.67m540.58,0h-2.72m-540.53,0h5.4m537.85,0h-5.45"/></g><path class="cls-7" d="M59.51,278.73V276m0-263.26v2.64M81.26,278.73V276m0-263.26v2.64M103,278.73V276m0-263.26v2.64m21.75,263.31V276m0-263.26v2.64m21.7,263.31V276m0-263.26v2.64m0,263.31V276m0-263.26v2.64m0,263.31V276m0-263.26v2.64m0,263.31V276m0-263.26v2.64m0,263.31V276m0-263.26v2.64m0,263.31v-5.38m0-260.57v5.33"/><path class="cls-7" d="M168.17,278.73V276m0-263.26v2.64m21.7,263.31V276m0-263.26v2.64m21.76,263.31V276m0-263.26v2.64m21.75,263.31V276m0-263.26v2.64m21.7,263.31V276m0-263.26v2.64m0,263.31V276m0-263.26v2.64m0,263.31V276m0-263.26v2.64m0,263.31V276m0-263.26v2.64m0,263.31V276m0-263.26v2.64m0,263.31v-5.38m0-260.57v5.33"/><path class="cls-7" d="M276.83,278.73V276m0-263.26v2.64m21.7,263.31V276m0-263.26v2.64m21.76,263.31V276m0-263.26v2.64M342,278.73V276m0-263.26v2.64m21.75,263.31V276m0-263.26v2.64m0,263.31V276m0-263.26v2.64m0,263.31V276m0-263.26v2.64m0,263.31V276m0-263.26v2.64m0,263.31V276m0-263.26v2.64m0,263.31v-5.38m0-260.57v5.33"/><path class="cls-7" d="M385.44,278.73V276m0-263.26v2.64m21.75,263.31V276m0-263.26v2.64M429,278.73V276m0-263.26v2.64m21.7,263.31V276m0-263.26v2.64M472.4,278.73V276m0-263.26v2.64m0,263.31V276m0-263.26v2.64m0,263.31V276m0-263.26v2.64m0,263.31V276m0-263.26v2.64m0,263.31V276m0-263.26v2.64m0,263.31v-5.38m0-260.57v5.33"/><path class="cls-7" d="M494.1,278.73V276m0-263.26v2.64m21.75,263.31V276m0-263.26v2.64m21.71,263.31V276m0-263.26v2.64m21.75,263.31V276m0-263.26v2.64m21.75,263.31V276m0-263.26v2.64m0,263.31V276m0-263.26v2.64m0,263.31V276m0-263.26v2.64m0,263.31V276m0-263.26v2.64m0,263.31V276m0-263.26v2.64m0,263.31v-5.38m0-260.57v5.33"/><path class="cls-7" d="M37.81,12.78H581.06m-543.25,266H581.06m0,0v-266m-543.25,266v-266"/><path class="cls-8" d="M37.81,274.72c35.91-12.61,71.94-24,108.61-34.12l54.35-16.87,54.31-15.06,54.35-15,54.31-13.74,54.31-13.74,54.35-12,54.31-11.1,54.35-12h.05"/><polyline class="cls-9" points="37.81 246.81 92.11 225.05 146.42 209.56 200.77 192.74 255.08 176.31 309.44 160.37 363.74 144.83 418.05 130.21 472.4 116.47 526.71 104.06 581.06 90.32 581.11 90.32"/><polyline class="cls-10" points="37.81 256.98 92.11 236.15 146.42 220.65 200.77 204.23 255.08 188.29 309.44 172.35 363.74 157.69 418.05 143.07 472.4 130.21 526.71 118.23 581.06 104.94 581.11 104.94"/><polyline class="cls-11" points="37.81 265.87 92.11 245.93 146.42 230.82 200.77 214 255.08 198.46 309.44 183.4 363.74 168.78 418.05 154.6 472.4 142.19 526.71 130.65 581.06 118.23 581.11 118.23"/><polyline class="cls-10" points="37.81 236.15 92.11 214 146.42 198.02 200.77 181.2 255.08 164.77 309.44 147.96 363.74 131.97 418.05 116.91 472.4 102.73 526.71 89.44 581.06 75.26 581.11 75.26"/><polyline class="cls-12" points="37.81 226.86 92.11 203.35 146.42 187.85 200.77 170.54 255.08 153.72 309.44 136.42 363.74 120.48 418.05 104.5 472.4 90.32 526.71 76.58 581.06 61.52 581.11 61.52"/><path class="cls-8" d="M37.81,217.08l37.13-16.34c23-10.13,47.44-16.43,71.48-23.55l54.35-17.26,54.31-16.86,54.35-18.19,54.31-16.38,54.31-15.93L472.4,77.46l54.31-14.18,54.35-15.49.05,0"/><text class="cls-13" transform="translate(35.52 289.74)">2</text><text class="cls-13" transform="translate(143.13 289.74)">3</text><text class="cls-13" transform="translate(251.79 289.74)">4</text><text class="cls-13" transform="translate(361.45 289.74)">5</text><text class="cls-13" transform="translate(470.11 289.74)">6</text><text class="cls-13" transform="translate(577.77 289.74)">7</text><text class="cls-13" transform="translate(24.01 282.44)">80</text><text class="cls-13" transform="translate(24.01 238.1)">90</text><text class="cls-13" transform="translate(18.15 193.76)">100</text><text class="cls-13" transform="translate(18.15 149.47)">110</text><text class="cls-13" transform="translate(18.15 105.13)">120</text><text class="cls-13" transform="translate(18.15 60.78)">130</text><text class="cls-13" transform="translate(18.15 16.49)">140</text><text class="cls-14" transform="translate(5.5 254.77) rotate(90)">(cm)</text><text class="cls-15" transform="translate(8.48 225.95)">身高</text><text class="cls-14" transform="translate(413.78 305.12)"><tspan xml:space="preserve">身高百分位曲线图(女)       年龄(岁) </tspan></text><rect class="cls-3" x="550.21" y="47.29" width="21.66" height="9.95"/><text class="cls-16" transform="translate(551.65 55.62)">97th</text><rect class="cls-3" x="550.21" y="61.33" width="21.66" height="9.95"/><text class="cls-16" transform="translate(551.65 69.66)">90th</text><rect class="cls-3" x="550.21" y="75.27" width="21.66" height="9.95"/><text class="cls-16" transform="translate(551.65 83.6)">75th</text><rect class="cls-3" x="550.21" y="89.65" width="21.66" height="9.95"/><text class="cls-16" transform="translate(551.65 97.98)">50th</text><rect class="cls-3" x="550.21" y="105.03" width="21.66" height="9.95"/><text class="cls-16" transform="translate(551.65 113.35)">25th</text><rect class="cls-3" x="550.21" y="118.61" width="21.66" height="9.95"/><text class="cls-16" transform="translate(551.65 126.93)">10th</text><rect class="cls-3" x="550.21" y="132.14" width="21.66" height="9.95"/><text class="cls-16" transform="translate(551.65 140.47)">3rd</text></svg>