<?xml version="1.0" encoding="utf-8"?>
<!-- Generator: Adobe Illustrator 24.0.1, SVG Export Plug-In . SVG Version: 6.00 Build 0)  -->
<svg width="496" height="260" version="1.1" id="图层_1" xmlns="http://www.w3.org/2000/svg" xmlns:xlink="http://www.w3.org/1999/xlink" x="0px" y="0px"
	 viewBox="0 0 595.3 311.8" style="enable-background:new 0 0 595.3 311.8;" xml:space="preserve">
<style type="text/css">
	.st0{fill:none;stroke:#13B1C1;stroke-linejoin:round;}
	.st1{opacity:0.2;}
	.st2{fill:none;stroke:#666666;stroke-miterlimit:6;}
	.st3{fill:none;stroke:#13B1C1;stroke-width:0.5;stroke-linejoin:round;}
	.st4{clip-path:url(#SVGID_2_);}
	.st5{clip-path:url(#SVGID_4_);}
	.st6{clip-path:url(#SVGID_6_);}
	.st7{clip-path:url(#SVGID_8_);}
	.st8{clip-path:url(#SVGID_10_);}
	.st9{clip-path:url(#SVGID_12_);}
	.st10{clip-path:url(#SVGID_14_);}
	.st11{clip-path:url(#SVGID_16_);}
	.st12{clip-path:url(#SVGID_18_);}
	.st13{clip-path:url(#SVGID_20_);}
	.st14{clip-path:url(#SVGID_22_);}
	.st15{clip-path:url(#SVGID_24_);}
	.st16{clip-path:url(#SVGID_26_);}
	.st17{clip-path:url(#SVGID_28_);}
	.st18{clip-path:url(#SVGID_30_);}
	.st19{clip-path:url(#SVGID_32_);}
	.st20{clip-path:url(#SVGID_34_);}
	.st21{clip-path:url(#SVGID_36_);}
	.st22{clip-path:url(#SVGID_38_);}
	.st23{clip-path:url(#SVGID_40_);}
	.st24{clip-path:url(#SVGID_42_);}
	.st25{clip-path:url(#SVGID_44_);}
	.st26{clip-path:url(#SVGID_46_);}
	.st27{fill:#13B1C1;}
	.st28{font-family:'MicrosoftYaHei';}
	.st29{font-size:10px;}
	.st30{font-size:10px;glyph-orientation-vertical:0;writing-mode:tb;}
	.st31{fill:none;stroke:#C9161D;stroke-width:1.4;stroke-linejoin:round;}
	.st32{fill:none;stroke:#198AC9;stroke-width:1.4;stroke-miterlimit:10;stroke-dasharray:2,1;}
	.st33{fill:none;stroke:#727171;stroke-width:1.4;stroke-linejoin:round;stroke-dasharray:8,1;}
	.st34{fill:none;stroke:#71AC40;stroke-width:1.4;stroke-miterlimit:10;stroke-dasharray:5,1;}
	.st35{fill:none;stroke:#E47A32;stroke-width:1.4;stroke-miterlimit:10;stroke-dasharray:2,1;}
	.st36{fill:none;stroke:#138F40;stroke-width:2;stroke-miterlimit:10;}
	.st37{fill:#FFFFFF;}
	.st38{fill:none;stroke:#13B1C1;stroke-width:0.26;stroke-miterlimit:10;}
	.st39{fill:none;stroke:#E0CF48;stroke-miterlimit:10;}
	.st40{fill:none;stroke:#E0CF48;stroke-miterlimit:10;stroke-dasharray:4.41,1.1;}
	.st41{fill:none;stroke:#71AC40;stroke-width:0.75;stroke-miterlimit:10;}
	.st42{fill:none;stroke:#71AC40;stroke-width:0.75;stroke-miterlimit:10;stroke-dasharray:4.41,1.1;}
	.st43{fill:none;stroke:#E47A32;stroke-width:0.75;stroke-miterlimit:10;}
	.st44{fill:none;stroke:#E47A32;stroke-width:0.75;stroke-miterlimit:10;stroke-dasharray:2.07,1.03;}
	.st45{fill:none;stroke:#198AC9;stroke-width:0.75;stroke-miterlimit:10;}
	.st46{fill:none;stroke:#198AC9;stroke-width:0.75;stroke-miterlimit:10;stroke-dasharray:2.07,1.03;}
	.st47{fill:none;stroke:#727171;stroke-width:0.75;stroke-miterlimit:10;}
	.st48{fill:none;stroke:#727171;stroke-width:0.75;stroke-miterlimit:10;stroke-dasharray:10.9,1.36;}
	.st49{fill:#129142;}
	.st50{fill:#C9161D;}
	.st51{fill:#303131;}
	.st52{font-family:'Arial-BoldMT';}
	.st53{font-size:9px;}
	.st54{font-family:'AdobeSongStd-Light-GBpc-EUC-H';}
</style>
<title>骨龄分组 -女VI的TW3RUS</title>
<g>
	<g id="图层_1_1_">
		<polyline class="st0" points="37.8,278.7 37.8,13 581.1,13 581.1,278.7 37.8,278.7 		"/>
		<g class="st1">
			<path class="st2" d="M37.8,278.7V13 M37.8,13L37.8,13 M76.6,278.7V13 M76.6,13L76.6,13 M115.4,278.7V13 M115.4,13L115.4,13
				 M154.2,278.7V13 M154.2,13L154.2,13 M193,278.7V13 M193,13L193,13 M231.8,278.7V13 M231.8,13L231.8,13 M270.6,278.7V13
				 M270.6,13L270.6,13 M309.4,278.7V13 M309.4,13L309.4,13 M348.2,278.7V13 M348.2,13L348.2,13 M387,278.7V13 M387,13L387,13
				 M425.8,278.7V13 M425.8,13L425.8,13 M464.6,278.7V13 M464.6,13L464.6,13 M503.5,278.7V13 M503.5,13L503.5,13 M542.3,278.7V13
				 M542.3,13L542.3,13 M581.1,278.7V13 M581.1,13L581.1,13"/>
			<path class="st2" d="M37.8,267.6h543.3 M581.1,267.6L581.1,267.6 M37.8,245.5h543.3 M581.1,245.5L581.1,245.5 M37.8,223.3h543.3
				 M581.1,223.3L581.1,223.3 M37.8,201.2h543.3 M581.1,201.2L581.1,201.2 M37.8,179h543.3 M581.1,179L581.1,179 M37.8,156.9h543.3
				 M581.1,156.9L581.1,156.9 M37.8,134.8h543.3 M581.1,134.8L581.1,134.8 M37.8,112.6h543.3 M581.1,112.6L581.1,112.6 M37.8,90.5
				h543.3 M581.1,90.5L581.1,90.5 M37.8,68.3h543.3 M581.1,68.3L581.1,68.3 M37.8,46.2h543.3 M581.1,46.2L581.1,46.2"/>
		</g>
		<path class="st3" d="M37.8,278.7v-5.4 M37.8,13v5.4"/>
		<path class="st0" d="M115.4,278.7v-5.4 M115.4,13v5.4"/>
		<path class="st0" d="M76.6,278.6v-5.4 M76.6,13v5.4"/>
		<g>
			<g>
				<defs>
					<rect id="SVGID_1_" x="20.8" y="12.6" width="561.1" height="281.9"/>
				</defs>
				<clipPath id="SVGID_2_">
					<use xlink:href="#SVGID_1_"  style="overflow:visible;"/>
				</clipPath>
				<g class="st4">
					<path class="st0" d="M154.2,278.7v-5.4 M154.2,13v5.4"/>
				</g>
			</g>
		</g>
		<g>
			<g>
				<defs>
					<rect id="SVGID_3_" x="20.8" y="12.6" width="561.1" height="281.9"/>
				</defs>
				<clipPath id="SVGID_4_">
					<use xlink:href="#SVGID_3_"  style="overflow:visible;"/>
				</clipPath>
				<g class="st5">
					<path class="st0" d="M193,278.7v-5.4 M193,13v5.4"/>
				</g>
			</g>
		</g>
		<g>
			<g>
				<defs>
					<rect id="SVGID_5_" x="20.8" y="12.6" width="561.1" height="281.9"/>
				</defs>
				<clipPath id="SVGID_6_">
					<use xlink:href="#SVGID_5_"  style="overflow:visible;"/>
				</clipPath>
				<g class="st6">
					<path class="st0" d="M231.9,278.7v-5.4 M231.9,13v5.4"/>
				</g>
			</g>
		</g>
		<g>
			<g>
				<defs>
					<rect id="SVGID_7_" x="20.8" y="12.6" width="561.1" height="281.9"/>
				</defs>
				<clipPath id="SVGID_8_">
					<use xlink:href="#SVGID_7_"  style="overflow:visible;"/>
				</clipPath>
				<g class="st7">
					<path class="st0" d="M270.7,278.7v-5.4 M270.7,13v5.4"/>
				</g>
			</g>
		</g>
		<g>
			<g>
				<defs>
					<rect id="SVGID_9_" x="20.8" y="12.6" width="561.1" height="281.9"/>
				</defs>
				<clipPath id="SVGID_10_">
					<use xlink:href="#SVGID_9_"  style="overflow:visible;"/>
				</clipPath>
				<g class="st8">
					<path class="st0" d="M309.5,278.7v-5.4 M309.5,13v5.4"/>
				</g>
			</g>
		</g>
		<g>
			<g>
				<defs>
					<rect id="SVGID_11_" x="20.8" y="12.6" width="561.1" height="281.9"/>
				</defs>
				<clipPath id="SVGID_12_">
					<use xlink:href="#SVGID_11_"  style="overflow:visible;"/>
				</clipPath>
				<g class="st9">
					<path class="st0" d="M348.2,278.7v-5.4 M348.2,13v5.4"/>
				</g>
			</g>
		</g>
		<g>
			<g>
				<defs>
					<rect id="SVGID_13_" x="20.8" y="12.6" width="561.1" height="281.9"/>
				</defs>
				<clipPath id="SVGID_14_">
					<use xlink:href="#SVGID_13_"  style="overflow:visible;"/>
				</clipPath>
				<g class="st10">
					<path class="st0" d="M387.1,278.7v-5.4 M387.1,13v5.4"/>
				</g>
			</g>
		</g>
		<g>
			<g>
				<defs>
					<rect id="SVGID_15_" x="20.8" y="12.6" width="561.1" height="281.9"/>
				</defs>
				<clipPath id="SVGID_16_">
					<use xlink:href="#SVGID_15_"  style="overflow:visible;"/>
				</clipPath>
				<g class="st11">
					<path class="st0" d="M425.9,278.7v-5.4 M425.9,13v5.4"/>
				</g>
			</g>
		</g>
		<g>
			<g>
				<defs>
					<rect id="SVGID_17_" x="20.8" y="12.6" width="561.1" height="281.9"/>
				</defs>
				<clipPath id="SVGID_18_">
					<use xlink:href="#SVGID_17_"  style="overflow:visible;"/>
				</clipPath>
				<g class="st12">
					<path class="st0" d="M464.7,278.7v-5.4 M464.7,13v5.4"/>
				</g>
			</g>
		</g>
		<g>
			<g>
				<defs>
					<rect id="SVGID_19_" x="20.8" y="12.6" width="561.1" height="281.9"/>
				</defs>
				<clipPath id="SVGID_20_">
					<use xlink:href="#SVGID_19_"  style="overflow:visible;"/>
				</clipPath>
				<g class="st13">
					<path class="st0" d="M503.5,278.7v-5.4 M503.5,13v5.4"/>
				</g>
			</g>
		</g>
		<g>
			<g>
				<defs>
					<rect id="SVGID_21_" x="20.8" y="12.6" width="561.1" height="281.9"/>
				</defs>
				<clipPath id="SVGID_22_">
					<use xlink:href="#SVGID_21_"  style="overflow:visible;"/>
				</clipPath>
				<g class="st14">
					<path class="st0" d="M542.3,278.7v-5.4 M542.3,13v5.4"/>
				</g>
			</g>
		</g>
		<g>
			<g>
				<defs>
					<rect id="SVGID_23_" x="20.8" y="12.6" width="561.1" height="281.9"/>
				</defs>
				<clipPath id="SVGID_24_">
					<use xlink:href="#SVGID_23_"  style="overflow:visible;"/>
				</clipPath>
				<g class="st15">
					<path class="st0" d="M581.1,278.7v-5.4 M581.1,13v5.4"/>
				</g>
			</g>
		</g>
		<g>
			<g>
				<defs>
					<rect id="SVGID_25_" x="20.8" y="12.6" width="561.1" height="281.9"/>
				</defs>
				<clipPath id="SVGID_26_">
					<use xlink:href="#SVGID_25_"  style="overflow:visible;"/>
				</clipPath>
				<g class="st16">
					<path class="st0" d="M37.8,267.6h5.4 M581.1,267.6h-5.4"/>
				</g>
			</g>
		</g>
		<g>
			<g>
				<defs>
					<rect id="SVGID_27_" x="20.8" y="12.6" width="561.1" height="281.9"/>
				</defs>
				<clipPath id="SVGID_28_">
					<use xlink:href="#SVGID_27_"  style="overflow:visible;"/>
				</clipPath>
				<g class="st17">
					<path class="st0" d="M37.8,245.5h5.4 M581.1,245.5h-5.4"/>
				</g>
			</g>
		</g>
		<g>
			<g>
				<defs>
					<rect id="SVGID_29_" x="20.8" y="12.6" width="561.1" height="281.9"/>
				</defs>
				<clipPath id="SVGID_30_">
					<use xlink:href="#SVGID_29_"  style="overflow:visible;"/>
				</clipPath>
				<g class="st18">
					<path class="st0" d="M37.8,223.3h5.4 M581.1,223.3h-5.4"/>
				</g>
			</g>
		</g>
		<g>
			<g>
				<defs>
					<rect id="SVGID_31_" x="20.8" y="12.6" width="561.1" height="281.9"/>
				</defs>
				<clipPath id="SVGID_32_">
					<use xlink:href="#SVGID_31_"  style="overflow:visible;"/>
				</clipPath>
				<g class="st19">
					<path class="st0" d="M37.8,201.2h5.4 M581.1,201.2h-5.4"/>
				</g>
			</g>
		</g>
		<g>
			<g>
				<defs>
					<rect id="SVGID_33_" x="20.8" y="12.6" width="561.1" height="281.9"/>
				</defs>
				<clipPath id="SVGID_34_">
					<use xlink:href="#SVGID_33_"  style="overflow:visible;"/>
				</clipPath>
				<g class="st20">
					<path class="st0" d="M37.8,179h5.4 M581.1,179h-5.4"/>
				</g>
			</g>
		</g>
		<g>
			<g>
				<defs>
					<rect id="SVGID_35_" x="20.8" y="12.6" width="561.1" height="281.9"/>
				</defs>
				<clipPath id="SVGID_36_">
					<use xlink:href="#SVGID_35_"  style="overflow:visible;"/>
				</clipPath>
				<g class="st21">
					<path class="st0" d="M37.8,156.9h5.4 M581.1,156.9h-5.4"/>
				</g>
			</g>
		</g>
		<g>
			<g>
				<defs>
					<rect id="SVGID_37_" x="20.8" y="12.6" width="561.1" height="281.9"/>
				</defs>
				<clipPath id="SVGID_38_">
					<use xlink:href="#SVGID_37_"  style="overflow:visible;"/>
				</clipPath>
				<g class="st22">
					<path class="st3" d="M37.8,134.8h5.4 M581.1,134.8h-5.4"/>
				</g>
			</g>
		</g>
		<g>
			<g>
				<defs>
					<rect id="SVGID_39_" x="20.8" y="12.6" width="561.1" height="281.9"/>
				</defs>
				<clipPath id="SVGID_40_">
					<use xlink:href="#SVGID_39_"  style="overflow:visible;"/>
				</clipPath>
				<g class="st23">
					<path class="st0" d="M37.8,112.6h5.4 M581.1,112.6h-5.4"/>
				</g>
			</g>
		</g>
		<g>
			<g>
				<defs>
					<rect id="SVGID_41_" x="20.8" y="12.6" width="561.1" height="281.9"/>
				</defs>
				<clipPath id="SVGID_42_">
					<use xlink:href="#SVGID_41_"  style="overflow:visible;"/>
				</clipPath>
				<g class="st24">
					<path class="st0" d="M37.8,90.5h5.4 M581.1,90.5h-5.4"/>
				</g>
			</g>
		</g>
		<g>
			<g>
				<defs>
					<rect id="SVGID_43_" x="20.8" y="12.6" width="561.1" height="281.9"/>
				</defs>
				<clipPath id="SVGID_44_">
					<use xlink:href="#SVGID_43_"  style="overflow:visible;"/>
				</clipPath>
				<g class="st25">
					<path class="st0" d="M37.8,68.3h5.4 M581.1,68.3h-5.4"/>
				</g>
			</g>
		</g>
		<g>
			<g>
				<defs>
					<rect id="SVGID_45_" x="20.8" y="12.6" width="561.1" height="281.9"/>
				</defs>
				<clipPath id="SVGID_46_">
					<use xlink:href="#SVGID_45_"  style="overflow:visible;"/>
				</clipPath>
				<g class="st26">
					<path class="st0" d="M37.8,46.2h5.4 M581.1,46.2h-5.4"/>
				</g>
			</g>
		</g>
		<text transform="matrix(1 0 0 1 306.95 304.54)" class="st27 st28 st29">按骨龄分组的BMI百分位曲线图(女)         TW3-C RUS骨龄(岁) </text>
		<text transform="matrix(1 0 0 1 12.63 207.12)" class="st27 st28 st30">体重指数</text>
		<text transform="matrix(6.123234e-17 1 -1 6.123234e-17 9.1309 253.68)" class="st27 st28 st29">(BMI)</text>
		<text transform="matrix(1 0 0 1 34.53 288.9)" class="st27 st28 st29">3</text>
		<text transform="matrix(1 0 0 1 73.29 288.9)" class="st27 st28 st29">4</text>
		<text transform="matrix(1 0 0 1 112.11 288.9)" class="st27 st28 st29">5</text>
		<text transform="matrix(1 0 0 1 150.92 288.9)" class="st27 st28 st29">6</text>
		<text transform="matrix(1 0 0 1 189.73 288.9)" class="st27 st28 st29">7</text>
		<text transform="matrix(1 0 0 1 228.55 288.9)" class="st27 st28 st29">8</text>
		<text transform="matrix(1 0 0 1 267.36 288.9)" class="st27 st28 st29">9</text>
		<text transform="matrix(1 0 0 1 304.81 288.9)" class="st27 st28 st29">10</text>
		<text transform="matrix(1 0 0 1 343.57 288.9)" class="st27 st28 st29">11</text>
		<text transform="matrix(1 0 0 1 382.39 288.9)" class="st27 st28 st29">12</text>
		<text transform="matrix(1 0 0 1 421.2 288.9)" class="st27 st28 st29">13</text>
		<text transform="matrix(1 0 0 1 460.01 288.9)" class="st27 st28 st29">14</text>
		<text transform="matrix(1 0 0 1 498.83 288.9)" class="st27 st28 st29">15</text>
		<text transform="matrix(1 0 0 1 537.64 288.9)" class="st27 st28 st29">16</text>
		<text transform="matrix(1 0 0 1 576.45 288.9)" class="st27 st28 st29">17</text>
		<text transform="matrix(1 0 0 1 23.74 271.4)" class="st27 st28 st29">12</text>
		<text transform="matrix(1 0 0 1 23.74 249.24)" class="st27 st28 st29">14</text>
		<text transform="matrix(1 0 0 1 23.74 227.09)" class="st27 st28 st29">16</text>
		<text transform="matrix(1 0 0 1 23.74 204.95)" class="st27 st28 st29">18</text>
		<text transform="matrix(1 0 0 1 23.74 182.79)" class="st27 st28 st29">20</text>
		<text transform="matrix(1 0 0 1 23.74 160.64)" class="st27 st28 st29">22</text>
		<text transform="matrix(1 0 0 1 23.74 138.55)" class="st27 st28 st29">24</text>
		<text transform="matrix(1 0 0 1 23.74 116.4)" class="st27 st28 st29">26</text>
		<text transform="matrix(1 0 0 1 23.74 94.24)" class="st27 st28 st29">28</text>
		<text transform="matrix(1 0 0 1 23.74 72.1)" class="st27 st28 st29">30</text>
		<text transform="matrix(1 0 0 1 23.74 49.95)" class="st27 st28 st29">32</text>
		<polyline class="st31" points="37.8,249.5 76.6,252.2 115.4,254.9 154.2,256.7 193,256.1 231.9,255.1 270.7,253.2 309.4,250.6 
			348.2,246.5 387.1,239.4 425.9,233.3 464.7,225.9 503.5,219.3 542.3,217 581.1,216.9 		"/>
		<polyline class="st32" points="37.8,253.2 76.6,256.2 115.4,259.1 154.2,260.6 193,260.4 231.9,259.4 270.7,257.6 309.4,253.9 
			348.2,250.5 387.1,244.3 425.9,239 464.7,231.7 503.5,224.8 542.3,222.9 581.1,223.3 		"/>
		<polyline class="st33" points="37.8,246.7 76.6,249.2 115.4,251.7 154.2,253.4 193,253 231.9,251.1 270.7,248.9 309.4,246.6 
			348.2,242.3 387.1,235.6 425.9,228.9 464.7,221.4 503.5,215.1 542.3,212.5 581.1,212.2 		"/>
		<polyline class="st34" points="37.8,237.3 76.6,239.3 115.4,241.4 154.2,242.6 193,242.4 231.9,240.9 270.7,238.6 309.4,234.8 
			348.2,229.2 387.1,221.9 425.9,213.6 464.7,206 503.5,200.3 542.3,197 581.1,195.7 		"/>
		<polyline class="st34" points="37.8,206.3 76.6,207.6 115.4,208.7 154.2,208.9 193,206.1 231.9,199.4 270.7,190.3 309.4,180.9 
			348.2,170.9 387.1,161.7 425.9,155.1 464.7,147.5 503.5,140.3 542.3,136.9 581.1,134.8 		"/>
		<polyline class="st35" points="37.8,191.7 76.6,191.1 115.4,190.7 154.2,189.4 193,184.1 231.9,174.4 270.7,162.1 309.4,148.3 
			348.2,133.5 387.1,123.2 425.9,117.3 464.7,108.7 503.5,98.3 542.3,91.8 581.1,90.1 		"/>
		<polyline class="st36" points="37.8,223.3 76.6,225.2 115.4,226.9 154.2,227.8 193,226.8 231.9,223.8 270.7,219.3 309.4,213.2 
			348.2,205.9 387.1,197.8 425.9,189.4 464.7,181.9 503.5,176.2 542.3,172.8 581.1,170.9 		"/>
		<path class="st31" d="M37.8,187.6l38.8-1.3l38.8-1.2l38.8-1.9l38.8-6.1l38.8-10.7l38.8-13l38.8-15.4l26.9-11.5
			c28.5-12.2,59.2-17,89.5-21.6l38.8-9.1l38.8-12l26.8-5.7c16.7-3.6,33.8-3.6,50.8-3.8"/>
		
			<image style="overflow:visible;opacity:0.25;enable-background:new    ;" width="132" height="108" xlink:href="52598D76EBD546A6.png"  transform="matrix(0.9917 0 0 0.9917 57.2545 34.7355)">
		</image>
		<path class="st37" d="M67.7,137.1c-3.9,0-7.1-2.7-7.1-6.4V45.9c0-4.8,3.2-7,7.1-7h108.6c5.4,0,7.1,4.5,7.1,7.3V130
			c0,5.7-3.2,7.1-7.1,7.1H67.7z"/>
		<path class="st38" d="M67.7,137.1c-3.9,0-7.1-2.7-7.1-6.4V45.9c0-4.8,3.2-7,7.1-7h108.6c5.4,0,7.1,4.5,7.1,7.3V130
			c0,5.7-3.2,7.1-7.1,7.1H67.7z"/>
		<polyline class="st39" points="67.9,71.6 65.9,71.6 67.9,71.6 		"/>
		<line class="st40" x1="69" y1="71.6" x2="84.9" y2="71.6"/>
		<polyline class="st39" points="85.5,71.6 87.5,71.6 85.5,71.6 		"/>
		<line class="st40" x1="84.4" y1="71.6" x2="68.4" y2="71.6"/>
		<polyline class="st39" points="67.9,71.6 65.9,71.6 67.9,71.6 		"/>
		<line class="st40" x1="69" y1="71.6" x2="84.9" y2="71.6"/>
		<polyline class="st39" points="85.5,71.6 87.5,71.6 85.5,71.6 		"/>
		<line class="st40" x1="84.4" y1="71.6" x2="68.4" y2="71.6"/>
		<polyline class="st41" points="67.9,93.2 65.9,93.2 67.9,93.2 		"/>
		<line class="st42" x1="69" y1="93.2" x2="84.9" y2="93.2"/>
		<polyline class="st41" points="85.5,93.2 87.5,93.2 85.5,93.2 		"/>
		<line class="st42" x1="84.4" y1="93.2" x2="68.4" y2="93.2"/>
		<polyline class="st41" points="67.9,93.2 65.9,93.2 67.9,93.2 		"/>
		<line class="st42" x1="69" y1="93.2" x2="84.9" y2="93.2"/>
		<polyline class="st41" points="85.5,93.2 87.5,93.2 85.5,93.2 		"/>
		<line class="st42" x1="84.4" y1="93.2" x2="68.4" y2="93.2"/>
		<polyline class="st43" points="66.9,61 65.9,61 66.9,61 		"/>
		<line class="st44" x1="67.9" y1="61" x2="86" y2="61"/>
		<polyline class="st43" points="86.5,61 87.5,61 86.5,61 		"/>
		<line class="st44" x1="85.5" y1="61" x2="67.4" y2="61"/>
		<polyline class="st43" points="66.9,61 65.9,61 66.9,61 		"/>
		<line class="st44" x1="67.9" y1="61" x2="86" y2="61"/>
		<polyline class="st43" points="86.5,61 87.5,61 86.5,61 		"/>
		<line class="st44" x1="85.5" y1="61" x2="67.4" y2="61"/>
		<polyline class="st43" points="66.9,126.9 65.9,126.9 66.9,126.9 		"/>
		<line class="st44" x1="67.9" y1="126.9" x2="86" y2="126.9"/>
		<polyline class="st43" points="86.5,126.9 87.5,126.9 86.5,126.9 		"/>
		<line class="st44" x1="85.5" y1="126.9" x2="67.4" y2="126.9"/>
		<polyline class="st45" points="66.9,126.9 65.9,126.9 66.9,126.9 		"/>
		<line class="st46" x1="67.9" y1="126.9" x2="86" y2="126.9"/>
		<polyline class="st45" points="86.5,126.9 87.5,126.9 86.5,126.9 		"/>
		<line class="st46" x1="85.5" y1="126.9" x2="67.4" y2="126.9"/>
		<polyline class="st47" points="69.9,114.7 65.9,114.7 69.9,114.7 		"/>
		<line class="st48" x1="71.2" y1="114.7" x2="82.8" y2="114.7"/>
		<polyline class="st47" points="83.5,114.7 87.5,114.7 83.5,114.7 		"/>
		<line class="st48" x1="82.1" y1="114.7" x2="70.6" y2="114.7"/>
		<polygon class="st49" points="65.9,81.9 65.9,82.5 65.9,83.3 65.9,81.3 87.5,81.3 87.5,83.3 87.5,82.5 87.5,81.9 87.5,83 65.9,83 
					"/>
		<rect x="65.9" y="81.3" class="st49" width="21.6" height="2"/>
		<polygon class="st50" points="65.9,49.6 65.9,50 65.9,50.6 65.9,49.1 87.5,49.1 87.5,50.6 87.5,50 87.5,49.6 87.5,50.4 65.9,50.4 
					"/>
		<rect x="65.9" y="49.1" class="st50" width="21.6" height="1.5"/>
		<text transform="matrix(1 0 0 1 90.59 85.86)" class="st51 st52 st53">50th</text>
		<text transform="matrix(1 0 0 1 90.59 74.99)" class="st51 st54 st53">超重界值点曲线</text>
		<text transform="matrix(1 0 0 1 90.59 64.11)" class="st51 st54 st53">肥胖界值点曲线</text>
		<text transform="matrix(1 0 0 1 90.59 53.24)" class="st51 st52 st53">97th</text>
		<text transform="matrix(1 0 0 1 90.59 96.74)" class="st51 st52 st53">18.5kg/m²  </text>
		<text transform="matrix(1 0 0 1 134.76 96.7422)" class="st51 st54 st53">界值点曲线</text>
		<text transform="matrix(1 0 0 1 90.59 107.61)" class="st51 st52 st53">3rd</text>
		<text transform="matrix(1 0 0 1 90.59 129.95)" class="st51 st52 st53">16kg/m²</text>
		<text transform="matrix(1 0 0 1 127.47 129.9522)" class="st51 st54 st53">界值点曲线</text>
		<text transform="matrix(1 0 0 1 90.59 118.49)" class="st51 st52 st53">17kg/m²</text>
		<text transform="matrix(1 0 0 1 127.47 118.4922)" class="st51 st54 st53">界值点曲线</text>
		<polygon class="st50" points="65.9,104.2 65.9,104.6 65.9,105.2 65.9,103.7 87.5,103.7 87.5,105.2 87.5,104.6 87.5,104.2 
			87.5,105 65.9,105 		"/>
		<rect x="65.9" y="103.7" class="st50" width="21.6" height="1.5"/>
	</g>
</g>
</svg>
