<?xml version="1.0" encoding="utf-8"?>
<!-- Generator: Adobe Illustrator 24.0.1, SVG Export Plug-In . SVG Version: 6.00 Build 0)  -->
<svg width="496" height="260" version="1.1" id="图层_1" xmlns="http://www.w3.org/2000/svg" xmlns:xlink="http://www.w3.org/1999/xlink" x="0px" y="0px"
	 viewBox="0 0 595.3 311.8" style="enable-background:new 0 0 595.3 311.8;" xml:space="preserve">
<style type="text/css">
	.st0{clip-path:url(#SVGID_2_);}
	.st1{fill:#FFFFFF;}
	.st2{fill:none;stroke:#FFFFFF;stroke-width:0.5;stroke-linejoin:round;}
	.st3{opacity:0.2;fill:none;stroke:#666666;stroke-miterlimit:6;enable-background:new    ;}
	.st4{fill:none;stroke:#1B2C77;stroke-width:0.5;stroke-linejoin:round;}
	.st5{fill:none;stroke:#13B1C1;stroke-linejoin:round;}
	.st6{clip-path:url(#SVGID_4_);}
	.st7{fill:none;stroke:#C9161D;stroke-width:1.4;stroke-linejoin:round;}
	.st8{fill:none;stroke:#198AC9;stroke-width:1.4;stroke-miterlimit:10;stroke-dasharray:2,1;}
	.st9{fill:none;stroke:#727171;stroke-width:1.4;stroke-linejoin:round;stroke-dasharray:8,1;}
	.st10{fill:none;stroke:#71AC40;stroke-width:0.75;stroke-miterlimit:10;stroke-dasharray:5,1;}
	.st11{fill:none;stroke:#E0CF48;stroke-width:1.4;stroke-miterlimit:10;stroke-dasharray:4,1;}
	.st12{fill:none;stroke:#E47A32;stroke-width:1.4;stroke-miterlimit:10;stroke-dasharray:2,1;}
	.st13{fill:none;stroke:#138F40;stroke-width:2;stroke-miterlimit:10;}
	.st14{fill:none;stroke:#13B1C1;stroke-miterlimit:6;}
	.st15{fill:#13B1C1;}
	.st16{font-family:'MicrosoftYaHei';}
	.st17{font-size:11px;}
	.st18{font-size:10px;}
	.st19{font-size:10px;glyph-orientation-vertical:0;writing-mode:tb;}
	.st20{fill:none;stroke:#13B1C1;stroke-width:0.26;stroke-miterlimit:10;}
	.st21{fill:none;stroke:#E0CF48;stroke-miterlimit:10;}
	.st22{fill:none;stroke:#E0CF48;stroke-miterlimit:10;stroke-dasharray:4.41,1.1;}
	.st23{fill:none;stroke:#71AC40;stroke-width:0.75;stroke-miterlimit:10;}
	.st24{fill:none;stroke:#71AC40;stroke-width:0.75;stroke-miterlimit:10;stroke-dasharray:4.41,1.1;}
	.st25{fill:none;stroke:#E47A32;stroke-width:0.75;stroke-miterlimit:10;}
	.st26{fill:none;stroke:#E47A32;stroke-width:0.75;stroke-miterlimit:10;stroke-dasharray:2.07,1.03;}
	.st27{fill:none;stroke:#198AC9;stroke-width:0.75;stroke-miterlimit:10;}
	.st28{fill:none;stroke:#198AC9;stroke-width:0.75;stroke-miterlimit:10;stroke-dasharray:2.07,1.03;}
	.st29{fill:none;stroke:#727171;stroke-width:0.75;stroke-miterlimit:10;}
	.st30{fill:none;stroke:#727171;stroke-width:0.75;stroke-miterlimit:10;stroke-dasharray:10.9,1.36;}
	.st31{fill:#129142;}
	.st32{fill:#C9161D;}
	.st33{fill:#303131;}
	.st34{font-family:'Arial-BoldMT';}
	.st35{font-size:9px;}
	.st36{font-family:'AdobeSongStd-Light-GBpc-EUC-H';}
</style>
<title>骨龄分组BMI 男VI</title>
<g>
	<g id="图层_1_1_">
		<g>
			<g>
				<defs>
					<rect id="SVGID_1_" x="22.4" y="10.4" width="561.1" height="281.9"/>
				</defs>
				<clipPath id="SVGID_2_">
					<use xlink:href="#SVGID_1_"  style="overflow:visible;"/>
				</clipPath>
				<g class="st0">
					<rect x="22.3" y="10.4" class="st1" width="561.5" height="281.9"/>
				</g>
			</g>
		</g>
		<rect x="37.9" y="13.1" class="st1" width="543.2" height="265.5"/>
		<polyline class="st2" points="37.9,278.6 37.9,13.1 581.1,13.1 581.1,278.6 37.9,278.6 		"/>
		<path class="st3" d="M37.9,278.6V13.1 M37.9,13.1L37.9,13.1 M74.1,278.6V13.1 M74.1,13.1L74.1,13.1 M110.3,278.6V13.1 M110.3,13.1
			L110.3,13.1 M146.5,278.6V13.1 M146.5,13.1L146.5,13.1 M182.7,278.6V13.1 M182.7,13.1L182.7,13.1 M218.9,278.6V13.1 M218.9,13.1
			L218.9,13.1 M255.1,278.6V13.1 M255.1,13.1L255.1,13.1 M291.4,278.6V13.1 M291.4,13.1L291.4,13.1 M327.6,278.6V13.1 M327.6,13.1
			L327.6,13.1 M363.8,278.6V13.1 M363.8,13.1L363.8,13.1 M400,278.6V13.1 M400,13.1L400,13.1 M436.2,278.6V13.1 M436.2,13.1
			L436.2,13.1 M472.4,278.6V13.1 M472.4,13.1L472.4,13.1 M508.6,278.6V13.1 M508.6,13.1L508.6,13.1 M544.9,278.6V13.1 M544.9,13.1
			L544.9,13.1 M581.1,278.6V13.1 M581.1,13.1L581.1,13.1 M37.9,278.6h543.2 M581.1,278.6L581.1,278.6 M37.9,258.2h543.2
			 M581.1,258.2L581.1,258.2 M37.9,237.8h543.2 M581.1,237.8L581.1,237.8 M37.9,217.3h543.2 M581.1,217.3L581.1,217.3 M37.9,196.9
			h543.2 M581.1,196.9L581.1,196.9 M37.9,176.5h543.2 M581.1,176.5L581.1,176.5 M37.9,156.1h543.2 M581.1,156.1L581.1,156.1
			 M37.9,135.6h543.2 M581.1,135.6L581.1,135.6 M37.9,115.2h543.2 M581.1,115.2L581.1,115.2 M37.9,94.8h543.2 M581.1,94.8
			L581.1,94.8 M37.9,74.4h543.2 M581.1,74.4L581.1,74.4 M37.9,53.9h543.2 M581.1,53.9L581.1,53.9 M37.9,33.5h543.2 M581.1,33.5
			L581.1,33.5 M37.9,13.1h543.2 M581.1,13.1L581.1,13.1"/>
		<path class="st4" d="M37.9,13.1h543.2 M37.9,278.6h543.2 M581.1,278.6V13.1 M37.9,278.6V13.1 M37.9,278.6h543.2 M37.9,278.6V13.1
			 M37.9,278.6v-5.5 M37.9,13.1v5.4"/>
		<path class="st4" d="M581.1,278.6v-5.5 M581.1,13.1v5.4"/>
		<path class="st4" d="M37.9,278.6h5.4 M581.1,278.6h-5.5"/>
		<path class="st5" d="M74.1,278.6v-5.5 M74.1,13.1v5.4"/>
		<path class="st5" d="M110.3,278.6v-5.5 M110.3,13.1v5.4"/>
		<path class="st5" d="M146.5,278.6v-5.5 M146.5,13.1v5.4"/>
		<path class="st5" d="M182.7,278.6v-5.5 M182.7,13.1v5.4"/>
		<path class="st5" d="M218.9,278.6v-5.5 M218.9,13.1v5.4"/>
		<path class="st5" d="M255.1,278.6v-5.5 M255.1,13.1v5.4"/>
		<path class="st5" d="M291.4,278.6v-5.5 M291.4,13.1v5.4"/>
		<path class="st5" d="M327.6,278.6v-5.5 M327.6,13.1v5.4"/>
		<path class="st5" d="M363.8,278.6v-5.5 M363.8,13.1v5.4"/>
		<path class="st5" d="M400,278.6v-5.5 M400,13.1v5.4"/>
		<path class="st5" d="M436.2,278.6v-5.5 M436.2,13.1v5.4"/>
		<path class="st5" d="M472.4,278.6v-5.5 M472.4,13.1v5.4"/>
		<path class="st5" d="M508.7,278.6v-5.5 M508.7,13.1v5.4"/>
		<path class="st5" d="M544.9,278.6v-5.5 M544.9,13.1v5.4"/>
		<path class="st5" d="M37.9,258.2h5.4 M581.1,258.2h-5.5"/>
		<path class="st5" d="M37.9,237.8h5.4 M581.1,237.8h-5.5"/>
		<path class="st5" d="M37.9,217.3h5.4 M581.1,217.3h-5.5"/>
		<path class="st5" d="M37.9,196.9h5.4 M581.1,196.9h-5.5"/>
		<path class="st5" d="M37.9,176.5h5.4 M581.1,176.5h-5.5"/>
		<path class="st5" d="M37.9,156.1h5.4 M581.1,156.1h-5.5"/>
		<path class="st5" d="M37.9,135.6h5.4 M581.1,135.6h-5.5"/>
		<path class="st5" d="M37.9,115.2h5.4 M581.1,115.2h-5.5"/>
		<path class="st5" d="M37.9,94.8h5.4 M581.1,94.8h-5.5"/>
		<path class="st5" d="M37.9,74.4h5.4 M581.1,74.4h-5.5"/>
		<path class="st5" d="M37.9,53.9h5.4 M581.1,53.9h-5.5"/>
		<path class="st5" d="M37.9,33.5h5.4 M581.1,33.5h-5.5"/>
		<path class="st4" d="M37.9,13.1h5.4 M581.1,13.1h-5.5"/>
		<path class="st4" d="M37.9,13.1h543.2 M37.9,278.6h543.2 M581.1,278.6V13.1 M37.9,278.6V13.1"/>
		<g>
			<g>
				<defs>
					<rect id="SVGID_3_" x="37.9" y="13.1" width="543.3" height="265.6"/>
				</defs>
				<clipPath id="SVGID_4_">
					<use xlink:href="#SVGID_3_"  style="overflow:visible;"/>
				</clipPath>
				<g class="st6">
					<polyline class="st7" points="37.9,237.1 74.1,239.7 110.3,242 146.5,243 182.7,242.5 218.9,241.3 255.2,239.8 291.4,237.9 
						327.6,234.8 363.8,230.8 400,226.8 436.2,221.8 472.4,216.3 508.7,211.9 544.9,208.6 581.1,206.2 					"/>
					<polyline class="st8" points="37.9,245.2 74.1,247.8 110.3,250 146.5,251.1 182.7,250.8 218.9,249.8 255.2,248.9 291.4,247.8 
						327.6,245.4 363.8,241.8 400,237.6 436.2,231.9 472.4,226.3 508.7,221.9 544.9,218.6 581.1,216.5 					"/>
					<polyline class="st9" points="37.9,237.7 74.1,240.4 110.3,242.6 146.5,243.7 182.7,243.3 218.9,242 255.2,240.6 291.4,238.8 
						327.6,235.8 363.8,231.8 400,227.8 436.2,222.7 472.4,217.2 508.7,212.8 544.9,209.5 581.1,207.1 					"/>
					<polyline class="st10" points="37.9,227.4 74.1,230 110.3,232.1 146.5,232.9 182.7,232.1 218.9,230.2 255.2,227.7 291.4,224.7 
						327.6,220.5 363.8,215.8 400,212 436.2,207.5 472.4,202.2 508.7,197.8 544.9,194.4 581.1,191.8 					"/>
					<polyline class="st11" points="37.9,202.9 74.1,204.2 110.3,204.7 146.5,203.4 182.7,199.6 218.9,193.9 255.2,187.1 
						291.4,179.6 327.6,170.9 363.8,162.6 400,156.8 436.2,151 472.4,144.9 508.7,140 544.9,136.9 581.1,135.6 					"/>
					<path class="st12" d="M37.9,186.3l36.2,0.4l36.2-0.7l36.2-3.1l36.2-6l36.2-8.3l36.2-9.1l36.2-9.4l36.2-10.5l36.2-10.5l36.2-8.8
						l36.2-9.4l36.2-8.7l36.2-6.7l25.4-1.9c15.7-1.2,31.4,0.1,47.1,1.1"/>
					<polyline class="st13" points="37.9,213.6 74.1,215.6 110.3,217 146.5,216.8 182.7,214.6 218.9,210.8 255.2,206.1 291.4,200.7 
						327.6,194.4 363.8,188.2 400,182.8 436.2,178.5 472.4,173.2 508.7,168.8 544.9,165.4 581.1,163 					"/>
					<path class="st7" d="M37.9,174l36.2-0.2l36.2-1.6l36.2-4.4l36.2-7.7l36.2-10l36.2-10.3l36.2-9.8l36.2-11l36.2-11.7L400,95.6
						L436.2,82l36.2-12c0,0,29.3-7.3,32.5-8c2.8-0.6,7.1-1.2,7.1-1.2l32.9-2.3l36.2-0.3"/>
				</g>
			</g>
		</g>
		<rect x="37.9" y="13.1" class="st14" width="543.3" height="265.6"/>
		<text transform="matrix(1 0 0 1 34.56 289.82)" class="st15 st16 st17">3</text>
		<text transform="matrix(1 0 0 1 68.71 289.82)" class="st15 st16 st17">4</text>
		<text transform="matrix(1 0 0 1 106.86 289.82)" class="st15 st16 st17">5</text>
		<text transform="matrix(1 0 0 1 143.38 289.82)" class="st15 st16 st17">6</text>
		<text transform="matrix(1 0 0 1 179.16 289.82)" class="st15 st16 st17">7</text>
		<text transform="matrix(1 0 0 1 215.69 289.82)" class="st15 st16 st17">8</text>
		<text transform="matrix(1 0 0 1 252.46 289.82)" class="st15 st16 st17">9</text>
		<text transform="matrix(1 0 0 1 284.39 289.82)" class="st15 st16 st17">10</text>
		<text transform="matrix(1 0 0 1 320.54 289.82)" class="st15 st16 st17">11</text>
		<text transform="matrix(1 0 0 1 356.69 289.82)" class="st15 st16 st17">12</text>
		<text transform="matrix(1 0 0 1 392.85 289.82)" class="st15 st16 st17">13</text>
		<text transform="matrix(1 0 0 1 429 289.82)" class="st15 st16 st17">14</text>
		<text transform="matrix(1 0 0 1 465.15 289.82)" class="st15 st16 st17">15</text>
		<text transform="matrix(1 0 0 1 501.3 289.82)" class="st15 st16 st17">16</text>
		<text transform="matrix(1 0 0 1 537.45 289.82)" class="st15 st16 st17">17</text>
		<text transform="matrix(1 0 0 1 573.6 289.82)" class="st15 st16 st17">18</text>
		<text transform="matrix(1 0 0 1 21.78 282.4)" class="st15 st16 st17">10</text>
		<text transform="matrix(1 0 0 1 21.78 261.95)" class="st15 st16 st17">12</text>
		<text transform="matrix(1 0 0 1 21.78 241.52)" class="st15 st16 st17">14</text>
		<text transform="matrix(1 0 0 1 21.78 221.08)" class="st15 st16 st17">16</text>
		<text transform="matrix(1 0 0 1 21.78 200.65)" class="st15 st16 st17">18</text>
		<text transform="matrix(1 0 0 1 21.78 180.26)" class="st15 st16 st17">20</text>
		<text transform="matrix(1 0 0 1 21.78 159.82)" class="st15 st16 st17">22</text>
		<text transform="matrix(1 0 0 1 21.78 139.39)" class="st15 st16 st17">24</text>
		<text transform="matrix(1 0 0 1 21.78 118.95)" class="st15 st16 st17">26</text>
		<text transform="matrix(1 0 0 1 21.78 98.56)" class="st15 st16 st17">28</text>
		<text transform="matrix(1 0 0 1 21.78 78.12)" class="st15 st16 st17">30</text>
		<text transform="matrix(1 0 0 1 21.78 57.69)" class="st15 st16 st17">32</text>
		<text transform="matrix(1 0 0 1 21.78 37.24)" class="st15 st16 st17">34</text>
		<text transform="matrix(1 0 0 1 21.78 16.86)" class="st15 st16 st17">36</text>
		<text transform="matrix(1 0 0 1 312.95 304.54)" class="st15 st16 st18">按骨龄分组的BMI百分位曲线图(男)         RUS−CHN骨龄(岁) </text>
		<text transform="matrix(1 0 0 1 12.63 202.12)" class="st15 st16 st19">体重指数</text>
		<text transform="matrix(6.123234e-17 1 -1 6.123234e-17 9.1309 250.68)" class="st15 st16 st18">(BMI)</text>
		
			<image style="overflow:visible;opacity:0.25;enable-background:new    ;" width="129" height="108" xlink:href="61BBCE48E9F7930.png"  transform="matrix(0.9916 0 0 0.9916 56.28 33.7721)">
		</image>
		<path class="st1" d="M66.8,135.9c-3.8,0-7-2.7-7-6.4V44.7c0-4.8,3.1-7,7-7h106.5c5.2,0,7,4.5,7,7.3v83.7c0,5.7-3.1,7.1-7,7.1
			L66.8,135.9z"/>
		<path class="st20" d="M66.8,135.9c-3.8,0-7-2.7-7-6.4V44.7c0-4.8,3.1-7,7-7h106.5c5.2,0,7,4.5,7,7.3v83.7c0,5.7-3.1,7.1-7,7.1
			L66.8,135.9z"/>
		<polyline class="st21" points="67.1,70.4 65.1,70.4 67.1,70.4 		"/>
		<line class="st22" x1="68.2" y1="70.4" x2="84.2" y2="70.4"/>
		<polyline class="st21" points="84.7,70.4 86.7,70.4 84.7,70.4 		"/>
		<line class="st22" x1="83.6" y1="70.4" x2="67.6" y2="70.4"/>
		<polyline class="st21" points="67.1,70.4 65.1,70.4 67.1,70.4 		"/>
		<line class="st22" x1="68.2" y1="70.4" x2="84.2" y2="70.4"/>
		<polyline class="st21" points="84.7,70.4 86.7,70.4 84.7,70.4 		"/>
		<line class="st22" x1="83.6" y1="70.4" x2="67.6" y2="70.4"/>
		<polyline class="st23" points="67.1,92 65.1,92 67.1,92 		"/>
		<line class="st24" x1="68.2" y1="92" x2="84.2" y2="92"/>
		<polyline class="st23" points="84.7,92 86.7,92 84.7,92 		"/>
		<line class="st24" x1="83.6" y1="92" x2="67.6" y2="92"/>
		<polyline class="st23" points="67.1,92 65.1,92 67.1,92 		"/>
		<line class="st24" x1="68.2" y1="92" x2="84.2" y2="92"/>
		<polyline class="st23" points="84.7,92 86.7,92 84.7,92 		"/>
		<line class="st24" x1="83.6" y1="92" x2="67.6" y2="92"/>
		<polyline class="st25" points="66.1,59.8 65.1,59.8 66.1,59.8 		"/>
		<line class="st26" x1="67.1" y1="59.8" x2="85.2" y2="59.8"/>
		<polyline class="st25" points="85.7,59.8 86.7,59.8 85.7,59.8 		"/>
		<line class="st26" x1="84.7" y1="59.8" x2="66.6" y2="59.8"/>
		<polyline class="st25" points="66.1,59.8 65.1,59.8 66.1,59.8 		"/>
		<line class="st26" x1="67.1" y1="59.8" x2="85.2" y2="59.8"/>
		<polyline class="st25" points="85.7,59.8 86.7,59.8 85.7,59.8 		"/>
		<line class="st26" x1="84.7" y1="59.8" x2="66.6" y2="59.8"/>
		<polyline class="st25" points="66.1,125.7 65.1,125.7 66.1,125.7 		"/>
		<line class="st26" x1="67.1" y1="125.7" x2="85.2" y2="125.7"/>
		<polyline class="st25" points="85.7,125.7 86.7,125.7 85.7,125.7 		"/>
		<line class="st26" x1="84.7" y1="125.7" x2="66.6" y2="125.7"/>
		<polyline class="st27" points="66.1,125.7 65.1,125.7 66.1,125.7 		"/>
		<line class="st28" x1="67.1" y1="125.7" x2="85.2" y2="125.7"/>
		<polyline class="st27" points="85.7,125.7 86.7,125.7 85.7,125.7 		"/>
		<line class="st28" x1="84.7" y1="125.7" x2="66.6" y2="125.7"/>
		<polyline class="st29" points="69.1,113.5 65.1,113.5 69.1,113.5 		"/>
		<line class="st30" x1="70.4" y1="113.5" x2="82" y2="113.5"/>
		<polyline class="st29" points="82.7,113.5 86.7,113.5 82.7,113.5 		"/>
		<line class="st30" x1="81.3" y1="113.5" x2="69.8" y2="113.5"/>
		<polygon class="st31" points="65.1,80.7 65.1,81.3 65.1,82.1 65.1,80.1 86.7,80.1 86.7,82.1 86.7,81.3 86.7,80.7 86.7,81.8 
			65.1,81.8 		"/>
		<rect x="65.1" y="80.1" class="st31" width="21.6" height="2"/>
		<polygon class="st32" points="65.1,48.4 65.1,48.8 65.1,49.4 65.1,47.9 86.7,47.9 86.7,49.4 86.7,48.8 86.7,48.4 86.7,49.2 
			65.1,49.2 		"/>
		<rect x="65.1" y="47.9" class="st32" width="21.6" height="1.5"/>
		<text transform="matrix(1 0 0 1 89.8 84.66)" class="st33 st34 st35">50th</text>
		<text transform="matrix(1 0 0 1 89.8 73.79)" class="st33 st36 st35">超重界值点曲线</text>
		<text transform="matrix(1 0 0 1 89.8 62.91)" class="st33 st36 st35">肥胖界值点曲线</text>
		<text transform="matrix(1 0 0 1 89.8 52.04)" class="st33 st34 st35">97th</text>
		<text transform="matrix(1 0 0 1 88.8 95.54)" class="st33 st34 st35">18.5kg/m²  </text>
		<text transform="matrix(1 0 0 1 131.97 95.5422)" class="st33 st36 st35">界值点曲线</text>
		<text transform="matrix(1 0 0 1 89.8 106.41)" class="st33 st34 st35">3rd</text>
		<text transform="matrix(1 0 0 1 89.8 128.75)" class="st33 st34 st35">16kg/m²</text>
		<text transform="matrix(1 0 0 1 126.68 128.7522)" class="st33 st36 st35">界值点曲线</text>
		<text transform="matrix(1 0 0 1 89.8 117.29)" class="st33 st34 st35">17kg/m²</text>
		<text transform="matrix(1 0 0 1 126.68 117.2922)" class="st33 st36 st35">界值点曲线</text>
		<polygon class="st32" points="65.1,103 65.1,103.4 65.1,104 65.1,102.5 86.7,102.5 86.7,104 86.7,103.4 86.7,103 86.7,103.8 
			65.1,103.8 		"/>
		<rect x="65.1" y="102.5" class="st32" width="21.6" height="1.5"/>
	</g>
</g>
</svg>
