<svg id="图层_1" data-name="图层 1" width="496" height="260" xmlns="http://www.w3.org/2000/svg" xmlns:xlink="http://www.w3.org/1999/xlink" viewBox="0 0 595.28 311.81"><defs><style>.cls-1,.cls-11,.cls-12,.cls-13,.cls-14,.cls-15,.cls-2,.cls-6,.cls-7,.cls-8,.cls-9{fill:none;}.cls-2,.cls-5,.cls-9{stroke:#13b1c1;}.cls-2,.cls-7{stroke-miterlimit:6;}.cls-3{clip-path:url(#clip-path);}.cls-4,.cls-5{fill:#fff;}.cls-12,.cls-13,.cls-14,.cls-15,.cls-5{stroke-miterlimit:10;}.cls-6{stroke:#fff;}.cls-11,.cls-6,.cls-8,.cls-9{stroke-linejoin:round;}.cls-6,.cls-8{stroke-width:0.5px;}.cls-7{stroke:#666;opacity:0.2;}.cls-8{stroke:#1b2c77;}.cls-10{clip-path:url(#clip-path-2);}.cls-11{stroke:#c9161d;}.cls-11,.cls-12,.cls-15{stroke-width:1.4px;}.cls-12{stroke:#e47a32;}.cls-12,.cls-15{stroke-dasharray:2 1;}.cls-13{stroke:#71ac40;stroke-width:0.75px;stroke-dasharray:5 1;}.cls-14{stroke:#138f40;stroke-width:2px;}.cls-15{stroke:#198ac9;}.cls-16{font-size:11px;}.cls-16,.cls-17,.cls-18{fill:#13b1c1;font-family:MicrosoftYaHei, Microsoft YaHei;}.cls-17,.cls-18{font-size:10px;}.cls-18{writing-mode:tb;text-orientation:upright;glyph-orientation-vertical:0deg;}.cls-19{font-size:9px;fill:#303131;font-family:PingFangSC-Semibold-GBpc-EUC-H, PingFang SC;}</style><clipPath id="clip-path"><rect class="cls-1" x="19.48" y="10.28" width="563.86" height="282.08"/></clipPath><clipPath id="clip-path-2"><rect class="cls-2" x="37.81" y="12.97" width="543.3" height="265.8"/></clipPath></defs><title>骨龄分组BMI 男VI</title><g class="cls-3"><rect class="cls-4" x="19.41" y="10.26" width="564.44" height="282.15"/></g><rect class="cls-5" x="37.81" y="12.92" width="543.25" height="265.8"/><polyline class="cls-6" points="37.81 278.73 37.81 12.92 581.06 12.92 581.06 278.73 37.81 278.73"/><path class="cls-7" d="M37.81,278.73V13m0,0h0M74,278.73V13m0,0h0M110.2,278.73V13m0,0h0m36.25,265.76V13m0,0h0m36.2,265.76V13m0,0h0m36.24,265.76V13m0,0h0m36.2,265.76V13m0,0h0m36.2,265.76V13m0,0h0m36.24,265.76V13m0,0h0m36.2,265.76V13m0,0h0M400,278.73V13m0,0h0m36.19,265.76V13m0,0h0m36.2,265.76V13m0,0h0m36.25,265.76V13m0,0h0m36.19,265.76V13m0,0h0m36.25,265.76V13m0,0h0M37.81,266.05H581.06m0,0h0M37.81,240.75H581.06m0,0h0M37.81,215.41H581.06m0,0h0M37.81,190.11H581.06m0,0h0M37.81,164.81H581.06m0,0h0M37.81,139.51H581.06m0,0h0M37.81,114.16H581.06m0,0h0M37.81,88.87H581.06m0,0h0M37.81,63.57H581.06m0,0h0M37.81,38.27H581.06m0,0h0M37.81,13H581.06m0,0h0"/><path class="cls-8" d="M37.81,12.92H581.06M37.81,278.73H581.06m0,0V12.92M37.81,278.73V12.92m0,265.81H581.06m-543.25,0V12.92m0,265.81v-5.44M37.81,13v5.38"/><path class="cls-8" d="M581.06,278.73v-5.44m0-260.32v5.38"/><path class="cls-9" d="M74,278.73v-5.44M74,13v5.38"/><path class="cls-9" d="M110.2,278.73v-5.44M110.2,13v5.38"/><path class="cls-9" d="M146.45,278.73v-5.44m0-260.32v5.38"/><path class="cls-9" d="M182.65,278.73v-5.44m0-260.32v5.38"/><path class="cls-9" d="M218.89,278.73v-5.44m0-260.32v5.38"/><path class="cls-9" d="M255.09,278.73v-5.44m0-260.32v5.38"/><path class="cls-9" d="M291.29,278.73v-5.44m0-260.32v5.38"/><path class="cls-9" d="M327.53,278.73v-5.44m0-260.32v5.38"/><path class="cls-9" d="M363.73,278.73v-5.44m0-260.32v5.38"/><path class="cls-9" d="M400,278.73v-5.44M400,13v5.38"/><path class="cls-9" d="M436.17,278.73v-5.44m0-260.32v5.38"/><path class="cls-9" d="M472.37,278.73v-5.44m0-260.32v5.38"/><path class="cls-9" d="M508.62,278.73v-5.44m0-260.32v5.38"/><path class="cls-9" d="M544.81,278.73v-5.44m0-260.32v5.38"/><path class="cls-9" d="M37.81,266.05h5.42m537.83,0h-5.47"/><path class="cls-9" d="M37.81,240.75h5.42m537.83,0h-5.47"/><path class="cls-9" d="M37.81,215.41h5.42m537.83,0h-5.47"/><path class="cls-9" d="M37.81,190.11h5.42m537.83,0h-5.47"/><path class="cls-9" d="M37.81,164.81h5.42m537.83,0h-5.47"/><path class="cls-9" d="M37.81,139.51h5.42m537.83,0h-5.47"/><path class="cls-9" d="M37.81,114.16h5.42m537.83,0h-5.47"/><path class="cls-9" d="M37.81,88.87h5.42m537.83,0h-5.47"/><path class="cls-9" d="M37.81,63.57h5.42m537.83,0h-5.47"/><path class="cls-9" d="M37.81,38.27h5.42m537.83,0h-5.47"/><path class="cls-8" d="M37.81,13h5.42m537.83,0h-5.47"/><path class="cls-8" d="M37.81,12.92H581.06M37.81,278.73H581.06m0,0V12.92M37.81,278.73V12.92"/><g class="cls-10"><polyline class="cls-11" points="37.81 260.22 55.91 258.31 74.01 256.45 92.1 254.63 110.2 252.62 128.35 250.36 146.45 248 164.55 245.78 182.65 243.67 200.75 241.51 218.89 239.09 236.99 236.43 255.09 233.66 273.19 230.9 291.29 228.23 309.44 225.06 327.53 220.79 345.63 215.71 363.73 210.18 381.83 204.64 399.98 199.41 418.08 194.38 436.17 189.66 454.27 185.18 472.37 181.06 490.52 177.43 508.62 174.52 526.72 172.5 544.82 171.15 562.91 170.14 581.06 169.24"/><polyline class="cls-12" points="37.81 257.65 55.91 255.49 74.01 253.38 92.1 251.32 110.2 249.05 128.35 246.44 146.45 243.82 164.55 241.81 182.65 239.04 200.75 236.23 218.89 234.22 236.99 231.35 255.09 228.33 273.19 225.26 291.29 222.2 309.44 218.63 327.53 214 345.63 208.57 363.73 202.63 381.83 196.75 399.98 191.11 418.08 185.63 436.17 180.35 454.27 175.47 472.37 171.15 490.52 167.63 508.62 164.96 526.72 163.1 544.82 161.69 562.91 160.53 581.06 159.33"/><polyline class="cls-13" points="37.81 254.99 55.91 252.52 74.01 250.21 92.1 247.85 110.2 245.28 128.35 242.31 146.45 239.35 164.55 237.03 182.65 233.96 200.75 231.4 218.89 228.53 236.99 225.36 255.09 221.89 273.19 218.42 291.29 214.95 309.44 210.93 327.53 205.75 345.63 199.76 363.73 193.33 381.83 186.94 399.98 180.85 418.08 174.97 436.17 169.29 454.27 163.96 472.37 159.38 490.52 155.81 508.62 153.19 526.72 151.38 544.82 149.97 562.91 148.77 581.06 147.51"/><path class="cls-14" d="M37.81,252.07l18.1-2.77L74,246.14l18.09-2.67,18.1-2.41,18.15-3.32,18.1-3.42,18.1-3.27,18.1-3.07,18.09-3.17,18.15-3.52,18.1-3.87,18.1-3.62,18.1-4.58,18.1-4.53c18.37-5.24,36.52-10.26,54.34-17.15l18.1-7.39,18.1-7.14L400,166.47l18.1-6.14,18.09-5.93,18.1-5.58,18.1-5,18.15-4.13,18.1-3.06,18.1-2,18.09-1.35,18.1-.91,18.15-.8"/><polyline class="cls-13" points="37.81 248.7 55.91 245.63 74.01 242.51 92.1 239.45 110.2 236.08 128.35 232.31 146.45 228.38 164.55 224.51 182.65 220.79 200.75 216.86 218.89 212.44 236.99 207.61 255.09 202.63 273.19 198.86 291.29 193.18 309.44 186.79 327.53 180.75 345.63 172.46 363.73 163.75 381.83 155.56 399.98 148.36 418.08 141.78 436.17 135.49 454.27 129.4 472.37 123.72 490.52 118.69 508.62 114.72 526.72 112.2 544.82 110.94 562.91 110.49 581.06 110.44"/><polyline class="cls-15" points="37.81 244.68 55.91 241.11 74.01 237.53 92.1 233.91 110.2 229.94 128.35 225.47 146.45 220.89 164.55 216.31 182.65 211.88 200.75 206.75 218.89 202.13 236.99 196.6 255.09 190.91 273.19 186.44 291.29 180.65 309.44 173.26 327.53 166.02 345.63 156.51 363.73 146.45 381.83 136.9 399.98 128.45 418.08 120.55 436.17 112.96 454.27 105.51 472.37 98.57 490.52 92.54 508.62 87.76 526.72 84.74 544.82 83.23 562.91 82.83 581.06 82.83"/><path class="cls-11" d="M37.81,239.35l18.1-4.23L74,230.85l18.09-4.38,18.1-4.88,18.15-5.48,18.1-5.68,18.1-5.49,18.1-5.18,18.09-5.23,18.15-5.63,18.1-6,18.1-6.24,18.1-5.58,18.1-6.54C310,157.83,328.42,148.1,345.63,138l18.1-11.67,18.1-11.46L400,104.1l18.1-10.56,18.09-10.66,18.1-10.61,18.1-9.41,18.15-7.44,18.1-5.58,18.1-3.77,18.09-2.47,18.1-1.36,18.15-.55"/></g><rect class="cls-2" x="37.81" y="12.97" width="543.3" height="265.8"/><text class="cls-16" transform="translate(34.49 289.91)">3</text><text class="cls-16" transform="translate(70.7 289.91)">4</text><text class="cls-16" transform="translate(106.9 289.91)">5</text><text class="cls-16" transform="translate(141.48 289.91)">6 </text><text class="cls-16" transform="translate(179.32 289.91)">7</text><text class="cls-16" transform="translate(213.9 289.91)">8 </text><text class="cls-16" transform="translate(251.73 289.91)">9</text><text class="cls-16" transform="translate(284.72 289.91)">10</text><text class="cls-16" transform="translate(320.92 289.91)">11</text><text class="cls-16" transform="translate(357.13 289.91)">12</text><text class="cls-16" transform="translate(393.34 289.91)">13</text><text class="cls-16" transform="translate(429.55 289.91)">14</text><text class="cls-16" transform="translate(465.75 289.91)">15</text><text class="cls-16" transform="translate(501.96 289.91)">16</text><text class="cls-16" transform="translate(538.17 289.91)">17</text><text class="cls-16" transform="translate(574.38 289.91)">18</text><text class="cls-16" transform="translate(21.37 270.82)">10</text><text class="cls-16" transform="translate(21.37 245.51)">20</text><text class="cls-16" transform="translate(21.37 220.16)">30</text><text class="cls-16" transform="translate(21.37 194.87)">40</text><text class="cls-16" transform="translate(21.37 169.57)">50</text><text class="cls-16" transform="translate(21.37 144.27)">60</text><text class="cls-16" transform="translate(21.37 118.92)">70</text><text class="cls-16" transform="translate(21.37 93.63)">80</text><text class="cls-16" transform="translate(21.37 68.33)">90</text><text class="cls-16" transform="translate(14.92 43.03)">100</text><text class="cls-16" transform="translate(14.92 17.73)">110</text><text class="cls-17" transform="translate(314.95 305.01)"><tspan xml:space="preserve">按骨龄分组的体重百分位曲线图(男)         RUS-CHN骨龄(岁)</tspan></text><text class="cls-17" transform="translate(11.13 258.18) rotate(90)">(kg)</text><text class="cls-18" transform="translate(13.63 227.5)">体重</text><rect class="cls-4" x="553.35" y="37.38" width="21.66" height="9.95"/><text class="cls-19" transform="translate(554.79 45.71)">97th</text><rect class="cls-4" x="553.35" y="77.43" width="21.66" height="9.95"/><text class="cls-19" transform="translate(554.79 85.76)">90th</text><rect class="cls-4" x="553.35" y="105.37" width="21.66" height="9.95"/><text class="cls-19" transform="translate(554.79 113.69)">75th</text><rect class="cls-4" x="553.35" y="127.75" width="21.66" height="9.95"/><text class="cls-19" transform="translate(554.79 136.07)">50th</text><rect class="cls-4" x="553.35" y="144.12" width="21.66" height="9.95"/><text class="cls-19" transform="translate(554.79 152.45)">25th</text><rect class="cls-4" x="553.35" y="155.7" width="21.66" height="9.95"/><text class="cls-19" transform="translate(554.79 164.03)">10th</text><rect class="cls-4" x="553.35" y="164.23" width="21.66" height="9.95"/><text class="cls-19" transform="translate(554.79 172.56)">3rd</text></svg>