<svg id="图层_1" data-name="图层 1" width="496" height="260" xmlns="http://www.w3.org/2000/svg" xmlns:xlink="http://www.w3.org/1999/xlink" viewBox="0 0 595.28 311.81"><defs><style>.cls-1,.cls-10,.cls-14,.cls-15,.cls-16,.cls-17,.cls-18,.cls-2,.cls-5,.cls-7,.cls-8,.cls-9{fill:none;}.cls-10,.cls-2{stroke:#13b1c1;}.cls-15,.cls-16,.cls-17,.cls-18,.cls-2{stroke-miterlimit:10;}.cls-3{clip-path:url(#clip-path);}.cls-4{fill:#fff;}.cls-5{stroke:#fff;}.cls-10,.cls-14,.cls-5,.cls-8,.cls-9{stroke-linejoin:round;}.cls-5,.cls-8,.cls-9{stroke-width:0.5px;}.cls-6{opacity:0.2;}.cls-7{stroke:#666;stroke-miterlimit:6;}.cls-8{stroke:#871585;}.cls-9{stroke:#8f278a;}.cls-11,.cls-12{font-size:10px;fill:#13b1c1;font-family:MicrosoftYaHei, Microsoft YaHei;}.cls-12{writing-mode:tb;text-orientation:upright;glyph-orientation-vertical:0deg;}.cls-13{clip-path:url(#clip-path-2);}.cls-14{stroke:#c9161d;}.cls-14,.cls-15,.cls-16,.cls-18{stroke-width:1.4px;}.cls-15{stroke:#e47a32;}.cls-15,.cls-18{stroke-dasharray:2 1;}.cls-16{stroke:#71ac40;stroke-dasharray:5 1;}.cls-17{stroke:#138f40;stroke-width:2px;}.cls-18{stroke:#198ac9;}.cls-19{font-size:9px;fill:#303131;font-family:PingFangSC-Semibold-GBpc-EUC-H, PingFang SC;}</style><clipPath id="clip-path"><rect class="cls-1" x="22.35" y="10.19" width="561.33" height="282.24"/></clipPath><clipPath id="clip-path-2"><rect class="cls-2" x="37.78" y="12.92" width="543.36" height="265.91"/></clipPath></defs><title>骨龄分组 -女VI2</title><g class="cls-3"><rect class="cls-4" x="22.27" y="10.19" width="561.58" height="282.29"/></g><rect class="cls-4" x="37.78" y="12.92" width="543.31" height="265.86"/><polyline class="cls-5" points="37.78 278.77 37.78 12.91 581.09 12.91 581.09 278.77 37.78 278.77"/><g class="cls-6"><path class="cls-7" d="M37.78,278.77V12.92m0,0h0m38.8,265.85V12.92m0,0h0m38.81,265.85V12.92m0,0h0m38.8,265.85V12.92m0,0h0M193,278.77V12.92m0,0h0m38.8,265.85V12.92m0,0h0m38.8,265.85V12.92m0,0h0m38.85,265.85V12.92m0,0h0m38.8,265.85V12.92m0,0h0M387,278.77V12.92m0,0h0m38.8,265.85V12.92m0,0h0m38.8,265.85V12.92m0,0h0m38.8,265.85V12.92m0,0h0m38.8,265.85V12.92m0,0h0m38.85,265.85V12.92m0,0h0"/><path class="cls-7" d="M37.78,278.77H581.09m0,0h0M37.78,245.51H581.09m0,0h0M37.78,212.3H581.09m0,0h0M37.78,179H581.09m0,0h0M37.78,145.82H581.09m0,0h0M37.78,112.61H581.09m0,0h0M37.78,79.34H581.09m0,0h0M37.78,46.13H581.09m0,0h0M37.78,12.92H581.09m0,0h0"/></g><path class="cls-8" d="M37.78,12.92H581.09M37.78,278.77H581.09"/><path class="cls-9" d="M581.09,278.77V12.92M37.78,278.77V12.92"/><line class="cls-8" x1="37.78" y1="278.77" x2="581.09" y2="278.77"/><line class="cls-9" x1="37.78" y1="278.77" x2="37.78" y2="12.92"/><path class="cls-8" d="M37.78,278.77v-5.49m0-260.36v5.44"/><path class="cls-8" d="M581.09,278.77v-5.49m0-260.36v5.44"/><path class="cls-9" d="M37.78,278.77h5.43m537.88,0h-5.47"/><path class="cls-10" d="M76.58,278.77v-5.49m0-260.36v5.44"/><path class="cls-10" d="M115.39,278.77v-5.49m0-260.36v5.44"/><path class="cls-10" d="M154.19,278.77v-5.49m0-260.36v5.44"/><path class="cls-10" d="M193,278.77v-5.49m0-260.36v5.44"/><path class="cls-10" d="M231.79,278.77v-5.49m0-260.36v5.44"/><path class="cls-10" d="M270.59,278.77v-5.49m0-260.36v5.44"/><path class="cls-10" d="M309.44,278.77v-5.49m0-260.36v5.44"/><path class="cls-10" d="M348.24,278.77v-5.49m0-260.36v5.44"/><path class="cls-10" d="M387,278.77v-5.49m0-260.36v5.44"/><path class="cls-10" d="M425.84,278.77v-5.49m0-260.36v5.44"/><path class="cls-10" d="M464.64,278.77v-5.49m0-260.36v5.44"/><path class="cls-10" d="M503.44,278.77v-5.49m0-260.36v5.44"/><path class="cls-10" d="M542.24,278.77v-5.49m0-260.36v5.44"/><path class="cls-10" d="M37.78,245.51h5.43m537.88,0h-5.47"/><path class="cls-10" d="M37.78,212.3h5.43m537.88,0h-5.47"/><path class="cls-10" d="M37.78,179h5.43m537.88,0h-5.47"/><path class="cls-10" d="M37.78,145.82h5.43m537.88,0h-5.47"/><path class="cls-10" d="M37.78,112.61h5.43m537.88,0h-5.47"/><path class="cls-10" d="M37.78,79.34h5.43m537.88,0h-5.47"/><path class="cls-10" d="M37.78,46.13h5.43m537.88,0h-5.47"/><path class="cls-9" d="M37.78,12.92h5.43m537.88,0h-5.47"/><text class="cls-11" transform="translate(311.95 305.01)"><tspan xml:space="preserve">按骨龄分组的体重百分位曲线图(女)         RUS−CHN骨龄(岁)</tspan></text><text class="cls-11" transform="translate(11.13 259.18) rotate(90)">(kg)</text><text class="cls-12" transform="translate(13.63 230.5)">体重</text><text class="cls-11" transform="translate(34.78 288.97)">3 </text><text class="cls-11" transform="translate(73.57 288.97)">4 </text><text class="cls-11" transform="translate(112.38 288.97)">5 </text><text class="cls-11" transform="translate(151.18 288.97)">6 </text><text class="cls-11" transform="translate(189.98 288.97)">7 </text><text class="cls-11" transform="translate(228.78 288.97)">8 </text><text class="cls-11" transform="translate(268.58 288.97)">9 </text><text class="cls-11" transform="translate(304.78 288.97)">10</text><text class="cls-11" transform="translate(343.58 288.97)">11</text><text class="cls-11" transform="translate(382.38 288.97)">12</text><text class="cls-11" transform="translate(421.18 288.97)">13</text><text class="cls-11" transform="translate(459.98 288.97)">14</text><text class="cls-11" transform="translate(498.78 288.97)">15</text><text class="cls-11" transform="translate(537.58 288.97)">16</text><text class="cls-11" transform="translate(576.44 288.97)">17</text><text class="cls-11" transform="translate(23.71 282.54)">10</text><text class="cls-11" transform="translate(23.71 249.28)">20</text><text class="cls-11" transform="translate(23.71 216.06)">30</text><text class="cls-11" transform="translate(23.71 182.8)">40</text><text class="cls-11" transform="translate(23.71 149.59)">50</text><text class="cls-11" transform="translate(23.71 116.37)">60</text><text class="cls-11" transform="translate(23.71 83.11)">70</text><text class="cls-11" transform="translate(23.71 49.89)">80</text><text class="cls-11" transform="translate(23.71 16.68)">90</text><path class="cls-8" d="M37.78,12.92H581.09M37.78,278.77H581.09"/><path class="cls-9" d="M581.09,278.77V12.92M37.78,278.77V12.92"/><g class="cls-13"><polyline class="cls-14" points="37.78 270.56 57.16 268.85 76.58 266.88 95.96 264.66 115.39 262.19 134.76 259.42 154.19 256.35 173.61 253.07 192.99 249.84 212.41 246.67 231.79 243.54 251.21 240.37 270.59 236.94 290.01 233.01 309.44 228.58 328.81 223.49 348.24 217.34 367.62 210.28 387.04 203.43 406.42 197.73 425.84 193.15 445.27 189.31 464.64 185.28 484.07 181.2 503.44 177.77 522.87 175.3 542.24 174.15 561.67 174.04 581.09 174.09"/><polyline class="cls-15" points="37.78 267.28 57.16 265.42 76.58 263.3 95.96 260.93 115.39 258.26 134.76 255.34 154.19 252.06 173.61 248.64 192.99 245.21 212.41 241.83 231.79 238.46 251.21 234.93 270.59 231.05 290.01 226.66 309.44 221.67 328.81 215.93 348.24 209.27 367.62 201.76 387.04 194.51 406.42 188.21 425.84 183.01 445.27 178.68 464.64 174.6 484.07 170.77 503.44 167.69 522.87 165.48 542.24 164.32 561.67 164.12 581.09 164.37"/><polyline class="cls-16" points="37.78 263.6 57.16 261.59 76.58 259.27 95.96 256.65 115.39 253.78 134.76 250.6 154.19 247.12 173.61 243.44 192.99 239.82 212.41 236.14 231.79 232.41 251.21 228.48 270.59 223.99 290.01 219 309.44 213.31 328.81 206.85 348.24 199.55 367.62 191.58 387.04 183.87 406.42 177.02 425.84 171.17 445.27 166.28 464.64 162.15 484.07 158.62 503.44 155.9 522.87 153.93 542.24 152.82 561.67 152.47 581.09 152.47"/><polyline class="cls-17" points="37.78 259.17 57.16 256.85 76.58 254.28 95.96 251.36 115.39 248.13 134.76 244.55 154.19 240.72 173.61 236.69 192.99 232.66 212.41 228.58 231.79 224.34 251.21 219.71 270.59 214.51 290.01 208.67 309.44 202.07 328.81 194.56 348.24 186.34 367.62 177.82 387.04 169.66 406.42 162.25 425.84 155.75 445.27 150.31 464.64 146.02 484.07 142.85 503.44 140.58 522.87 138.87 542.24 137.86 561.67 137.3 581.09 137.05"/><polyline class="cls-16" points="37.78 254.23 57.16 251.61 76.58 248.64 95.96 245.26 115.39 241.53 134.76 237.5 154.19 233.11 173.61 228.58 192.99 223.99 212.41 219.25 231.79 214.26 251.21 208.82 270.59 202.62 290.01 195.72 309.44 187.85 328.81 178.93 348.24 169.46 367.62 160.23 387.04 151.77 406.42 143.85 425.84 136.75 445.27 130.7 464.64 126.06 484.07 123.14 503.44 121.17 522.87 119.66 542.24 118.6 561.67 117.9 581.09 117.34"/><polyline class="cls-18" points="37.78 249.29 57.16 246.32 76.58 242.89 95.96 239.01 115.39 234.68 134.76 229.99 154.19 224.95 173.61 219.71 192.99 214.36 212.41 208.82 231.79 202.92 251.21 196.42 270.59 189.01 290.01 180.85 309.44 171.47 328.81 160.64 348.24 149.45 367.62 139.42 387.04 130.7 406.42 122.53 425.84 114.92 445.27 108.07 464.64 102.78 484.07 99.7 503.44 97.64 522.87 95.87 542.24 94.51 561.67 93.4 581.09 92.4"/><path class="cls-14" d="M37.78,244l19.38-3.48,19.42-4L96,231.9l19.43-5.09,19.37-5.59,19.43-5.95,19.42-6.2L193,202.62l19.42-6.75,19.38-7.26,19.42-8,19.38-9L290,161.75l19.43-11.49,19.37-13.66,19.43-13.81c36.72-21.11,76.52-36.45,116.4-50.4l19.43-4.69,19.37-3.48,19.43-2,19.37-2.42,19.43-1.92,19.42-1.66"/></g><rect class="cls-2" x="37.78" y="12.92" width="543.36" height="265.91"/><rect class="cls-4" x="552.5" y="51.65" width="21.66" height="9.95"/><text class="cls-19" transform="translate(553.94 59.98)">97th</text><rect class="cls-4" x="552.5" y="88.69" width="21.66" height="9.95"/><text class="cls-19" transform="translate(553.94 97.02)">90th</text><rect class="cls-4" x="552.5" y="112.63" width="21.66" height="9.95"/><text class="cls-19" transform="translate(553.94 120.96)">75th</text><rect class="cls-4" x="552.5" y="132.01" width="21.66" height="9.95"/><text class="cls-19" transform="translate(553.94 140.34)">50th</text><rect class="cls-4" x="552.5" y="147.39" width="21.66" height="9.95"/><text class="cls-19" transform="translate(553.94 155.72)">25th</text><rect class="cls-4" x="552.5" y="158.97" width="21.66" height="9.95"/><text class="cls-19" transform="translate(553.94 167.3)">10th</text><rect class="cls-4" x="552.5" y="169.5" width="21.66" height="9.95"/><text class="cls-19" transform="translate(553.94 177.83)">3rd</text></svg>