<svg id="图层_1" data-name="图层 1" width="496" height="260" xmlns="http://www.w3.org/2000/svg" viewBox="0 0 595.28 311.81"><defs><style>.cls-1{fill:#fff;}.cls-10,.cls-11,.cls-2,.cls-3,.cls-4,.cls-5,.cls-6,.cls-7,.cls-8,.cls-9{fill:none;}.cls-3{stroke:#fff;}.cls-3,.cls-5,.cls-6,.cls-7{stroke-linejoin:round;}.cls-3,.cls-5{stroke-width:0.5px;}.cls-4{stroke:#666;stroke-miterlimit:6;opacity:0.2;}.cls-5{stroke:#000;}.cls-6{stroke:#13b1c1;}.cls-7{stroke:#d31348;}.cls-10,.cls-11,.cls-7,.cls-9{stroke-width:1.4px;}.cls-8{stroke:#138f40;stroke-width:2px;}.cls-10,.cls-11,.cls-8,.cls-9{stroke-miterlimit:10;}.cls-9{stroke:#24acab;stroke-dasharray:5 2;}.cls-10{stroke:#e47a32;}.cls-10,.cls-11{stroke-dasharray:2 2;}.cls-11{stroke:#198ac9;}.cls-12{font-size:4.7px;fill:#231815;font-family:Helvetica;}.cls-13,.cls-16{font-size:10px;}.cls-13,.cls-14,.cls-15{fill:#13b1c1;font-family:MicrosoftYaHei, Microsoft YaHei;}.cls-14,.cls-15{font-size:11px;}.cls-15{writing-mode:tb;text-orientation:upright;glyph-orientation-vertical:0deg;}.cls-16{fill:#303131;font-family:PingFangSC-Semibold-GBpc-EUC-H, PingFang SC;}</style></defs><title>女身高百分位数-处理VI</title><rect class="cls-1" x="28.09" y="10.19" width="555.79" height="274.86"/><rect class="cls-2" x="28.16" y="10.21" width="555.54" height="274.78"/><polyline class="cls-3" points="37.77 278.93 37.77 12.83 581.14 12.83 581.14 278.93 37.77 278.93"/><path class="cls-4" d="M37.77,278.93V12.83m0,0h0m49.38,266.1V12.83m0,0h0m49.38,266.1V12.83m0,0h0M186,278.93V12.83m0,0h0m49.38,266.1V12.83m0,0h0m49.38,266.1V12.83m0,0h0m49.43,266.1V12.83m0,0h0m49.38,266.1V12.83m0,0h0m49.37,266.1V12.83m0,0h0m49.43,266.1V12.83m0,0h0m49.38,266.1V12.83m0,0h0m49.43,266.1V12.83m0,0h0M37.77,278.93H581.14m0,0h0M37.77,240.87H581.14m0,0h0m-543.37-38H581.14m0,0h0m-543.37-38H581.14m0,0h0m-543.37-38H581.14m0,0h0m-543.37-38H581.14m0,0h0m-543.37-38H581.14m0,0h0m-543.37-38H581.14m0,0h0"/><path class="cls-5" d="M37.77,12.83H581.14M37.77,278.93H581.14m0,0V12.83M37.77,278.93V12.83m0,266.1H581.14m-543.37,0V12.83m0,266.1v-5.38m0-260.72v5.33"/><rect class="cls-2" x="28.16" y="10.21" width="555.54" height="274.78"/><rect class="cls-2" x="28.16" y="10.21" width="555.54" height="274.78"/><rect class="cls-2" x="28.16" y="10.21" width="555.54" height="274.78"/><rect class="cls-2" x="28.16" y="10.21" width="555.54" height="274.78"/><rect class="cls-2" x="28.16" y="10.21" width="555.54" height="274.78"/><rect class="cls-2" x="28.16" y="10.21" width="555.54" height="274.78"/><path class="cls-5" d="M37.77,278.93h5.42m538,0h-5.46"/><path class="cls-6" d="M62.46,278.93v-2.69m0-263.41v2.64M87.15,278.93v-2.69m0-263.41v2.64m0,263.46v-2.69m0-263.41v2.64m0,263.46v-2.69m0-263.41v2.64m0,263.46v-2.69m0-263.41v2.64m0,263.46v-2.69m0-263.41v2.64m0,263.46v-2.69m0-263.41v2.64m0,263.46v-2.69m0-263.41v2.64m0,263.46v-2.69m0-263.41v2.64m0,263.46v-5.38m0-260.72v5.33"/><path class="cls-6" d="M111.84,278.93v-2.69m0-263.41v2.64m24.69,263.46v-2.69m0-263.41v2.64m0,263.46v-2.69m0-263.41v2.64m0,263.46v-2.69m0-263.41v2.64m0,263.46v-2.69m0-263.41v2.64m0,263.46v-2.69m0-263.41v2.64m0,263.46v-2.69m0-263.41v2.64m0,263.46v-2.69m0-263.41v2.64m0,263.46v-2.69m0-263.41v2.64m0,263.46v-5.38m0-260.72v5.33"/><path class="cls-6" d="M161.22,278.93v-2.69m0-263.41v2.64M186,278.93v-2.69m0-263.41v2.64m0,263.46v-2.69m0-263.41v2.64m0,263.46v-2.69m0-263.41v2.64m0,263.46v-2.69m0-263.41v2.64m0,263.46v-2.69m0-263.41v2.64m0,263.46v-2.69m0-263.41v2.64m0,263.46v-2.69m0-263.41v2.64m0,263.46v-2.69m0-263.41v2.64m0,263.46v-5.38m0-260.72v5.33"/><path class="cls-6" d="M210.65,278.93v-2.69m0-263.41v2.64m24.69,263.46v-2.69m0-263.41v2.64m0,263.46v-2.69m0-263.41v2.64m0,263.46v-2.69m0-263.41v2.64m0,263.46v-2.69m0-263.41v2.64m0,263.46v-2.69m0-263.41v2.64m0,263.46v-2.69m0-263.41v2.64m0,263.46v-2.69m0-263.41v2.64m0,263.46v-2.69m0-263.41v2.64m0,263.46v-5.38m0-260.72v5.33"/><path class="cls-6" d="M260,278.93v-2.69m0-263.41v2.64m24.69,263.46v-2.69m0-263.41v2.64m0,263.46v-2.69m0-263.41v2.64m0,263.46v-2.69m0-263.41v2.64m0,263.46v-2.69m0-263.41v2.64m0,263.46v-2.69m0-263.41v2.64m0,263.46v-2.69m0-263.41v2.64m0,263.46v-2.69m0-263.41v2.64m0,263.46v-2.69m0-263.41v2.64m0,263.46v-5.38m0-260.72v5.33"/><path class="cls-6" d="M309.46,278.93v-2.69m0-263.41v2.64m24.69,263.46v-2.69m0-263.41v2.64m0,263.46v-2.69m0-263.41v2.64m0,263.46v-2.69m0-263.41v2.64m0,263.46v-2.69m0-263.41v2.64m0,263.46v-2.69m0-263.41v2.64m0,263.46v-2.69m0-263.41v2.64m0,263.46v-2.69m0-263.41v2.64m0,263.46v-2.69m0-263.41v2.64m0,263.46v-5.38m0-260.72v5.33"/><path class="cls-6" d="M358.84,278.93v-2.69m0-263.41v2.64m24.69,263.46v-2.69m0-263.41v2.64m0,263.46v-2.69m0-263.41v2.64m0,263.46v-2.69m0-263.41v2.64m0,263.46v-2.69m0-263.41v2.64m0,263.46v-2.69m0-263.41v2.64m0,263.46v-2.69m0-263.41v2.64m0,263.46v-2.69m0-263.41v2.64m0,263.46v-2.69m0-263.41v2.64m0,263.46v-5.38m0-260.72v5.33"/><path class="cls-6" d="M408.21,278.93v-2.69m0-263.41v2.64M432.9,278.93v-2.69m0-263.41v2.64m0,263.46v-2.69m0-263.41v2.64m0,263.46v-2.69m0-263.41v2.64m0,263.46v-2.69m0-263.41v2.64m0,263.46v-2.69m0-263.41v2.64m0,263.46v-2.69m0-263.41v2.64m0,263.46v-2.69m0-263.41v2.64m0,263.46v-2.69m0-263.41v2.64m0,263.46v-5.38m0-260.72v5.33"/><path class="cls-6" d="M457.64,278.93v-2.69m0-263.41v2.64m24.69,263.46v-2.69m0-263.41v2.64m0,263.46v-2.69m0-263.41v2.64m0,263.46v-2.69m0-263.41v2.64m0,263.46v-2.69m0-263.41v2.64m0,263.46v-2.69m0-263.41v2.64m0,263.46v-2.69m0-263.41v2.64m0,263.46v-2.69m0-263.41v2.64m0,263.46v-2.69m0-263.41v2.64m0,263.46v-5.38m0-260.72v5.33"/><path class="cls-6" d="M507,278.93v-2.69m0-263.41v2.64m24.69,263.46v-2.69m0-263.41v2.64m0,263.46v-2.69m0-263.41v2.64m0,263.46v-2.69m0-263.41v2.64m0,263.46v-2.69m0-263.41v2.64m0,263.46v-2.69m0-263.41v2.64m0,263.46v-2.69m0-263.41v2.64m0,263.46v-2.69m0-263.41v2.64m0,263.46v-2.69m0-263.41v2.64m0,263.46v-5.38m0-260.72v5.33"/><path class="cls-6" d="M556.4,278.93v-2.69m0-263.41v2.64m24.74,263.46v-2.69m0-263.41v2.64m0,263.46v-2.69m0-263.41v2.64m0,263.46v-2.69m0-263.41v2.64m0,263.46v-2.69m0-263.41v2.64m0,263.46v-2.69m0-263.41v2.64m0,263.46v-2.69m0-263.41v2.64m0,263.46v-2.69m0-263.41v2.64m0,263.46v-2.69m0-263.41v2.64m0,263.46v-5.38m0-260.72v5.33"/><path class="cls-6" d="M37.77,259.9h2.69m540.68,0h-2.73m-540.64-19h2.69m540.68,0h-2.73m-540.64,0h2.69m540.68,0h-2.73m-540.64,0h2.69m540.68,0h-2.73m-540.64,0h2.69m540.68,0h-2.73m-540.64,0h2.69m540.68,0h-2.73m-540.64,0h2.69m540.68,0h-2.73m-540.64,0h2.69m540.68,0h-2.73m-540.64,0h2.69m540.68,0h-2.73m-540.64,0h5.42m538,0h-5.46"/><path class="cls-6" d="M37.77,221.89h2.69m540.68,0h-2.73m-540.64-19h2.69m540.68,0h-2.73m-540.64,0h2.69m540.68,0h-2.73m-540.64,0h2.69m540.68,0h-2.73m-540.64,0h2.69m540.68,0h-2.73m-540.64,0h2.69m540.68,0h-2.73m-540.64,0h2.69m540.68,0h-2.73m-540.64,0h2.69m540.68,0h-2.73m-540.64,0h2.69m540.68,0h-2.73m-540.64,0h5.42m538,0h-5.46"/><path class="cls-6" d="M37.77,183.89h2.69m540.68,0h-2.73m-540.64-19h2.69m540.68,0h-2.73m-540.64,0h2.69m540.68,0h-2.73m-540.64,0h2.69m540.68,0h-2.73m-540.64,0h2.69m540.68,0h-2.73m-540.64,0h2.69m540.68,0h-2.73m-540.64,0h2.69m540.68,0h-2.73m-540.64,0h2.69m540.68,0h-2.73m-540.64,0h2.69m540.68,0h-2.73m-540.64,0h5.42m538,0h-5.46"/><path class="cls-6" d="M37.77,145.88h2.69m540.68,0h-2.73m-540.64-19h2.69m540.68,0h-2.73m-540.64,0h2.69m540.68,0h-2.73m-540.64,0h2.69m540.68,0h-2.73m-540.64,0h2.69m540.68,0h-2.73m-540.64,0h2.69m540.68,0h-2.73m-540.64,0h2.69m540.68,0h-2.73m-540.64,0h2.69m540.68,0h-2.73m-540.64,0h2.69m540.68,0h-2.73m-540.64,0h5.42m538,0h-5.46"/><path class="cls-6" d="M37.77,107.82h2.69m540.68,0h-2.73m-540.64-19h2.69m540.68,0h-2.73m-540.64,0h2.69m540.68,0h-2.73m-540.64,0h2.69m540.68,0h-2.73m-540.64,0h2.69m540.68,0h-2.73m-540.64,0h2.69m540.68,0h-2.73m-540.64,0h2.69m540.68,0h-2.73m-540.64,0h2.69m540.68,0h-2.73m-540.64,0h2.69m540.68,0h-2.73m-540.64,0h5.42m538,0h-5.46"/><path class="cls-6" d="M37.77,69.82h2.69m540.68,0h-2.73m-540.64-19h2.69m540.68,0h-2.73m-540.64,0h2.69m540.68,0h-2.73m-540.64,0h2.69m540.68,0h-2.73m-540.64,0h2.69m540.68,0h-2.73m-540.64,0h2.69m540.68,0h-2.73m-540.64,0h2.69m540.68,0h-2.73m-540.64,0h2.69m540.68,0h-2.73m-540.64,0h2.69m540.68,0h-2.73m-540.64,0h5.42m538,0h-5.46"/><path class="cls-6" d="M37.77,31.81h2.69m540.68,0h-2.73m-540.64-19h2.69m540.68,0h-2.73m-540.64,0h2.69m540.68,0h-2.73m-540.64,0h2.69m540.68,0h-2.73m-540.64,0h2.69m540.68,0h-2.73m-540.64,0h2.69m540.68,0h-2.73m-540.64,0h2.69m540.68,0h-2.73m-540.64,0h2.69m540.68,0h-2.73m-540.64,0h2.69m540.68,0h-2.73m-540.64,0h5.42m538,0h-5.46"/><path class="cls-6" d="M37.77,12.83H581.14M37.77,278.93H581.14m0,0V12.83M37.77,278.93V12.83"/><polyline class="cls-7" points="37.77 266.36 62.46 256.08 87.15 246.59 111.84 237.11 136.53 228.35 161.22 219.2 185.96 209.32 210.65 198.71 235.34 186.92 260.03 175.52 284.72 164.12 309.46 153.85 334.15 145.88 358.84 139.37 383.52 134.82 408.21 131.01 432.9 128.76 457.64 127.24 482.33 127.58 507.02 127.24 531.71 126.46 581.14 125.33"/><polyline class="cls-8" points="37.77 231.38 62.46 219.59 87.15 208.59 111.84 197.92 136.53 187.31 161.22 176.25 185.96 164.47 210.65 152.34 235.34 139.76 260.03 127.97 284.72 117.7 309.46 109.34 334.15 102.88 358.84 97.94 383.52 94.17 408.21 91.09 432.9 89.58 457.64 88.45 482.33 88.45 507.02 88.06 531.71 87.67 581.14 86.54"/><polyline class="cls-9" points="37.77 243.95 62.46 232.9 87.15 222.28 111.84 212.01 136.53 202.13 161.22 191.86 185.96 180.46 210.65 169.06 235.34 156.49 260.03 145.1 284.72 134.43 309.46 125.33 334.15 118.49 358.84 112.76 383.52 108.61 408.21 105.57 432.9 103.66 457.64 102.15 482.33 102.54 507.02 102.15 531.71 101.36 581.14 100.24"/><polyline class="cls-10" points="37.77 255.35 62.46 244.69 87.15 234.81 111.84 224.93 136.53 215.44 161.22 205.56 185.96 194.89 210.65 183.89 235.34 171.71 260.03 160.31 284.72 149.25 309.46 139.76 334.15 132.18 358.84 126.07 383.52 121.91 408.21 118.49 432.9 116.19 457.64 115.06 482.33 115.06 507.02 114.67 531.71 113.94 581.14 112.76"/><polyline class="cls-9" points="37.77 218.47 62.46 206.29 87.15 194.89 111.84 183.49 136.53 172.49 161.22 160.7 185.96 148.13 210.65 135.61 235.34 122.64 260.03 111.25 284.72 101.36 309.46 93.39 334.15 87.67 358.84 82.73 383.52 79.7 408.21 77.06 432.9 75.54 457.64 74.36 482.33 74.36 507.02 74.36 531.71 73.63 581.14 72.85"/><polyline class="cls-11" points="37.77 206.68 62.46 194.11 87.15 182.37 111.84 170.58 136.53 158.79 161.22 146.61 185.96 133.7 210.65 120.78 235.34 107.09 260.03 95.69 284.72 86.15 309.46 78.96 334.15 73.63 358.84 69.42 383.52 66.39 408.21 64.14 432.9 62.97 457.64 61.84 482.33 61.84 507.02 61.84 531.71 61.06 581.14 60.33"/><polyline class="cls-7" points="37.77 194.89 62.46 181.98 87.15 169.8 111.84 157.62 136.53 145.49 161.22 132.57 185.96 119.27 210.65 105.57 235.34 91.88 260.03 80.87 284.72 71.72 309.46 64.88 334.15 59.93 358.84 56.12 383.52 53.48 408.21 51.57 432.9 50.45 457.64 49.66 482.33 49.66 507.02 49.32 531.71 48.93 581.14 48.15"/><text class="cls-12" transform="translate(37.12 280.64) scale(1.02 1)"> </text><text class="cls-12" transform="translate(580.54 14.49) scale(1.02 1)"> </text><text class="cls-13" transform="translate(36.48 288.94)">7</text><text class="cls-13" transform="translate(83.86 288.94)">8</text><text class="cls-13" transform="translate(133.24 288.94)">9</text><text class="cls-13" transform="translate(180.9 288.94)">10</text><text class="cls-13" transform="translate(229.7 288.94)">11</text><text class="cls-13" transform="translate(278.08 288.94)">12</text><text class="cls-13" transform="translate(327.42 288.94)">13</text><text class="cls-13" transform="translate(377.89 288.94)">14</text><text class="cls-13" transform="translate(426.56 288.94)">15</text><text class="cls-13" transform="translate(475.22 288.94)">16</text><text class="cls-13" transform="translate(525.22 288.94)">17</text><text class="cls-13" transform="translate(573.19 288.94)">18</text><text class="cls-13" transform="translate(18.08 282.64)">110</text><text class="cls-13" transform="translate(18.08 244.58)">120</text><text class="cls-13" transform="translate(18.08 206.58)">130</text><text class="cls-13" transform="translate(18.08 168.57)">140</text><text class="cls-13" transform="translate(18.08 130.56)">150</text><text class="cls-13" transform="translate(18.08 92.56)">160</text><text class="cls-13" transform="translate(18.08 54.54)">170</text><text class="cls-13" transform="translate(18.08 16.54)">180</text><text class="cls-14" transform="translate(5.5 258.77) rotate(90)">(cm)</text><text class="cls-15" transform="translate(8.48 228.95)">身高</text><text class="cls-14" transform="translate(413.78 305.12)"><tspan xml:space="preserve">身高百分位曲线图(女)       年龄(岁) </tspan></text><rect class="cls-1" x="550.07" y="42.21" width="21.66" height="9.95"/><text class="cls-16" transform="translate(550.51 50.54)">97th</text><rect class="cls-1" x="550.07" y="56.26" width="21.66" height="9.95"/><text class="cls-16" transform="translate(550.51 64.59)">90th</text><rect class="cls-1" x="550.07" y="68.2" width="21.66" height="9.95"/><text class="cls-16" transform="translate(550.51 76.52)">75th</text><rect class="cls-1" x="550.07" y="81.58" width="21.66" height="9.95"/><text class="cls-16" transform="translate(550.51 89.9)">50th</text><rect class="cls-1" x="550.07" y="95.95" width="21.66" height="9.95"/><text class="cls-16" transform="translate(550.51 104.28)">25th</text><rect class="cls-1" x="550.07" y="108.53" width="21.66" height="9.95"/><text class="cls-16" transform="translate(550.51 116.86)">10th</text><rect class="cls-1" x="550.07" y="121.06" width="21.66" height="9.95"/><text class="cls-16" transform="translate(550.51 129.39)">3rd</text></svg>