<svg id="图层_1" data-name="图层 1" width="496" height="260" xmlns="http://www.w3.org/2000/svg" viewBox="0 0 595.28 311.81"><defs><style>.cls-1{fill:#fff;}.cls-10,.cls-11,.cls-2,.cls-3,.cls-4,.cls-5,.cls-6,.cls-7,.cls-8,.cls-9{fill:none;}.cls-2{stroke:#fff;}.cls-2,.cls-4,.cls-5,.cls-6,.cls-7{stroke-linejoin:round;}.cls-2,.cls-4{stroke-width:0.5px;}.cls-3{stroke:#666;stroke-miterlimit:6;opacity:0.2;}.cls-4{stroke:#000;}.cls-5,.cls-6{stroke:#13b1c1;}.cls-6{stroke-width:0.51px;}.cls-7{stroke:#d31348;}.cls-10,.cls-11,.cls-7,.cls-9{stroke-width:1.2px;}.cls-8{stroke:#138f40;stroke-width:1.6px;}.cls-10,.cls-11,.cls-8,.cls-9{stroke-miterlimit:10;}.cls-9{stroke:#e47a32;}.cls-11,.cls-9{stroke-dasharray:2 2;}.cls-10{stroke:#24acab;stroke-dasharray:5 2;}.cls-11{stroke:#198ac9;}.cls-12{font-size:11px;}.cls-12,.cls-13,.cls-14{fill:#13b1c1;font-family:MicrosoftYaHei, Microsoft YaHei;}.cls-13,.cls-14{font-size:10px;}.cls-14{writing-mode:tb;text-orientation:upright;glyph-orientation-vertical:0deg;}.cls-15,.cls-16{font-size:8px;fill:#303131;font-family:PingFangSC-Semibold-GBpc-EUC-H, PingFang SC;}.cls-15{letter-spacing:0em;}.cls-16{letter-spacing:0em;}</style></defs><title>男身高百分位数-处理VI</title><rect class="cls-1" x="37.71" y="12.65" width="543.49" height="266.12"/><polyline class="cls-2" points="37.71 278.77 37.71 12.65 581.2 12.65 581.2 278.77 37.71 278.77"/><path class="cls-3" d="M37.71,278.77V12.65m0,0h0M98.07,278.77V12.65m0,0h0m60.41,266.12V12.65m0,0h0m60.41,266.12V12.65m0,0h0m60.36,266.12V12.65m0,0h0m60.41,266.12V12.65m0,0h0m60.41,266.12V12.65m0,0h0m60.36,266.12V12.65m0,0h0m60.41,266.12V12.65m0,0h0m60.41,266.12V12.65m0,0h0M37.71,278.77H581.25m0,0h0M37.71,245.46H581.25m0,0h0M37.71,212.2H581.25m0,0h0M37.71,179H581.25m0,0h0M37.71,145.69H581.25m0,0h0M37.71,112.43H581.25m0,0h0M37.71,79.17H581.25m0,0h0M37.71,45.91H581.25m0,0h0M37.71,12.65H581.25m0,0h0"/><path class="cls-4" d="M37.71,12.65H581.2M37.71,278.77H581.2m0,0V12.65M37.71,278.77V12.65m0,266.12H581.2m-543.49,0V12.65m0,266.12V273.3m0-260.65v5.42"/><path class="cls-5" d="M49.74,278.77V276m0-263.39v2.69M61.83,278.77V276m0-263.39v2.69M73.91,278.77V276m0-263.39v2.69M86,278.77V276M86,12.65v2.69M98.07,278.77V276m0-263.39v2.69m0,263.43V276m0-263.39v2.69m0,263.43V276m0-263.39v2.69m0,263.43V276m0-263.39v2.69m0,263.43V276m0-263.39v2.69m0,263.43V273.3m0-260.65v5.42"/><path class="cls-5" d="M110.15,278.77V276m0-263.39v2.69m12.09,263.43V276m0-263.39v2.69m12.08,263.43V276m0-263.39v2.69M146.4,278.77V276m0-263.39v2.69m12.08,263.43V276m0-263.39v2.69m0,263.43V276m0-263.39v2.69m0,263.43V276m0-263.39v2.69m0,263.43V276m0-263.39v2.69m0,263.43V276m0-263.39v2.69m0,263.43V273.3m0-260.65v5.42"/><path class="cls-5" d="M170.56,278.77V276m0-263.39v2.69m12.09,263.43V276m0-263.39v2.69m12.08,263.43V276m0-263.39v2.69m12.08,263.43V276m0-263.39v2.69m12.08,263.43V276m0-263.39v2.69m0,263.43V276m0-263.39v2.69m0,263.43V276m0-263.39v2.69m0,263.43V276m0-263.39v2.69m0,263.43V276m0-263.39v2.69m0,263.43V273.3m0-260.65v5.42"/><path class="cls-5" d="M230.92,278.77V276m0-263.39v2.69M243,278.77V276m0-263.39v2.69m12.09,263.43V276m0-263.39v2.69m12.08,263.43V276m0-263.39v2.69m12.08,263.43V276m0-263.39v2.69m0,263.43V276m0-263.39v2.69m0,263.43V276m0-263.39v2.69m0,263.43V276m0-263.39v2.69m0,263.43V276m0-263.39v2.69m0,263.43V273.3m0-260.65v5.42"/><path class="cls-5" d="M291.33,278.77V276m0-263.39v2.69m12.08,263.43V276m0-263.39v2.69M315.5,278.77V276m0-263.39v2.69m12.08,263.43V276m0-263.39v2.69m12.08,263.43V276m0-263.39v2.69m0,263.43V276m0-263.39v2.69m0,263.43V276m0-263.39v2.69m0,263.43V276m0-263.39v2.69m0,263.43V276m0-263.39v2.69m0,263.43V273.3m0-260.65v5.42"/><path class="cls-5" d="M351.74,278.77V276m0-263.39v2.69m12.08,263.43V276m0-263.39v2.69m12.09,263.43V276m0-263.39v2.69M388,278.77V276m0-263.39v2.69m12.08,263.43V276m0-263.39v2.69m0,263.43V276m0-263.39v2.69m0,263.43V276m0-263.39v2.69m0,263.43V276m0-263.39v2.69m0,263.43V276m0-263.39v2.69m0,263.43V273.3m0-260.65v5.42"/><path class="cls-5" d="M412.1,278.77V276m0-263.39v2.69m12.08,263.43V276m0-263.39v2.69m12.09,263.43V276m0-263.39v2.69m12.08,263.43V276m0-263.39v2.69m12.08,263.43V276m0-263.39v2.69m0,263.43V276m0-263.39v2.69m0,263.43V276m0-263.39v2.69m0,263.43V276m0-263.39v2.69m0,263.43V276m0-263.39v2.69m0,263.43V273.3m0-260.65v5.42"/><path class="cls-5" d="M472.51,278.77V276m0-263.39v2.69m12.08,263.43V276m0-263.39v2.69m12.09,263.43V276m0-263.39v2.69m12.08,263.43V276m0-263.39v2.69m12.08,263.43V276m0-263.39v2.69m0,263.43V276m0-263.39v2.69m0,263.43V276m0-263.39v2.69m0,263.43V276m0-263.39v2.69m0,263.43V276m0-263.39v2.69m0,263.43V273.3m0-260.65v5.42"/><path class="cls-5" d="M532.92,278.77V276m0-263.39v2.69M545,278.77V276m0-263.39v2.69m12.09,263.43V276m0-263.39v2.69m12.08,263.43V276m0-263.39v2.69m12.08,263.43V276m0-263.39v2.69m0,263.43V276m0-263.39v2.69m0,263.43V276m0-263.39v2.69m0,263.43V276m0-263.39v2.69m0,263.43V276m0-263.39v2.69m0,263.43V273.3m0-260.65v5.42"/><path class="cls-6" d="M37.46,278.77h5.42m538.74,0h-5.46"/><path class="cls-5" d="M37.71,262.12h2.68m540.86,0h-2.73M37.71,245.46h2.68m540.86,0h-2.73m-540.81,0h2.68m540.86,0h-2.73m-540.81,0h2.68m540.86,0h-2.73m-540.81,0h2.68m540.86,0h-2.73m-540.81,0h2.68m540.86,0h-2.73m-540.81,0h2.68m540.86,0h-2.73m-540.81,0h2.68m540.86,0h-2.73m-540.81,0h2.68m540.86,0h-2.73m-540.81,0h5.41m538.13,0h-5.46"/><path class="cls-5" d="M37.71,228.86h2.68m540.86,0h-2.73M37.71,212.2h2.68m540.86,0h-2.73m-540.81,0h2.68m540.86,0h-2.73m-540.81,0h2.68m540.86,0h-2.73m-540.81,0h2.68m540.86,0h-2.73m-540.81,0h2.68m540.86,0h-2.73m-540.81,0h2.68m540.86,0h-2.73m-540.81,0h2.68m540.86,0h-2.73m-540.81,0h2.68m540.86,0h-2.73m-540.81,0h5.41m538.13,0h-5.46"/><path class="cls-5" d="M37.71,195.6h2.68m540.86,0h-2.73M37.71,179h2.68m540.86,0h-2.73M37.71,179h2.68m540.86,0h-2.73M37.71,179h2.68m540.86,0h-2.73M37.71,179h2.68m540.86,0h-2.73M37.71,179h2.68m540.86,0h-2.73M37.71,179h2.68m540.86,0h-2.73M37.71,179h2.68m540.86,0h-2.73M37.71,179h2.68m540.86,0h-2.73M37.71,179h5.41m538.13,0h-5.46"/><path class="cls-5" d="M37.71,162.34h2.68m540.86,0h-2.73M37.71,145.69h2.68m540.86,0h-2.73m-540.81,0h2.68m540.86,0h-2.73m-540.81,0h2.68m540.86,0h-2.73m-540.81,0h2.68m540.86,0h-2.73m-540.81,0h2.68m540.86,0h-2.73m-540.81,0h2.68m540.86,0h-2.73m-540.81,0h2.68m540.86,0h-2.73m-540.81,0h2.68m540.86,0h-2.73m-540.81,0h5.41m538.13,0h-5.46"/><path class="cls-5" d="M37.71,129h2.68m540.86,0h-2.73M37.71,112.43h2.68m540.86,0h-2.73m-540.81,0h2.68m540.86,0h-2.73m-540.81,0h2.68m540.86,0h-2.73m-540.81,0h2.68m540.86,0h-2.73m-540.81,0h2.68m540.86,0h-2.73m-540.81,0h2.68m540.86,0h-2.73m-540.81,0h2.68m540.86,0h-2.73m-540.81,0h2.68m540.86,0h-2.73m-540.81,0h5.41m538.13,0h-5.46"/><path class="cls-5" d="M37.71,95.77h2.68m540.86,0h-2.73M37.71,79.17h2.68m540.86,0h-2.73m-540.81,0h2.68m540.86,0h-2.73m-540.81,0h2.68m540.86,0h-2.73m-540.81,0h2.68m540.86,0h-2.73m-540.81,0h2.68m540.86,0h-2.73m-540.81,0h2.68m540.86,0h-2.73m-540.81,0h2.68m540.86,0h-2.73m-540.81,0h2.68m540.86,0h-2.73m-540.81,0h5.41m538.13,0h-5.46"/><path class="cls-5" d="M37.71,62.52h2.68m540.86,0h-2.73M37.71,45.91h2.68m540.86,0h-2.73m-540.81,0h2.68m540.86,0h-2.73m-540.81,0h2.68m540.86,0h-2.73m-540.81,0h2.68m540.86,0h-2.73m-540.81,0h2.68m540.86,0h-2.73m-540.81,0h2.68m540.86,0h-2.73m-540.81,0h2.68m540.86,0h-2.73m-540.81,0h2.68m540.86,0h-2.73m-540.81,0h5.41m538.13,0h-5.46"/><path class="cls-5" d="M37.71,29.26h2.68m540.86,0h-2.73M37.71,12.65h2.68m540.86,0h-2.73m-540.81,0h2.68m540.86,0h-2.73m-540.81,0h2.68m540.86,0h-2.73m-540.81,0h2.68m540.86,0h-2.73m-540.81,0h2.68m540.86,0h-2.73m-540.81,0h2.68m540.86,0h-2.73m-540.81,0h2.68m540.86,0h-2.73m-540.81,0h2.68m540.86,0h-2.73m-540.81,0h5.41m538.13,0h-5.46"/><path class="cls-5" d="M37.71,12.65H581.2M37.71,278.77H581.2m0,0V12.65M37.71,278.77V12.65"/><polyline class="cls-7" points="37.71 266.93 42.72 254.47 47.72 245.01 52.78 238.83 60.36 232.35 67.89 226.38 75.42 221.52 83.01 217.37 90.54 213.06 98.07 208.71 113.19 201.57 128.3 196.11 143.37 189.93 158.48 184.46 173.55 178.94 188.66 173.48 203.78 168.31 218.84 163.81 233.96 159.51 249.07 154.65 264.14 149.99 279.25 145.84 294.37 141.84 309.43 138.04 324.55 134.55 339.66 131.21 354.73 127.87 369.84 124.22 384.96 120.22 400.02 115.57 415.13 110.61 430.25 104.13 445.37 97.8 460.43 91.98 475.55 86.97 490.61 83.32 505.73 80.64 520.84 79.32 535.9 78.31 551.02 77.65 581.2 76.99"/><polyline class="cls-8" points="37.71 261.46 42.72 247.64 47.72 237.82 52.78 231.49 60.36 224.5 67.89 218.03 75.42 212.56 83.01 207.75 90.54 202.89 98.07 198.08 113.19 190.08 128.3 184.26 143.37 177.93 158.48 172.11 173.55 166.14 188.66 160.16 203.78 154.5 218.84 149.53 233.96 144.52 249.07 139.06 264.14 133.89 279.25 129.03 294.37 124.58 309.43 120.07 324.55 115.92 339.66 112.08 354.73 108.08 369.84 103.62 384.96 98.46 400.02 92.64 415.13 86.46 430.25 79.98 445.37 74.16 460.43 69.35 475.55 65.5 490.61 62.87 505.73 60.85 520.84 59.88 535.9 59.02 551.02 58.72 581.2 58.01"/><polyline class="cls-9" points="37.71 265.25 42.72 252.29 47.72 242.68 52.78 236.5 60.36 229.87 67.89 223.69 75.42 218.68 83.01 214.38 90.54 209.88 98.07 205.42 113.19 197.93 128.3 192.41 143.37 186.08 158.48 180.46 173.55 174.95 188.66 169.33 203.78 163.96 218.84 159.3 233.96 154.85 249.07 149.69 264.14 144.88 279.25 140.52 294.37 136.37 309.43 132.37 324.55 128.58 339.66 125.24 354.73 121.59 369.84 117.74 384.96 113.24 400.02 108.28 415.13 102.96 430.25 96.43 445.37 90.31 460.43 84.64 475.55 80.13 490.61 76.84 505.73 74.31 520.84 73.15 535.9 72.19 551.02 71.68 581.2 71.02"/><polyline class="cls-10" points="37.71 263.43 42.72 250.12 47.72 240.5 52.78 234.17 60.36 227.34 67.89 221.01 75.42 215.9 83.01 211.24 90.54 206.58 98.07 201.93 113.19 194.23 128.3 188.61 143.37 182.29 158.48 176.62 173.55 170.79 188.66 164.97 203.78 159.51 218.84 154.65 233.96 149.99 249.07 144.68 264.14 139.71 279.25 135.21 294.37 130.7 309.43 126.7 324.55 122.55 339.66 119.06 354.73 115.26 369.84 111.11 384.96 106.25 400.02 100.79 415.13 95.12 430.25 88.64 445.37 82.66 460.43 77.5 475.55 73.15 490.61 70.16 505.73 68.03 520.84 66.87 535.9 66.01 551.02 65.5 581.2 64.84"/><polyline class="cls-10" points="37.71 259.43 42.72 245.01 47.72 235.19 52.78 228.86 60.36 221.52 67.89 214.89 75.42 209.22 83.01 204.26 90.54 199.09 98.07 194.08 113.19 185.78 128.3 179.96 143.37 173.63 158.48 167.45 173.55 161.48 188.66 155.36 203.78 149.53 218.84 144.17 233.96 139.21 249.07 133.39 264.14 127.87 279.25 122.91 294.37 118.1 309.43 113.59 324.55 109.09 339.66 105.09 354.73 100.79 369.84 95.98 384.96 90.61 400.02 84.13 415.13 77.8 430.25 71.17 445.37 65.71 460.43 61.35 475.55 57.86 490.61 55.53 505.73 53.86 520.84 52.9 535.9 52.19 551.02 51.89 581.2 51.38"/><polyline class="cls-11" points="37.71 257.61 42.72 242.68 47.72 232.86 52.78 226.38 60.36 219.04 67.89 212.05 75.42 206.23 83.01 201.07 90.54 195.6 98.07 190.44 113.19 181.93 128.3 175.96 143.37 169.48 158.48 163.51 173.55 157.18 188.66 150.85 203.78 144.88 218.84 139.51 233.96 134.2 249.07 128.22 264.14 122.55 279.25 117.24 294.37 112.28 309.43 107.62 324.55 102.96 339.66 98.76 354.73 94.31 369.84 89.14 384.96 83.47 400.02 76.64 415.13 70.01 430.25 63.38 445.37 58.01 460.43 54.06 475.55 51.02 490.61 48.9 505.73 47.38 520.84 46.72 535.9 46.06 551.02 45.71 581.2 45.2"/><path class="cls-7" d="M37.71,255.79l5-15.29,5-10,5.06-6.68,7.58-7.5,7.53-7.13,7.53-6L83,197.73c7-5.08,14-10.14,21.39-14.6,12.17-7.35,26-11.93,39-17.65l15.11-6.18,15.07-6.48,15.11-6.47,15.12-6.13,15.06-5.52L234,129.24l15.11-6.33,15.07-5.82,15.11-5.32,15.12-5.31,15.06-4.86,15.12-4.81,15.11-4.31,15.07-4.86,15.11-5.31,15.12-6L400,69.2l15.12-7,15.11-6.68,15.12-5,15.06-3.7,15.12-2.63,15.06-1.67,15.12-1.31,15.11-.71,15.06-.46L551,39.74l30.18-.36"/><text class="cls-12" transform="translate(36.03 290)">0</text><text class="cls-12" transform="translate(96.47 290)">2</text><text class="cls-12" transform="translate(156.96 290)">4</text><text class="cls-12" transform="translate(217.45 290)">6</text><text class="cls-12" transform="translate(277.9 290)">8</text><text class="cls-12" transform="translate(337.02 290)">10</text><text class="cls-12" transform="translate(397.51 290)">12</text><text class="cls-12" transform="translate(457.95 290)">14</text><text class="cls-12" transform="translate(518.45 290)">16</text><text class="cls-12" transform="translate(578.94 290)">18</text><text class="cls-12" transform="translate(20.93 282.54)">40</text><text class="cls-12" transform="translate(20.93 249.23)">60</text><text class="cls-12" transform="translate(20.93 215.97)">80</text><text class="cls-12" transform="translate(14.47 182.72)">100</text><text class="cls-12" transform="translate(14.47 149.46)">120</text><text class="cls-12" transform="translate(14.47 116.2)">140</text><text class="cls-12" transform="translate(14.47 82.94)">160</text><text class="cls-12" transform="translate(14.47 49.69)">180</text><text class="cls-12" transform="translate(14.47 16.43)">200</text><text class="cls-12" transform="translate(412.78 305.12)"><tspan xml:space="preserve">身高百分位曲线图(男)       年龄(岁) </tspan></text><text class="cls-13" transform="translate(5.5 262.77) rotate(90)">(cm)</text><text class="cls-14" transform="translate(8.98 235.95)">身高</text><rect class="cls-1" x="558.9" y="33.19" width="18.75" height="48.21"/><text class="cls-15" transform="translate(560.18 38.84)">97th</text><text class="cls-15" transform="translate(560.18 45.96)">90th</text><text class="cls-15" transform="translate(560.18 54.07)">75th</text><text class="cls-15" transform="translate(560.18 61.01)">50th</text><text class="cls-15" transform="translate(560.18 68.95)">25th</text><text class="cls-16" transform="translate(560.18 76.42)">10th</text><text class="cls-15" transform="translate(560.18 84.26)">3rd</text></svg>