<svg id="图层_1" data-name="图层 1" width="496" height="260" xmlns="http://www.w3.org/2000/svg" xmlns:xlink="http://www.w3.org/1999/xlink" viewBox="0 0 595.28 311.81"><defs><style>.cls-1,.cls-13,.cls-14,.cls-15,.cls-16,.cls-17,.cls-4,.cls-5,.cls-6,.cls-9{fill:none;}.cls-2{opacity:0.6;}.cls-3{clip-path:url(#clip-path);}.cls-4{stroke:#fff;}.cls-13,.cls-4,.cls-6,.cls-9{stroke-linejoin:round;}.cls-4,.cls-6{stroke-width:0.5px;}.cls-5{stroke:#666;stroke-miterlimit:6;opacity:0.2;}.cls-6{stroke:#000;}.cls-7{clip-path:url(#clip-path-2);}.cls-11,.cls-19,.cls-8{font-size:10px;}.cls-10,.cls-11,.cls-8{fill:#13b1c1;font-family:MicrosoftYaHei, Microsoft YaHei;}.cls-9{stroke:#13b1c1;}.cls-10{font-size:11px;}.cls-11{writing-mode:tb;text-orientation:upright;glyph-orientation-vertical:0deg;}.cls-12{clip-path:url(#clip-path-10);}.cls-13{stroke:#d31348;}.cls-13,.cls-15,.cls-16,.cls-17{stroke-width:1.4px;}.cls-14{stroke:#138f40;stroke-width:2px;}.cls-14,.cls-15,.cls-16,.cls-17{stroke-miterlimit:10;}.cls-15{stroke:#24acab;stroke-dasharray:5 2;}.cls-16{stroke:#e47a32;}.cls-16,.cls-17{stroke-dasharray:2 2;}.cls-17{stroke:#198ac9;}.cls-18{fill:#fff;}.cls-19{fill:#303131;font-family:PingFangSC-Semibold-GBpc-EUC-H, PingFang SC;}</style><clipPath id="clip-path"><rect class="cls-1" x="30.96" y="10.45" width="551.49" height="274.22"/></clipPath><clipPath id="clip-path-2"><rect class="cls-1" x="27.96" y="14.45" width="557.87" height="274.22"/></clipPath><clipPath id="clip-path-10"><polyline class="cls-1" points="37.84 13.06 37.84 278.66 581.24 278.66 581.24 13.06"/></clipPath></defs><title>女身高百分位数-处理VI</title><g class="cls-2"><g class="cls-3"><polyline class="cls-4" points="37.84 278.62 37.84 13.06 581.19 13.06 581.19 278.62 37.84 278.62"/><path class="cls-5" d="M37.84,278.61V13.06m0,0h0M146.48,278.61V13.06m0,0h0M255.17,278.61V13.06m0,0h0M363.81,278.61V13.06m0,0h0M472.5,278.61V13.06m0,0h0M581.19,278.61V13.06m0,0h0M37.84,278.61H581.19m0,0h0M37.84,225.5H581.19m0,0h0M37.84,172.39H581.19m0,0h0M37.84,119.28H581.19m0,0h0M37.84,66.17H581.19m0,0h0M37.84,13.06H581.19m0,0h0"/><path class="cls-6" d="M37.84,13.06H581.19M37.84,278.61H581.19m0,0V13.06M37.84,278.61V13.06m0,265.55H581.19m-543.35,0V13.06m0,265.55V273.2m0-260.14v5.37"/></g></g><rect class="cls-1" x="30.96" y="10.45" width="551.49" height="274.22"/><g class="cls-7"><text class="cls-8" transform="translate(248.92 288.62)">0.8</text><text class="cls-8" transform="translate(356.17 288.62)">1.2</text><text class="cls-8" transform="translate(466.17 288.62)">1.6</text><text class="cls-8" transform="translate(577.42 288.62)">2</text><text class="cls-8" transform="translate(139.92 288.62)">0.4</text><text class="cls-8" transform="translate(35.38 288.62)">0</text></g><path class="cls-9" d="M59.54,278.61v-2.73m0-262.82v2.69M81.29,278.61v-2.73m0-262.82v2.69M103,278.61v-2.73m0-262.82v2.69m21.7,262.86v-2.73m0-262.82v2.69m21.75,262.86v-2.73m0-262.82v2.69m0,262.86v-2.73m0-262.82v2.69m0,262.86v-2.73m0-262.82v2.69m0,262.86v-2.73m0-262.82v2.69m0,262.86v-2.73m0-262.82v2.69m0,262.86V273.2m0-260.14v5.37"/><path class="cls-9" d="M168.23,278.61v-2.73m0-262.82v2.69M190,278.61v-2.73m0-262.82v2.69m21.69,262.86v-2.73m0-262.82v2.69m21.75,262.86v-2.73m0-262.82v2.69m21.75,262.86v-2.73m0-262.82v2.69m0,262.86v-2.73m0-262.82v2.69m0,262.86v-2.73m0-262.82v2.69m0,262.86v-2.73m0-262.82v2.69m0,262.86v-2.73m0-262.82v2.69m0,262.86V273.2m0-260.14v5.37"/><path class="cls-9" d="M276.87,278.61v-2.73m0-262.82v2.69m21.75,262.86v-2.73m0-262.82v2.69m21.74,262.86v-2.73m0-262.82v2.69m21.75,262.86v-2.73m0-262.82v2.69m21.7,262.86v-2.73m0-262.82v2.69m0,262.86v-2.73m0-262.82v2.69m0,262.86v-2.73m0-262.82v2.69m0,262.86v-2.73m0-262.82v2.69m0,262.86v-2.73m0-262.82v2.69m0,262.86V273.2m0-260.14v5.37"/><path class="cls-9" d="M385.56,278.61v-2.73m0-262.82v2.69m21.75,262.86v-2.73m0-262.82v2.69M429,278.61v-2.73m0-262.82v2.69m21.74,262.86v-2.73m0-262.82v2.69M472.5,278.61v-2.73m0-262.82v2.69m0,262.86v-2.73m0-262.82v2.69m0,262.86v-2.73m0-262.82v2.69m0,262.86v-2.73m0-262.82v2.69m0,262.86v-2.73m0-262.82v2.69m0,262.86V273.2m0-260.14v5.37"/><g class="cls-3"><path class="cls-6" d="M37.84,278.61h5.42m537.93,0h-5.47"/></g><g class="cls-3"><path class="cls-9" d="M37.84,252.06h2.71m540.64,0h-2.76M37.84,225.5h2.71m540.64,0h-2.76m-540.59,0h2.71m540.64,0h-2.76m-540.59,0h2.71m540.64,0h-2.76m-540.59,0h2.71m540.64,0h-2.76m-540.59,0h2.71m540.64,0h-2.76m-540.59,0h2.71m540.64,0h-2.76m-540.59,0h2.71m540.64,0h-2.76m-540.59,0h2.71m540.64,0h-2.76m-540.59,0h5.42m537.93,0h-5.47"/></g><g class="cls-3"><path class="cls-9" d="M37.84,199h2.71m540.64,0h-2.76M37.84,172.39h2.71m540.64,0h-2.76m-540.59,0h2.71m540.64,0h-2.76m-540.59,0h2.71m540.64,0h-2.76m-540.59,0h2.71m540.64,0h-2.76m-540.59,0h2.71m540.64,0h-2.76m-540.59,0h2.71m540.64,0h-2.76m-540.59,0h2.71m540.64,0h-2.76m-540.59,0h2.71m540.64,0h-2.76m-540.59,0h5.42m537.93,0h-5.47"/></g><g class="cls-3"><path class="cls-9" d="M37.84,145.84h2.71m540.64,0h-2.76M37.84,119.28h2.71m540.64,0h-2.76m-540.59,0h2.71m540.64,0h-2.76m-540.59,0h2.71m540.64,0h-2.76m-540.59,0h2.71m540.64,0h-2.76m-540.59,0h2.71m540.64,0h-2.76m-540.59,0h2.71m540.64,0h-2.76m-540.59,0h2.71m540.64,0h-2.76m-540.59,0h2.71m540.64,0h-2.76m-540.59,0h5.42m537.93,0h-5.47"/></g><g class="cls-3"><path class="cls-9" d="M37.84,92.73h2.71m540.64,0h-2.76M37.84,66.17h2.71m540.64,0h-2.76m-540.59,0h2.71m540.64,0h-2.76m-540.59,0h2.71m540.64,0h-2.76m-540.59,0h2.71m540.64,0h-2.76m-540.59,0h2.71m540.64,0h-2.76m-540.59,0h2.71m540.64,0h-2.76m-540.59,0h2.71m540.64,0h-2.76m-540.59,0h2.71m540.64,0h-2.76m-540.59,0h5.42m537.93,0h-5.47"/></g><g class="cls-3"><path class="cls-9" d="M37.84,39.62h2.71m540.64,0h-2.76M37.84,13.06h2.71m540.64,0h-2.76m-540.59,0h2.71m540.64,0h-2.76m-540.59,0h2.71m540.64,0h-2.76m-540.59,0h2.71m540.64,0h-2.76m-540.59,0h2.71m540.64,0h-2.76m-540.59,0h2.71m540.64,0h-2.76m-540.59,0h2.71m540.64,0h-2.76m-540.59,0h2.71m540.64,0h-2.76m-540.59,0h5.42m537.93,0h-5.47"/></g><text class="cls-10" transform="translate(413.78 305.12)"><tspan xml:space="preserve">身高百分位曲线图(女)       年龄(岁) </tspan></text><text class="cls-8" transform="translate(5.86 260.93) rotate(90)">(cm)</text><text class="cls-11" transform="translate(8.61 235.1)">身高</text><text class="cls-8" transform="translate(23.89 282.32)">45</text><text class="cls-8" transform="translate(23.89 229.21)">55</text><text class="cls-8" transform="translate(23.89 176.1)">65</text><text class="cls-8" transform="translate(23.89 122.99)">75</text><text class="cls-8" transform="translate(23.89 69.88)">85</text><text class="cls-8" transform="translate(23.89 16.77)">95</text><g class="cls-3"><path class="cls-9" d="M37.84,13.06H581.19M37.84,278.61H581.19m0,0V13.06M37.84,278.61V13.06"/></g><g class="cls-12"><path class="cls-13" d="M37.84,270.07c13.89-11,27.63-22.29,41.67-33.13,15-11.59,30.9-23.93,47.87-32.54,17.2-8.72,35.9-15.16,54.26-21l3.41-1.07q15.75-4.92,31.52-9.76l25-7.63,68-19.09,67.9-17L445.33,114l67.91-13.28,68-12.74,0,0"/><path class="cls-14" d="M37.84,253.62c23.38-21.08,46.15-42.18,72.45-59.09,10.93-7,21.15-13.4,33-18.73A530.15,530.15,0,0,1,194.51,156l45-14.76,2.1-.69,68-21.24,67.9-18.6,67.91-16,67.91-15.37,68-14.89h0"/><polyline class="cls-15" points="37.84 259.48 83.21 220.18 128.28 189.92 173.65 171.32 241.56 149.55 309.52 128.8 377.42 110.74 445.33 95.36 513.24 80.48 581.19 66.66 581.24 66.66"/><polyline class="cls-16" points="37.84 265.34 83.21 227.07 128.28 197.34 173.65 178.2 241.56 157.5 309.52 137.3 377.42 119.77 445.33 104.93 513.24 90.58 581.19 77.3 581.24 77.3"/><polyline class="cls-15" points="37.84 247.28 83.21 204.76 128.28 174.49 173.65 154.33 241.56 130.95 309.52 109.72 377.42 90.58 445.33 73.59 513.24 57.63 581.19 41.72 581.24 41.72"/><polyline class="cls-17" points="37.84 241.96 83.21 197.88 128.28 167.07 173.65 146.86 241.56 122.99 309.52 100.69 377.42 81.01 445.33 63.49 513.24 47.04 581.19 30.59 581.24 30.54"/><path class="cls-13" d="M37.84,236.1c9.08-9.15,17.92-18.54,27-27.66,8.87-8.88,17.87-18.26,28.45-25.07,1.1-.71,2.2-1.41,3.29-2.13l1.21-.82,19.3-13.19a136.64,136.64,0,0,1,18.24-10.73c12.59-6.06,25.53-11.38,38.29-17.06l67.91-24.94,68-22.85,67.9-20.21,67.91-18.06,67.91-17.52,68-17h0"/></g><rect class="cls-18" x="551.2" y="18.08" width="21.66" height="9.95"/><text class="cls-19" transform="translate(551.64 26.4)">97th</text><rect class="cls-18" x="551.2" y="29.12" width="21.66" height="9.95"/><text class="cls-19" transform="translate(551.64 37.45)">90th</text><rect class="cls-18" x="551.2" y="41.06" width="21.66" height="9.95"/><text class="cls-19" transform="translate(551.64 49.39)">75th</text><rect class="cls-18" x="551.2" y="53.44" width="21.66" height="9.95"/><text class="cls-19" transform="translate(551.64 61.77)">50th</text><rect class="cls-18" x="551.2" y="65.82" width="21.66" height="9.95"/><text class="cls-19" transform="translate(551.64 74.14)">25th</text><rect class="cls-18" x="551.2" y="77.4" width="21.66" height="9.95"/><text class="cls-19" transform="translate(551.64 85.72)">10th</text><rect class="cls-18" x="551.2" y="87.93" width="21.66" height="9.95"/><text class="cls-19" transform="translate(551.64 96.25)">3rd</text></svg>