<svg id="图层_1" data-name="图层 1" width="496" height="260" xmlns="http://www.w3.org/2000/svg" xmlns:xlink="http://www.w3.org/1999/xlink" viewBox="0 0 595.28 311.81"><defs><style>.cls-1,.cls-10,.cls-11,.cls-12,.cls-13,.cls-14,.cls-4,.cls-5,.cls-6{fill:none;}.cls-2{clip-path:url(#clip-path);}.cls-3,.cls-7{fill:#fff;}.cls-4{stroke:#fff;}.cls-10,.cls-4,.cls-6,.cls-8{stroke-linejoin:round;}.cls-4,.cls-6{stroke-width:0.5px;}.cls-5{stroke:#666;stroke-miterlimit:6;opacity:0.2;}.cls-6{stroke:#000;}.cls-7,.cls-8{stroke:#13b1c1;}.cls-11,.cls-12,.cls-13,.cls-14,.cls-7{stroke-miterlimit:10;}.cls-15,.cls-16,.cls-17,.cls-8{fill:#13b1c1;}.cls-9{font-size:4.85px;fill:#231815;font-family:Helvetica;}.cls-10{stroke:#d31348;}.cls-10,.cls-12,.cls-13,.cls-14{stroke-width:1.4px;}.cls-11{stroke:#138f40;stroke-width:2px;}.cls-12{stroke:#e47a32;}.cls-12,.cls-14{stroke-dasharray:2 2;}.cls-13{stroke:#24acab;stroke-dasharray:5 2;}.cls-14{stroke:#198ac9;}.cls-15{font-size:11px;}.cls-15,.cls-16,.cls-17{font-family:MicrosoftYaHei, Microsoft YaHei;}.cls-16,.cls-17{font-size:10px;}.cls-17{writing-mode:tb;text-orientation:upright;glyph-orientation-vertical:0deg;}.cls-18{font-size:9px;fill:#303131;font-family:PingFangSC-Semibold-GBpc-EUC-H, PingFang SC;}</style><clipPath id="clip-path"><rect class="cls-1" x="19.56" y="9.84" width="564.24" height="282.57"/></clipPath></defs><title>男身高百分位数-处理VI</title><g class="cls-2"><rect class="cls-3" x="19.39" y="9.84" width="564.56" height="282.62"/></g><polyline class="cls-4" points="37.76 278.71 37.76 12.57 581.16 12.57 581.16 278.71 37.76 278.71"/><path class="cls-5" d="M37.76,278.71V12.57m0,0h0M87.12,278.71V12.57m0,0h0m49.41,266.14V12.57m0,0h0m49.41,266.14V12.57m0,0h0m49.41,266.14V12.57m0,0h0m49.41,266.14V12.57m0,0h0m49.36,266.14V12.57m0,0h0m49.4,266.14V12.57m0,0h0m49.41,266.14V12.57m0,0h0m49.41,266.14V12.57m0,0h0m49.41,266.14V12.57m0,0h0m49.41,266.14V12.57m0,0h0M37.76,278.71h543.4m0,0h0m-543.4-33.3h543.4m0,0h0M37.76,212.15h543.4m0,0h0M37.76,178.9h543.4m0,0h0M37.76,145.64h543.4m0,0h0M37.76,112.33h543.4m0,0h0M37.76,79.08h543.4m0,0h0M37.76,45.82h543.4m0,0h0M37.76,12.57h543.4m0,0h0"/><path class="cls-6" d="M37.76,12.57h543.4M37.76,278.71h543.4m0,0V12.57M37.76,278.71V12.57m0,266.14h543.4m-543.4,0V12.57m0,266.14v-5.46m0-260.68V18"/><path class="cls-6" d="M37.76,278.71h5.42m538,0h-5.47"/><path class="cls-7" d="M62.42,278.71V276m0-263.41v2.67m24.7,263.47V276m0-263.41v2.67m0,263.47V276m0-263.41v2.67m0,263.47V276m0-263.41v2.67m0,263.47V276m0-263.41v2.67m0,263.47V276m0-263.41v2.67m0,263.47V276m0-263.41v2.67m0,263.47V276m0-263.41v2.67m0,263.47V276m0-263.41v2.67m0,263.47v-5.46m0-260.68V18"/><path class="cls-7" d="M111.83,278.71V276m0-263.41v2.67m24.7,263.47V276m0-263.41v2.67m0,263.47V276m0-263.41v2.67m0,263.47V276m0-263.41v2.67m0,263.47V276m0-263.41v2.67m0,263.47V276m0-263.41v2.67m0,263.47V276m0-263.41v2.67m0,263.47V276m0-263.41v2.67m0,263.47V276m0-263.41v2.67m0,263.47v-5.46m0-260.68V18"/><path class="cls-7" d="M161.23,278.71V276m0-263.41v2.67m24.71,263.47V276m0-263.41v2.67m0,263.47V276m0-263.41v2.67m0,263.47V276m0-263.41v2.67m0,263.47V276m0-263.41v2.67m0,263.47V276m0-263.41v2.67m0,263.47V276m0-263.41v2.67m0,263.47V276m0-263.41v2.67m0,263.47V276m0-263.41v2.67m0,263.47v-5.46m0-260.68V18"/><path class="cls-7" d="M210.64,278.71V276m0-263.41v2.67m24.71,263.47V276m0-263.41v2.67m0,263.47V276m0-263.41v2.67m0,263.47V276m0-263.41v2.67m0,263.47V276m0-263.41v2.67m0,263.47V276m0-263.41v2.67m0,263.47V276m0-263.41v2.67m0,263.47V276m0-263.41v2.67m0,263.47V276m0-263.41v2.67m0,263.47v-5.46m0-260.68V18"/><path class="cls-7" d="M260.05,278.71V276m0-263.41v2.67m24.71,263.47V276m0-263.41v2.67m0,263.47V276m0-263.41v2.67m0,263.47V276m0-263.41v2.67m0,263.47V276m0-263.41v2.67m0,263.47V276m0-263.41v2.67m0,263.47V276m0-263.41v2.67m0,263.47V276m0-263.41v2.67m0,263.47V276m0-263.41v2.67m0,263.47v-5.46m0-260.68V18"/><path class="cls-7" d="M309.46,278.71V276m0-263.41v2.67m24.66,263.47V276m0-263.41v2.67m0,263.47V276m0-263.41v2.67m0,263.47V276m0-263.41v2.67m0,263.47V276m0-263.41v2.67m0,263.47V276m0-263.41v2.67m0,263.47V276m0-263.41v2.67m0,263.47V276m0-263.41v2.67m0,263.47V276m0-263.41v2.67m0,263.47v-5.46m0-260.68V18"/><path class="cls-7" d="M358.82,278.71V276m0-263.41v2.67m24.7,263.47V276m0-263.41v2.67m0,263.47V276m0-263.41v2.67m0,263.47V276m0-263.41v2.67m0,263.47V276m0-263.41v2.67m0,263.47V276m0-263.41v2.67m0,263.47V276m0-263.41v2.67m0,263.47V276m0-263.41v2.67m0,263.47V276m0-263.41v2.67m0,263.47v-5.46m0-260.68V18"/><path class="cls-7" d="M408.23,278.71V276m0-263.41v2.67m24.7,263.47V276m0-263.41v2.67m0,263.47V276m0-263.41v2.67m0,263.47V276m0-263.41v2.67m0,263.47V276m0-263.41v2.67m0,263.47V276m0-263.41v2.67m0,263.47V276m0-263.41v2.67m0,263.47V276m0-263.41v2.67m0,263.47V276m0-263.41v2.67m0,263.47v-5.46m0-260.68V18"/><path class="cls-7" d="M457.64,278.71V276m0-263.41v2.67m24.7,263.47V276m0-263.41v2.67m0,263.47V276m0-263.41v2.67m0,263.47V276m0-263.41v2.67m0,263.47V276m0-263.41v2.67m0,263.47V276m0-263.41v2.67m0,263.47V276m0-263.41v2.67m0,263.47V276m0-263.41v2.67m0,263.47V276m0-263.41v2.67m0,263.47v-5.46m0-260.68V18"/><path class="cls-7" d="M507.05,278.71V276m0-263.41v2.67m24.7,263.47V276m0-263.41v2.67m0,263.47V276m0-263.41v2.67m0,263.47V276m0-263.41v2.67m0,263.47V276m0-263.41v2.67m0,263.47V276m0-263.41v2.67m0,263.47V276m0-263.41v2.67m0,263.47V276m0-263.41v2.67m0,263.47V276m0-263.41v2.67m0,263.47v-5.46m0-260.68V18"/><path class="cls-7" d="M556.46,278.71V276m0-263.41v2.67m24.7,263.47V276m0-263.41v2.67m0,263.47V276m0-263.41v2.67m0,263.47V276m0-263.41v2.67m0,263.47V276m0-263.41v2.67m0,263.47V276m0-263.41v2.67m0,263.47V276m0-263.41v2.67m0,263.47V276m0-263.41v2.67m0,263.47V276m0-263.41v2.67m0,263.47v-5.46m0-260.68V18"/><path class="cls-7" d="M37.76,262h2.69m540.71,0h-2.73M37.76,245.41h2.69m540.71,0h-2.73m-540.67,0h2.69m540.71,0h-2.73m-540.67,0h2.69m540.71,0h-2.73m-540.67,0h2.69m540.71,0h-2.73m-540.67,0h2.69m540.71,0h-2.73m-540.67,0h2.69m540.71,0h-2.73m-540.67,0h2.69m540.71,0h-2.73m-540.67,0h2.69m540.71,0h-2.73m-540.67,0h5.42m538,0h-5.47"/><path class="cls-7" d="M37.76,228.78h2.69m540.71,0h-2.73M37.76,212.15h2.69m540.71,0h-2.73m-540.67,0h2.69m540.71,0h-2.73m-540.67,0h2.69m540.71,0h-2.73m-540.67,0h2.69m540.71,0h-2.73m-540.67,0h2.69m540.71,0h-2.73m-540.67,0h2.69m540.71,0h-2.73m-540.67,0h2.69m540.71,0h-2.73m-540.67,0h2.69m540.71,0h-2.73m-540.67,0h5.42m538,0h-5.47"/><path class="cls-7" d="M37.76,195.52h2.69m540.71,0h-2.73M37.76,178.9h2.69m540.71,0h-2.73m-540.67,0h2.69m540.71,0h-2.73m-540.67,0h2.69m540.71,0h-2.73m-540.67,0h2.69m540.71,0h-2.73m-540.67,0h2.69m540.71,0h-2.73m-540.67,0h2.69m540.71,0h-2.73m-540.67,0h2.69m540.71,0h-2.73m-540.67,0h2.69m540.71,0h-2.73m-540.67,0h5.42m538,0h-5.47"/><path class="cls-7" d="M37.76,162.27h2.69m540.71,0h-2.73M37.76,145.64h2.69m540.71,0h-2.73m-540.67,0h2.69m540.71,0h-2.73m-540.67,0h2.69m540.71,0h-2.73m-540.67,0h2.69m540.71,0h-2.73m-540.67,0h2.69m540.71,0h-2.73m-540.67,0h2.69m540.71,0h-2.73m-540.67,0h2.69m540.71,0h-2.73m-540.67,0h2.69m540.71,0h-2.73m-540.67,0h5.42m538,0h-5.47"/><path class="cls-7" d="M37.76,129h2.69m540.71,0h-2.73M37.76,112.33h2.69m540.71,0h-2.73m-540.67,0h2.69m540.71,0h-2.73m-540.67,0h2.69m540.71,0h-2.73m-540.67,0h2.69m540.71,0h-2.73m-540.67,0h2.69m540.71,0h-2.73m-540.67,0h2.69m540.71,0h-2.73m-540.67,0h2.69m540.71,0h-2.73m-540.67,0h2.69m540.71,0h-2.73m-540.67,0h5.42m538,0h-5.47"/><path class="cls-7" d="M37.76,95.71h2.69m540.71,0h-2.73M37.76,79.08h2.69m540.71,0h-2.73m-540.67,0h2.69m540.71,0h-2.73m-540.67,0h2.69m540.71,0h-2.73m-540.67,0h2.69m540.71,0h-2.73m-540.67,0h2.69m540.71,0h-2.73m-540.67,0h2.69m540.71,0h-2.73m-540.67,0h2.69m540.71,0h-2.73m-540.67,0h2.69m540.71,0h-2.73m-540.67,0h5.42m538,0h-5.47"/><path class="cls-7" d="M37.76,62.45h2.69m540.71,0h-2.73M37.76,45.82h2.69m540.71,0h-2.73m-540.67,0h2.69m540.71,0h-2.73m-540.67,0h2.69m540.71,0h-2.73m-540.67,0h2.69m540.71,0h-2.73m-540.67,0h2.69m540.71,0h-2.73m-540.67,0h2.69m540.71,0h-2.73m-540.67,0h2.69m540.71,0h-2.73m-540.67,0h2.69m540.71,0h-2.73m-540.67,0h5.42m538,0h-5.47"/><path class="cls-7" d="M37.76,29.19h2.69m540.71,0h-2.73M37.76,12.57h2.69m540.71,0h-2.73m-540.67,0h2.69m540.71,0h-2.73m-540.67,0h2.69m540.71,0h-2.73m-540.67,0h2.69m540.71,0h-2.73m-540.67,0h2.69m540.71,0h-2.73m-540.67,0h2.69m540.71,0h-2.73m-540.67,0h2.69m540.71,0h-2.73m-540.67,0h2.69m540.71,0h-2.73m-540.67,0h5.42m538,0h-5.47"/><path class="cls-8" d="M37.76,12.57h543.4M37.76,278.71h543.4m0,0V12.57M37.76,278.71V12.57"/><text class="cls-9" transform="translate(580.55 14.28)"> </text><polyline class="cls-10" points="38.25 263.93 62.91 254.57 87.61 246.29 112.31 238.3 137.02 230.62 161.72 223.64 186.43 217.02 211.13 210.35 235.84 203.02 260.54 195.04 285.25 185.74 309.95 175.73 334.61 162.79 359.31 150.11 384.01 138.48 408.72 128.53 433.42 121.2 458.13 115.84 482.83 113.21 507.54 111.19 532.24 109.88 581.65 108.56"/><polyline class="cls-11" points="38.25 232.64 62.91 222.33 87.61 212.68 112.31 203.68 137.02 194.74 161.72 186.4 186.43 178.76 211.13 170.78 235.84 161.78 260.54 151.47 285.25 139.8 309.95 127.52 334.61 114.53 359.31 102.9 384.01 93.25 408.72 85.57 433.42 80.26 458.13 76.27 482.83 74.3 507.54 72.63 532.24 71.97 581.65 70.61"/><polyline class="cls-12" points="38.25 253.92 62.91 244.26 87.61 235.62 112.31 227.33 137.02 219.35 161.72 211.67 186.43 205.04 211.13 197.72 235.84 190.03 260.54 181.09 285.25 171.08 309.95 160.47 334.61 147.48 359.31 135.15 384.01 123.83 408.72 114.88 433.42 108.21 458.13 103.21 482.83 100.88 507.54 98.91 532.24 97.9 581.65 96.58"/><polyline class="cls-13" points="38.25 243.96 62.91 233.95 87.61 225.01 112.31 216.01 137.02 208.03 161.72 199.69 186.43 192.71 211.13 185.08 235.84 176.74 260.54 167.09 285.25 156.12 309.95 144.8 334.61 131.81 359.31 119.83 384.01 109.52 408.72 100.88 433.42 94.92 458.13 90.57 482.83 88.25 507.54 86.58 532.24 85.57 581.65 84.25"/><polyline class="cls-13" points="38.25 221.32 62.91 210.35 87.61 200.34 112.31 190.74 137.02 181.75 161.72 172.75 186.43 164.76 211.13 156.12 235.84 146.47 260.54 135.8 285.25 122.87 309.95 110.23 334.61 96.89 359.31 85.92 384.01 77.28 408.72 70.3 433.42 65.65 458.13 62.32 482.83 60.3 507.54 58.98 532.24 58.33 581.65 57.31"/><polyline class="cls-14" points="38.25 211.01 62.91 199.69 87.61 189.07 112.31 179.07 137.02 169.77 161.72 160.47 186.43 152.13 211.13 143.13 235.84 132.82 260.54 121.5 285.25 107.91 309.95 94.56 334.61 81.27 359.31 70.61 384.01 62.62 408.72 56.66 433.42 52.31 458.13 49.33 482.83 48.02 507.54 46.65 532.24 45.99 581.65 44.98"/><polyline class="cls-10" points="38.25 200.34 62.91 188.72 87.61 178.06 112.31 167.44 137.02 157.79 161.72 148.14 186.43 139.49 211.13 129.84 235.84 119.18 260.54 107.2 285.25 92.89 309.95 78.95 334.61 65.65 359.31 55.65 384.01 48.32 408.72 43.01 433.42 39.68 458.13 37 482.83 35.68 507.54 34.67 532.24 34.02 581.65 33.36"/><text class="cls-9" transform="translate(37.1 280.48)"> </text><text class="cls-15" transform="translate(33.45 289.93)">7</text><text class="cls-15" transform="translate(412.78 305.12)"><tspan xml:space="preserve">身高百分位曲线图(男)       年龄(岁) </tspan></text><text class="cls-16" transform="translate(5.5 257.77) rotate(90)">(cm)</text><text class="cls-15" transform="translate(15.89 117.1)">160</text><text class="cls-15" transform="translate(575.48 289.93)">18</text><text class="cls-15" transform="translate(15.89 17.34)">190</text><text class="cls-15" transform="translate(82.81 289.93)">8</text><text class="cls-15" transform="translate(132.21 289.93)">9</text><text class="cls-15" transform="translate(180.26 289.93)">10</text><text class="cls-15" transform="translate(229.67 289.93)">11</text><text class="cls-15" transform="translate(279.07 289.93)">12</text><text class="cls-15" transform="translate(328.43 289.93)">13</text><text class="cls-15" transform="translate(377.84 289.93)">14</text><text class="cls-15" transform="translate(427.25 289.93)">15</text><text class="cls-15" transform="translate(476.66 289.93)">16</text><text class="cls-15" transform="translate(526.07 289.93)">17</text><text class="cls-15" transform="translate(15.89 281.48)">110</text><text class="cls-15" transform="translate(15.89 250.18)">120</text><text class="cls-15" transform="translate(15.89 216.92)">130</text><text class="cls-15" transform="translate(15.89 183.67)">140</text><text class="cls-15" transform="translate(15.89 150.41)">150</text><text class="cls-15" transform="translate(15.89 83.85)">170</text><text class="cls-15" transform="translate(15.89 50.6)">180</text><text class="cls-17" transform="translate(8.98 231.95)">身高</text><rect class="cls-3" x="553" y="28.18" width="21.66" height="9.95"/><text class="cls-18" transform="translate(554.43 36.51)">97th</text><rect class="cls-3" x="553" y="40.22" width="21.66" height="9.95"/><text class="cls-18" transform="translate(554.43 48.55)">90th</text><rect class="cls-3" x="553" y="52.16" width="21.66" height="9.95"/><text class="cls-18" transform="translate(554.43 60.49)">75th</text><rect class="cls-3" x="553" y="65.54" width="21.66" height="9.95"/><text class="cls-18" transform="translate(554.43 73.87)">50th</text><rect class="cls-3" x="553" y="78.92" width="21.66" height="9.95"/><text class="cls-18" transform="translate(554.43 87.24)">25th</text><rect class="cls-3" x="553" y="91.5" width="21.66" height="9.95"/><text class="cls-18" transform="translate(554.43 99.82)">10th</text><rect class="cls-3" x="553" y="103.03" width="21.66" height="9.95"/><text class="cls-18" transform="translate(554.43 111.36)">3rd</text></svg>