<svg id="图层_1" data-name="图层 1" width="496" height="260" xmlns="http://www.w3.org/2000/svg" viewBox="0 0 595.28 311.81"><defs><style>.cls-1{fill:#fff;}.cls-10,.cls-11,.cls-12,.cls-13,.cls-2,.cls-4,.cls-5,.cls-6,.cls-7,.cls-8,.cls-9{fill:none;}.cls-2{stroke:#fff;}.cls-2,.cls-5,.cls-6,.cls-7,.cls-8,.cls-9{stroke-linejoin:round;}.cls-2,.cls-5,.cls-7,.cls-8{stroke-width:0.5px;}.cls-3{opacity:0.2;}.cls-4{stroke:#666;stroke-miterlimit:6;opacity:0.6;}.cls-5{stroke:#912e8c;}.cls-6,.cls-7{stroke:#13b1c1;}.cls-8{stroke:#92308d;}.cls-9{stroke:#d31348;}.cls-10,.cls-11,.cls-13,.cls-9{stroke-width:1.2px;}.cls-10{stroke:#e47a32;}.cls-10,.cls-11,.cls-12,.cls-13{stroke-miterlimit:10;}.cls-10,.cls-13{stroke-dasharray:2 2;}.cls-11{stroke:#24acab;stroke-dasharray:5 2;}.cls-12{stroke:#138f40;stroke-width:1.6px;}.cls-13{stroke:#198ac9;}.cls-14,.cls-15{font-size:10px;fill:#13b1c1;font-family:MicrosoftYaHei, Microsoft YaHei;}.cls-15{writing-mode:tb;text-orientation:upright;glyph-orientation-vertical:0deg;}.cls-16{font-size:8px;fill:#303131;font-family:PingFangSC-Semibold-GBpc-EUC-H, PingFang SC;}</style></defs><title>RUS-CHN百分位曲线图女-处理VI</title><rect class="cls-1" x="37.68" y="12.83" width="543.31" height="265.81"/><polyline class="cls-2" points="37.68 278.64 37.68 12.83 580.99 12.83 580.99 278.64 37.68 278.64"/><g class="cls-3"><path class="cls-4" d="M37.68,278.64V12.83m0,0h0M67.83,278.64V12.83m0,0h0M98,278.64V12.83m0,0h0M128.2,278.64V12.83m0,0h0m30.21,265.81V12.83m0,0h0m30.16,265.81V12.83m0,0h0m30.21,265.81V12.83m0,0h0m30.16,265.81V12.83m0,0h0m30.21,265.81V12.83m0,0h0m30.16,265.81V12.83m0,0h0m30.21,265.81V12.83m0,0h0m30.15,265.81V12.83m0,0h0m30.21,265.81V12.83m0,0h0M430,278.64V12.83m0,0h0m30.21,265.81V12.83m0,0h0m30.16,265.81V12.83m0,0h0m30.21,265.81V12.83m0,0h0m30.16,265.81V12.83m0,0h0M581,278.64V12.83m0,0h0"/><path class="cls-4" d="M37.68,278.64H581m0,0h0M37.68,252H581m0,0h0M37.68,225.46H581m0,0h0M37.68,198.89H581m0,0h0M37.68,172.27H581m0,0h0M37.68,145.71H581m0,0h0M37.68,119.14H581m0,0h0M37.68,92.53H581m0,0h0M37.68,66H581m0,0h0M37.68,39.4H581m0,0h0M37.68,12.83H581m0,0h0"/></g><path class="cls-5" d="M37.68,12.83H581M37.68,278.64H581"/><path class="cls-6" d="M581,278.64V12.83M37.68,278.64V12.83"/><line class="cls-5" x1="37.68" y1="278.64" x2="580.99" y2="278.64"/><path class="cls-7" d="M581,278.64v-5.46m0-260.35v5.41"/><path class="cls-8" d="M37.68,278.64h5.4m537.91,0h-5.46"/><path class="cls-8" d="M37.68,12.83h5.4m537.91,0h-5.46"/><path class="cls-6" d="M67.83,278.64v-5.46m0-260.35v5.41"/><path class="cls-6" d="M98,278.64v-5.46M98,12.83v5.41"/><path class="cls-6" d="M128.2,278.64v-5.46m0-260.35v5.41"/><path class="cls-6" d="M158.41,278.64v-5.46m0-260.35v5.41"/><path class="cls-6" d="M188.57,278.64v-5.46m0-260.35v5.41"/><path class="cls-6" d="M218.78,278.64v-5.46m0-260.35v5.41"/><path class="cls-6" d="M248.94,278.64v-5.46m0-260.35v5.41"/><path class="cls-6" d="M279.15,278.64v-5.46m0-260.35v5.41"/><path class="cls-6" d="M309.31,278.64v-5.46m0-260.35v5.41"/><path class="cls-6" d="M339.52,278.64v-5.46m0-260.35v5.41"/><path class="cls-6" d="M369.67,278.64v-5.46m0-260.35v5.41"/><path class="cls-6" d="M399.88,278.64v-5.46m0-260.35v5.41"/><path class="cls-6" d="M430,278.64v-5.46m0-260.35v5.41"/><path class="cls-6" d="M460.25,278.64v-5.46m0-260.35v5.41"/><path class="cls-6" d="M490.41,278.64v-5.46m0-260.35v5.41"/><path class="cls-6" d="M520.62,278.64v-5.46m0-260.35v5.41"/><path class="cls-6" d="M550.78,278.64v-5.46m0-260.35v5.41"/><path class="cls-6" d="M37.68,252h5.4M581,252h-5.46"/><path class="cls-6" d="M37.68,225.46h5.4m537.91,0h-5.46"/><path class="cls-6" d="M37.68,198.89h5.4m537.91,0h-5.46"/><path class="cls-6" d="M37.68,172.27h5.4m537.91,0h-5.46"/><path class="cls-6" d="M37.68,145.71h5.4m537.91,0h-5.46"/><path class="cls-6" d="M37.68,119.14h5.4m537.91,0h-5.46"/><path class="cls-6" d="M37.68,92.53h5.4m537.91,0h-5.46"/><path class="cls-6" d="M37.68,66h5.4M581,66h-5.46"/><path class="cls-6" d="M37.68,39.4h5.4M581,39.4h-5.46"/><path class="cls-6" d="M37.68,12.83H581M37.68,278.64H581"/><path class="cls-9" d="M37.68,275.63l15-3.72,15.1-4.59L82.94,264,98,261.71l15.06-1.43,15.1-1.68L143.31,257l15.1-2,15.06-2.14,15.1-2.09L203.68,248l15.1-3.82,15.05-4.08c26.84-7.27,52.87-18.83,75.15-35.45l.33-.24,15.1-11.58c27.06-20.74,52.09-44.72,75.47-69.44l15.06-18.62Q430,83.48,445.15,62.19c8.5-12,20.35-24.58,34.34-30.22,18.08-7.27,37-9.75,56.18-12.41l15.11-2.29,15.1-2.3L581,12.83"/><polyline class="cls-10" points="37.68 273.59 52.73 269.15 67.83 264.51 82.94 260.74 98.04 258.65 113.1 257.07 128.2 254.98 143.31 253.04 158.41 250.75 173.47 248.4 188.57 245.7 203.68 242.23 218.78 238.46 233.83 234.02 248.94 228.16 264.04 221.02 279.15 213.06 294.2 204.29 309.31 192.36 324.41 180.33 339.52 166.41 354.57 152.85 369.68 138.72 384.78 122.76 399.88 104.97 414.94 81.56 430.04 60.71 445.15 43.63 460.25 32.36 475.31 26.39 490.41 22.57 505.52 20.22 520.62 18.24 535.67 16.25 550.78 13.75 558.38 12.83"/><polyline class="cls-11" points="37.68 271.04 52.73 265.94 67.83 261.15 82.94 257.83 98.04 255.49 113.1 253.65 128.2 251.56 143.31 249.73 158.41 247.33 173.47 244.68 188.57 240.75 203.68 236.37 218.78 231.68 233.83 226.07 248.94 219.08 264.04 210.51 279.15 200.83 294.2 190.38 309.31 177.88 324.41 164.12 339.52 149.89 354.57 135.51 369.68 119.65 384.78 100.38 399.88 77.69 414.94 57.45 430.04 41.44 445.15 31.24 460.25 24.51 475.31 20.63 490.41 18.24 505.52 16.5 520.62 15.02 535.67 13.09 539.25 12.83"/><path class="cls-12" d="M37.68,268.34l15-5.61L67.83,258l15.11-3.32L98,252.22l15.06-1.78,15.1-2,15.11-2,15.1-2.75L173.47,240l15.1-4.64,15.11-5.56,15.1-6.48,15.05-7.54,15.11-8.67,15.1-10.1,15.11-11.52,15.05-12.9,15.11-14.28L324.41,143l15.11-16.42,15.05-17.19L369.67,92l15.11-20.14,15.1-20c5.51-5.52,10.78-11.48,16.91-16.3,12.06-9.49,25.63-14,40.53-16.73a274,274,0,0,1,33.09-3.63l15.11-1.13L520.62,13l2.4-.15"/><path class="cls-11" d="M37.68,265.12l15-5.3,15.1-4.49L82.94,252l15.1-2.4,15.06-1.78,15.1-2.55,15.11-1.94,15.1-3.36,15.06-4.75,15.1-6.11,15.11-7.19,15.1-8.32,15.05-9.84,15.11-10.86L264,181.81l15.11-12.44,15.05-15.25,15.11-16.52,15.1-16.67,15.11-18.21,15.05-19.58,15.1-18a317.13,317.13,0,0,1,24.65-26.63c6.25-5.89,13.17-9.54,20.62-13.71L430,20.07l15.11-3.31,15.1-2,9-1.94"/><polyline class="cls-13" points="37.68 261.91 52.73 257.27 67.83 252.84 82.94 249.11 98.04 246.82 113.1 244.83 128.2 242.38 143.31 239.12 158.41 234.63 173.47 228.82 188.57 221.02 203.68 212.5 218.78 202.71 233.83 190.53 248.94 178.49 264.04 166.97 279.15 154.12 294.2 137.81 309.31 120.21 324.41 103.54 339.52 85.03 354.57 63.97 369.68 45.41 384.78 32.82 399.88 23.18 414.94 18.8 430.04 15.13 440.25 12.83"/><path class="cls-9" d="M37.68,258.9c15-4.53,29.78-9.16,45.26-12L98,243.71a287.83,287.83,0,0,0,60.37-16l15.06-8.16,15.1-9.13,15.11-10.09,15.1-10.61,15.05-12.59,15.11-12.39,15.1-12.7,15.11-13.15,15.05-15.4,15.11-17.34,15.1-17.74c8.74-10.26,16-21.62,24.17-32.35a129.39,129.39,0,0,1,30.08-28.76A88.09,88.09,0,0,1,413,12.85"/><text class="cls-14" transform="translate(29.61 290.91)">1</text><text class="cls-14" transform="translate(65.45 289.91)">2</text><text class="cls-14" transform="translate(95.56 289.91)">3</text><text class="cls-14" transform="translate(125.66 289.91)">4</text><text class="cls-14" transform="translate(155.77 289.91)">5</text><text class="cls-14" transform="translate(185.87 289.91)">6</text><text class="cls-14" transform="translate(215.97 289.91)">7</text><text class="cls-14" transform="translate(246.08 289.91)">8</text><text class="cls-14" transform="translate(276.18 289.91)">9</text><text class="cls-14" transform="translate(303.35 289.91)">10</text><text class="cls-14" transform="translate(333.46 289.91)">11</text><text class="cls-14" transform="translate(363.56 289.91)">12</text><text class="cls-14" transform="translate(393.66 289.91)">13</text><text class="cls-14" transform="translate(423.77 289.91)">14</text><text class="cls-14" transform="translate(453.87 289.91)">15</text><text class="cls-14" transform="translate(483.97 289.91)">16</text><text class="cls-14" transform="translate(514.08 289.91)">17</text><text class="cls-14" transform="translate(544.18 289.91)">18</text><text class="cls-14" transform="translate(574.29 289.91)">19</text><text class="cls-14" transform="translate(29.61 281.42)">0</text><text class="cls-14" transform="translate(17.88 254.8)">100</text><text class="cls-14" transform="translate(17.88 228.24)">200</text><text class="cls-14" transform="translate(17.88 201.68)">300</text><text class="cls-14" transform="translate(17.88 175.05)">400</text><text class="cls-14" transform="translate(17.88 148.49)">500</text><text class="cls-14" transform="translate(17.88 121.93)">600</text><text class="cls-14" transform="translate(17.88 95.31)">700</text><text class="cls-14" transform="translate(17.88 68.74)">800</text><text class="cls-14" transform="translate(17.88 42.18)">900</text><text class="cls-14" transform="translate(12.02 15.62)">1000</text><text class="cls-15" transform="translate(11.63 230.84)">成熟度得分</text><text class="cls-14" transform="translate(400.66 303.13)"><tspan xml:space="preserve">RUS-CHN百分位曲线图(女)       年龄(岁)</tspan></text><rect class="cls-1" x="373.59" y="17.1" width="17.96" height="8.25"/><text class="cls-16" transform="translate(374.78 24.01)">97th</text><rect class="cls-1" x="394.8" y="17.1" width="17.96" height="8.25"/><text class="cls-16" transform="translate(395.99 24.01)">90th</text><rect class="cls-1" x="414.56" y="17.1" width="17.96" height="8.25"/><text class="cls-16" transform="translate(415.75 24.01)">75th</text><rect class="cls-1" x="437.54" y="17.1" width="17.96" height="8.25"/><text class="cls-16" transform="translate(438.73 24.01)">50th</text><rect class="cls-1" x="464.44" y="17.1" width="17.96" height="8.25"/><text class="cls-16" transform="translate(465.64 24.01)">25th</text><rect class="cls-1" x="489.53" y="17.1" width="17.96" height="8.25"/><text class="cls-16" transform="translate(490.72 24.01)">10th</text><rect class="cls-1" x="529.91" y="17.3" width="17.96" height="8.25"/><text class="cls-16" transform="translate(531.1 23.77)">3rd</text></svg>