<svg id="图层_1" data-name="图层 1" width="496" height="260" xmlns="http://www.w3.org/2000/svg" viewBox="0 0 595.28 311.81"><defs><style>.cls-1,.cls-2,.cls-3,.cls-4,.cls-5,.cls-6,.cls-7,.cls-8,.cls-9{fill:none;}.cls-1{stroke:#fff;}.cls-1,.cls-3,.cls-4,.cls-5{stroke-linejoin:round;}.cls-1,.cls-3{stroke-width:0.5px;}.cls-2{stroke:#b1b1b2;stroke-miterlimit:6;stroke-width:0.25px;opacity:0.6;}.cls-3{stroke:#1b2c77;}.cls-4{stroke:#13b1c1;}.cls-5{stroke:#c61a45;}.cls-5,.cls-6,.cls-7,.cls-9{stroke-width:1.2px;}.cls-6{stroke:#e47a32;}.cls-6,.cls-7,.cls-8,.cls-9{stroke-miterlimit:10;}.cls-6,.cls-9{stroke-dasharray:2 1;}.cls-7{stroke:#29a4a3;stroke-dasharray:5 1;}.cls-8{stroke:#138f40;stroke-width:1.6px;}.cls-9{stroke:#198ac9;}.cls-10{font-size:6.2px;fill:#231815;font-family:Helvetica;}.cls-11,.cls-12{font-size:10px;fill:#13b1c1;font-family:MicrosoftYaHei, Microsoft YaHei;}.cls-12{writing-mode:tb;text-orientation:upright;glyph-orientation-vertical:0deg;}.cls-13{fill:#fff;}.cls-14{font-size:7px;fill:#303131;font-family:PingFangSC-Semibold-GBpc-EUC-H, PingFang SC;}</style></defs><title>RUS-CHN百分位曲线图男-处理VI</title><polyline class="cls-1" points="37.8 278.76 37.8 12.94 581.08 12.94 581.08 278.76 37.8 278.76"/><path class="cls-2" d="M37.8,278.76V12.94m0,0h0M67.14,278.76V12.94m0,0h0M96.48,278.76V12.94m0,0h0m29.39,265.82V12.94m0,0h0m29.35,265.82V12.94m0,0h0m29.39,265.82V12.94m0,0h0M214,278.76V12.94m0,0h0m29.39,265.82V12.94m0,0h0m29.35,265.82V12.94m0,0h0m29.39,265.82V12.94m0,0h0m29.34,265.82V12.94m0,0h0m29.39,265.82V12.94m0,0h0m29.34,265.82V12.94m0,0h0m29.4,265.82V12.94m0,0h0m29.34,265.82V12.94m0,0h0m29.39,265.82V12.94m0,0h0m29.34,265.82V12.94m0,0h0M537,278.76V12.94m0,0h0m29.34,265.82V12.94m0,0h0M37.8,278.76H581.08m0,0h0M37.8,252.14H581.08m0,0h0M37.8,225.56H581.08m0,0h0M37.8,199H581.08m0,0h0M37.8,172.4H581.08m0,0h0M37.8,145.83H581.08m0,0h0M37.8,119.25H581.08m0,0h0M37.8,92.67H581.08m0,0h0M37.8,66.1H581.08m0,0h0M37.8,39.52H581.08m0,0h0M37.8,12.94H581.08m0,0h0"/><path class="cls-3" d="M37.8,12.94H581.08M37.8,278.76H581.08m0,0V12.94M37.8,278.76V12.94m0,265.82H581.08m-543.28,0V12.94m0,265.82v-5.53m0-260.29v5.48"/><path class="cls-3" d="M37.8,278.76h5.4m537.88,0h-5.45"/><path class="cls-3" d="M37.8,12.94h5.4m537.88,0h-5.45"/><path class="cls-4" d="M67.14,278.76v-5.53m0-260.32v5.48"/><path class="cls-4" d="M96.48,278.76v-5.53m0-260.32v5.48"/><path class="cls-4" d="M125.87,278.76v-5.53m0-260.32v5.48"/><path class="cls-4" d="M155.22,278.76v-5.53m0-260.32v5.48"/><path class="cls-4" d="M184.61,278.76v-5.53m0-260.32v5.48"/><path class="cls-4" d="M214,278.76v-5.53m0-260.32v5.48"/><path class="cls-4" d="M243.34,278.76v-5.53m0-260.32v5.48"/><path class="cls-4" d="M272.69,278.76v-5.53m0-260.32v5.48"/><path class="cls-4" d="M302.08,278.76v-5.53m0-260.32v5.48"/><path class="cls-4" d="M331.42,278.76v-5.53m0-260.32v5.48"/><path class="cls-4" d="M360.81,278.76v-5.53m0-260.32v5.48"/><path class="cls-4" d="M390.15,278.76v-5.53m0-260.32v5.48"/><path class="cls-4" d="M419.55,278.76v-5.53m0-260.32v5.48"/><path class="cls-4" d="M448.89,278.76v-5.53m0-260.32v5.48"/><path class="cls-4" d="M478.28,278.76v-5.53m0-260.32v5.48"/><path class="cls-4" d="M507.62,278.76v-5.53m0-260.32v5.48"/><path class="cls-4" d="M537,278.76v-5.53m0-260.32v5.48"/><path class="cls-4" d="M566.36,278.76v-5.53m0-260.32v5.48"/><path class="cls-4" d="M37.8,252.13h5.4m537.88,0h-5.45"/><path class="cls-4" d="M37.8,225.55h5.4m537.88,0h-5.45"/><path class="cls-4" d="M37.8,199h5.4m537.88,0h-5.45"/><path class="cls-4" d="M37.8,172.39h5.4m537.88,0h-5.45"/><path class="cls-4" d="M37.8,145.81h5.4m537.88,0h-5.45"/><path class="cls-4" d="M37.8,119.23h5.4m537.88,0h-5.45"/><path class="cls-4" d="M37.8,92.65h5.4m537.88,0h-5.45"/><path class="cls-4" d="M37.8,66.07h5.4m537.88,0h-5.45"/><path class="cls-4" d="M37.8,39.49h5.4m537.88,0h-5.45"/><path class="cls-4" d="M37.8,12.91H581.08M37.8,278.76H581.08m0,0V12.91M37.8,278.76V12.91"/><path class="cls-5" d="M37.8,278.4l14.67-.93,14.67-2.27,14.67-2.74,14.67-2.54,14.72-2.33,14.67-1.34,14.68-1.45,14.67-1.55,14.72-1.65L184.61,260l14.67-1.5,14.67-1.7,14.72-2.07L243.34,253,258,250.22l14.68-2.9,14.72-4,14.67-4.24,14.67-5.22,14.67-6.06,14.72-6.15,14.67-8.17,14.67-8.79,14.67-10.86,14.73-13.34,14.67-15.57,14.67-19.65,14.67-19.39,14.72-21.52,14.67-22.7,7.33-11.16c5.73-8.73,11.06-17.77,17.6-25.94,3.7-4.62,7.47-9.41,12.55-12.58,6.64-4.15,13.89-6.72,21.26-9.22l14.67-3.52,14.67-3.1,14.72-2.22"/><polyline class="cls-6" points="37.8 277.73 52.47 275.87 67.14 273.23 81.81 270.02 96.48 266.92 111.2 265.21 125.88 264.03 140.55 262.37 155.22 260.67 169.94 259.06 184.61 257.2 199.28 255.49 213.95 253.99 228.67 251.82 243.34 249.03 258.01 245.93 272.69 242.72 287.41 238.79 302.08 233.62 316.75 227.15 331.42 219.97 346.14 212.42 360.81 204.35 375.48 193.9 390.15 180.15 404.88 165.62 419.55 147.41 434.22 128.07 448.89 106.92 463.61 84.37 478.28 60.79 485.62 49.41 492.95 40.57 500.29 33.85 507.62 28.32 514.96 25.16 522.35 22.83 529.68 20.71 537.02 19.16 551.69 16.21 566.36 13.89 571.61 12.9"/><polyline class="cls-7" points="37.8 276.64 52.47 273.95 67.14 270.7 81.81 267.18 96.48 264.03 111.2 262.42 125.88 261.08 140.55 259.84 155.22 258.18 169.94 256.48 184.61 254.51 199.28 252.6 213.95 251.05 228.67 248.56 243.34 245.05 258.01 241.84 272.69 237.19 287.41 231.81 302.08 226.07 316.75 219.29 331.42 211.28 346.14 202.02 360.81 190.96 375.48 178.49 390.15 162.31 404.88 145.4 419.55 124.92 434.22 103.82 448.89 79.46 463.61 56.71 478.28 39.07 485.62 31.73 492.95 27.02 500.29 23.61 507.62 20.77 514.96 19.42 522.35 17.87 529.68 17.09 537.02 16.11 551.69 12.96 553.11 12.9"/><path class="cls-8" d="M37.8,275.35,52.47,272l14.67-3.77,14.67-3.47,14.67-2.95,14.72-1.75,14.67-1.4,14.68-1.35L155.22,256l14.72-2,14.67-2,14.67-2.28L214,247.17l14.72-3.57,14.67-4.4L258,233.67l14.68-6.21L287.41,221l14.67-7,14.67-8.12,14.67-10,14.72-12.52,14.67-14.84,14.67-17.22,14.67-19.44L404.88,111,419.55,90l14.67-19.81L448.89,48.9c5.51-6.26,10.56-13.6,17.36-18.49,4.69-3.38,9.61-7.3,15-9.41,8.48-3.32,17.37-4.11,26.36-4.68,6.75-.43,13.64-1.5,20.43-2.06a45.29,45.29,0,0,0,9-1.36"/><path class="cls-7" d="M37.8,273.75l14.67-3.88L67.14,266l14.67-3.57,14.67-2.68L111.2,258l14.67-1.19,14.68-1.61,14.67-1.44,14.72-2.64L184.61,249l14.67-3.42L214,242.2l14.72-4.65,14.67-6.1L258,224.93l14.68-8.64,14.72-8.53,14.67-8.27,14.67-10.4,14.67-12.67,14.72-15.3,14.67-17.53,14.67-19.76L390.15,98.9,404.88,76l14.67-18.41,14.67-17.85c2.58-3.14,7.38-6,10.77-8.44a98.82,98.82,0,0,1,12.21-7.72c6.72-3.51,14-5.94,21.08-8.61l7.34-2.06"/><polyline class="cls-9" points="37.8 271.83 52.47 267.59 67.14 263.56 81.81 260.15 96.48 257.67 111.2 256.01 125.88 254.3 140.55 252.65 155.22 250.53 169.94 247.84 184.61 244.94 199.28 240.96 213.95 236.67 228.67 230.1 243.34 222.19 258.01 214.59 272.69 206.16 287.41 197.11 302.08 186.66 316.75 174.82 331.42 160.13 346.14 144 360.81 126.05 375.48 106.14 390.15 80.6 404.88 57.17 419.55 39.02 434.22 26.4 448.89 17.71 460.1 12.9"/><path class="cls-5" d="M37.8,269.56l14.67-4.5L67.14,261l14.67-3.25,14.67-2.23,14.72-1.6,14.67-2.28,14.68-2.06,14.67-2.49,14.72-3.51,14.67-4.19,14.67-4.6L214,229.48l14.72-6.77,14.67-8.59L258,205.8l14.68-9.52,14.72-10,14.67-10.55,14.67-12.93,14.67-15.05,14.72-17.27,14.67-18.62,14.67-23,14.67-24.25,14.73-20.95c4.77-6.78,10.71-14.35,17.41-19.24,6.52-4.74,12.23-8.64,19.72-11.47"/><text class="cls-10" transform="translate(36.93 280.99) scale(0.99 1)"> </text><text class="cls-10" transform="translate(580.27 15.11) scale(0.99 1)"> </text><text class="cls-11" transform="translate(35.47 291.12)">1</text><text class="cls-11" transform="translate(64.81 291.12)">2</text><text class="cls-11" transform="translate(94.15 291.12)">3</text><text class="cls-11" transform="translate(123.49 291.12)">4</text><text class="cls-11" transform="translate(152.83 291.12)">5</text><text class="cls-11" transform="translate(182.17 291.12)">6</text><text class="cls-11" transform="translate(211.51 291.12)">7</text><text class="cls-11" transform="translate(240.85 291.12)">8</text><text class="cls-11" transform="translate(270.19 291.12)">9</text><text class="cls-11" transform="translate(296.6 291.12)">10</text><text class="cls-11" transform="translate(325.94 291.12)">11</text><text class="cls-11" transform="translate(355.28 291.12)">12</text><text class="cls-11" transform="translate(384.62 291.12)">13</text><text class="cls-11" transform="translate(413.96 291.12)">14</text><text class="cls-11" transform="translate(443.3 291.12)">15</text><text class="cls-11" transform="translate(472.64 291.12)">16</text><text class="cls-11" transform="translate(501.98 291.12)">17</text><text class="cls-11" transform="translate(531.32 291.12)">18</text><text class="cls-11" transform="translate(560.66 291.12)">19</text><text class="cls-11" transform="translate(29.76 281.58)">0</text><text class="cls-11" transform="translate(18.03 254.94)">100</text><text class="cls-11" transform="translate(18.03 228.36)">200</text><text class="cls-11" transform="translate(18.03 201.79)">300</text><text class="cls-11" transform="translate(18.03 175.21)">400</text><text class="cls-11" transform="translate(18.03 148.63)">500</text><text class="cls-11" transform="translate(18.03 122.06)">600</text><text class="cls-11" transform="translate(18.03 95.49)">700</text><text class="cls-11" transform="translate(18.03 68.91)">800</text><text class="cls-11" transform="translate(18.03 42.33)">900</text><text class="cls-11" transform="translate(12.17 15.76)">1000</text><text class="cls-12" transform="translate(11.63 230.84)">成熟度得分</text><text class="cls-11" transform="translate(400.66 303.13)"><tspan xml:space="preserve">RUS-CHN百分位曲线图(男)       年龄(岁)</tspan></text><rect class="cls-13" x="411.2" y="21.99" width="15.75" height="7.24"/><text class="cls-14" transform="translate(412.24 28.04)">97th</text><rect class="cls-13" x="428.36" y="22.08" width="15.75" height="7.24"/><text class="cls-14" transform="translate(429.22 28.1)">90th</text><rect class="cls-13" x="445.44" y="22.02" width="15.75" height="7.24"/><text class="cls-14" transform="translate(446.48 28.08)">75th</text><rect class="cls-13" x="464.88" y="22.26" width="15.75" height="7.24"/><text class="cls-14" transform="translate(465.93 28.32)">50th</text><rect class="cls-13" x="505.5" y="21.86" width="15.75" height="7.24"/><text class="cls-14" transform="translate(506.54 27.91)">25th</text><rect class="cls-13" x="485.8" y="22.14" width="15.75" height="7.24"/><text class="cls-14" transform="translate(486.84 28.19)">10th</text><rect class="cls-13" x="524.94" y="21.94" width="15.75" height="7.24"/><text class="cls-14" transform="translate(525.98 28)">3rd</text></svg>