<svg id="图层_1" data-name="图层 1" width="496" height="260" xmlns="http://www.w3.org/2000/svg" viewBox="0 0 595.28 311.81"><defs><style>.cls-1,.cls-2,.cls-3,.cls-4,.cls-5,.cls-6,.cls-7,.cls-8,.cls-9{fill:none;}.cls-1{stroke:#fff;}.cls-1,.cls-11,.cls-3,.cls-4,.cls-5{stroke-linejoin:round;}.cls-1,.cls-3{stroke-width:0.5px;}.cls-2{stroke:#666;stroke-miterlimit:6;opacity:0.2;}.cls-3{stroke:#000;}.cls-11,.cls-4{stroke:#13b1c1;}.cls-5{stroke:#c61a45;}.cls-5,.cls-7,.cls-8,.cls-9{stroke-width:1.2px;}.cls-6{stroke:#138f40;stroke-width:1.6px;}.cls-6,.cls-7,.cls-8,.cls-9{stroke-miterlimit:10;}.cls-7{stroke:#29a4a3;stroke-dasharray:5 1;}.cls-8{stroke:#e47a32;}.cls-8,.cls-9{stroke-dasharray:2 1;}.cls-9{stroke:#198ac9;}.cls-10,.cls-12,.cls-14{font-size:10px;}.cls-10,.cls-11,.cls-12{fill:#13b1c1;}.cls-10,.cls-12{font-family:MicrosoftYaHei, Microsoft YaHei;}.cls-12{writing-mode:tb;text-orientation:upright;glyph-orientation-vertical:0deg;}.cls-13{fill:#fff;}.cls-14{fill:#303131;font-family:PingFangSC-Semibold-GBpc-EUC-H, PingFang SC;}</style></defs><title>女体重百分位数-处理VI</title><polyline class="cls-1" points="37.85 278.68 37.85 12.82 581.1 12.82 581.1 278.68 37.85 278.68"/><path class="cls-2" d="M37.85,278.67V12.82m0,0h0M98.18,278.67V12.82m0,0h0m60.39,265.85V12.82m0,0h0M219,278.67V12.82m0,0h0m60.33,265.85V12.82m0,0h0m60.39,265.85V12.82m0,0h0m60.38,265.85V12.82m0,0h0m60.33,265.85V12.82m0,0h0m60.39,265.85V12.82m0,0h0m60.38,265.85V12.82m0,0h0M37.85,278.67h543.3m0,0h0M37.85,245.41h543.3m0,0h0M37.85,212.2h543.3m0,0h0M37.85,178.94h543.3m0,0h0M37.85,145.72h543.3m0,0h0M37.85,112.51h543.3m0,0h0M37.85,79.25h543.3m0,0h0M37.85,46h543.3m0,0h0M37.85,12.82h543.3m0,0h0"/><path class="cls-3" d="M37.85,12.82H581.1M37.85,278.67H581.1m0,0V12.82M37.85,278.67V12.82m0,265.85H581.1m-543.25,0V12.82m0,265.85v-5.44m0-260.41v5.4"/><path class="cls-3" d="M37.85,278.67h5.4m537.9,0H575.7"/><path class="cls-4" d="M49.9,278.67V276m0-263.13V15.5M62,278.67V276M62,12.82V15.5M74.07,278.67V276m0-263.13V15.5M86.12,278.67V276m0-263.13V15.5M98.18,278.67V276m0-263.13V15.5m0,263.17V276m0-263.13V15.5m0,263.17V276m0-263.13V15.5m0,263.17V276m0-263.13V15.5m0,263.17V276m0-263.13V15.5m0,263.17v-5.44m0-260.41v5.4"/><path class="cls-4" d="M110.29,278.67V276m0-263.13V15.5m12.06,263.17V276m0-263.13V15.5M134.4,278.67V276m0-263.13V15.5m12.11,263.17V276m0-263.13V15.5m12.06,263.17V276m0-263.13V15.5m0,263.17V276m0-263.13V15.5m0,263.17V276m0-263.13V15.5m0,263.17V276m0-263.13V15.5m0,263.17V276m0-263.13V15.5m0,263.17v-5.44m0-260.41v5.4"/><path class="cls-4" d="M170.62,278.67V276m0-263.13V15.5m12.11,263.17V276m0-263.13V15.5m12.06,263.17V276m0-263.13V15.5m12.05,263.17V276m0-263.13V15.5M219,278.67V276m0-263.13V15.5m0,263.17V276m0-263.13V15.5m0,263.17V276m0-263.13V15.5m0,263.17V276m0-263.13V15.5m0,263.17V276m0-263.13V15.5m0,263.17v-5.44m0-260.41v5.4"/><path class="cls-4" d="M231,278.67V276m0-263.13V15.5m12.05,263.17V276m0-263.13V15.5m12.11,263.17V276m0-263.13V15.5m12.06,263.17V276m0-263.13V15.5m12,263.17V276m0-263.13V15.5m0,263.17V276m0-263.13V15.5m0,263.17V276m0-263.13V15.5m0,263.17V276m0-263.13V15.5m0,263.17V276m0-263.13V15.5m0,263.17v-5.44m0-260.41v5.4"/><path class="cls-4" d="M291.39,278.67V276m0-263.13V15.5m12.06,263.17V276m0-263.13V15.5M315.5,278.67V276m0-263.13V15.5m12.11,263.17V276m0-263.13V15.5m12.06,263.17V276m0-263.13V15.5m0,263.17V276m0-263.13V15.5m0,263.17V276m0-263.13V15.5m0,263.17V276m0-263.13V15.5m0,263.17V276m0-263.13V15.5m0,263.17v-5.44m0-260.41v5.4"/><path class="cls-4" d="M351.72,278.67V276m0-263.13V15.5m12.11,263.17V276m0-263.13V15.5m12.06,263.17V276m0-263.13V15.5m12.05,263.17V276m0-263.13V15.5m12.11,263.17V276m0-263.13V15.5m0,263.17V276m0-263.13V15.5m0,263.17V276m0-263.13V15.5m0,263.17V276m0-263.13V15.5m0,263.17V276m0-263.13V15.5m0,263.17v-5.44m0-260.41v5.4"/><path class="cls-4" d="M412.11,278.67V276m0-263.13V15.5m12.05,263.17V276m0-263.13V15.5m12.11,263.17V276m0-263.13V15.5m12.06,263.17V276m0-263.13V15.5m12.05,263.17V276m0-263.13V15.5m0,263.17V276m0-263.13V15.5m0,263.17V276m0-263.13V15.5m0,263.17V276m0-263.13V15.5m0,263.17V276m0-263.13V15.5m0,263.17v-5.44m0-260.41v5.4"/><path class="cls-4" d="M472.49,278.67V276m0-263.13V15.5m12.06,263.17V276m0-263.13V15.5M496.6,278.67V276m0-263.13V15.5m12.11,263.17V276m0-263.13V15.5m12.06,263.17V276m0-263.13V15.5m0,263.17V276m0-263.13V15.5m0,263.17V276m0-263.13V15.5m0,263.17V276m0-263.13V15.5m0,263.17V276m0-263.13V15.5m0,263.17v-5.44m0-260.41v5.4"/><path class="cls-4" d="M532.82,278.67V276m0-263.13V15.5m12.11,263.17V276m0-263.13V15.5M557,278.67V276m0-263.13V15.5m12,263.17V276m0-263.13V15.5m12.11,263.17V276m0-263.13V15.5m0,263.17V276m0-263.13V15.5m0,263.17V276m0-263.13V15.5m0,263.17V276m0-263.13V15.5m0,263.17V276m0-263.13V15.5m0,263.17v-5.44m0-260.41v5.4"/><path class="cls-4" d="M37.85,262h2.67m540.63,0h-2.72M37.85,245.41h2.67m540.63,0h-2.72m-540.58,0h2.67m540.63,0h-2.72m-540.58,0h2.67m540.63,0h-2.72m-540.58,0h2.67m540.63,0h-2.72m-540.58,0h2.67m540.63,0h-2.72m-540.58,0h2.67m540.63,0h-2.72m-540.58,0h2.67m540.63,0h-2.72m-540.58,0h2.67m540.63,0h-2.72m-540.58,0h5.4m537.9,0H575.7"/><path class="cls-4" d="M37.85,228.78h2.67m540.63,0h-2.72M37.85,212.2h2.67m540.63,0h-2.72m-540.58,0h2.67m540.63,0h-2.72m-540.58,0h2.67m540.63,0h-2.72m-540.58,0h2.67m540.63,0h-2.72m-540.58,0h2.67m540.63,0h-2.72m-540.58,0h2.67m540.63,0h-2.72m-540.58,0h2.67m540.63,0h-2.72m-540.58,0h2.67m540.63,0h-2.72m-540.58,0h5.4m537.9,0H575.7"/><path class="cls-4" d="M37.85,195.57h2.67m540.63,0h-2.72M37.85,178.94h2.67m540.63,0h-2.72m-540.58,0h2.67m540.63,0h-2.72m-540.58,0h2.67m540.63,0h-2.72m-540.58,0h2.67m540.63,0h-2.72m-540.58,0h2.67m540.63,0h-2.72m-540.58,0h2.67m540.63,0h-2.72m-540.58,0h2.67m540.63,0h-2.72m-540.58,0h2.67m540.63,0h-2.72m-540.58,0h5.4m537.9,0H575.7"/><path class="cls-4" d="M37.85,162.36h2.67m540.63,0h-2.72M37.85,145.72h2.67m540.63,0h-2.72m-540.58,0h2.67m540.63,0h-2.72m-540.58,0h2.67m540.63,0h-2.72m-540.58,0h2.67m540.63,0h-2.72m-540.58,0h2.67m540.63,0h-2.72m-540.58,0h2.67m540.63,0h-2.72m-540.58,0h2.67m540.63,0h-2.72m-540.58,0h2.67m540.63,0h-2.72m-540.58,0h5.4m537.9,0H575.7"/><path class="cls-4" d="M37.85,129.09h2.67m540.63,0h-2.72M37.85,112.51h2.67m540.63,0h-2.72m-540.58,0h2.67m540.63,0h-2.72m-540.58,0h2.67m540.63,0h-2.72m-540.58,0h2.67m540.63,0h-2.72m-540.58,0h2.67m540.63,0h-2.72m-540.58,0h2.67m540.63,0h-2.72m-540.58,0h2.67m540.63,0h-2.72m-540.58,0h2.67m540.63,0h-2.72m-540.58,0h5.4m537.9,0H575.7"/><path class="cls-4" d="M37.85,95.88h2.67m540.63,0h-2.72M37.85,79.25h2.67m540.63,0h-2.72m-540.58,0h2.67m540.63,0h-2.72m-540.58,0h2.67m540.63,0h-2.72m-540.58,0h2.67m540.63,0h-2.72m-540.58,0h2.67m540.63,0h-2.72m-540.58,0h2.67m540.63,0h-2.72m-540.58,0h2.67m540.63,0h-2.72m-540.58,0h2.67m540.63,0h-2.72m-540.58,0h5.4m537.9,0H575.7"/><path class="cls-4" d="M37.85,62.67h2.67m540.63,0h-2.72M37.85,46h2.67m540.63,0h-2.72M37.85,46h2.67m540.63,0h-2.72M37.85,46h2.67m540.63,0h-2.72M37.85,46h2.67m540.63,0h-2.72M37.85,46h2.67m540.63,0h-2.72M37.85,46h2.67m540.63,0h-2.72M37.85,46h2.67m540.63,0h-2.72M37.85,46h2.67m540.63,0h-2.72M37.85,46h5.4m537.9,0H575.7"/><path class="cls-4" d="M37.85,29.41h2.67m540.63,0h-2.72M37.85,12.82h2.67m540.63,0h-2.72m-540.58,0h2.67m540.63,0h-2.72m-540.58,0h2.67m540.63,0h-2.72m-540.58,0h2.67m540.63,0h-2.72m-540.58,0h2.67m540.63,0h-2.72m-540.58,0h2.67m540.63,0h-2.72m-540.58,0h2.67m540.63,0h-2.72m-540.58,0h2.67m540.63,0h-2.72m-540.58,0h5.4m537.9,0H575.7"/><polyline class="cls-5" points="37.85 270.11 42.84 264.66 47.89 260.23 52.93 257.56 60.45 255.04 68.02 253.07 75.53 251.31 83.1 249.65 90.67 247.88 98.18 246.22 113.27 243.25 128.4 240.42 143.48 237.7 158.56 235.13 173.65 232.51 188.73 229.99 203.81 227.52 218.9 225.15 234.03 222.83 249.12 220.21 264.2 217.54 279.28 214.87 294.37 212 309.45 209.07 324.58 205.9 339.67 202.27 354.75 198.14 369.83 193.1 384.92 187.5 400 181.21 415.13 174.91 430.22 168.71 445.3 162.96 460.38 157.77 475.47 153.34 490.55 149.96 505.68 147.34 520.77 145.88 535.85 144.77 550.93 144.26 581.1 143.36"/><path class="cls-6" d="M37.85,268l5-6.65c.72-1,1.69-1.76,2.48-2.66,4.06-4.65,9.57-6.65,15.13-8.88L68,247.43l7.52-2.07,7.57-2.12,7.57-2.16,7.51-2,15.08-3.78,15.14-3.58,15.08-3.42,15.09-3.38,15.08-3.48L188.73,218l15.09-3.53,15.08-3.48L234,207.41l15.09-4,15.08-4.28,15.08-4.39L294.37,190l15.08-5,15.13-5.59,15.09-6.3,15.08-6.75,15.08-7.66,15.09-7.61L400,143.15l15.13-7.05,15.09-6.3,15.08-5.39,15.08-4.69,15.09-3.78,15.08-2.87c10.05-1.58,20.06-2.67,30.22-3.28l15.08-.86,15.08-.4,30.17-.71"/><path class="cls-7" d="M37.85,268.8l5-6.15c.78-1,1.79-1.76,2.63-2.67,2.16-2.35,4.72-3.73,7.46-5.29l7.52-2.88L68,249.6l7.52-2,7.57-1.92,7.57-2,7.51-1.87,15.08-3.47,15.14-3.28L143.48,232l15.09-3.08,15.08-3.12,15.08-3.08,15.09-3.12,15.08-3L234,213.51l15.09-3.38,15.08-3.63,15.08-3.67,15.09-3.89,15.08-4.13,15.13-4.58,15.09-5.14,15.08-5.6,15.08-6.55,15.09-6.8L400,158.88l15.13-6.81,15.09-6.35,15.08-5.59,15.08-5L475.47,131l15.08-3.08,15.13-2.36c20.07-3.14,40.72-2.6,61-3.2,4.79,0,9.61-.26,14.4-.38"/><path class="cls-8" d="M37.85,269.5l5-5.79A27.81,27.81,0,0,1,53.46,256c2.3-.91,4.66-1.69,7-2.53L68,251.41l7.52-1.81,7.57-1.82,7.57-1.91,7.51-1.77,15.08-3.17,15.14-3.08L143.48,235l15.09-2.82,15.08-2.88,15.08-2.72,15.09-2.82,15.08-2.67L234,218.45l15.09-3,15.08-3.13,15.08-3.12L294.37,206l15.08-3.48,15.13-3.83,15.09-4.28,15.08-4.79,15.08-5.74,15.09-6.15L400,170.92l15.13-6.55,15.09-6.3,15.08-5.74,15.08-5.09L475.47,143l15.08-3.32,15.13-2.47,15.09-1.41,15.08-1.06,15.08-.51,30.17-.85"/><path class="cls-7" d="M37.85,267l5-7.1c.8-1.14,1.91-2.08,2.79-3.15C49.55,252,55,250,60.45,247.53L68,245l7.52-2.22,7.57-2.22,7.57-2.36L98.18,236l15.08-4.08L128.4,228l15.08-3.78,15.09-3.67,15.08-3.89,15.08-3.88,15.09-4.08,15.08-4L234,200.51l15.09-4.74,15.08-5.14,15.08-5.19,15.09-5.7,15.08-6.2,15.13-6.95,15.09-7.76,15.08-8.22,15.08-9,15.09-8.67L400,124.41l15.13-7.26L430.22,111l15.08-5,15.08-4.18,15.09-3.33L490.55,96l15.13-1.76,15.09-1,15.08-.76,15.08-.3,30.17-.55"/><path class="cls-9" d="M37.85,266.18l5-7.66c1.83-2.22,3.36-4.84,5.69-6.58a67.15,67.15,0,0,1,11.92-6.58L68,242.69l7.52-2.37L83.1,238l7.57-2.52L98.18,233l15.08-4.48,15.14-4.23,15.08-4.09,15.09-4.08,15.08-4.28,15.08-4.34,15.09-4.68,15.08-4.59L234,193.5,249.12,188l15.08-6,15.08-6.2,11-5c7.38-3.33,14-8.13,21.31-11.57a261.78,261.78,0,0,0,28.06-15.66l15.08-9.88,15.08-10.53,15.09-9.83L400,104.2l15.13-7.36,15.09-6.1,15.08-4.18L460.38,83l15.09-2.72,15.08-1.92L505.68,77l15.09-.75,15.08-.51,15.08-.3L581.1,75"/><path class="cls-5" d="M37.85,265.22l5-8.22a30.32,30.32,0,0,1,8.87-9.38A74.06,74.06,0,0,1,60.45,243L68,240.22l7.52-2.57,7.57-2.57,7.57-2.72,7.51-2.57L113.26,225l15.14-4.64,15.08-4.43,15.09-4.49,15.08-4.73,15.08-4.89,15.09-5.24,15.08-5.3L234,185.74l15.09-6.4,15.08-7.06,15.08-7.4,15.09-8.17,15.08-9,15.13-10.33,15.09-11.49,15.08-12,15.08-12.45,15.09-11.08L400,80.46l15.13-7.36,15.09-5.29,15.08-3.68,15.08-2.67,15.09-1.92,15.08-1.21,15.13-.85L520.77,57l15.08-.3,15.08-.1,30.17-.25"/><text class="cls-10" transform="translate(35.54 288.87)">0</text><text class="cls-10" transform="translate(94.87 288.87)">2</text><text class="cls-10" transform="translate(155.25 288.87)">4</text><text class="cls-10" transform="translate(215.64 288.87)">6</text><text class="cls-10" transform="translate(275.97 288.87)">8</text><text class="cls-10" transform="translate(334.99 288.87)">10</text><text class="cls-10" transform="translate(395.37 288.87)">12</text><text class="cls-10" transform="translate(455.71 288.87)">14</text><text class="cls-10" transform="translate(516.09 288.87)">16</text><text class="cls-10" transform="translate(576.48 288.87)">18</text><text class="cls-10" transform="translate(26.41 282.44)">0</text><text class="cls-10" transform="translate(23.73 249.18)">10</text><text class="cls-10" transform="translate(23.73 215.96)">20</text><text class="cls-10" transform="translate(23.73 182.7)">30</text><text class="cls-10" transform="translate(23.73 149.49)">40</text><text class="cls-10" transform="translate(23.73 116.27)">50</text><text class="cls-10" transform="translate(23.73 83.01)">60</text><text class="cls-10" transform="translate(23.73 49.8)">70</text><text class="cls-10" transform="translate(23.73 16.58)">80</text><path class="cls-11" d="M37.85,12.82H581.1M37.85,278.67H581.1m0,0V12.82M37.85,278.67V12.82"/><text class="cls-12" transform="translate(15.63 213.84)">体重</text><text class="cls-10" transform="translate(12.13 244.39) rotate(90)">(kg)</text><text class="cls-10" transform="translate(427.66 303.13)"><tspan xml:space="preserve">体重百分位曲线图(女)       年龄(岁)</tspan></text><rect class="cls-13" x="549.33" y="51.2" width="21.66" height="9.95"/><text class="cls-14" transform="translate(549.77 59.53)">97th</text><rect class="cls-13" x="549.33" y="69.24" width="21.66" height="9.95"/><text class="cls-14" transform="translate(549.77 77.57)">90th</text><rect class="cls-13" x="549.33" y="86.18" width="21.66" height="9.95"/><text class="cls-14" transform="translate(549.77 94.51)">75th</text><rect class="cls-13" x="549.33" y="103.56" width="21.66" height="9.95"/><text class="cls-14" transform="translate(549.77 111.89)">50th</text><rect class="cls-13" x="549.33" y="116.94" width="21.66" height="9.95"/><text class="cls-14" transform="translate(549.77 125.26)">25th</text><rect class="cls-13" x="549.33" y="128.52" width="21.66" height="9.95"/><text class="cls-14" transform="translate(549.77 136.84)">10th</text><rect class="cls-13" x="549.33" y="139.05" width="21.66" height="9.95"/><text class="cls-14" transform="translate(549.77 147.38)">3rd</text></svg>