<svg id="图层_1" data-name="图层 1" width="496" height="260" xmlns="http://www.w3.org/2000/svg" xmlns:xlink="http://www.w3.org/1999/xlink" viewBox="0 0 595.28 311.81"><defs><style>.cls-1,.cls-10,.cls-11,.cls-12,.cls-4,.cls-5,.cls-6,.cls-7,.cls-8,.cls-9{fill:none;}.cls-2{clip-path:url(#clip-path);}.cls-3{fill:#fff;}.cls-4{stroke:#fff;}.cls-4,.cls-6,.cls-7,.cls-8{stroke-linejoin:round;}.cls-4,.cls-6{stroke-width:0.5px;}.cls-5{stroke:#666;stroke-miterlimit:6;opacity:0.2;}.cls-6{stroke:#000;}.cls-7{stroke:#13b1c1;}.cls-8{stroke:#c61a45;}.cls-10,.cls-11,.cls-12,.cls-8{stroke-width:1.2px;}.cls-9{stroke:#138f40;stroke-width:1.6px;}.cls-10,.cls-11,.cls-12,.cls-9{stroke-miterlimit:10;}.cls-10{stroke:#e47a32;}.cls-10,.cls-12{stroke-dasharray:2 1;}.cls-11{stroke:#29a4a3;stroke-dasharray:5 1;}.cls-12{stroke:#198ac9;}.cls-13{font-size:11px;}.cls-13,.cls-14,.cls-15{fill:#13b1c1;font-family:MicrosoftYaHei, Microsoft YaHei;}.cls-14{writing-mode:tb;text-orientation:upright;glyph-orientation-vertical:0deg;}.cls-14,.cls-15,.cls-16{font-size:10px;}.cls-16{fill:#303131;font-family:PingFangSC-Semibold-GBpc-EUC-H, PingFang SC;}</style><clipPath id="clip-path"><rect class="cls-1" x="22.47" y="10.1" width="561.09" height="282.05"/></clipPath></defs><title>男体重百分位数-处理VI</title><g class="cls-2"><rect class="cls-3" x="22.28" y="10.08" width="561.74" height="282.13"/></g><polyline class="cls-4" points="37.82 278.52 37.82 12.79 581.2 12.79 581.2 278.52 37.82 278.52"/><path class="cls-5" d="M37.82,278.53V12.79m0,0h0M98.17,278.53V12.79m0,0h0m60.4,265.74V12.79m0,0h0M219,278.53V12.79m0,0h0m60.35,265.74V12.79m0,0h0m60.4,265.74V12.79m0,0h0m60.4,265.74V12.79m0,0h0m60.34,265.74V12.79m0,0h0m60.4,265.74V12.79m0,0h0m60.4,265.74V12.79m0,0h0M37.82,278.53H581.25m0,0h0M37.82,249H581.25m0,0h0M37.82,219.43H581.25m0,0h0M37.82,189.91H581.25m0,0h0M37.82,160.39H581.25m0,0h0M37.82,130.87H581.25m0,0h0M37.82,101.35H581.25m0,0h0M37.82,71.83H581.25m0,0h0M37.82,42.31H581.25m0,0h0M37.82,12.79H581.25m0,0h0"/><path class="cls-6" d="M37.82,12.79H581.2M37.82,278.53H581.2m0,0V12.79M37.82,278.53V12.79m0,265.74H581.2m-543.38,0V12.79m0,265.74V273m0-260.25v5.44"/><path class="cls-6" d="M37.82,278.53h5.43m538,0h-5.48"/><path class="cls-7" d="M37.82,263.74h2.72m540.71,0h-2.77M37.82,249h2.72m540.71,0h-2.77M37.82,249h2.72m540.71,0h-2.77M37.82,249h2.72m540.71,0h-2.77M37.82,249h2.72m540.71,0h-2.77M37.82,249h2.72m540.71,0h-2.77M37.82,249h2.72m540.71,0h-2.77M37.82,249h2.72m540.71,0h-2.77M37.82,249h2.72m540.71,0h-2.77M37.82,249h5.43m538,0h-5.48"/><path class="cls-7" d="M37.82,234.22h2.72m540.71,0h-2.77M37.82,219.43h2.72m540.71,0h-2.77m-540.66,0h2.72m540.71,0h-2.77m-540.66,0h2.72m540.71,0h-2.77m-540.66,0h2.72m540.71,0h-2.77m-540.66,0h2.72m540.71,0h-2.77m-540.66,0h2.72m540.71,0h-2.77m-540.66,0h2.72m540.71,0h-2.77m-540.66,0h2.72m540.71,0h-2.77m-540.66,0h5.43m538,0h-5.48"/><path class="cls-7" d="M37.82,204.7h2.72m540.71,0h-2.77M37.82,189.91h2.72m540.71,0h-2.77m-540.66,0h2.72m540.71,0h-2.77m-540.66,0h2.72m540.71,0h-2.77m-540.66,0h2.72m540.71,0h-2.77m-540.66,0h2.72m540.71,0h-2.77m-540.66,0h2.72m540.71,0h-2.77m-540.66,0h2.72m540.71,0h-2.77m-540.66,0h2.72m540.71,0h-2.77m-540.66,0h5.43m538,0h-5.48"/><path class="cls-7" d="M37.82,175.18h2.72m540.71,0h-2.77M37.82,160.39h2.72m540.71,0h-2.77m-540.66,0h2.72m540.71,0h-2.77m-540.66,0h2.72m540.71,0h-2.77m-540.66,0h2.72m540.71,0h-2.77m-540.66,0h2.72m540.71,0h-2.77m-540.66,0h2.72m540.71,0h-2.77m-540.66,0h2.72m540.71,0h-2.77m-540.66,0h2.72m540.71,0h-2.77m-540.66,0h5.43m538,0h-5.48"/><path class="cls-7" d="M37.82,145.66h2.72m540.71,0h-2.77M37.82,130.87h2.72m540.71,0h-2.77m-540.66,0h2.72m540.71,0h-2.77m-540.66,0h2.72m540.71,0h-2.77m-540.66,0h2.72m540.71,0h-2.77m-540.66,0h2.72m540.71,0h-2.77m-540.66,0h2.72m540.71,0h-2.77m-540.66,0h2.72m540.71,0h-2.77m-540.66,0h2.72m540.71,0h-2.77m-540.66,0h5.43m538,0h-5.48"/><path class="cls-7" d="M37.82,116.09h2.72m540.71,0h-2.77M37.82,101.35h2.72m540.71,0h-2.77m-540.66,0h2.72m540.71,0h-2.77m-540.66,0h2.72m540.71,0h-2.77m-540.66,0h2.72m540.71,0h-2.77m-540.66,0h2.72m540.71,0h-2.77m-540.66,0h2.72m540.71,0h-2.77m-540.66,0h2.72m540.71,0h-2.77m-540.66,0h2.72m540.71,0h-2.77m-540.66,0h5.43m538,0h-5.48"/><path class="cls-7" d="M37.82,86.57h2.72m540.71,0h-2.77M37.82,71.83h2.72m540.71,0h-2.77m-540.66,0h2.72m540.71,0h-2.77m-540.66,0h2.72m540.71,0h-2.77m-540.66,0h2.72m540.71,0h-2.77m-540.66,0h2.72m540.71,0h-2.77m-540.66,0h2.72m540.71,0h-2.77m-540.66,0h2.72m540.71,0h-2.77m-540.66,0h2.72m540.71,0h-2.77m-540.66,0h5.43m538,0h-5.48"/><path class="cls-7" d="M37.82,57.05h2.72m540.71,0h-2.77M37.82,42.31h2.72m540.71,0h-2.77m-540.66,0h2.72m540.71,0h-2.77m-540.66,0h2.72m540.71,0h-2.77m-540.66,0h2.72m540.71,0h-2.77m-540.66,0h2.72m540.71,0h-2.77m-540.66,0h2.72m540.71,0h-2.77m-540.66,0h2.72m540.71,0h-2.77m-540.66,0h2.72m540.71,0h-2.77m-540.66,0h5.43m538,0h-5.48"/><path class="cls-7" d="M37.82,27.53h2.72m540.71,0h-2.77M37.82,12.79h2.72m540.71,0h-2.77m-540.66,0h2.72m540.71,0h-2.77m-540.66,0h2.72m540.71,0h-2.77m-540.66,0h2.72m540.71,0h-2.77m-540.66,0h2.72m540.71,0h-2.77m-540.66,0h2.72m540.71,0h-2.77m-540.66,0h2.72m540.71,0h-2.77m-540.66,0h2.72m540.71,0h-2.77m-540.66,0h5.43m538,0h-5.48"/><path class="cls-7" d="M49.89,278.53v-2.77m0-263v2.72M62,278.53v-2.77m0-263v2.72M74,278.53v-2.77m0-263v2.72m12.07,263v-2.77m0-263v2.72m12.07,263v-2.77m0-263v2.72m0,263v-2.77m0-263v2.72m0,263v-2.77m0-263v2.72m0,263v-2.77m0-263v2.72m0,263v-2.77m0-263v2.72m0,263V273m0-260.25v5.44"/><path class="cls-7" d="M110.24,278.53v-2.77m0-263v2.72m12.07,263v-2.77m0-263v2.72m12.12,263v-2.77m0-263v2.72m12.07,263v-2.77m0-263v2.72m12.07,263v-2.77m0-263v2.72m0,263v-2.77m0-263v2.72m0,263v-2.77m0-263v2.72m0,263v-2.77m0-263v2.72m0,263v-2.77m0-263v2.72m0,263V273m0-260.25v5.44"/><path class="cls-7" d="M170.63,278.53v-2.77m0-263v2.72m12.07,263v-2.77m0-263v2.72m12.07,263v-2.77m0-263v2.72m12.07,263v-2.77m0-263v2.72m12.12,263v-2.77m0-263v2.72m0,263v-2.77m0-263v2.72m0,263v-2.77m0-263v2.72m0,263v-2.77m0-263v2.72m0,263v-2.77m0-263v2.72m0,263V273m0-260.25v5.44"/><path class="cls-7" d="M231,278.53v-2.77m0-263v2.72m12.07,263v-2.77m0-263v2.72m12.07,263v-2.77m0-263v2.72m12.07,263v-2.77m0-263v2.72m12.07,263v-2.77m0-263v2.72m0,263v-2.77m0-263v2.72m0,263v-2.77m0-263v2.72m0,263v-2.77m0-263v2.72m0,263v-2.77m0-263v2.72m0,263V273m0-260.25v5.44"/><path class="cls-7" d="M291.38,278.53v-2.77m0-263v2.72m12.07,263v-2.77m0-263v2.72m12.12,263v-2.77m0-263v2.72m12.07,263v-2.77m0-263v2.72m12.07,263v-2.77m0-263v2.72m0,263v-2.77m0-263v2.72m0,263v-2.77m0-263v2.72m0,263v-2.77m0-263v2.72m0,263v-2.77m0-263v2.72m0,263V273m0-260.25v5.44"/><path class="cls-7" d="M351.78,278.53v-2.77m0-263v2.72m12.07,263v-2.77m0-263v2.72m12.07,263v-2.77m0-263v2.72m12.07,263v-2.77m0-263v2.72m12.12,263v-2.77m0-263v2.72m0,263v-2.77m0-263v2.72m0,263v-2.77m0-263v2.72m0,263v-2.77m0-263v2.72m0,263v-2.77m0-263v2.72m0,263V273m0-260.25v5.44"/><path class="cls-7" d="M412.18,278.53v-2.77m0-263v2.72m12.07,263v-2.77m0-263v2.72m12.07,263v-2.77m0-263v2.72m12.06,263v-2.77m0-263v2.72m12.07,263v-2.77m0-263v2.72m0,263v-2.77m0-263v2.72m0,263v-2.77m0-263v2.72m0,263v-2.77m0-263v2.72m0,263v-2.77m0-263v2.72m0,263V273m0-260.25v5.44"/><path class="cls-7" d="M472.52,278.53v-2.77m0-263v2.72m12.07,263v-2.77m0-263v2.72m12.12,263v-2.77m0-263v2.72m12.07,263v-2.77m0-263v2.72m12.07,263v-2.77m0-263v2.72m0,263v-2.77m0-263v2.72m0,263v-2.77m0-263v2.72m0,263v-2.77m0-263v2.72m0,263v-2.77m0-263v2.72m0,263V273m0-260.25v5.44"/><path class="cls-7" d="M532.92,278.53v-2.77m0-263v2.72m12.07,263v-2.77m0-263v2.72m12.07,263v-2.77m0-263v2.72m12.07,263v-2.77m0-263v2.72m12.12,263v-2.77m0-263v2.72m0,263v-2.77m0-263v2.72m0,263v-2.77m0-263v2.72m0,263v-2.77m0-263v2.72m0,263v-2.77m0-263v2.72m0,263V273m0-260.25v5.44"/><path class="cls-7" d="M37.82,12.79H581.2M37.82,278.53H581.2m0,0V12.79M37.82,278.53V12.79"/><path class="cls-8" d="M37.82,270.73l5-5.58,5-4.33,5.08-2.41,7.54-2.21L68,254.39l7.55-1.51,7.54-1.51,7.54-1.56,7.55-1.51,15.08-2.61,15.14-2.47,15.09-2.31,15.08-2.31,15.09-2.52,15.09-2.61L203.83,231l15.08-2.11,15.14-2.16L249.14,224l15.08-2.82,15.09-2.66L294.4,216l15.08-2.51,15.14-2.72L339.71,208l15.09-3.17,15.08-3.67L385,197.06l15.09-4.43,15.13-4.88,15.09-6.13c9.5-4.12,19.17-7.6,28.72-11.55,12.28-5.07,24-11.49,36.78-15.42,13.18-4.07,26.87-6.18,40.16-9.9L551,142.54l30.17-2.86"/><polyline class="cls-9" points="37.82 268.72 42.85 261.73 47.83 256.5 52.91 253.68 60.45 250.97 67.99 248.8 75.54 246.94 83.08 245.18 90.62 243.27 98.17 241.46 113.25 238.24 128.39 235.23 143.48 232.36 158.56 229.39 173.65 226.07 188.74 222.45 203.83 218.93 218.91 215.71 234.05 212.19 249.14 207.47 264.22 202.54 279.31 197.81 294.4 193.13 309.48 188.56 324.62 183.73 339.71 178.9 354.8 173.47 369.88 167.23 384.97 160.44 400.06 153.05 415.19 145.26 430.28 136.56 445.37 128.36 460.45 120.92 475.54 114.83 490.63 109.95 505.76 106.08 520.85 103.27 535.94 101 551.03 99.34 581.2 97.23"/><polyline class="cls-10" points="37.82 270.13 42.85 264.09 47.83 259.52 52.91 257 60.45 254.64 67.99 252.78 75.54 251.12 83.08 249.56 90.62 247.9 98.17 246.34 113.25 243.52 128.39 240.91 143.48 237.59 158.56 235.88 173.65 233.16 188.74 230.3 203.83 227.53 218.91 225.17 234.05 222.65 249.14 219.33 264.22 216.01 279.31 212.85 294.4 209.78 309.48 206.71 324.62 203.44 339.71 200.12 354.8 196.35 369.88 191.93 384.97 187.05 400.06 181.77 415.19 176.03 430.28 169.15 445.37 162.1 460.45 155.06 475.54 148.78 490.63 143.35 505.76 138.82 520.85 135.4 535.94 132.58 551.03 130.52 581.2 127.86"/><polyline class="cls-11" points="37.82 269.47 42.85 262.99 47.83 258.11 52.91 255.49 60.45 252.93 67.99 250.97 75.54 249.26 83.08 247.55 90.62 245.79 98.17 244.13 113.25 241.11 128.39 238.29 143.48 235.68 158.56 232.96 173.65 230 188.74 226.78 203.83 223.46 218.91 220.94 234.05 218.03 249.14 214.1 264.22 210.13 279.31 206.26 294.4 202.54 309.48 198.82 324.62 194.89 339.71 190.92 354.8 186.39 369.88 181.16 384.97 175.43 400.06 169.15 415.19 162.51 430.28 154.81 445.37 147.27 460.45 140.03 475.54 133.84 490.63 129.16 505.76 124.39 520.85 121.27 535.94 118.65 551.03 116.79 581.2 114.33"/><polyline class="cls-11" points="37.82 267.91 42.85 260.32 47.83 254.74 52.91 251.72 60.45 248.8 67.99 246.54 75.54 244.53 83.08 242.62 90.62 240.51 98.17 238.59 113.25 235.07 128.39 231.86 143.48 228.74 158.56 225.42 173.65 221.75 188.74 217.62 203.83 213.6 218.91 209.83 234.05 205.56 249.14 199.77 264.22 193.74 279.31 187.8 294.4 181.97 309.48 176.34 324.62 170.4 339.71 164.52 354.8 157.98 369.88 150.74 384.97 142.84 400.06 134.24 415.19 125.29 430.28 115.49 445.37 106.64 460.45 98.89 475.54 92.91 490.63 88.38 505.76 84.91 520.85 82.45 535.94 80.53 551.03 79.18 581.2 77.42"/><polyline class="cls-12" points="37.82 267.11 42.85 259.06 47.83 253.08 52.91 249.86 60.45 247.29 67.99 244.33 75.54 242.17 83.08 240.1 90.62 237.89 98.17 235.83 113.25 232.06 128.39 228.54 143.48 225.12 158.56 221.55 173.65 217.47 188.74 212.85 203.83 208.22 218.91 203.84 234.05 198.77 249.14 191.83 264.22 184.48 279.31 177.19 294.4 170 309.48 163.11 324.62 156.02 339.71 149.03 354.8 141.49 369.88 133.24 384.97 124.34 400.06 114.63 415.19 104.57 430.28 93.76 445.37 84.21 460.45 76.16 475.54 70.17 490.63 65.9 505.76 62.88 520.85 60.82 535.94 59.26 551.03 58.16 581.2 56.8"/><polyline class="cls-8" points="37.82 266.36 42.85 257.7 47.83 251.32 52.91 247.9 60.45 244.58 67.99 241.97 75.54 239.65 83.08 237.44 90.62 235.07 98.17 232.86 113.25 228.79 128.39 225.02 143.48 221.29 158.56 217.37 173.65 212.85 188.74 207.62 203.83 202.29 218.91 197.16 234.05 191.17 249.14 182.77 264.22 173.82 279.31 164.87 294.4 156.02 309.48 147.57 324.62 139.02 339.71 130.57 354.8 122.22 369.88 112.97 384.97 103.11 400.06 92.35 415.19 81.24 430.28 69.37 445.37 59.06 460.45 50.56 475.54 44.53 490.63 40.5 505.76 37.89 520.85 36.23 535.94 35.07 551.03 34.32 581.2 33.41"/><text class="cls-13" transform="translate(36.51 291.71)">0</text><text class="cls-13" transform="translate(96.55 291.71)">2</text><text class="cls-13" transform="translate(156.58 291.71)">4</text><text class="cls-13" transform="translate(216.62 291.71)">6</text><text class="cls-13" transform="translate(276.65 291.71)">8</text><text class="cls-13" transform="translate(333.46 291.71)">10</text><text class="cls-13" transform="translate(393.5 291.71)">12</text><text class="cls-13" transform="translate(453.53 291.71)">14</text><text class="cls-13" transform="translate(513.57 291.71)">16</text><text class="cls-13" transform="translate(573.6 291.71)">18</text><text class="cls-13" transform="translate(27.18 283.28)">0</text><text class="cls-13" transform="translate(20.73 253.72)">10</text><text class="cls-13" transform="translate(20.73 224.2)">20</text><text class="cls-13" transform="translate(20.73 194.68)">30</text><text class="cls-13" transform="translate(20.73 165.16)">40</text><text class="cls-13" transform="translate(20.73 135.64)">50</text><text class="cls-13" transform="translate(20.73 106.11)">60</text><text class="cls-13" transform="translate(20.73 76.6)">70</text><text class="cls-13" transform="translate(20.73 47.08)">80</text><text class="cls-13" transform="translate(20.73 17.55)">90</text><text class="cls-14" transform="translate(15.63 208.84)">体重</text><text class="cls-15" transform="translate(12.13 238.39) rotate(90)">(kg)</text><text class="cls-15" transform="translate(427.66 303.13)"><tspan xml:space="preserve">体重百分位曲线图(男)       年龄(岁)</tspan></text><rect class="cls-3" x="550.68" y="28.33" width="21.66" height="9.95"/><text class="cls-16" transform="translate(551.12 36.66)">97th</text><rect class="cls-3" x="550.68" y="52.38" width="21.66" height="9.95"/><text class="cls-16" transform="translate(551.12 60.71)">90th</text><rect class="cls-3" x="550.68" y="73.32" width="21.66" height="9.95"/><text class="cls-16" transform="translate(551.12 81.64)">75th</text><rect class="cls-3" x="550.68" y="93.7" width="21.66" height="9.95"/><text class="cls-16" transform="translate(551.12 102.02)">50th</text><rect class="cls-3" x="550.68" y="111.07" width="21.66" height="9.95"/><text class="cls-16" transform="translate(551.12 119.4)">25th</text><rect class="cls-3" x="550.68" y="124.65" width="21.66" height="9.95"/><text class="cls-16" transform="translate(551.12 132.98)">10th</text><rect class="cls-3" x="550.68" y="137.18" width="21.66" height="9.95"/><text class="cls-16" transform="translate(551.12 145.51)">3rd</text></svg>