<svg id="图层_1" data-name="图层 1" width="496" height="260" xmlns="http://www.w3.org/2000/svg" xmlns:xlink="http://www.w3.org/1999/xlink" viewBox="0 0 595.28 311.81"><defs><style>.cls-1,.cls-10,.cls-11,.cls-12,.cls-13,.cls-14,.cls-5,.cls-6,.cls-7,.cls-8{fill:none;}.cls-1,.cls-8{stroke:#13b1c1;}.cls-1,.cls-11,.cls-12,.cls-13,.cls-14{stroke-miterlimit:10;}.cls-2{writing-mode:tb;text-orientation:upright;glyph-orientation-vertical:0deg;}.cls-2,.cls-3{font-size:10px;fill:#13b1c1;font-family:MicrosoftYaHei, Microsoft YaHei;}.cls-4{fill:#fff;}.cls-5{stroke:#fff;}.cls-10,.cls-5,.cls-7,.cls-8{stroke-linejoin:round;}.cls-5,.cls-7{stroke-width:0.5px;}.cls-6{stroke:#666;stroke-miterlimit:6;opacity:0.2;}.cls-7{stroke:#1b2c77;}.cls-9{clip-path:url(#clip-path);}.cls-10{stroke:#c61a45;}.cls-10,.cls-11,.cls-12,.cls-14{stroke-width:1.2px;}.cls-11{stroke:#e47a32;}.cls-11,.cls-14{stroke-dasharray:2 1;}.cls-12{stroke:#29a4a3;stroke-dasharray:5 1;}.cls-13{stroke:#138f40;stroke-width:1.6px;}.cls-14{stroke:#198ac9;}.cls-15{font-size:9px;fill:#303131;font-family:PingFangSC-Semibold-GBpc-EUC-H, PingFang SC;}</style><clipPath id="clip-path"><rect class="cls-1" x="37.82" y="12.95" width="543.23" height="265.73"/></clipPath></defs><title>TW3-C Carpal百分位曲线图-处理VI</title><text class="cls-2" transform="translate(9.63 230.84)">成熟度得分</text><text class="cls-3" transform="translate(380.65 303.13)"><tspan xml:space="preserve">TW3-C Carpal百分位曲线图(男)       年龄(岁)</tspan></text><rect class="cls-4" x="37.82" y="12.95" width="543.13" height="265.68"/><polyline class="cls-5" points="37.82 278.63 37.82 12.95 580.95 12.95 580.95 278.63 37.82 278.63"/><path class="cls-6" d="M76.59,278.63V13m0,0h0m38.78,265.68V13m0,0h0M154.2,278.63V13m0,0h0M193,278.63V13m0,0h0M231.8,278.63V13m0,0h0m38.78,265.68V13m0,0h0m38.83,265.68V13m0,0h0m38.77,265.68V13m0,0h0M387,278.63V13m0,0h0m38.83,265.68V13m0,0h0m38.78,265.68V13m0,0h0m38.82,265.68V13m0,0h0m38.78,265.68V13m0,0h0M581,278.63V13m0,0h0M37.82,263H581m0,0h0M37.82,231.72H581m0,0h0M37.82,200.46H581m0,0h0M37.82,169.2H581m0,0h0M37.82,137.94H581m0,0h0M37.82,106.68H581m0,0h0M37.82,75.42H581m0,0h0M37.82,44.16H581m0,0h0M37.82,13H581m0,0h0"/><text class="cls-3" transform="translate(73.59 288.78)">2</text><text class="cls-3" transform="translate(34.77 288.78)">1</text><text class="cls-3" transform="translate(112.41 288.78)">3</text><text class="cls-3" transform="translate(151.22 288.78)">4</text><text class="cls-3" transform="translate(190.04 288.78)">5</text><text class="cls-3" transform="translate(228.86 288.78)">6</text><text class="cls-3" transform="translate(267.68 288.78)">7</text><text class="cls-3" transform="translate(306.5 288.78)">8</text><text class="cls-3" transform="translate(345.32 288.78)">9</text><text class="cls-3" transform="translate(381.2 288.78)">10</text><text class="cls-3" transform="translate(420.02 288.78)">11</text><text class="cls-3" transform="translate(458.84 288.78)">12</text><text class="cls-3" transform="translate(497.66 288.78)">13</text><text class="cls-3" transform="translate(536.48 288.78)">14</text><path class="cls-7" d="M581,278.63v-5.35M581,13v5.3"/><text class="cls-3" transform="translate(575.3 288.78)">15</text><text class="cls-3" transform="translate(18.06 267.73)">200</text><text class="cls-3" transform="translate(18.06 236.47)">300</text><text class="cls-3" transform="translate(18.06 205.21)">400</text><text class="cls-3" transform="translate(18.06 173.95)">500</text><text class="cls-3" transform="translate(18.06 142.69)">600</text><text class="cls-3" transform="translate(18.06 111.43)">700</text><text class="cls-3" transform="translate(18.06 80.17)">800</text><path class="cls-8" d="M37.82,13H581M37.82,278.63H581m0,0V13M37.82,278.63V13m0,265.68H581m-543.13,0V13M76.59,278.63v-5.35M76.59,13v5.3"/><path class="cls-8" d="M115.37,278.63v-5.35m0-260.33v5.3"/><path class="cls-8" d="M154.2,278.63v-5.35M154.2,13v5.3"/><path class="cls-8" d="M193,278.63v-5.35M193,13v5.3"/><path class="cls-8" d="M231.8,278.63v-5.35M231.8,13v5.3"/><path class="cls-8" d="M270.58,278.63v-5.35m0-260.33v5.3"/><path class="cls-8" d="M309.41,278.63v-5.35m0-260.33v5.3"/><path class="cls-8" d="M348.18,278.63v-5.35m0-260.33v5.3"/><path class="cls-8" d="M387,278.63v-5.35M387,13v5.3"/><path class="cls-8" d="M425.79,278.63v-5.35m0-260.33v5.3"/><path class="cls-8" d="M464.57,278.63v-5.35m0-260.33v5.3"/><path class="cls-8" d="M503.39,278.63v-5.35m0-260.33v5.3"/><path class="cls-8" d="M542.17,278.63v-5.35m0-260.33v5.3"/><path class="cls-8" d="M37.82,263h5.39M581,263h-5.45"/><path class="cls-8" d="M37.82,231.72h5.39m537.79,0h-5.45"/><path class="cls-8" d="M37.82,200.46h5.39m537.79,0h-5.45"/><path class="cls-8" d="M37.82,169.2h5.39m537.79,0h-5.45"/><path class="cls-8" d="M37.82,137.94h5.39m537.79,0h-5.45"/><path class="cls-8" d="M37.82,106.68h5.39m537.79,0h-5.45"/><path class="cls-8" d="M37.82,75.42h5.39m537.79,0h-5.45"/><path class="cls-8" d="M37.82,44.16h5.39m537.79,0h-5.45"/><text class="cls-3" transform="translate(18.06 48.91)">900</text><path class="cls-7" d="M37.82,13h5.39M581,13h-5.45"/><text class="cls-3" transform="translate(12.2 17.7)">1000</text><path class="cls-7" d="M37.82,13H581M37.82,278.63H581m0,0V13M37.82,278.63V13"/><g class="cls-9"><path class="cls-10" d="M193,266.73l19.38-2.05c5.37-.57,10.72-1.37,16-2.3,5-.87,9.53-2.7,14.24-4.58a297.42,297.42,0,0,0,27.95-13l19.39-12,19.39-14,19.44-14.45,19.38-13.86,19.39-13.75,19.39-14,19.44-13.16,19.39-13.35,19.39-15.41,19.39-16.3L483.94,86c18.86-18.1,37.55-35.73,58.23-51.73a313.8,313.8,0,0,1,38.77-21"/><polyline class="cls-11" points="154.2 267.03 173.59 265.73 192.97 263.38 212.36 259.43 231.8 253.22 251.19 244.67 270.58 232.82 289.97 219.56 309.36 203.96 328.8 189.45 348.19 175.4 367.57 161.69 386.96 148.59 406.4 136.09 425.79 120.68 445.18 105.28 464.57 88.32 483.95 69.52 503.39 51.96 522.78 36.01 542.17 23.75 561.56 13.15 562.42 12.95"/><path class="cls-12" d="M134.81,266.63c8.37-.91,16.8-1.5,25-3.42L173.59,260l19.39-3.9,19.38-7,19.44-9.2,19.39-9.4,19.39-13.81L290,202l19.39-14.71L328.8,173l19.38-14.21,19.39-14.3L387,130l19.44-14.41,19.39-14.85,19.39-16.31,19.39-17.1L484,50.31l19.44-15.6L522.78,22.6l19.39-9.45,2.29-.2"/><path class="cls-13" d="M115.37,265a200.13,200.13,0,0,0,35.46-5c7.72-1.93,15.21-4.69,22.76-7.2l19.39-7.9,19.38-10.1,19.44-12,19.39-13.4,19.39-14.3L290,180.2,309.36,165l19.44-15.56,19.38-15.8,19.39-16L387,101.58,406.4,85.67l19.39-15.35,19.39-14.11,19.39-13.85L484,28.5C494.09,21.26,507.59,16,519.6,13.06"/><polyline class="cls-12" points="95.98 265.78 115.37 262.58 134.81 258.17 154.2 250.42 173.59 240.37 192.97 227.51 212.36 213.96 231.8 200.36 251.19 186.8 270.58 172.9 289.97 158.24 309.36 142.29 328.8 124.63 348.19 106.43 367.57 89.32 386.96 73.32 406.4 58.21 425.79 44.71 445.18 33.61 464.57 24.3 483.95 16.3 494.54 12.95"/><polyline class="cls-14" points="76.59 267.38 95.98 262.68 115.37 257.27 134.81 249.52 154.2 239.67 173.59 225.96 192.97 210.66 212.36 196.25 231.8 182.6 251.19 169.35 270.58 154.39 289.97 139.84 309.36 123.38 328.8 105.38 348.19 85.72 367.57 69.17 386.96 55.06 406.4 42.06 425.79 30.75 445.18 21.75 464.57 13.25 468.28 12.95"/><path class="cls-10" d="M37.82,269.23c9.73-1.48,19.6-2.08,29.35-3.57,3.06-.47,6.12-1,9.14-1.66,13.69-3.11,26.34-9.24,39.06-15a139,139,0,0,0,25.35-14.61l13.48-9.95L173.59,209,193,195.06l19.38-14,19.44-15.3L251.19,152l19.39-15.5L290,121.83l19.38-16.7c19.39-16.7,38.34-33.93,58.22-50l19.38-14c12-8.67,25.82-14.14,38.84-21L441.56,13"/></g><rect class="cls-1" x="37.82" y="12.95" width="543.23" height="265.73"/><rect class="cls-4" x="408.96" y="16.28" width="21.66" height="9.95"/><text class="cls-15" transform="translate(410.4 24.6)">97th</text><rect class="cls-4" x="436.59" y="16.28" width="21.66" height="9.95"/><text class="cls-15" transform="translate(438.03 24.6)">90th</text><rect class="cls-4" x="462.7" y="16.28" width="21.66" height="9.95"/><text class="cls-15" transform="translate(464.13 24.6)">75th</text><rect class="cls-4" x="487.2" y="16.28" width="21.66" height="9.95"/><text class="cls-15" transform="translate(488.63 24.6)">50th</text><rect class="cls-4" x="514.3" y="16.28" width="21.66" height="9.95"/><text class="cls-15" transform="translate(515.74 24.6)">25th</text><rect class="cls-4" x="535.35" y="16.28" width="21.66" height="9.95"/><text class="cls-15" transform="translate(536.78 24.6)">10th</text><rect class="cls-4" x="557.58" y="16.28" width="21.66" height="9.95"/><text class="cls-15" transform="translate(559.01 24.6)">3rd</text></svg>