<svg id="图层_1" data-name="图层 1" width="496" height="260" xmlns="http://www.w3.org/2000/svg" viewBox="0 0 595.28 311.81"><defs><style>.cls-1{fill:#fff;}.cls-10,.cls-12,.cls-2,.cls-3,.cls-4,.cls-6,.cls-7,.cls-8,.cls-9{fill:none;}.cls-2{stroke:#fff;}.cls-2,.cls-4,.cls-6,.cls-7{stroke-linejoin:round;}.cls-2,.cls-4{stroke-width:0.5px;}.cls-3{stroke:#666;stroke-miterlimit:6;opacity:0.2;}.cls-4{stroke:#983a91;}.cls-11,.cls-5{font-size:10px;fill:#13b1c1;font-family:MicrosoftYaHei, Microsoft YaHei;}.cls-6{stroke:#13b1c1;}.cls-7{stroke:#c61a45;}.cls-10,.cls-7,.cls-8,.cls-9{stroke-width:1.2px;}.cls-8{stroke:#e47a32;}.cls-10,.cls-12,.cls-8,.cls-9{stroke-miterlimit:10;}.cls-10,.cls-8{stroke-dasharray:2 1;}.cls-9{stroke:#29a4a3;stroke-dasharray:5 1;}.cls-10{stroke:#198ac9;}.cls-11{writing-mode:tb;text-orientation:upright;glyph-orientation-vertical:0deg;}.cls-12{stroke:#138f40;stroke-width:1.6px;}.cls-13{font-size:9px;fill:#303131;font-family:PingFangSC-Semibold-GBpc-EUC-H, PingFang SC;}</style></defs><title>TW3-C RUS与Carpal骨龄差值-处理VI</title><rect class="cls-1" x="37.81" y="12.87" width="543.36" height="265.89"/><polyline class="cls-2" points="37.81 278.76 37.81 12.87 581.16 12.87 581.16 278.76 37.81 278.76"/><path class="cls-3" d="M37.81,278.76V12.87m0,0h0M87.17,278.76V12.87m0,0h0m49.42,265.89V12.87m0,0h0M186,278.76V12.87m0,0h0m49.41,265.89V12.87m0,0h0m49.42,265.89V12.87m0,0h0m49.36,265.89V12.87m0,0h0m49.42,265.89V12.87m0,0h0M433,278.76V12.87m0,0h0m49.37,265.89V12.87m0,0h0m49.41,265.89V12.87m0,0h0m0,265.89V12.87m0,0h0m49.41,265.89V12.87m0,0h0M37.81,278.76H581.16m0,0h0m-543.35-38H581.16m0,0h0m-543.35-38H581.16m0,0h0m-543.35-38H581.16m0,0h0m-543.35-38H581.16m0,0h0m-543.35-38H581.16m0,0h0m-543.35-38H581.16m0,0h0m-543.35-38H581.16m0,0h0"/><path class="cls-4" d="M37.81,12.87H581.16M37.81,278.76H581.16m0,0V12.87M37.81,278.76V12.87m0,265.89H581.16m-543.35,0V12.87m0,265.89V273.3m0-260.43v5.4"/><text class="cls-5" transform="translate(526.07 288.97)">11</text><path class="cls-4" d="M531.75,278.76V276m0-263.16v2.67m0,263.22V276m0-263.16v2.67m0,263.22V276m0-263.16v2.67m0,263.22V276m0-263.16v2.67m0,263.22V276m0-263.16v2.67m0,263.22V276m0-263.16v2.67m0,263.22V276m0-263.16v2.67m0,263.22V276m0-263.16v2.67m0,263.22V276m0-263.16v2.67m0,263.22V273.3m0-260.43v5.4"/><path class="cls-4" d="M37.81,278.76H43.2m538,0h-5.44"/><path class="cls-6" d="M62.46,278.76V276m0-263.16v2.67M87.17,278.76V276m0-263.16v2.67m0,263.22V276m0-263.16v2.67m0,263.22V276m0-263.16v2.67m0,263.22V276m0-263.16v2.67m0,263.22V276m0-263.16v2.67m0,263.22V276m0-263.16v2.67m0,263.22V276m0-263.16v2.67m0,263.22V276m0-263.16v2.67m0,263.22V273.3m0-260.43v5.4"/><path class="cls-6" d="M111.88,278.76V276m0-263.16v2.67m24.71,263.22V276m0-263.16v2.67m0,263.22V276m0-263.16v2.67m0,263.22V276m0-263.16v2.67m0,263.22V276m0-263.16v2.67m0,263.22V276m0-263.16v2.67m0,263.22V276m0-263.16v2.67m0,263.22V276m0-263.16v2.67m0,263.22V276m0-263.16v2.67m0,263.22V273.3m0-260.43v5.4"/><path class="cls-6" d="M161.29,278.76V276m0-263.16v2.67M186,278.76V276m0-263.16v2.67m0,263.22V276m0-263.16v2.67m0,263.22V276m0-263.16v2.67m0,263.22V276m0-263.16v2.67m0,263.22V276m0-263.16v2.67m0,263.22V276m0-263.16v2.67m0,263.22V276m0-263.16v2.67m0,263.22V276m0-263.16v2.67m0,263.22V273.3m0-260.43v5.4"/><path class="cls-6" d="M210.66,278.76V276m0-263.16v2.67m24.7,263.22V276m0-263.16v2.67m0,263.22V276m0-263.16v2.67m0,263.22V276m0-263.16v2.67m0,263.22V276m0-263.16v2.67m0,263.22V276m0-263.16v2.67m0,263.22V276m0-263.16v2.67m0,263.22V276m0-263.16v2.67m0,263.22V276m0-263.16v2.67m0,263.22V273.3m0-260.43v5.4"/><path class="cls-6" d="M260.07,278.76V276m0-263.16v2.67m24.71,263.22V276m0-263.16v2.67m0,263.22V276m0-263.16v2.67m0,263.22V276m0-263.16v2.67m0,263.22V276m0-263.16v2.67m0,263.22V276m0-263.16v2.67m0,263.22V276m0-263.16v2.67m0,263.22V276m0-263.16v2.67m0,263.22V276m0-263.16v2.67m0,263.22V273.3m0-260.43v5.4"/><path class="cls-6" d="M309.49,278.76V276m0-263.16v2.67m24.65,263.22V276m0-263.16v2.67m0,263.22V276m0-263.16v2.67m0,263.22V276m0-263.16v2.67m0,263.22V276m0-263.16v2.67m0,263.22V276m0-263.16v2.67m0,263.22V276m0-263.16v2.67m0,263.22V276m0-263.16v2.67m0,263.22V276m0-263.16v2.67m0,263.22V273.3m0-260.43v5.4"/><path class="cls-6" d="M358.85,278.76V276m0-263.16v2.67m24.71,263.22V276m0-263.16v2.67m0,263.22V276m0-263.16v2.67m0,263.22V276m0-263.16v2.67m0,263.22V276m0-263.16v2.67m0,263.22V276m0-263.16v2.67m0,263.22V276m0-263.16v2.67m0,263.22V276m0-263.16v2.67m0,263.22V276m0-263.16v2.67m0,263.22V273.3m0-260.43v5.4"/><path class="cls-6" d="M408.26,278.76V276m0-263.16v2.67M433,278.76V276m0-263.16v2.67m0,263.22V276m0-263.16v2.67m0,263.22V276m0-263.16v2.67m0,263.22V276m0-263.16v2.67m0,263.22V276m0-263.16v2.67m0,263.22V276m0-263.16v2.67m0,263.22V276m0-263.16v2.67m0,263.22V276m0-263.16v2.67m0,263.22V273.3m0-260.43v5.4"/><path class="cls-6" d="M457.63,278.76V276m0-263.16v2.67m24.71,263.22V276m0-263.16v2.67m0,263.22V276m0-263.16v2.67m0,263.22V276m0-263.16v2.67m0,263.22V276m0-263.16v2.67m0,263.22V276m0-263.16v2.67m0,263.22V276m0-263.16v2.67m0,263.22V276m0-263.16v2.67m0,263.22V276m0-263.16v2.67m0,263.22V273.3m0-260.43v5.4"/><path class="cls-6" d="M507,278.76V276m0-263.16v2.67m24.71,263.22V276m0-263.16v2.67m0,263.22V276m0-263.16v2.67m0,263.22V276m0-263.16v2.67m0,263.22V276m0-263.16v2.67m0,263.22V276m0-263.16v2.67m0,263.22V276m0-263.16v2.67m0,263.22V276m0-263.16v2.67m0,263.22V276m0-263.16v2.67m0,263.22V273.3m0-260.43v5.4"/><path class="cls-6" d="M556.46,278.76V276m0-263.16v2.67m24.7,263.22V276m0-263.16v2.67m0,263.22V276m0-263.16v2.67m0,263.22V276m0-263.16v2.67m0,263.22V276m0-263.16v2.67m0,263.22V276m0-263.16v2.67m0,263.22V276m0-263.16v2.67m0,263.22V276m0-263.16v2.67m0,263.22V276m0-263.16v2.67m0,263.22V273.3m0-260.43v5.4"/><path class="cls-6" d="M37.81,259.72h2.67m540.68,0h-2.72m-540.63-19h2.67m540.68,0h-2.72m-540.63,0h2.67m540.68,0h-2.72m-540.63,0h2.67m540.68,0h-2.72m-540.63,0h2.67m540.68,0h-2.72m-540.63,0h2.67m540.68,0h-2.72m-540.63,0h2.67m540.68,0h-2.72m-540.63,0h2.67m540.68,0h-2.72m-540.63,0h2.67m540.68,0h-2.72m-540.63,0H43.2m538,0h-5.44"/><path class="cls-6" d="M37.81,221.75h2.67m540.68,0h-2.72m-540.63-19h2.67m540.68,0h-2.72m-540.63,0h2.67m540.68,0h-2.72m-540.63,0h2.67m540.68,0h-2.72m-540.63,0h2.67m540.68,0h-2.72m-540.63,0h2.67m540.68,0h-2.72m-540.63,0h2.67m540.68,0h-2.72m-540.63,0h2.67m540.68,0h-2.72m-540.63,0h2.67m540.68,0h-2.72m-540.63,0H43.2m538,0h-5.44"/><path class="cls-6" d="M37.81,183.78h2.67m540.68,0h-2.72m-540.63-19h2.67m540.68,0h-2.72m-540.63,0h2.67m540.68,0h-2.72m-540.63,0h2.67m540.68,0h-2.72m-540.63,0h2.67m540.68,0h-2.72m-540.63,0h2.67m540.68,0h-2.72m-540.63,0h2.67m540.68,0h-2.72m-540.63,0h2.67m540.68,0h-2.72m-540.63,0h2.67m540.68,0h-2.72m-540.63,0H43.2m538,0h-5.44"/><path class="cls-6" d="M37.81,145.81h2.67m540.68,0h-2.72m-540.63-19h2.67m540.68,0h-2.72m-540.63,0h2.67m540.68,0h-2.72m-540.63,0h2.67m540.68,0h-2.72m-540.63,0h2.67m540.68,0h-2.72m-540.63,0h2.67m540.68,0h-2.72m-540.63,0h2.67m540.68,0h-2.72m-540.63,0h2.67m540.68,0h-2.72m-540.63,0h2.67m540.68,0h-2.72m-540.63,0H43.2m538,0h-5.44"/><path class="cls-6" d="M37.81,107.79h2.67m540.68,0h-2.72m-540.63-19h2.67m540.68,0h-2.72m-540.63,0h2.67m540.68,0h-2.72m-540.63,0h2.67m540.68,0h-2.72m-540.63,0h2.67m540.68,0h-2.72m-540.63,0h2.67m540.68,0h-2.72m-540.63,0h2.67m540.68,0h-2.72m-540.63,0h2.67m540.68,0h-2.72m-540.63,0h2.67m540.68,0h-2.72m-540.63,0H43.2m538,0h-5.44"/><path class="cls-6" d="M37.81,69.82h2.67m540.68,0h-2.72m-540.63-19h2.67m540.68,0h-2.72m-540.63,0h2.67m540.68,0h-2.72m-540.63,0h2.67m540.68,0h-2.72m-540.63,0h2.67m540.68,0h-2.72m-540.63,0h2.67m540.68,0h-2.72m-540.63,0h2.67m540.68,0h-2.72m-540.63,0h2.67m540.68,0h-2.72m-540.63,0h2.67m540.68,0h-2.72m-540.63,0H43.2m538,0h-5.44"/><path class="cls-6" d="M37.81,31.85h2.67m540.68,0h-2.72m-540.63-19h2.67m540.68,0h-2.72m-540.63,0h2.67m540.68,0h-2.72m-540.63,0h2.67m540.68,0h-2.72m-540.63,0h2.67m540.68,0h-2.72m-540.63,0h2.67m540.68,0h-2.72m-540.63,0h2.67m540.68,0h-2.72m-540.63,0h2.67m540.68,0h-2.72m-540.63,0h2.67m540.68,0h-2.72m-540.63,0H43.2m538,0h-5.44"/><path class="cls-6" d="M37.81,12.87H581.16M37.81,278.76H581.16m0,0V12.87M37.81,278.76V12.87"/><path class="cls-7" d="M62.46,243.72l17.61,7.7c15.63,6.83,33.45,9.08,50.34,10.12,27.12,1.66,53.75-1.61,80.79-2.6q41.48-1.53,83-.5c5.13.12,10.18,0,15.3,0l24.65-.81,24.71-2.17,24.71-3.74,24.7-5.2L433,240.59l24.66-5.76,24.71-4.39,24.7-2.53,24.71-.65,24.71.8"/><polyline class="cls-8" points="62.46 214.38 87.17 221.7 111.88 225.69 136.59 227.41 161.29 227.56 185.95 226.4 210.66 225.39 235.36 224.78 260.07 224.68 284.78 224.68 309.49 224.53 334.14 223.92 358.85 222.51 383.56 220.14 408.26 216.9 432.97 213.17 457.63 209.53 482.33 206.65 507.04 204.94 531.75 204.33 556.46 204.69"/><polyline class="cls-9" points="62.46 188.28 87.17 192.01 111.88 194.13 136.59 195.14 161.29 195.24 185.95 194.64 210.66 194.03 235.36 193.63 260.07 193.38 284.78 193.27 309.49 193.17 334.14 192.82 358.85 192.16 383.56 191.15 408.26 189.64 432.97 187.92 457.63 186.16 482.33 184.69 507.04 183.68 531.75 183.18 556.46 183.07"/><polyline class="cls-9" points="62.46 143.59 87.17 139.9 111.88 137.73 136.59 136.57 161.29 136.12 185.95 136.27 210.66 136.37 235.36 136.42 260.07 136.32 284.78 136.27 309.49 136.42 334.14 136.97 358.85 137.88 383.56 139.25 408.26 140.91 432.97 142.68 457.63 144.15 482.33 145.05 507.04 145.31 531.75 144.9 556.46 144.09"/><polyline class="cls-10" points="62.46 119.2 87.17 112.23 111.88 108.3 136.59 106.33 161.29 105.67 185.95 106.13 210.66 106.58 235.36 106.78 260.07 106.68 284.78 106.68 309.49 107.08 334.14 108.14 358.85 110.01 383.56 112.69 408.26 116.12 432.97 119.76 457.63 122.94 482.33 125.11 507.04 126.07 531.75 125.87 556.46 124.76"/><path class="cls-7" d="M62.46,93.2l20.68-8.33c17-6.82,35.48-7.72,53.45-9.6l24.7-.8,24.66.8,24.71.66,24.7.35,24.71-.1,24.71,0,24.71.66,24.65,1.67,24.71,2.87,24.71,4.19,24.7,5.31L433,96.53l24.66,5c24.52,5,49.22,5.15,74.12,5.2l24.71-1.31"/><line class="cls-6" x1="37.81" y1="164.8" x2="581.16" y2="164.8"/><text class="cls-5" transform="translate(35.5 288.97)">1</text><text class="cls-5" transform="translate(83.86 288.97)">2</text><text class="cls-5" transform="translate(134.27 288.97)">3</text><text class="cls-5" transform="translate(182.64 288.97)">4</text><text class="cls-5" transform="translate(233.05 288.97)">5</text><text class="cls-5" transform="translate(282.47 288.97)">6</text><text class="cls-5" transform="translate(331.83 288.97)">7</text><text class="cls-5" transform="translate(381.24 288.97)">8</text><text class="cls-5" transform="translate(430.66 288.97)">9</text><text class="cls-5" transform="translate(478.66 288.97)">10</text><text class="cls-5" transform="translate(575.49 288.97)">12</text><text class="cls-5" transform="translate(22.55 282.52)">−3</text><text class="cls-5" transform="translate(22.55 244.51)">−2</text><text class="cls-5" transform="translate(22.55 206.53)">−1</text><text class="cls-5" transform="translate(29.96 168.56)">0</text><text class="cls-5" transform="translate(29.96 130.54)">1</text><text class="cls-5" transform="translate(29.96 92.58)">2</text><text class="cls-5" transform="translate(29.96 54.6)">3</text><text class="cls-5" transform="translate(29.96 16.64)">4</text><text class="cls-5" transform="translate(370.65 303.13)"><tspan xml:space="preserve">TW3-C RUS与Carpal骨龄差值(女)       年龄(岁)</tspan></text><text class="cls-11" transform="translate(9.63 215.06)">骨龄差值-岁</text><polyline class="cls-12" points="62.46 165.71 87.17 165.66 111.88 165.6 136.59 165.5 161.29 165.4 185.95 165.2 210.66 165 235.36 164.8 260.07 164.59 284.78 164.49 309.49 164.49 334.14 164.54 358.85 164.69 383.56 164.8 408.26 164.95 432.97 164.95 457.63 164.85 482.33 164.54 507.04 164.19 531.75 163.74 556.46 163.23"/><rect class="cls-1" x="533.14" y="101" width="21.66" height="9.95"/><text class="cls-13" transform="translate(534.57 109.33)">3SD</text><rect class="cls-1" x="532.77" y="119.88" width="21.66" height="9.95"/><text class="cls-13" transform="translate(534.21 128.21)">2SD</text><rect class="cls-1" x="533.14" y="139.57" width="20.32" height="9.95"/><text class="cls-13" transform="translate(534.57 147.9)">1SD</text><rect class="cls-1" x="532.41" y="158.07" width="21.66" height="9.95"/><text class="cls-13" transform="translate(533.84 166.4)">0SD</text><rect class="cls-1" x="528.01" y="178.02" width="25.16" height="9.95"/><text class="cls-13" transform="translate(529.44 186.35)">-1SD</text><rect class="cls-1" x="528.54" y="199.49" width="25.49" height="9.95"/><text class="cls-13" transform="translate(529.01 207.12)">-2SD</text><rect class="cls-1" x="527.98" y="222.44" width="24.95" height="11.1"/><text class="cls-13" transform="translate(529.29 230.66) scale(0.94 1)">-3SD</text></svg>