<svg id="图层_1" data-name="图层 1" width="496" height="260" xmlns="http://www.w3.org/2000/svg" viewBox="0 0 595.28 311.81"><defs><style>.cls-1,.cls-16{fill:#fff;}.cls-1,.cls-6,.cls-7{stroke:#13b1c1;}.cls-1,.cls-10,.cls-11,.cls-12,.cls-13{stroke-miterlimit:10;}.cls-10,.cls-11,.cls-12,.cls-13,.cls-2,.cls-4,.cls-5,.cls-6,.cls-7,.cls-8,.cls-9{fill:none;}.cls-2{stroke:#fff;}.cls-2,.cls-5,.cls-6,.cls-7,.cls-8,.cls-9{stroke-linejoin:round;}.cls-2,.cls-5,.cls-7,.cls-8{stroke-width:0.5px;}.cls-3{opacity:0.2;}.cls-4{stroke:#666;stroke-miterlimit:6;opacity:0.6;}.cls-5{stroke:#902c8c;}.cls-8{stroke:#8f278a;}.cls-9{stroke:#c61a45;}.cls-10,.cls-11,.cls-13,.cls-9{stroke-width:1.2px;}.cls-10{stroke:#e47a32;}.cls-10,.cls-13{stroke-dasharray:2 1;}.cls-11{stroke:#29a4a3;stroke-dasharray:5 1;}.cls-12{stroke:#138f40;stroke-width:1.6px;}.cls-13{stroke:#198ac9;}.cls-14,.cls-15{font-size:10px;fill:#13b1c1;font-family:MicrosoftYaHei, Microsoft YaHei;}.cls-15{writing-mode:tb;text-orientation:upright;glyph-orientation-vertical:0deg;}.cls-17{font-size:8.48px;fill:#303131;font-family:PingFangSC-Semibold-GBpc-EUC-H, PingFang SC;}</style></defs><title>TW3-C RUS百分位曲线图女-处理VI</title><rect class="cls-1" x="37.82" y="12.93" width="543.29" height="265.73"/><polyline class="cls-2" points="37.82 278.66 37.82 12.93 581.1 12.93 581.1 278.66 37.82 278.66"/><g class="cls-3"><path class="cls-4" d="M37.82,278.66V12.93m0,0h0m35,265.73V12.93m0,0h0m35.06,265.73V12.93m0,0h0m35.05,265.73V12.93m0,0h0M178,278.66V12.93m0,0h0m35,265.73V12.93m0,0h0M248.1,278.66V12.93m0,0h0m35.06,265.73V12.93m0,0h0m35,265.73V12.93m0,0h0m35.06,265.73V12.93m0,0h0m35.05,265.73V12.93m0,0h0m35,265.73V12.93m0,0h0m35.05,265.73V12.93m0,0h0m35.06,265.73V12.93m0,0h0m35.05,265.73V12.93m0,0h0m35.06,265.73V12.93m0,0h0"/><path class="cls-4" d="M37.82,278.66H581.1m0,0h0M37.82,252.06H581.1m0,0h0M37.82,225.5H581.1m0,0h0M37.82,198.9H581.1m0,0h0M37.82,172.35H581.1m0,0h0M37.82,145.79H581.1m0,0h0M37.82,119.19H581.1m0,0h0M37.82,92.64H581.1m0,0h0M37.82,66H581.1m0,0h0M37.82,39.48H581.1m0,0h0M37.82,12.93H581.1m0,0h0"/></g><path class="cls-5" d="M37.82,12.93H581.1M37.82,278.66H581.1"/><path class="cls-6" d="M581.1,278.66V12.93M37.82,278.66V12.93"/><line class="cls-5" x1="37.82" y1="278.66" x2="581.1" y2="278.66"/><line class="cls-6" x1="37.82" y1="278.66" x2="37.82" y2="12.93"/><path class="cls-7" d="M37.82,278.66V273.2m0-260.27v5.41"/><path class="cls-7" d="M581.1,278.66V275.9m0-263v2.7"/><path class="cls-8" d="M37.82,278.66h5.41m537.87,0h-5.46"/><path class="cls-6" d="M55.32,278.66V275.9m0-263v2.7m17.5,263V275.9m0-263v2.7m0,263V275.9m0-263v2.7m0,263V275.9m0-263v2.7m0,263V275.9m0-263v2.7m0,263V275.9m0-263v2.7m0,263V275.9m0-263v2.7m0,263V275.9m0-263v2.7m0,263V275.9m0-263v2.7m0,263V273.2m0-260.27v5.41"/><path class="cls-6" d="M90.38,278.66V275.9m0-263v2.7m17.5,263V275.9m0-263v2.7m0,263V275.9m0-263v2.7m0,263V275.9m0-263v2.7m0,263V275.9m0-263v2.7m0,263V275.9m0-263v2.7m0,263V275.9m0-263v2.7m0,263V275.9m0-263v2.7m0,263V275.9m0-263v2.7m0,263V273.2m0-260.27v5.41"/><path class="cls-6" d="M125.43,278.66V275.9m0-263v2.7m17.5,263V275.9m0-263v2.7m0,263V275.9m0-263v2.7m0,263V275.9m0-263v2.7m0,263V275.9m0-263v2.7m0,263V275.9m0-263v2.7m0,263V275.9m0-263v2.7m0,263V275.9m0-263v2.7m0,263V275.9m0-263v2.7m0,263V273.2m0-260.27v5.41"/><path class="cls-6" d="M160.49,278.66V275.9m0-263v2.7m17.5,263V275.9m0-263v2.7m0,263V275.9m0-263v2.7m0,263V275.9m0-263v2.7m0,263V275.9m0-263v2.7m0,263V275.9m0-263v2.7m0,263V275.9m0-263v2.7m0,263V275.9m0-263v2.7m0,263V275.9m0-263v2.7m0,263V273.2m0-260.27v5.41"/><path class="cls-6" d="M195.54,278.66V275.9m0-263v2.7m17.5,263V275.9m0-263v2.7m0,263V275.9m0-263v2.7m0,263V275.9m0-263v2.7m0,263V275.9m0-263v2.7m0,263V275.9m0-263v2.7m0,263V275.9m0-263v2.7m0,263V275.9m0-263v2.7m0,263V275.9m0-263v2.7m0,263V273.2m0-260.27v5.41"/><path class="cls-6" d="M230.55,278.66V275.9m0-263v2.7m17.55,263V275.9m0-263v2.7m0,263V275.9m0-263v2.7m0,263V275.9m0-263v2.7m0,263V275.9m0-263v2.7m0,263V275.9m0-263v2.7m0,263V275.9m0-263v2.7m0,263V275.9m0-263v2.7m0,263V275.9m0-263v2.7m0,263V273.2m0-260.27v5.41"/><path class="cls-6" d="M265.6,278.66V275.9m0-263v2.7m17.56,263V275.9m0-263v2.7m0,263V275.9m0-263v2.7m0,263V275.9m0-263v2.7m0,263V275.9m0-263v2.7m0,263V275.9m0-263v2.7m0,263V275.9m0-263v2.7m0,263V275.9m0-263v2.7m0,263V275.9m0-263v2.7m0,263V273.2m0-260.27v5.41"/><path class="cls-6" d="M300.66,278.66V275.9m0-263v2.7m17.55,263V275.9m0-263v2.7m0,263V275.9m0-263v2.7m0,263V275.9m0-263v2.7m0,263V275.9m0-263v2.7m0,263V275.9m0-263v2.7m0,263V275.9m0-263v2.7m0,263V275.9m0-263v2.7m0,263V275.9m0-263v2.7m0,263V273.2m0-260.27v5.41"/><path class="cls-6" d="M335.71,278.66V275.9m0-263v2.7m17.56,263V275.9m0-263v2.7m0,263V275.9m0-263v2.7m0,263V275.9m0-263v2.7m0,263V275.9m0-263v2.7m0,263V275.9m0-263v2.7m0,263V275.9m0-263v2.7m0,263V275.9m0-263v2.7m0,263V275.9m0-263v2.7m0,263V273.2m0-260.27v5.41"/><path class="cls-6" d="M370.77,278.66V275.9m0-263v2.7m17.55,263V275.9m0-263v2.7m0,263V275.9m0-263v2.7m0,263V275.9m0-263v2.7m0,263V275.9m0-263v2.7m0,263V275.9m0-263v2.7m0,263V275.9m0-263v2.7m0,263V275.9m0-263v2.7m0,263V275.9m0-263v2.7m0,263V273.2m0-260.27v5.41"/><path class="cls-6" d="M405.83,278.66V275.9m0-263v2.7m17.5,263V275.9m0-263v2.7m0,263V275.9m0-263v2.7m0,263V275.9m0-263v2.7m0,263V275.9m0-263v2.7m0,263V275.9m0-263v2.7m0,263V275.9m0-263v2.7m0,263V275.9m0-263v2.7m0,263V275.9m0-263v2.7m0,263V273.2m0-260.27v5.41"/><path class="cls-6" d="M440.88,278.66V275.9m0-263v2.7m17.5,263V275.9m0-263v2.7m0,263V275.9m0-263v2.7m0,263V275.9m0-263v2.7m0,263V275.9m0-263v2.7m0,263V275.9m0-263v2.7m0,263V275.9m0-263v2.7m0,263V275.9m0-263v2.7m0,263V275.9m0-263v2.7m0,263V273.2m0-260.27v5.41"/><path class="cls-6" d="M475.94,278.66V275.9m0-263v2.7m17.5,263V275.9m0-263v2.7m0,263V275.9m0-263v2.7m0,263V275.9m0-263v2.7m0,263V275.9m0-263v2.7m0,263V275.9m0-263v2.7m0,263V275.9m0-263v2.7m0,263V275.9m0-263v2.7m0,263V275.9m0-263v2.7m0,263V273.2m0-260.27v5.41"/><path class="cls-6" d="M511,278.66V275.9m0-263v2.7m17.5,263V275.9m0-263v2.7m0,263V275.9m0-263v2.7m0,263V275.9m0-263v2.7m0,263V275.9m0-263v2.7m0,263V275.9m0-263v2.7m0,263V275.9m0-263v2.7m0,263V275.9m0-263v2.7m0,263V275.9m0-263v2.7m0,263V273.2m0-260.27v5.41"/><path class="cls-6" d="M546.05,278.66V275.9m0-263v2.7m17.5,263V275.9m0-263v2.7m0,263V275.9m0-263v2.7m0,263V275.9m0-263v2.7m0,263V275.9m0-263v2.7m0,263V275.9m0-263v2.7m0,263V275.9m0-263v2.7m0,263V275.9m0-263v2.7m0,263V275.9m0-263v2.7m0,263V273.2m0-260.27v5.41"/><path class="cls-6" d="M37.82,265.33h2.7m540.58,0h-2.75M37.82,252.06h2.7m540.58,0h-2.75m-540.53,0h2.7m540.58,0h-2.75m-540.53,0h2.7m540.58,0h-2.75m-540.53,0h2.7m540.58,0h-2.75m-540.53,0h2.7m540.58,0h-2.75m-540.53,0h2.7m540.58,0h-2.75m-540.53,0h2.7m540.58,0h-2.75m-540.53,0h2.7m540.58,0h-2.75m-540.53,0h5.41m537.87,0h-5.46"/><path class="cls-6" d="M37.82,238.78h2.7m540.58,0h-2.75M37.82,225.5h2.7m540.58,0h-2.75m-540.53,0h2.7m540.58,0h-2.75m-540.53,0h2.7m540.58,0h-2.75m-540.53,0h2.7m540.58,0h-2.75m-540.53,0h2.7m540.58,0h-2.75m-540.53,0h2.7m540.58,0h-2.75m-540.53,0h2.7m540.58,0h-2.75m-540.53,0h2.7m540.58,0h-2.75m-540.53,0h5.41m537.87,0h-5.46"/><path class="cls-6" d="M37.82,212.23h2.7m540.58,0h-2.75M37.82,198.9h2.7m540.58,0h-2.75m-540.53,0h2.7m540.58,0h-2.75m-540.53,0h2.7m540.58,0h-2.75m-540.53,0h2.7m540.58,0h-2.75m-540.53,0h2.7m540.58,0h-2.75m-540.53,0h2.7m540.58,0h-2.75m-540.53,0h2.7m540.58,0h-2.75m-540.53,0h2.7m540.58,0h-2.75m-540.53,0h5.41m537.87,0h-5.46"/><path class="cls-6" d="M37.82,185.62h2.7m540.58,0h-2.75M37.82,172.35h2.7m540.58,0h-2.75m-540.53,0h2.7m540.58,0h-2.75m-540.53,0h2.7m540.58,0h-2.75m-540.53,0h2.7m540.58,0h-2.75m-540.53,0h2.7m540.58,0h-2.75m-540.53,0h2.7m540.58,0h-2.75m-540.53,0h2.7m540.58,0h-2.75m-540.53,0h2.7m540.58,0h-2.75m-540.53,0h5.41m537.87,0h-5.46"/><path class="cls-6" d="M37.82,159.07h2.7m540.58,0h-2.75M37.82,145.79h2.7m540.58,0h-2.75m-540.53,0h2.7m540.58,0h-2.75m-540.53,0h2.7m540.58,0h-2.75m-540.53,0h2.7m540.58,0h-2.75m-540.53,0h2.7m540.58,0h-2.75m-540.53,0h2.7m540.58,0h-2.75m-540.53,0h2.7m540.58,0h-2.75m-540.53,0h2.7m540.58,0h-2.75m-540.53,0h5.41m537.87,0h-5.46"/><path class="cls-6" d="M37.82,132.46h2.7m540.58,0h-2.75M37.82,119.19h2.7m540.58,0h-2.75m-540.53,0h2.7m540.58,0h-2.75m-540.53,0h2.7m540.58,0h-2.75m-540.53,0h2.7m540.58,0h-2.75m-540.53,0h2.7m540.58,0h-2.75m-540.53,0h2.7m540.58,0h-2.75m-540.53,0h2.7m540.58,0h-2.75m-540.53,0h2.7m540.58,0h-2.75m-540.53,0h5.41m537.87,0h-5.46"/><path class="cls-6" d="M37.82,105.91h2.7m540.58,0h-2.75M37.82,92.64h2.7m540.58,0h-2.75m-540.53,0h2.7m540.58,0h-2.75m-540.53,0h2.7m540.58,0h-2.75m-540.53,0h2.7m540.58,0h-2.75m-540.53,0h2.7m540.58,0h-2.75m-540.53,0h2.7m540.58,0h-2.75m-540.53,0h2.7m540.58,0h-2.75m-540.53,0h2.7m540.58,0h-2.75m-540.53,0h5.41m537.87,0h-5.46"/><path class="cls-6" d="M37.82,79.36h2.7m540.58,0h-2.75M37.82,66h2.7M581.1,66h-2.75M37.82,66h2.7M581.1,66h-2.75M37.82,66h2.7M581.1,66h-2.75M37.82,66h2.7M581.1,66h-2.75M37.82,66h2.7M581.1,66h-2.75M37.82,66h2.7M581.1,66h-2.75M37.82,66h2.7M581.1,66h-2.75M37.82,66h2.7M581.1,66h-2.75M37.82,66h5.41M581.1,66h-5.46"/><path class="cls-6" d="M37.82,52.75h2.7m540.58,0h-2.75M37.82,39.48h2.7m540.58,0h-2.75m-540.53,0h2.7m540.58,0h-2.75m-540.53,0h2.7m540.58,0h-2.75m-540.53,0h2.7m540.58,0h-2.75m-540.53,0h2.7m540.58,0h-2.75m-540.53,0h2.7m540.58,0h-2.75m-540.53,0h2.7m540.58,0h-2.75m-540.53,0h2.7m540.58,0h-2.75m-540.53,0h5.41m537.87,0h-5.46"/><path class="cls-6" d="M37.82,26.2h2.7m540.58,0h-2.75M37.82,12.93h2.7m540.58,0h-2.75m-540.53,0h2.7m540.58,0h-2.75m-540.53,0h2.7m540.58,0h-2.75m-540.53,0h2.7m540.58,0h-2.75m-540.53,0h2.7m540.58,0h-2.75m-540.53,0h2.7m540.58,0h-2.75m-540.53,0h2.7m540.58,0h-2.75m-540.53,0h2.7m540.58,0h-2.75m-540.53,0h5.41m537.87,0h-5.46"/><path class="cls-6" d="M37.82,12.93H581.1M37.82,278.66H581.1"/><path class="cls-9" d="M37.82,271.15c16.4-9.24,30.67-20.07,49.84-25.72,18.08-5.32,36.64-8.79,55.27-11.4l17.56-3.22L178,227.9l17.55-3.62L213,220.4l17.51-3.27,17.55-4,17.5-4.09,17.56-4.75,17.5-4.44,17.55-5.21,17.5-6.84,17.56-8,17.5-8.83,17.55-10.32,17.51-10.11c34.75-20.07,62.85-47.58,87.61-78.84l8.78-11.69L511,48.87l8.73-9.55,8.75-6.77c14.86-11.5,34.66-15.66,52.63-19.47"/><polyline class="cls-10" points="37.82 267.43 55.32 256.8 72.82 246.44 90.38 240.06 107.88 236.23 125.43 233.31 142.93 230.2 160.49 227.24 177.99 224.02 195.54 220.04 213.04 216.06 230.55 211.82 248.1 207.84 265.6 203.24 283.16 198.69 300.66 192.72 318.21 186.9 335.71 179.34 353.27 171.17 370.77 161.26 388.32 150.18 405.82 138.64 423.33 125.42 440.88 111.12 458.38 94.17 467.16 84.01 475.94 73.79 484.71 62.46 493.44 49.49 502.22 39.89 510.99 31.87 519.72 26.56 528.5 22.63 546.05 17.21 563.55 13.03 565.34 12.93"/><polyline class="cls-11" points="37.82 264.31 55.32 251.7 72.82 241.03 90.38 235.66 107.88 232.04 125.43 229.28 142.93 226.06 160.49 222.54 177.99 218.56 195.54 214.37 213.04 210.34 230.55 206.25 248.1 201.25 265.6 196.91 283.16 191.7 300.66 186.03 318.21 178.57 335.71 169.28 353.27 159.17 370.77 147.99 388.32 135.84 405.82 123.02 423.33 107.19 440.88 90.39 458.38 69.91 467.16 57.2 475.94 45.09 484.71 35.34 493.44 28.5 502.22 23.39 510.99 19.97 519.72 17.27 528.5 15.58 546.05 14.1 549.06 12.93"/><path class="cls-12" d="M37.82,261.45C46.1,254.78,54.35,248,63.48,242.5c13.62-8.18,28.92-11.56,44.4-14,53.35-8.53,105-24.37,156.92-38.79l.8-.22,17.56-6.07,17.5-7.77,17.55-9.55,17.5-11.13L353.27,142l17.5-14,17.54-15.31a481,481,0,0,0,44.08-43.82c11.74-13.28,20.31-31.2,34.77-41.72,6.26-4.55,11.59-8.25,19.24-10.27,13.88-3.66,27.9-3.35,42.09-3.92h.31"/><path class="cls-11" d="M37.82,258.8l17.5-15.22L72.82,233l17.56-5.06,17.5-3.32,17.55-3.37,17.5-3.47,17.56-4.59,17.5-5.06,17.55-4.75,17.5-4.65,17.51-5.1,17.55-6.18c32.3-11.37,60.67-28.21,87.61-49.12l17.56-16,17.5-15.37,17.55-19c17.1-18.55,35.47-35.84,52.56-54.39l17.5-13.38,15.11-7.14"/><polyline class="cls-13" points="37.82 256.24 55.32 240.16 72.82 229.43 90.38 224.94 107.88 220.91 125.43 217.59 142.93 213.4 160.49 208.45 177.99 203.54 195.54 197.83 213.04 192.72 230.55 187.36 248.1 180.92 265.6 173.11 283.16 162.39 300.66 150.95 318.21 138.9 335.71 123.83 353.27 107.14 370.77 90.75 388.32 72.72 405.82 54.59 423.33 38.05 440.88 22.01 456.55 12.93"/><path class="cls-9" d="M38,253.79c9.11-10.71,21-21.25,33.92-27.14,5.74-2.61,12.38-3.87,18.47-5.64l17.5-3.93,17.55-3.73,17.5-4.55,17.56-4.9,17.5-5.56L195.54,193l17.5-6.23,17.51-6.49,17.55-6.94,17.5-9.25,17.56-10.67,17.5-12.31,17.55-15.16,17.5-15.73,17.56-16.75,17.5-16.59,17.55-18.08c16-16.44,31.8-32.51,50.72-45.85"/><text class="cls-14" transform="translate(34.49 289.94)">1</text><text class="cls-14" transform="translate(69.49 289.94)">2</text><text class="cls-14" transform="translate(104.55 289.94)">3</text><text class="cls-14" transform="translate(139.61 289.94)">4</text><text class="cls-14" transform="translate(174.66 289.94)">5</text><text class="cls-14" transform="translate(209.72 289.94)">6</text><text class="cls-14" transform="translate(244.77 289.94)">7</text><text class="cls-14" transform="translate(279.83 289.94)">8</text><text class="cls-14" transform="translate(314.88 289.94)">9</text><text class="cls-14" transform="translate(348.56 289.94)">10</text><text class="cls-14" transform="translate(383.62 289.94)">11</text><text class="cls-14" transform="translate(418.62 289.94)">12</text><text class="cls-14" transform="translate(453.68 289.94)">13</text><text class="cls-14" transform="translate(488.73 289.94)">14</text><text class="cls-14" transform="translate(523.79 289.94)">15</text><text class="cls-14" transform="translate(558.84 289.94)">16</text><text class="cls-14" transform="translate(28.46 282.45)">0</text><text class="cls-14" transform="translate(16.73 255.84)">100</text><text class="cls-14" transform="translate(16.73 229.29)">200</text><text class="cls-14" transform="translate(16.73 202.69)">300</text><text class="cls-14" transform="translate(16.73 176.13)">400</text><text class="cls-14" transform="translate(16.73 149.58)">500</text><text class="cls-14" transform="translate(16.73 122.98)">600</text><text class="cls-14" transform="translate(16.73 96.42)">700</text><text class="cls-14" transform="translate(16.73 69.82)">800</text><text class="cls-14" transform="translate(16.73 43.27)">900</text><text class="cls-14" transform="translate(10.87 16.71)">1000</text><text class="cls-15" transform="translate(11.63 230.84)">成熟度得分</text><text class="cls-14" transform="translate(391.66 303.13)"><tspan xml:space="preserve">TW3-C RUS百分位曲线图(女)       年龄(岁)</tspan></text><rect class="cls-16" x="410.79" y="16.29" width="20.4" height="9.37"/><text class="cls-17" transform="translate(412.14 24.13)">97th</text><rect class="cls-16" x="430.22" y="16.29" width="20.4" height="9.37"/><text class="cls-17" transform="translate(431.58 24.13)">90th</text><rect class="cls-16" x="449.22" y="16.29" width="20.4" height="9.37"/><text class="cls-17" transform="translate(450.57 24.13)">75th</text><rect class="cls-16" x="469.52" y="16.29" width="20.4" height="9.37"/><text class="cls-17" transform="translate(470.88 24.13)">50th</text><rect class="cls-16" x="495.17" y="16.29" width="20.4" height="9.37"/><text class="cls-17" transform="translate(496.52 24.13)">25th</text><rect class="cls-16" x="518.81" y="16.29" width="20.4" height="9.37"/><text class="cls-17" transform="translate(520.16 24.13)">10th</text><rect class="cls-16" x="541.63" y="16.29" width="20.4" height="9.37"/><text class="cls-17" transform="translate(542.99 24.13)">3rd</text></svg>