<svg id="图层_1" data-name="图层 1" width="496" height="260" xmlns="http://www.w3.org/2000/svg" viewBox="0 0 595.28 311.81"><defs><style>.cls-1{fill:#fff;}.cls-10,.cls-2,.cls-3,.cls-5,.cls-6,.cls-7,.cls-8,.cls-9{fill:none;}.cls-2{stroke:#fff;stroke-width:0.5px;}.cls-11,.cls-2,.cls-5,.cls-6{stroke-linejoin:round;}.cls-3{stroke:#666;stroke-miterlimit:6;opacity:0.2;}.cls-12,.cls-4{font-size:10px;font-family:MicrosoftYaHei, Microsoft YaHei;}.cls-11,.cls-12,.cls-4{fill:#13b1c1;}.cls-11,.cls-5{stroke:#13b1c1;}.cls-6{stroke:#c61a45;}.cls-6,.cls-7,.cls-8,.cls-9{stroke-width:1.2px;}.cls-7{stroke:#e47a32;}.cls-10,.cls-7,.cls-8,.cls-9{stroke-miterlimit:10;}.cls-7,.cls-9{stroke-dasharray:2 1;}.cls-8{stroke:#29a4a3;stroke-dasharray:5 1;}.cls-9{stroke:#198ac9;}.cls-10{stroke:#138f40;stroke-width:1.6px;}.cls-12{writing-mode:tb;text-orientation:upright;glyph-orientation-vertical:0deg;}.cls-13{font-size:9px;fill:#303131;font-family:PingFangSC-Semibold-GBpc-EUC-H, PingFang SC;}</style></defs><title>TW3-C RUS与Carpal骨龄差值-处理VI</title><rect class="cls-1" x="37.83" y="13.12" width="543.25" height="265.62"/><polyline class="cls-2" points="37.83 278.74 37.83 13.12 581.08 13.12 581.08 278.74 37.83 278.74"/><path class="cls-3" d="M59.53,278.74V13.12m0,0h0M103,278.74V13.12m0,0h0m43.46,265.62V13.12m0,0h0m43.45,265.62V13.12m0,0h0M233.4,278.74V13.12m0,0h0m43.45,265.62V13.12m0,0h0M320.3,278.74V13.12m0,0h0m43.46,265.62V13.12m0,0h0m43.45,265.62V13.12m0,0h0m43.46,265.62V13.12m0,0h0m43.45,265.62V13.12m0,0h0m43.45,265.62V13.12m0,0h0m43.51,265.62V13.12m0,0h0m-543.25,249H581.08m0,0h0M37.83,228.89H581.08m0,0h0M37.83,195.7H581.08m0,0h0M37.83,162.5H581.08m0,0h0M37.83,129.31H581.08m0,0h0M37.83,96.11H581.08m0,0h0M37.83,62.92H581.08m0,0h0M37.83,29.72H581.08m0,0h0"/><text class="cls-4" transform="translate(575.45 288.96)">14</text><path class="cls-5" d="M37.83,13.12H581.08M37.83,278.74H581.08m0,0V13.12M37.83,278.74V13.12m0,265.62H581.08m-543.25,0V13.12m0,265.62V276m0-262.84v2.73m21.7,262.89v-5.57m0-260v5.52"/><path class="cls-5" d="M81.28,278.74V276m0-262.84v2.73M103,278.74V276m0-262.84v2.73m0,262.89V276m0-262.84v2.73m0,262.89V276m0-262.84v2.73m0,262.89V276m0-262.84v2.73m0,262.89V276m0-262.84v2.73m0,262.89V276m0-262.84v2.73m0,262.89V276m0-262.84v2.73m0,262.89V276m0-262.84v2.73m0,262.89v-5.57m0-260v5.52"/><path class="cls-5" d="M124.74,278.74V276m0-262.84v2.73m21.7,262.89V276m0-262.84v2.73m0,262.89V276m0-262.84v2.73m0,262.89V276m0-262.84v2.73m0,262.89V276m0-262.84v2.73m0,262.89V276m0-262.84v2.73m0,262.89V276m0-262.84v2.73m0,262.89V276m0-262.84v2.73m0,262.89V276m0-262.84v2.73m0,262.89v-5.57m0-260v5.52"/><path class="cls-5" d="M168.19,278.74V276m0-262.84v2.73m21.7,262.89V276m0-262.84v2.73m0,262.89V276m0-262.84v2.73m0,262.89V276m0-262.84v2.73m0,262.89V276m0-262.84v2.73m0,262.89V276m0-262.84v2.73m0,262.89V276m0-262.84v2.73m0,262.89V276m0-262.84v2.73m0,262.89V276m0-262.84v2.73m0,262.89v-5.57m0-260v5.52"/><path class="cls-5" d="M211.64,278.74V276m0-262.84v2.73M233.4,278.74V276m0-262.84v2.73m0,262.89V276m0-262.84v2.73m0,262.89V276m0-262.84v2.73m0,262.89V276m0-262.84v2.73m0,262.89V276m0-262.84v2.73m0,262.89V276m0-262.84v2.73m0,262.89V276m0-262.84v2.73m0,262.89V276m0-262.84v2.73m0,262.89v-5.57m0-260v5.52"/><path class="cls-5" d="M255.1,278.74V276m0-262.84v2.73m21.75,262.89V276m0-262.84v2.73m0,262.89V276m0-262.84v2.73m0,262.89V276m0-262.84v2.73m0,262.89V276m0-262.84v2.73m0,262.89V276m0-262.84v2.73m0,262.89V276m0-262.84v2.73m0,262.89V276m0-262.84v2.73m0,262.89V276m0-262.84v2.73m0,262.89v-5.57m0-260v5.52"/><path class="cls-5" d="M298.55,278.74V276m0-262.84v2.73M320.3,278.74V276m0-262.84v2.73m0,262.89V276m0-262.84v2.73m0,262.89V276m0-262.84v2.73m0,262.89V276m0-262.84v2.73m0,262.89V276m0-262.84v2.73m0,262.89V276m0-262.84v2.73m0,262.89V276m0-262.84v2.73m0,262.89V276m0-262.84v2.73m0,262.89v-5.57m0-260v5.52"/><path class="cls-5" d="M342,278.74V276m0-262.84v2.73m21.75,262.89V276m0-262.84v2.73m0,262.89V276m0-262.84v2.73m0,262.89V276m0-262.84v2.73m0,262.89V276m0-262.84v2.73m0,262.89V276m0-262.84v2.73m0,262.89V276m0-262.84v2.73m0,262.89V276m0-262.84v2.73m0,262.89V276m0-262.84v2.73m0,262.89v-5.57m0-260v5.52"/><path class="cls-5" d="M385.46,278.74V276m0-262.84v2.73m21.75,262.89V276m0-262.84v2.73m0,262.89V276m0-262.84v2.73m0,262.89V276m0-262.84v2.73m0,262.89V276m0-262.84v2.73m0,262.89V276m0-262.84v2.73m0,262.89V276m0-262.84v2.73m0,262.89V276m0-262.84v2.73m0,262.89V276m0-262.84v2.73m0,262.89v-5.57m0-260v5.52"/><path class="cls-5" d="M429,278.74V276m0-262.84v2.73m21.71,262.89V276m0-262.84v2.73m0,262.89V276m0-262.84v2.73m0,262.89V276m0-262.84v2.73m0,262.89V276m0-262.84v2.73m0,262.89V276m0-262.84v2.73m0,262.89V276m0-262.84v2.73m0,262.89V276m0-262.84v2.73m0,262.89V276m0-262.84v2.73m0,262.89v-5.57m0-260v5.52"/><path class="cls-5" d="M472.42,278.74V276m0-262.84v2.73m21.7,262.89V276m0-262.84v2.73m0,262.89V276m0-262.84v2.73m0,262.89V276m0-262.84v2.73m0,262.89V276m0-262.84v2.73m0,262.89V276m0-262.84v2.73m0,262.89V276m0-262.84v2.73m0,262.89V276m0-262.84v2.73m0,262.89V276m0-262.84v2.73m0,262.89v-5.57m0-260v5.52"/><path class="cls-5" d="M515.87,278.74V276m0-262.84v2.73m21.7,262.89V276m0-262.84v2.73m0,262.89V276m0-262.84v2.73m0,262.89V276m0-262.84v2.73m0,262.89V276m0-262.84v2.73m0,262.89V276m0-262.84v2.73m0,262.89V276m0-262.84v2.73m0,262.89V276m0-262.84v2.73m0,262.89V276m0-262.84v2.73m0,262.89v-5.57m0-260v5.52"/><path class="cls-5" d="M559.33,278.74V276m0-262.84v2.73m21.75,262.89V276m0-262.84v2.73m0,262.89V276m0-262.84v2.73m0,262.89V276m0-262.84v2.73m0,262.89V276m0-262.84v2.73m0,262.89V276m0-262.84v2.73m0,262.89V276m0-262.84v2.73m0,262.89V276m0-262.84v2.73m0,262.89V276m0-262.84v2.73m0,262.89v-5.57m0-260v5.52"/><path class="cls-5" d="M37.83,278.74H40.5m540.58,0h-2.72M37.83,262.09h5.39m537.86,0h-5.44"/><path class="cls-5" d="M37.83,245.49H40.5m540.58,0h-2.72M37.83,228.89H40.5m540.58,0h-2.72m-540.53,0H40.5m540.58,0h-2.72m-540.53,0H40.5m540.58,0h-2.72m-540.53,0H40.5m540.58,0h-2.72m-540.53,0H40.5m540.58,0h-2.72m-540.53,0H40.5m540.58,0h-2.72m-540.53,0H40.5m540.58,0h-2.72m-540.53,0H40.5m540.58,0h-2.72m-540.53,0h5.39m537.86,0h-5.44"/><path class="cls-5" d="M37.83,212.3H40.5m540.58,0h-2.72M37.83,195.7H40.5m540.58,0h-2.72m-540.53,0H40.5m540.58,0h-2.72m-540.53,0H40.5m540.58,0h-2.72m-540.53,0H40.5m540.58,0h-2.72m-540.53,0H40.5m540.58,0h-2.72m-540.53,0H40.5m540.58,0h-2.72m-540.53,0H40.5m540.58,0h-2.72m-540.53,0H40.5m540.58,0h-2.72m-540.53,0h5.39m537.86,0h-5.44"/><path class="cls-5" d="M37.83,179.1H40.5m540.58,0h-2.72M37.83,162.5H40.5m540.58,0h-2.72m-540.53,0H40.5m540.58,0h-2.72m-540.53,0H40.5m540.58,0h-2.72m-540.53,0H40.5m540.58,0h-2.72m-540.53,0H40.5m540.58,0h-2.72m-540.53,0H40.5m540.58,0h-2.72m-540.53,0H40.5m540.58,0h-2.72m-540.53,0H40.5m540.58,0h-2.72m-540.53,0h5.39m537.86,0h-5.44"/><path class="cls-5" d="M37.83,145.91H40.5m540.58,0h-2.72M37.83,129.31H40.5m540.58,0h-2.72m-540.53,0H40.5m540.58,0h-2.72m-540.53,0H40.5m540.58,0h-2.72m-540.53,0H40.5m540.58,0h-2.72m-540.53,0H40.5m540.58,0h-2.72m-540.53,0H40.5m540.58,0h-2.72m-540.53,0H40.5m540.58,0h-2.72m-540.53,0H40.5m540.58,0h-2.72m-540.53,0h5.39m537.86,0h-5.44"/><path class="cls-5" d="M37.83,112.71H40.5m540.58,0h-2.72M37.83,96.11H40.5m540.58,0h-2.72m-540.53,0H40.5m540.58,0h-2.72m-540.53,0H40.5m540.58,0h-2.72m-540.53,0H40.5m540.58,0h-2.72m-540.53,0H40.5m540.58,0h-2.72m-540.53,0H40.5m540.58,0h-2.72m-540.53,0H40.5m540.58,0h-2.72m-540.53,0H40.5m540.58,0h-2.72m-540.53,0h5.39m537.86,0h-5.44"/><path class="cls-5" d="M37.83,79.51H40.5m540.58,0h-2.72M37.83,62.92H40.5m540.58,0h-2.72m-540.53,0H40.5m540.58,0h-2.72m-540.53,0H40.5m540.58,0h-2.72m-540.53,0H40.5m540.58,0h-2.72m-540.53,0H40.5m540.58,0h-2.72m-540.53,0H40.5m540.58,0h-2.72m-540.53,0H40.5m540.58,0h-2.72m-540.53,0H40.5m540.58,0h-2.72m-540.53,0h5.39m537.86,0h-5.44"/><path class="cls-5" d="M37.83,46.32H40.5m540.58,0h-2.72M37.83,29.72H40.5m540.58,0h-2.72m-540.53,0H40.5m540.58,0h-2.72m-540.53,0H40.5m540.58,0h-2.72m-540.53,0H40.5m540.58,0h-2.72m-540.53,0H40.5m540.58,0h-2.72m-540.53,0H40.5m540.58,0h-2.72m-540.53,0H40.5m540.58,0h-2.72m-540.53,0H40.5m540.58,0h-2.72m-540.53,0h5.39m537.86,0h-5.44"/><polyline class="cls-6" points="59.53 246.76 81.28 247.37 102.98 248.07 124.74 248.88 146.44 249.74 168.19 250.6 189.89 251.26 211.64 251.67 233.4 251.97 255.1 252.27 276.85 252.63 298.55 253.03 320.3 253.08 342.01 252.38 363.76 250.5 385.46 247.11 407.21 242.25 428.96 236.08 450.67 229.35 472.42 222.72 494.12 216.65 515.87 210.83 537.57 205.77 559.33 201.42"/><polyline class="cls-7" points="59.53 224.34 81.28 224.44 102.98 224.59 124.74 224.75 146.44 224.85 168.19 224.9 189.89 224.69 211.64 224.34 233.4 223.78 255.1 223.18 276.85 222.57 298.55 221.91 320.3 221.05 342.01 219.69 363.76 217.66 385.46 214.78 407.21 211.08 428.96 206.78 450.67 202.33 472.42 198.23 494.12 194.69 515.87 191.45 537.57 188.66 559.33 186.19"/><polyline class="cls-8" points="59.53 197.52 81.28 197.37 102.98 197.17 124.74 196.96 146.44 196.61 168.19 196.21 189.89 195.65 211.64 194.94 233.4 194.08 255.1 193.22 276.85 192.31 298.55 191.4 320.3 190.39 342.01 189.22 363.76 187.75 385.46 185.93 407.21 183.81 428.96 181.48 450.67 179.15 472.42 177.08 494.12 175.36 515.87 173.84 537.57 172.52 559.33 171.36"/><polyline class="cls-8" points="59.53 131.48 81.28 131.23 102.98 130.98 124.74 130.67 146.44 130.42 168.19 130.17 189.89 130.07 211.64 130.17 233.4 130.42 255.1 130.83 276.85 131.38 298.55 132.04 320.3 132.85 342.01 133.76 363.76 134.93 385.46 136.39 407.21 138.01 428.96 139.68 450.67 141.2 472.42 142.26 494.12 142.82 515.87 143.02 537.57 142.92 559.33 142.67"/><polyline class="cls-9" points="59.53 109.52 81.28 108.61 102.98 107.55 124.74 106.28 146.44 104.82 168.19 103.3 189.89 101.93 211.64 100.77 233.4 99.96 255.1 99.65 276.85 99.86 298.55 100.67 320.3 101.98 342.01 103.95 363.76 106.48 385.46 109.62 407.21 113.17 428.96 116.86 450.67 120.2 472.42 122.78 494.12 124.55 515.87 125.72 537.57 126.42 559.33 126.78"/><polyline class="cls-6" points="59.53 92.92 81.28 91.2 102.98 89.08 124.74 86.5 146.44 83.46 168.19 80.12 189.89 76.68 211.64 73.39 233.4 70.56 255.1 68.58 276.85 67.67 298.55 67.98 320.3 69.6 342.01 72.43 363.76 76.38 385.46 81.34 407.21 86.85 428.96 92.42 450.67 97.58 472.42 101.68 494.12 104.66 515.87 106.94 537.57 108.56 559.33 109.62"/><line class="cls-5" x1="37.83" y1="162.5" x2="581.08" y2="162.5"/><polyline class="cls-10" points="59.53 163.31 81.28 163.26 102.98 163.16 124.74 163.06 146.44 162.96 168.19 162.81 189.89 162.71 211.64 162.55 233.4 162.4 255.1 162.2 276.85 162.05 298.55 161.84 320.3 161.64 342.01 161.39 363.76 161.14 385.46 160.88 407.21 160.58 428.96 160.23 450.67 159.87 472.42 159.47 494.12 158.96 515.87 158.4 537.57 157.8 559.33 157.19"/><text class="cls-4" transform="translate(370.65 303.13)"><tspan xml:space="preserve">TW3-C RUS与Carpal骨龄差值(男)       年龄(岁)</tspan></text><text class="cls-4" transform="translate(56.55 288.96)">2 </text><text class="cls-4" transform="translate(101.39 288.96)">3</text><text class="cls-4" transform="translate(144.76 288.96)">4</text><text class="cls-4" transform="translate(188.12 288.96)">5</text><text class="cls-4" transform="translate(230 288.96)">6 </text><text class="cls-4" transform="translate(274.85 288.96)">7</text><text class="cls-4" transform="translate(316.73 288.96)">8 </text><text class="cls-4" transform="translate(361.57 288.96)">9</text><text class="cls-4" transform="translate(402 288.96)">10</text><text class="cls-4" transform="translate(445.37 288.96)">11</text><text class="cls-4" transform="translate(488.73 288.96)">12</text><text class="cls-4" transform="translate(532.09 288.96)">13</text><text class="cls-4" transform="translate(22.71 263.86)">−3</text><text class="cls-4" transform="translate(22.71 230.67)">−2</text><text class="cls-4" transform="translate(22.71 197.47)">−1</text><text class="cls-4" transform="translate(30.14 164.27)">0 </text><text class="cls-4" transform="translate(30.14 131.08)">1 </text><text class="cls-4" transform="translate(30.14 97.88)">2 </text><text class="cls-4" transform="translate(30.14 64.69)">3 </text><text class="cls-4" transform="translate(30.14 31.49)">4 </text><path class="cls-11" d="M37.83,13.12H40.5m540.58,0h-2.72m-540.53,0H581.08M37.83,278.74H581.08m0,0V13.12M37.83,278.74V13.12"/><text class="cls-12" transform="translate(9.63 215.06)">骨龄差值-岁</text><rect class="cls-1" x="535.71" y="104.66" width="21.66" height="9.95"/><text class="cls-13" transform="translate(537.15 112.98)">3SD</text><rect class="cls-1" x="535.35" y="121.54" width="21.66" height="9.95"/><text class="cls-13" transform="translate(536.78 129.86)">2SD</text><rect class="cls-1" x="535.71" y="137.23" width="20.32" height="9.95"/><text class="cls-13" transform="translate(537.15 145.55)">1SD</text><rect class="cls-1" x="534.98" y="151.73" width="21.66" height="9.95"/><text class="cls-13" transform="translate(536.42 160.06)">0SD</text><rect class="cls-1" x="530.58" y="166.68" width="25.16" height="9.95"/><text class="cls-13" transform="translate(532.02 175)">-1SD</text><rect class="cls-1" x="531.12" y="182.14" width="25.49" height="9.95"/><text class="cls-13" transform="translate(531.58 189.77)">-2SD</text><rect class="cls-1" x="530.56" y="200.1" width="24.95" height="11.1"/><text class="cls-13" transform="translate(531.87 208.31) scale(0.94 1)">-3SD</text></svg>