<svg id="图层_1" data-name="图层 1" width="496" height="260" xmlns="http://www.w3.org/2000/svg" viewBox="0 0 595.28 311.81"><defs><style>.cls-1{writing-mode:tb;text-orientation:upright;glyph-orientation-vertical:0deg;}.cls-1,.cls-8{font-size:10px;fill:#13b1c1;font-family:MicrosoftYaHei, Microsoft YaHei;}.cls-10,.cls-11,.cls-12,.cls-13,.cls-14,.cls-2,.cls-4,.cls-5,.cls-6,.cls-7,.cls-9{fill:none;}.cls-2{stroke:#fff;}.cls-10,.cls-2,.cls-5,.cls-6,.cls-7,.cls-9{stroke-linejoin:round;}.cls-2,.cls-5,.cls-7,.cls-9{stroke-width:0.5px;}.cls-3{opacity:0.2;}.cls-4{stroke:#666;stroke-miterlimit:6;opacity:0.6;}.cls-5{stroke:#1b2c77;}.cls-6,.cls-7{stroke:#13b1c1;}.cls-9{stroke:#1c2c71;}.cls-10{stroke:#c61a45;}.cls-10,.cls-11,.cls-12,.cls-14{stroke-width:1.2px;}.cls-11{stroke:#e47a32;}.cls-11,.cls-12,.cls-13,.cls-14{stroke-miterlimit:10;}.cls-11,.cls-14{stroke-dasharray:2 1;}.cls-12{stroke:#29a4a3;stroke-dasharray:5 1;}.cls-13{stroke:#138f40;stroke-width:1.6px;}.cls-14{stroke:#198ac9;}.cls-15{fill:#fff;}.cls-16{font-size:9px;fill:#303131;font-family:PingFangSC-Semibold-GBpc-EUC-H, PingFang SC;}</style></defs><title>TW3-C RUS百分位曲线图男-处理VI</title><text class="cls-1" transform="translate(10.63 230.84)">成熟度得分</text><polyline class="cls-2" points="37.91 278.69 37.91 12.84 581.06 12.84 581.06 278.69 37.91 278.69"/><g class="cls-3"><path class="cls-4" d="M37.91,278.69V12.84m0,0h0m33.9,265.85V12.84m0,0h0m34,265.85V12.84m0,0h0m34,265.85V12.84m0,0h0m33.95,265.85V12.84m0,0h0m34,265.85V12.84m0,0h0m33.95,265.85V12.84m0,0h0m33.95,265.85V12.84m0,0h0m33.95,265.85V12.84m0,0h0m34,265.85V12.84m0,0h0m33.95,265.85V12.84m0,0h0m33.95,265.85V12.84m0,0h0m33.95,265.85V12.84m0,0h0m33.95,265.85V12.84m0,0h0m33.95,265.85V12.84m0,0h0m34,265.85V12.84m0,0h0m33.95,265.85V12.84m0,0h0"/><path class="cls-4" d="M37.91,278.69H581.06m0,0h0M37.91,252.08H581.06m0,0h0M37.91,225.51H581.06m0,0h0M37.91,198.9H581.06m0,0h0M37.91,172.33H581.06m0,0h0M37.91,145.77H581.06m0,0h0M37.91,119.15H581.06m0,0h0M37.91,92.58H581.06m0,0h0M37.91,66H581.06m0,0h0M37.91,39.4H581.06m0,0h0M37.91,12.84H581.06m0,0h0"/></g><path class="cls-5" d="M37.91,12.84H581.06M37.91,278.69H581.06"/><path class="cls-6" d="M581.06,278.69V12.84M37.91,278.69V12.84"/><line class="cls-5" x1="37.91" y1="278.69" x2="581.06" y2="278.69"/><path class="cls-7" d="M37.91,278.69v-5.46m0-260.39v5.41"/><text class="cls-8" transform="translate(34.58 289.97)">2</text><text class="cls-8" transform="translate(68.5 289.97)">3</text><text class="cls-8" transform="translate(102.42 289.97)">4</text><text class="cls-8" transform="translate(136.34 289.97)">5</text><text class="cls-8" transform="translate(170.26 289.97)">6</text><text class="cls-8" transform="translate(204.18 289.97)">7</text><text class="cls-8" transform="translate(238.1 289.97)">8</text><text class="cls-8" transform="translate(272.02 289.97)">9</text><text class="cls-8" transform="translate(303.01 289.97)">10</text><text class="cls-8" transform="translate(336.93 289.97)">11</text><text class="cls-8" transform="translate(370.85 289.97)">12</text><text class="cls-8" transform="translate(404.77 289.97)">13</text><text class="cls-8" transform="translate(438.69 289.97)">14</text><text class="cls-8" transform="translate(472.6 289.97)">15</text><text class="cls-8" transform="translate(506.52 289.97)">16</text><text class="cls-8" transform="translate(540.44 289.97)">17</text><text class="cls-8" transform="translate(574.36 289.97)">18</text><path class="cls-9" d="M37.91,278.69h5.4m537.75,0h-5.45"/><text class="cls-8" transform="translate(24.42 283.48)">0</text><text class="cls-8" transform="translate(16.96 256.86)">100</text><text class="cls-8" transform="translate(16.96 230.3)">200</text><text class="cls-8" transform="translate(16.96 203.68)">300</text><text class="cls-8" transform="translate(16.96 177.12)">400</text><text class="cls-8" transform="translate(16.96 150.56)">500</text><text class="cls-8" transform="translate(16.96 123.94)">600</text><text class="cls-8" transform="translate(16.96 97.37)">700</text><text class="cls-8" transform="translate(16.96 70.76)">800</text><text class="cls-8" transform="translate(16.96 44.19)">900</text><text class="cls-8" transform="translate(12.27 17.63)">1000</text><path class="cls-10" d="M37.91,271.49l16.92-4.65,17-4.85,17-4.45,17-3.68,17-2.7,17-2,17-2.24,17-2.61,17-2.66,17-2.6,17-2.4,17-2.76,17-3.42,17-3.12,17-4,17-3.63,17-4,17-4.24,17-5.62,17-5.77,17-7.41c15.21-6.64,30.49-13.38,44.57-22.26,15.1-9.52,27.7-22.58,38.45-36.73,6.88-9,12.43-19.27,18.44-28.92.13-.2.28-.41.39-.62,9.7-19.6,19.12-39.31,30.36-58.1a82,82,0,0,1,5.64-8.51c8.11-10.38,19.67-17,31.9-21.21L578,12.84"/><polyline class="cls-11" points="37.91 268.07 54.83 263.52 71.81 258.36 88.78 253.81 105.76 250.03 122.73 247.68 139.71 245.13 156.68 241.86 173.66 239.97 190.63 237.21 207.61 234.6 224.59 231.95 241.56 228.93 258.54 225.15 275.51 222.09 292.49 218.1 309.46 214.32 326.44 210.19 343.41 205.38 360.39 200.07 377.36 193.63 394.34 184.85 411.31 176.01 428.29 166.3 445.26 151.9 462.24 133.5 479.21 108.63 496.19 75.78 513.16 44.41 521.63 33.17 530.14 25.25 538.6 20.5 547.11 16.41 555.58 13.65 558.94 12.84"/><polyline class="cls-12" points="37.91 264.18 54.83 258.82 71.81 253.46 88.78 249.57 105.76 246.56 122.73 244.36 139.71 242.01 156.68 238.9 173.66 236.6 190.63 232.92 207.61 230.26 224.59 227.35 241.56 223.83 258.54 220.45 275.51 216.21 292.49 212.53 309.46 208.09 326.44 203.8 343.41 198.44 360.39 192 377.36 184.03 394.34 173.5 411.31 161.55 428.29 147.4 445.26 127.73 462.24 104.33 479.21 75.88 496.19 44.92 504.65 32.3 513.16 23.92 521.63 18.76 530.14 15.39 541.35 12.84"/><path class="cls-13" d="M37.91,260.1l16.92-5.52c16.77-4.89,33.77-8,50.93-11.14l17-2.4,17-2.14,17-3.43,17-3.27,17-3,17-3.27,17-3.32,17-4.14,17-4.09,17-4.85,17-4.34,17-5.11,17-5.67a171.47,171.47,0,0,0,45.93-23.76c14-10.13,25.64-22.43,37.3-35.1l1.64-1.78,17-21.76,17-23.09c9.88-15.37,19.4-30.86,29.09-46.34a86.75,86.75,0,0,1,16.58-19.46,40.9,40.9,0,0,1,22.44-10.22"/><polyline class="cls-12" points="37.91 255.7 54.83 250.19 71.81 246.2 88.78 242.98 105.76 240.02 122.73 237.47 139.71 234.5 156.68 231.44 173.66 227.86 190.63 224.69 207.61 221.32 224.59 217.29 241.56 212.38 258.54 206.76 275.51 201.09 292.49 195.93 309.46 190.62 326.44 183.37 343.41 174.99 360.39 161.5 377.36 144.34 394.34 123.59 411.31 97.54 428.29 71.33 445.26 47.52 462.24 30.05 479.21 15.09 484.36 12.84"/><polyline class="cls-14" points="37.91 251.62 54.83 246.2 71.81 242.47 88.78 239.71 105.76 236.09 122.73 233.17 139.71 229.8 156.68 226.18 173.66 222.65 190.63 218.92 207.61 215.04 224.59 210.24 241.56 205.08 258.54 198.74 275.51 192.51 292.49 186.63 309.46 180.5 326.44 171.82 343.41 161.7 360.39 144.54 377.36 123.19 394.34 98.41 411.31 70.51 428.29 44.87 445.26 25.86 460.4 12.79"/><path class="cls-10" d="M37.91,247.58a389.66,389.66,0,0,1,50.87-12.06l17-3.42c22.81-4.6,45.35-10.08,67.9-15.78l17-4.5,17-4.5,17-5.56,17-6.08,17-5.67,17-6.49,17-6.23,17-7.41,17-9.91c13.91-8.13,23.77-21.22,33.95-33.46l17-24.07,17-26.36c8.57-13.23,17.19-26.45,26.69-39,6.79-9,14.43-16.44,22.55-24.2"/><path class="cls-6" d="M54.83,278.69v-2.76m0-263.09v2.7m17,263.15v-2.76m0-263.09v2.7m0,263.15v-2.76m0-263.09v2.7m0,263.15v-2.76m0-263.09v2.7m0,263.15v-2.76m0-263.09v2.7m0,263.15v-2.76m0-263.09v2.7m0,263.15v-2.76m0-263.09v2.7m0,263.15v-2.76m0-263.09v2.7m0,263.15v-2.76m0-263.09v2.7m0,263.15v-5.46m0-260.39v5.41"/><path class="cls-6" d="M88.78,278.69v-2.76m0-263.09v2.7m17,263.15v-2.76m0-263.09v2.7m0,263.15v-2.76m0-263.09v2.7m0,263.15v-2.76m0-263.09v2.7m0,263.15v-2.76m0-263.09v2.7m0,263.15v-2.76m0-263.09v2.7m0,263.15v-2.76m0-263.09v2.7m0,263.15v-2.76m0-263.09v2.7m0,263.15v-2.76m0-263.09v2.7m0,263.15v-5.46m0-260.39v5.41"/><path class="cls-6" d="M122.73,278.69v-2.76m0-263.09v2.7m17,263.15v-2.76m0-263.09v2.7m0,263.15v-2.76m0-263.09v2.7m0,263.15v-2.76m0-263.09v2.7m0,263.15v-2.76m0-263.09v2.7m0,263.15v-2.76m0-263.09v2.7m0,263.15v-2.76m0-263.09v2.7m0,263.15v-2.76m0-263.09v2.7m0,263.15v-2.76m0-263.09v2.7m0,263.15v-5.46m0-260.39v5.41"/><path class="cls-6" d="M156.68,278.69v-2.76m0-263.09v2.7m17,263.15v-2.76m0-263.09v2.7m0,263.15v-2.76m0-263.09v2.7m0,263.15v-2.76m0-263.09v2.7m0,263.15v-2.76m0-263.09v2.7m0,263.15v-2.76m0-263.09v2.7m0,263.15v-2.76m0-263.09v2.7m0,263.15v-2.76m0-263.09v2.7m0,263.15v-2.76m0-263.09v2.7m0,263.15v-5.46m0-260.39v5.41"/><path class="cls-6" d="M190.63,278.69v-2.76m0-263.09v2.7m17,263.15v-2.76m0-263.09v2.7m0,263.15v-2.76m0-263.09v2.7m0,263.15v-2.76m0-263.09v2.7m0,263.15v-2.76m0-263.09v2.7m0,263.15v-2.76m0-263.09v2.7m0,263.15v-2.76m0-263.09v2.7m0,263.15v-2.76m0-263.09v2.7m0,263.15v-2.76m0-263.09v2.7m0,263.15v-5.46m0-260.39v5.41"/><path class="cls-6" d="M224.58,278.69v-2.76m0-263.09v2.7m17,263.15v-2.76m0-263.09v2.7m0,263.15v-2.76m0-263.09v2.7m0,263.15v-2.76m0-263.09v2.7m0,263.15v-2.76m0-263.09v2.7m0,263.15v-2.76m0-263.09v2.7m0,263.15v-2.76m0-263.09v2.7m0,263.15v-2.76m0-263.09v2.7m0,263.15v-2.76m0-263.09v2.7m0,263.15v-5.46m0-260.39v5.41"/><path class="cls-6" d="M258.54,278.69v-2.76m0-263.09v2.7m17,263.15v-2.76m0-263.09v2.7m0,263.15v-2.76m0-263.09v2.7m0,263.15v-2.76m0-263.09v2.7m0,263.15v-2.76m0-263.09v2.7m0,263.15v-2.76m0-263.09v2.7m0,263.15v-2.76m0-263.09v2.7m0,263.15v-2.76m0-263.09v2.7m0,263.15v-2.76m0-263.09v2.7m0,263.15v-5.46m0-260.39v5.41"/><path class="cls-6" d="M292.49,278.69v-2.76m0-263.09v2.7m17,263.15v-2.76m0-263.09v2.7m0,263.15v-2.76m0-263.09v2.7m0,263.15v-2.76m0-263.09v2.7m0,263.15v-2.76m0-263.09v2.7m0,263.15v-2.76m0-263.09v2.7m0,263.15v-2.76m0-263.09v2.7m0,263.15v-2.76m0-263.09v2.7m0,263.15v-2.76m0-263.09v2.7m0,263.15v-5.46m0-260.39v5.41"/><path class="cls-6" d="M326.44,278.69v-2.76m0-263.09v2.7m17,263.15v-2.76m0-263.09v2.7m0,263.15v-2.76m0-263.09v2.7m0,263.15v-2.76m0-263.09v2.7m0,263.15v-2.76m0-263.09v2.7m0,263.15v-2.76m0-263.09v2.7m0,263.15v-2.76m0-263.09v2.7m0,263.15v-2.76m0-263.09v2.7m0,263.15v-2.76m0-263.09v2.7m0,263.15v-5.46m0-260.39v5.41"/><path class="cls-6" d="M360.39,278.69v-2.76m0-263.09v2.7m17,263.15v-2.76m0-263.09v2.7m0,263.15v-2.76m0-263.09v2.7m0,263.15v-2.76m0-263.09v2.7m0,263.15v-2.76m0-263.09v2.7m0,263.15v-2.76m0-263.09v2.7m0,263.15v-2.76m0-263.09v2.7m0,263.15v-2.76m0-263.09v2.7m0,263.15v-2.76m0-263.09v2.7m0,263.15v-5.46m0-260.39v5.41"/><path class="cls-6" d="M394.34,278.69v-2.76m0-263.09v2.7m17,263.15v-2.76m0-263.09v2.7m0,263.15v-2.76m0-263.09v2.7m0,263.15v-2.76m0-263.09v2.7m0,263.15v-2.76m0-263.09v2.7m0,263.15v-2.76m0-263.09v2.7m0,263.15v-2.76m0-263.09v2.7m0,263.15v-2.76m0-263.09v2.7m0,263.15v-2.76m0-263.09v2.7m0,263.15v-5.46m0-260.39v5.41"/><path class="cls-6" d="M428.29,278.69v-2.76m0-263.09v2.7m17,263.15v-2.76m0-263.09v2.7m0,263.15v-2.76m0-263.09v2.7m0,263.15v-2.76m0-263.09v2.7m0,263.15v-2.76m0-263.09v2.7m0,263.15v-2.76m0-263.09v2.7m0,263.15v-2.76m0-263.09v2.7m0,263.15v-2.76m0-263.09v2.7m0,263.15v-2.76m0-263.09v2.7m0,263.15v-5.46m0-260.39v5.41"/><path class="cls-6" d="M462.24,278.69v-2.76m0-263.09v2.7m17,263.15v-2.76m0-263.09v2.7m0,263.15v-2.76m0-263.09v2.7m0,263.15v-2.76m0-263.09v2.7m0,263.15v-2.76m0-263.09v2.7m0,263.15v-2.76m0-263.09v2.7m0,263.15v-2.76m0-263.09v2.7m0,263.15v-2.76m0-263.09v2.7m0,263.15v-2.76m0-263.09v2.7m0,263.15v-5.46m0-260.39v5.41"/><path class="cls-6" d="M496.19,278.69v-2.76m0-263.09v2.7m17,263.15v-2.76m0-263.09v2.7m0,263.15v-2.76m0-263.09v2.7m0,263.15v-2.76m0-263.09v2.7m0,263.15v-2.76m0-263.09v2.7m0,263.15v-2.76m0-263.09v2.7m0,263.15v-2.76m0-263.09v2.7m0,263.15v-2.76m0-263.09v2.7m0,263.15v-2.76m0-263.09v2.7m0,263.15v-5.46m0-260.39v5.41"/><path class="cls-6" d="M530.14,278.69v-2.76m0-263.09v2.7m17,263.15v-2.76m0-263.09v2.7m0,263.15v-2.76m0-263.09v2.7m0,263.15v-2.76m0-263.09v2.7m0,263.15v-2.76m0-263.09v2.7m0,263.15v-2.76m0-263.09v2.7m0,263.15v-2.76m0-263.09v2.7m0,263.15v-2.76m0-263.09v2.7m0,263.15v-2.76m0-263.09v2.7m0,263.15v-5.46m0-260.39v5.41"/><path class="cls-6" d="M564.09,278.69v-2.76m0-263.09v2.7m17,263.15v-2.76m0-263.09v2.7m0,263.15v-2.76m0-263.09v2.7m0,263.15v-2.76m0-263.09v2.7m0,263.15v-2.76m0-263.09v2.7m0,263.15v-2.76m0-263.09v2.7m0,263.15v-2.76m0-263.09v2.7m0,263.15v-2.76m0-263.09v2.7m0,263.15v-2.76m0-263.09v2.7m0,263.15v-5.46m0-260.39v5.41"/><path class="cls-6" d="M37.91,265.36h2.7m540.45,0h-2.75M37.91,252.08h2.7m540.45,0h-2.75m-540.4,0h2.7m540.45,0h-2.75m-540.4,0h2.7m540.45,0h-2.75m-540.4,0h2.7m540.45,0h-2.75m-540.4,0h2.7m540.45,0h-2.75m-540.4,0h2.7m540.45,0h-2.75m-540.4,0h2.7m540.45,0h-2.75m-540.4,0h2.7m540.45,0h-2.75m-540.4,0h5.4m537.75,0h-5.45"/><path class="cls-6" d="M37.91,238.79h2.7m540.45,0h-2.75M37.91,225.51h2.7m540.45,0h-2.75m-540.4,0h2.7m540.45,0h-2.75m-540.4,0h2.7m540.45,0h-2.75m-540.4,0h2.7m540.45,0h-2.75m-540.4,0h2.7m540.45,0h-2.75m-540.4,0h2.7m540.45,0h-2.75m-540.4,0h2.7m540.45,0h-2.75m-540.4,0h2.7m540.45,0h-2.75m-540.4,0h5.4m537.75,0h-5.45"/><path class="cls-6" d="M37.91,212.23h2.7m540.45,0h-2.75M37.91,198.9h2.7m540.45,0h-2.75m-540.4,0h2.7m540.45,0h-2.75m-540.4,0h2.7m540.45,0h-2.75m-540.4,0h2.7m540.45,0h-2.75m-540.4,0h2.7m540.45,0h-2.75m-540.4,0h2.7m540.45,0h-2.75m-540.4,0h2.7m540.45,0h-2.75m-540.4,0h2.7m540.45,0h-2.75m-540.4,0h5.4m537.75,0h-5.45"/><path class="cls-6" d="M37.91,185.61h2.7m540.45,0h-2.75M37.91,172.33h2.7m540.45,0h-2.75m-540.4,0h2.7m540.45,0h-2.75m-540.4,0h2.7m540.45,0h-2.75m-540.4,0h2.7m540.45,0h-2.75m-540.4,0h2.7m540.45,0h-2.75m-540.4,0h2.7m540.45,0h-2.75m-540.4,0h2.7m540.45,0h-2.75m-540.4,0h2.7m540.45,0h-2.75m-540.4,0h5.4m537.75,0h-5.45"/><path class="cls-6" d="M37.91,159.05h2.7m540.45,0h-2.75M37.91,145.77h2.7m540.45,0h-2.75m-540.4,0h2.7m540.45,0h-2.75m-540.4,0h2.7m540.45,0h-2.75m-540.4,0h2.7m540.45,0h-2.75m-540.4,0h2.7m540.45,0h-2.75m-540.4,0h2.7m540.45,0h-2.75m-540.4,0h2.7m540.45,0h-2.75m-540.4,0h2.7m540.45,0h-2.75m-540.4,0h5.4m537.75,0h-5.45"/><path class="cls-6" d="M37.91,132.43h2.7m540.45,0h-2.75M37.91,119.15h2.7m540.45,0h-2.75m-540.4,0h2.7m540.45,0h-2.75m-540.4,0h2.7m540.45,0h-2.75m-540.4,0h2.7m540.45,0h-2.75m-540.4,0h2.7m540.45,0h-2.75m-540.4,0h2.7m540.45,0h-2.75m-540.4,0h2.7m540.45,0h-2.75m-540.4,0h2.7m540.45,0h-2.75m-540.4,0h5.4m537.75,0h-5.45"/><path class="cls-6" d="M37.91,105.87h2.7m540.45,0h-2.75M37.91,92.58h2.7m540.45,0h-2.75m-540.4,0h2.7m540.45,0h-2.75m-540.4,0h2.7m540.45,0h-2.75m-540.4,0h2.7m540.45,0h-2.75m-540.4,0h2.7m540.45,0h-2.75m-540.4,0h2.7m540.45,0h-2.75m-540.4,0h2.7m540.45,0h-2.75m-540.4,0h2.7m540.45,0h-2.75m-540.4,0h5.4m537.75,0h-5.45"/><path class="cls-6" d="M37.91,79.3h2.7m540.45,0h-2.75M37.91,66h2.7m540.45,0h-2.75M37.91,66h2.7m540.45,0h-2.75M37.91,66h2.7m540.45,0h-2.75M37.91,66h2.7m540.45,0h-2.75M37.91,66h2.7m540.45,0h-2.75M37.91,66h2.7m540.45,0h-2.75M37.91,66h2.7m540.45,0h-2.75M37.91,66h2.7m540.45,0h-2.75M37.91,66h5.4m537.75,0h-5.45"/><path class="cls-6" d="M37.91,52.68h2.7m540.45,0h-2.75M37.91,39.4h2.7m540.45,0h-2.75m-540.4,0h2.7m540.45,0h-2.75m-540.4,0h2.7m540.45,0h-2.75m-540.4,0h2.7m540.45,0h-2.75m-540.4,0h2.7m540.45,0h-2.75m-540.4,0h2.7m540.45,0h-2.75m-540.4,0h2.7m540.45,0h-2.75m-540.4,0h2.7m540.45,0h-2.75m-540.4,0h5.4m537.75,0h-5.45"/><path class="cls-6" d="M37.91,26.12h2.7m540.45,0h-2.75M37.91,12.84h2.7m540.45,0h-2.75m-540.4,0h2.7m540.45,0h-2.75m-540.4,0h2.7m540.45,0h-2.75m-540.4,0h2.7m540.45,0h-2.75m-540.4,0h2.7m540.45,0h-2.75m-540.4,0h2.7m540.45,0h-2.75m-540.4,0h2.7m540.45,0h-2.75m-540.4,0h2.7m540.45,0h-2.75m-540.4,0h5.4m537.75,0h-5.45"/><path class="cls-6" d="M37.91,12.84H581.06M37.91,278.69H581.06"/><text class="cls-8" transform="translate(391.66 303.13)"><tspan xml:space="preserve">TW3-C RUS百分位曲线图(男)       年龄(岁)</tspan></text><rect class="cls-15" x="416.4" y="16.79" width="21.66" height="9.95"/><text class="cls-16" transform="translate(417.84 25.11)">97th</text><rect class="cls-15" x="440.03" y="16.79" width="21.66" height="9.95"/><text class="cls-16" transform="translate(441.47 25.11)">90th</text><rect class="cls-15" x="462.13" y="16.79" width="21.66" height="9.95"/><text class="cls-16" transform="translate(463.57 25.11)">75th</text><rect class="cls-15" x="482.63" y="16.79" width="21.66" height="9.95"/><text class="cls-16" transform="translate(484.07 25.11)">50th</text><rect class="cls-15" x="504.74" y="16.79" width="21.66" height="9.95"/><text class="cls-16" transform="translate(506.17 25.11)">25th</text><rect class="cls-15" x="525.78" y="16.79" width="21.66" height="9.95"/><text class="cls-16" transform="translate(527.22 25.11)">10th</text><rect class="cls-15" x="548.01" y="16.79" width="21.66" height="9.95"/><text class="cls-16" transform="translate(549.45 25.11)">3rd</text><path class="cls-6" d="M37.69,12.85H581M37.69,278.59H581"/></svg>