<svg id="图层_1" data-name="图层 1" width="496" height="260" xmlns="http://www.w3.org/2000/svg" xmlns:xlink="http://www.w3.org/1999/xlink" viewBox="0 0 595.28 311.81"><defs><style>.cls-1,.cls-13,.cls-14,.cls-15,.cls-16,.cls-17,.cls-3,.cls-5,.cls-6,.cls-7,.cls-8,.cls-9{fill:none;}.cls-1,.cls-8,.cls-9{stroke:#13b1c1;}.cls-1,.cls-5{stroke-miterlimit:6;}.cls-2{fill:#fff;}.cls-3{stroke:#fff;}.cls-13,.cls-3,.cls-6,.cls-7,.cls-8,.cls-9{stroke-linejoin:round;}.cls-3,.cls-6,.cls-7,.cls-9{stroke-width:0.5px;}.cls-4{opacity:0.2;}.cls-5{stroke:#666;opacity:0.6;}.cls-6{stroke:#69226b;}.cls-7{stroke:#711f73;}.cls-10{writing-mode:tb;text-orientation:upright;glyph-orientation-vertical:0deg;}.cls-10,.cls-11{font-size:10px;fill:#13b1c1;font-family:MicrosoftYaHei, Microsoft YaHei;}.cls-12{clip-path:url(#clip-path);}.cls-13{stroke:#c61a45;}.cls-13,.cls-14,.cls-15,.cls-17{stroke-width:1.2px;}.cls-14{stroke:#e47a32;}.cls-14,.cls-15,.cls-16,.cls-17{stroke-miterlimit:10;}.cls-14,.cls-17{stroke-dasharray:2 1;}.cls-15{stroke:#29a4a3;stroke-dasharray:5 1;}.cls-16{stroke:#138f40;stroke-width:1.6px;}.cls-17{stroke:#198ac9;}.cls-18{font-size:9px;fill:#303131;font-family:PingFangSC-Semibold-GBpc-EUC-H, PingFang SC;}</style><clipPath id="clip-path"><rect class="cls-1" x="37.43" y="13.04" width="543.11" height="265.59"/></clipPath></defs><title>TW3-C Carpal百分位曲线图-处理VI</title><rect class="cls-2" x="37.84" y="12.9" width="543.3" height="265.81"/><polyline class="cls-3" points="37.84 278.71 37.84 12.9 581.14 12.9 581.14 278.71 37.84 278.71"/><g class="cls-4"><path class="cls-5" d="M83.1,278.71V12.9m0,0h0m45.27,265.81V12.9m0,0h0m45.26,265.81V12.9m0,0h0m45.31,265.81V12.9m0,0h0M264.2,278.71V12.9m0,0h0m45.27,265.81V12.9m0,0h0m45.26,265.81V12.9m0,0h0M400,278.71V12.9m0,0h0M445.3,278.71V12.9m0,0h0m45.27,265.81V12.9m0,0h0m45.26,265.81V12.9m0,0h0m45.31,265.81V12.9m0,0h0"/><path class="cls-5" d="M37.84,254.51h543.3m0,0h0M37.84,224.32h543.3m0,0h0M37.84,194.13h543.3m0,0h0M37.84,163.89h543.3m0,0h0M37.84,133.71h543.3m0,0h0M37.84,103.52h543.3m0,0h0M37.84,73.28h543.3m0,0h0M37.84,43.09h543.3m0,0h0M37.84,12.9h543.3m0,0h0"/></g><path class="cls-6" d="M37.84,12.9h543.3M37.84,278.71h543.3"/><path class="cls-7" d="M581.14,278.71V12.9M37.84,278.71V12.9"/><line class="cls-6" x1="37.84" y1="278.71" x2="581.14" y2="278.71"/><line class="cls-7" x1="37.84" y1="278.71" x2="37.84" y2="12.9"/><path class="cls-6" d="M581.14,278.71v-5.48m0-260.33v5.43"/><path class="cls-8" d="M83.1,278.71v-5.48m0-260.33v5.43"/><path class="cls-8" d="M128.37,278.71v-5.48m0-260.33v5.43"/><path class="cls-8" d="M173.63,278.71v-5.48m0-260.33v5.43"/><path class="cls-8" d="M218.94,278.71v-5.48m0-260.33v5.43"/><path class="cls-8" d="M264.2,278.71v-5.48m0-260.33v5.43"/><path class="cls-8" d="M309.47,278.71v-5.48m0-260.33v5.43"/><path class="cls-8" d="M354.73,278.71v-5.48m0-260.33v5.43"/><path class="cls-8" d="M400,278.71v-5.48M400,12.9v5.43"/><path class="cls-8" d="M445.3,278.71v-5.48m0-260.33v5.43"/><path class="cls-8" d="M490.57,278.71v-5.48m0-260.33v5.43"/><path class="cls-8" d="M535.83,278.71v-5.48m0-260.33v5.43"/><path class="cls-8" d="M37.84,254.51h5.41m537.89,0h-5.46"/><path class="cls-8" d="M37.84,224.32h5.41m537.89,0h-5.46"/><path class="cls-8" d="M37.84,194.13h5.41m537.89,0h-5.46"/><path class="cls-8" d="M37.84,163.89h5.41m537.89,0h-5.46"/><path class="cls-8" d="M37.84,133.71h5.41m537.89,0h-5.46"/><path class="cls-8" d="M37.84,103.52h5.41m537.89,0h-5.46"/><path class="cls-8" d="M37.84,73.28h5.41m537.89,0h-5.46"/><path class="cls-8" d="M37.84,43.09h5.41m537.89,0h-5.46"/><path class="cls-7" d="M37.84,12.9h5.41m537.89,0h-5.46"/><path class="cls-9" d="M37.84,12.9h543.3M37.84,278.71h543.3"/><path class="cls-9" d="M581.14,278.71V12.9M37.84,278.71V12.9"/><text class="cls-10" transform="translate(9.62 230.84)">成熟度得分</text><text class="cls-11" transform="translate(80.33 288)">2</text><text class="cls-11" transform="translate(35.05 288)">1</text><text class="cls-11" transform="translate(125.6 288)">3</text><text class="cls-11" transform="translate(170.88 288)">4</text><text class="cls-11" transform="translate(216.16 288)">5</text><text class="cls-11" transform="translate(261.44 288)">6</text><text class="cls-11" transform="translate(306.71 288)">7</text><text class="cls-11" transform="translate(351.99 288)">8</text><text class="cls-11" transform="translate(397.27 288)">9</text><text class="cls-11" transform="translate(439.61 288)">10</text><text class="cls-11" transform="translate(484.89 288)">11</text><text class="cls-11" transform="translate(530.16 288)">12</text><text class="cls-11" transform="translate(575.44 288)">13</text><text class="cls-11" transform="translate(18.89 258.3)">200</text><text class="cls-11" transform="translate(18.89 228.11)">300</text><text class="cls-11" transform="translate(18.89 197.92)">400</text><text class="cls-11" transform="translate(18.89 167.68)">500</text><text class="cls-11" transform="translate(18.89 137.5)">600</text><text class="cls-11" transform="translate(18.89 107.31)">700</text><text class="cls-11" transform="translate(18.89 77.07)">800</text><text class="cls-11" transform="translate(18.89 46.88)">900</text><text class="cls-11" transform="translate(13.18 16.69)">1000</text><text class="cls-11" transform="translate(380.65 303.13)"><tspan xml:space="preserve">TW3-C Carpal百分位曲线图(女)       年龄(岁)</tspan></text><g class="cls-12"><path class="cls-13" d="M105.71,266.43l22.66-.87L151,263.62c33.34-2.87,61.89-15.74,90.53-32.14L264.2,219.1,286.81,205l22.66-14.89,22.65-13.61,22.61-13.66L377.39,148,400,132l22.61-15.66L445.3,99l22.61-18.62,22.66-16.78,22.65-14.74,22.61-12.74L558.49,23.9l22.65-10.28"/><polyline class="cls-14" points="83.1 266.33 105.71 264.02 128.37 262.39 151.02 260.14 173.63 255.17 196.28 245.91 218.94 233.84 241.55 219.05 264.2 203.7 286.81 189.53 309.47 173.77 332.12 160.47 354.73 145.42 377.38 131.25 400.04 115.08 422.65 97.79 445.31 79.93 467.91 63.86 490.57 49.02 513.22 36.64 535.83 25.34 558.49 15.56 564.46 12.9"/><polyline class="cls-15" points="60.45 267.04 83.1 264.38 105.71 261.93 128.37 258.96 151.02 254.56 173.63 246.78 196.28 235.63 218.94 220.64 241.55 203.6 264.2 187.89 286.81 172.54 309.47 157.5 332.12 143.89 354.73 127.31 377.38 110.73 400.04 93.44 422.65 77.73 445.31 62.07 467.91 48.05 490.57 34.95 513.22 24.47 535.83 15.72 544.91 12.9"/><path class="cls-16" d="M37.84,268.43,60.45,265l22.65-3.28,22.61-4.3,22.66-5.47,17-6.14c18.26-6.6,34.61-17.75,50.93-28l22.66-16L241.55,185l22.65-16.73L286.81,152l22.66-16.22,22.65-16.63,22.61-16.93L377.39,85,400,68.88l22.61-14.69L445.3,41.91l22.61-10.18L490.57,21.6l22.65-8.7h0"/><polyline class="cls-15" points="37.84 265.87 60.45 261.26 83.1 256.04 105.71 249.6 128.37 240.79 151.02 228 173.63 212.71 196.28 197.56 218.94 181.85 241.55 165.84 264.2 149.31 286.81 131.91 309.47 113.44 332.12 94.1 354.73 75.99 377.38 60.54 400.04 45.7 422.65 35.06 445.31 24.72 467.91 16.84 479.19 12.9"/><polyline class="cls-17" points="37.84 262.49 60.45 256.35 83.1 248.83 105.71 240.08 128.37 228.62 151.02 212.76 173.63 196.44 196.28 181.24 218.94 166.14 241.55 150.38 264.2 133.76 286.81 115.59 309.47 96.05 332.12 77.63 354.73 61.3 377.38 46.52 400.04 35.16 422.65 24.88 445.31 16.59 462.09 12.9"/><path class="cls-13" d="M37.84,258.09l22.61-8.75,22.65-11,22.61-10.23,22.66-13.1L151,199.56c45.61-31.73,91.89-64,135.79-98.7l22.66-18.42L332.12,66l22.61-15.09,22.66-13.15L400,26.1l22.61-9,14.44-4.25"/></g><rect class="cls-1" x="37.43" y="13.04" width="543.11" height="265.59"/><rect class="cls-2" x="394.58" y="16.07" width="21.66" height="9.95"/><text class="cls-18" transform="translate(396.02 24.39)">97th</text><rect class="cls-2" x="423.21" y="16.07" width="21.66" height="9.95"/><text class="cls-18" transform="translate(424.65 24.39)">90th</text><rect class="cls-2" x="451.32" y="16.07" width="21.66" height="9.95"/><text class="cls-18" transform="translate(452.75 24.39)">75th</text><rect class="cls-2" x="481.82" y="16.07" width="21.66" height="9.95"/><text class="cls-18" transform="translate(483.25 24.39)">50th</text><rect class="cls-2" x="508.92" y="16.07" width="21.66" height="9.95"/><text class="cls-18" transform="translate(510.36 24.39)">25th</text><rect class="cls-2" x="534.97" y="16.07" width="21.66" height="9.95"/><text class="cls-18" transform="translate(536.4 24.39)">10th</text><rect class="cls-2" x="558.2" y="16.07" width="21.66" height="9.95"/><text class="cls-18" transform="translate(559.63 24.39)">3rd</text></svg>